G04 ================== begin FILE IDENTIFICATION RECORD ==================*
G04 Layout Name:  D:/ET_EvilBoard/Layout_V4/EvilSploit_0625A.brd*
G04 Film Name:    2*
G04 File Format:  Gerber RS274X*
G04 File Origin:  Cadence Allegro 16.6-P004*
G04 Origin Date:  Sun Jun 25 07:11:54 2017*
G04 *
G04 Layer:  VIA CLASS/GND*
G04 Layer:  PIN/GND*
G04 Layer:  ETCH/GND*
G04 Layer:  BOARD GEOMETRY/OUTLINE*
G04 *
G04 Offset:    (0.0 0.0)*
G04 Mirror:    No*
G04 Mode:      Positive*
G04 Rotation:  0*
G04 FullContactRelief:  No*
G04 UndefLineWidth:     0.0*
G04 ================== end FILE IDENTIFICATION RECORD ====================*
%FSLAX25Y25*MOIN*%
%IR0*IPPOS*OFA0.00000B0.00000*MIA0B0*SFA1.00000B1.00000*%
%ADD10C,.175*%
%ADD11C,.02*%
%ADD14C,.0354*%
%ADD13C,.0591*%
%ADD12C,.0276*%
%ADD15C,.005*%
%ADD17C,.0404*%
%ADD18C,.048*%
%ADD16C,.0794*%
G75*
%LPD*%
G75*
G36*
G01X167870Y78690D02*
G02X168540Y79940I663J449D01*
G01X170640D01*
G02X171310Y78690I7J-801D01*
G03X177870I3280J-2230D01*
G02X178540Y79940I663J449D01*
G01X180640D01*
G02X181310Y78690I7J-801D01*
G03X187870I3280J-2230D01*
G02X188540Y79940I663J449D01*
G01X190640D01*
G02X191310Y78690I7J-801D01*
G03X192850Y72890I3281J-2233D01*
G02X193180Y71760I-354J-716D01*
G03X196100Y69070I1719J-1064D01*
G01X196150Y69110D01*
X196400Y69200D01*
X196650Y69110D01*
X196700Y69080D01*
G03X198200Y72700I1202J1623D01*
G02X197700Y73990I122J789D01*
G03X197870Y78690I-3111J2466D01*
G02X198540Y79940I663J449D01*
G01X224850D01*
G02X227850Y76940I0J-3000D01*
G01Y-89820D01*
G02X224850Y-92820I-3000J0D01*
G01X188540D01*
G02X187870Y-91570I-7J801D01*
G03X181310I-3280J2230D01*
G02X180640Y-92820I-663J-449D01*
G01X178540D01*
G02X177870Y-91570I-7J801D01*
G03X171310I-3280J2230D01*
G02X170640Y-92820I-663J-449D01*
G01X168540D01*
G02X167870Y-91570I-7J801D01*
G03X161310I-3280J2230D01*
G02X160640Y-92820I-663J-449D01*
G01X158540D01*
G02X157870Y-91570I-7J801D01*
G03X151310I-3280J2230D01*
G02X150640Y-92820I-663J-449D01*
G01X148540D01*
G02X147870Y-91570I-7J801D01*
G03X141310I-3280J2230D01*
G02X140640Y-92820I-663J-449D01*
G01X138540D01*
G02X137870Y-91570I-7J801D01*
G03X131310I-3280J2230D01*
G02X130640Y-92820I-663J-449D01*
G01X128540D01*
G02X127870Y-91570I-7J801D01*
G03X121310I-3280J2230D01*
G02X120640Y-92820I-663J-449D01*
G01X118540D01*
G02X117870Y-91570I-7J801D01*
G03X111310I-3280J2230D01*
G02X110640Y-92820I-663J-449D01*
G01X108540D01*
G02X107870Y-91570I-7J801D01*
G03X101310I-3280J2230D01*
G02X100640Y-92820I-663J-449D01*
G01X98540D01*
G02X97870Y-91570I-7J801D01*
G03X91310I-3280J2230D01*
G02X90640Y-92820I-663J-449D01*
G01X88540D01*
G02X87870Y-91570I-7J801D01*
G03X81310I-3280J2230D01*
G02X80640Y-92820I-663J-449D01*
G01X78540D01*
G02X77870Y-91570I-7J801D01*
G03X71310I-3280J2230D01*
G02X70640Y-92820I-663J-449D01*
G01X68540D01*
G02X67870Y-91570I-7J801D01*
G03X61310I-3280J2230D01*
G02X60640Y-92820I-663J-449D01*
G01X58540D01*
G02X57870Y-91570I-7J801D01*
G03X51310I-3280J2230D01*
G02X50640Y-92820I-663J-449D01*
G01X48540D01*
G02X47870Y-91570I-7J801D01*
G03X41310I-3280J2230D01*
G02X40640Y-92820I-663J-449D01*
G01X28540D01*
G02X27870Y-91570I-7J801D01*
G03X21310I-3280J2230D01*
G02X20640Y-92820I-663J-449D01*
G01X-12440D01*
G02X-15440Y-89820I0J3000D01*
G01Y76940D01*
G02X-12440Y79940I3000J0D01*
G01X30640D01*
G02X31310Y78690I7J-801D01*
G03X37870I3280J-2230D01*
G02X38540Y79940I663J449D01*
G01X50640D01*
G02X51310Y78690I7J-801D01*
G03X57870I3280J-2230D01*
G02X58540Y79940I663J449D01*
G01X60640D01*
G02X61310Y78690I7J-801D01*
G03X67870I3280J-2230D01*
G02X68540Y79940I663J449D01*
G01X70640D01*
G02X71310Y78690I7J-801D01*
G03X77870I3280J-2230D01*
G02X78540Y79940I663J449D01*
G01X80640D01*
G02X81310Y78690I7J-801D01*
G03X87870I3280J-2230D01*
G02X88540Y79940I663J449D01*
G01X90640D01*
G02X91310Y78690I7J-801D01*
G03X97870I3280J-2230D01*
G02X98540Y79940I663J449D01*
G01X100640D01*
G02X101310Y78690I7J-801D01*
G03X107870I3280J-2230D01*
G02X108540Y79940I663J449D01*
G01X110640D01*
G02X111310Y78690I7J-801D01*
G03X117870I3280J-2230D01*
G02X118540Y79940I663J449D01*
G01X120640D01*
G02X121310Y78690I7J-801D01*
G03X127870I3280J-2230D01*
G02X128540Y79940I663J449D01*
G01X130640D01*
G02X131310Y78690I7J-801D01*
G03X137870I3280J-2230D01*
G02X138540Y79940I663J449D01*
G01X140640D01*
G02X141310Y78690I7J-801D01*
G03X147870I3280J-2230D01*
G02X148540Y79940I663J449D01*
G01X150640D01*
G02X151310Y78690I7J-801D01*
G03X157870I3280J-2230D01*
G02X158540Y79940I663J449D01*
G01X160640D01*
G02X161310Y78690I7J-801D01*
G03X167870I3280J-2230D01*
G37*
%LPC*%
G75*
G36*
G01X28340Y-56590D02*
G02X25120Y-56530I-1587J1250D01*
G03X24610Y-56420I-319J-241D01*
G02X21830Y-53750I-965J1778D01*
G02X21380Y-51010I1221J1608D01*
G02X24920Y-49300I1569J1271D01*
G03X25770Y-49930I783J168D01*
G02X27370Y-50500I185J-2012D01*
G03X28390Y-50590I564J567D01*
G02X31440Y-51520I1163J-1651D01*
G02X31860Y-51540I114J-2019D01*
G03X32300Y-51050I55J393D01*
G02X35350Y-52240I1956J510D01*
G03X35150Y-53400I432J-672D01*
G02X31750Y-55550I-1598J-1236D01*
G02X31250Y-55540I-210J2010D01*
G02X28340Y-56590I-1897J700D01*
G37*
G36*
G01X166870Y16070D02*
G02X163770Y15780I-1669J1132D01*
G03X163290Y15840I-280J-287D01*
G02X160290Y17580I-979J1768D01*
G02X162360Y19630I50J2020D01*
G02X163740Y19030I-57J-2018D01*
G03X164220Y18970I280J287D01*
G02X166820Y18400I975J-1769D01*
G03X168130Y18430I644J478D01*
G02X170710Y19110I1677J-1128D01*
G03X171700Y19330I361J712D01*
G02X172390Y16290I1600J-1235D01*
G03X171400Y16070I-361J-712D01*
G02X168180Y16100I-1599J1232D01*
G03X166870Y16070I-644J-478D01*
G37*
G36*
G01X114310Y35880D02*
G02X112870Y38040I-2010J220D01*
G03X113890Y38720I226J766D01*
G02X115330Y36560I2010J-220D01*
G03X114310Y35880I-226J-766D01*
G37*
G36*
G01X133840Y35280D02*
G02X133560Y37690I-1741J1019D01*
G03X134840Y37840I584J549D01*
G02X135120Y35430I1741J-1019D01*
G03X133840Y35280I-584J-549D01*
G37*
G36*
G01X182300Y38620D02*
G02X179920Y41590I-1720J1061D01*
G03X180230Y42920I-253J760D01*
G02X182310Y42440I1425J1430D01*
G03X182000Y41110I253J-760D01*
G02X182040Y41070I-1406J-1446D01*
G03X182710Y41210I292J276D01*
G02X183440Y38850I1890J-708D01*
G03X182300Y38620I-461J-654D01*
G37*
G36*
G01X66920Y-45120D02*
G03X65800Y-45130I-555J-577D01*
G02X65790Y-42230I-1410J1445D01*
G03X66910Y-42220I555J577D01*
G02X66920Y-45120I1410J-1445D01*
G37*
G36*
G01X108350Y-22280D02*
G02X111600Y-24110I1248J-1584D01*
G02X108500Y-25550I-1098J-1692D01*
G02X108140Y-25260I1079J1707D01*
G03X107560I-290J-271D01*
G02X107350Y-22280I-1460J1394D01*
G03X108350I500J631D01*
G37*
G36*
G01X101310Y-8690D02*
G03X101410Y-9170I363J-175D01*
G02X98160Y-11270I-1312J-1534D01*
G02X97550Y-7290I-462J1966D01*
G02X101310Y-8690I1955J-499D01*
G37*
G36*
G01X153520Y11530D02*
G03X154360Y10700I800J-31D01*
G02X151100Y8630I229J-3962D01*
G03X150710Y9740I-706J375D01*
G02X153520Y11530I791J1860D01*
G37*
G36*
G01X166760Y10510D02*
G03X166880Y9980I347J-200D01*
G02X161130Y8690I-2293J-3241D01*
G03X160850Y9770I-692J397D01*
G02X163190Y13050I1048J1727D01*
G03X163710I260J308D01*
G02X166760Y10510I1289J-1554D01*
G37*
G36*
G01X130250Y17380D02*
G02X132990Y17140I1241J-1591D01*
G02X132800Y14250I1310J-1537D01*
G02X130230Y14210I-1309J1539D01*
G03X129730Y14220I-256J-308D01*
G02X127130Y14310I-1247J1590D01*
G03X126640Y14350I-271J-293D01*
G02X124350I-1145J1661D01*
G03X123870Y14330I-227J-332D01*
G02X121200Y14440I-1273J1570D01*
G03X120120Y14470I-556J-573D01*
G02X120200Y17460I-1319J1531D01*
G03X121280Y17430I556J573D01*
G02X123740Y17560I1314J-1531D01*
G03X124220Y17580I227J332D01*
G02X126850Y17510I1274J-1569D01*
G03X127340Y17470I271J293D01*
G02X129750Y17390I1151J-1660D01*
G03X130250Y17380I256J308D01*
G37*
G36*
G01X83130Y23750D02*
G03X82890Y23320I157J-370D01*
G02X80070Y24840I-1992J-321D01*
G03X80310Y25270I-157J370D01*
G02X83410Y27280I1993J321D01*
G03X83900Y27330I213J337D01*
G02X84200Y24190I1409J-1450D01*
G03X83710Y24140I-213J-337D01*
G02X83130Y23750I-1400J1456D01*
G37*
G36*
G01X19620Y31830D02*
G02X19860Y31070I-1768J-976D01*
G02X20550Y27100I194J-2011D01*
G03X20250Y26660I95J-387D01*
G02X16470Y27310I-1998J-300D01*
G02X16300Y29570I1581J1255D01*
G02X16180Y31990I1551J1290D01*
G02X19620Y31830I1769J972D01*
G37*
G36*
G01X122300Y37900D02*
G02X124000Y35600I2000J-300D01*
G02X122300Y37900I-2000J300D01*
G37*
G36*
G01X21870Y43900D02*
G03X20590Y43500I-509J-618D01*
G02X17030Y45260I-1941J555D01*
G02X17060Y47710I1620J1205D01*
G02Y50210I1590J1250D01*
G02X17070Y52710I1591J1244D01*
G02X19870Y55400I1782J947D01*
G02X21060Y51740I1180J-1640D01*
G03X20670Y51360I9J-399D01*
G02X20620Y51020I-2017J123D01*
G03X21270Y50050I781J-180D01*
G02X22200Y49640I-323J-1993D01*
G02X24770Y46660I946J-1782D01*
G02X21870Y43900I-1626J-1195D01*
G37*
G36*
G01X127240Y51570D02*
G02X125450Y48100I-438J-1971D01*
G02X123320Y51400I-1455J1399D01*
G02X127240Y51570I1981J-399D01*
G37*
G36*
G01X205960Y51000D02*
G03X204840I-560J-576D01*
G02Y55000I-1940J2000D01*
G03X205960I560J576D01*
G02X206170Y55190I1973J-1970D01*
G03Y55810I-251J310D01*
G02X209900Y56060I1727J2190D01*
G03Y54940I576J-560D01*
G02X210090Y54730I-1970J-1973D01*
G03X210710I310J251D01*
G02X214840Y55000I2187J-1731D01*
G03X215960I560J576D01*
G02X219840I1940J-2000D01*
G03X220960I560J576D01*
G02X221170Y55190I1973J-1970D01*
G03Y55810I-251J310D01*
G02X224900Y56060I1727J2190D01*
G03Y54940I576J-560D01*
G02X220960Y51000I-2000J-1940D01*
G03X219840I-560J-576D01*
G02X215960I-1940J2000D01*
G03X214840I-560J-576D01*
G02X210960I-1940J2000D01*
G03X209840I-560J-576D01*
G02X205960I-1940J2000D01*
G37*
G36*
G01X159500Y55440D02*
G02X159870Y52600I1599J-1236D01*
G02X159500Y55440I-1599J1236D01*
G37*
G36*
G01X112300Y54240D02*
G02X113250Y57610I-498J1959D01*
G02X112300Y54240I498J-1959D01*
G37*
G36*
G01X84350Y67000D02*
G02X81530Y66730I-1547J1300D01*
G03X81040Y66750I-258J-305D01*
G02X78310Y67120I-1167J1649D01*
G03X77060Y67100I-617J-512D01*
G02X77030Y69620I-1591J1241D01*
G03X78280Y69640I617J512D01*
G02X81140Y69960I1587J-1243D01*
G03X81630Y69950I252J314D01*
G02X84070Y69870I1167J-1649D01*
G02X84350Y67000I1549J-1298D01*
G37*
G36*
G01X58010Y67400D02*
G03X58290Y67810I-118J381D01*
G02X60910Y66070I2012J187D01*
G03X60630Y65660I118J-381D01*
G02X60640Y65400I-2009J-207D01*
G03X60920Y65000I399J-18D01*
G02X58300Y63140I-600J-1930D01*
G03X58020Y63540I-399J18D01*
G02X58010Y67400I598J1932D01*
G37*
G36*
G01X138010Y25780D02*
G02X137970Y25740I-1447J1407D01*
G03X137920Y24630I552J-581D01*
G02X135010Y24760I-1517J-1331D01*
G03X135060Y25870I-552J581D01*
G02X138230Y28360I1517J1331D01*
G03X139350Y28160I659J454D01*
G02X138660Y25670I1151J-1659D01*
G01X138570Y25860D01*
X138160Y25930D01*
X138010Y25780D01*
G37*
G36*
G01X144010Y27310D02*
G03X143990Y28450I-572J560D01*
G02X144290Y31590I1409J1450D01*
G03X144520Y32690I-442J666D01*
G02X144700Y35110I1698J1090D01*
G03X144640Y36230I-601J529D01*
G02X144010Y38030I1367J1489D01*
G03X143050Y38930I-788J121D01*
G02X143310Y42790I-450J1969D01*
G01X143580Y42890D01*
X143650Y43010D01*
G02X146900Y40650I1750J-1007D01*
G03X147070Y39430I591J-539D01*
G02X147530Y36380I-1060J-1720D01*
G03X147590Y35260I601J-529D01*
G02X147330Y32090I-1371J-1483D01*
G03X147100Y30990I441J-666D01*
G02X146840Y28490I-1701J-1087D01*
G03X146860Y27350I572J-560D01*
G02X144010Y27310I-1405J-1450D01*
G37*
G36*
G01X122290Y61970D02*
G02X123560Y60720I-638J-1919D01*
G02X121590Y58030I-62J-2021D01*
G02X119660Y59680I59J2022D01*
G02X122290Y61970I642J1918D01*
G37*
G54D17*
X200950Y64150D03*
X200200Y48000D03*
X195040Y50960D03*
X198300Y36100D03*
X189600Y14700D03*
X176000Y49510D03*
X176040Y22950D03*
X183900Y-6800D03*
X169600Y-24400D03*
X177000Y-26800D03*
X176800Y-46500D03*
X151020Y58230D03*
X143400Y60200D03*
X142100Y67400D03*
X144270Y15970D03*
X149600Y-300D03*
X137500Y-15300D03*
X136500Y-63300D03*
X132500Y30130D03*
X122200Y29900D03*
X103300Y42800D03*
X110500Y23400D03*
X113000Y30700D03*
X103000Y26700D03*
X104450Y13750D03*
X112440Y-33860D03*
X112540Y-38860D03*
X112640Y-43860D03*
X105800Y-57800D03*
X112840Y-48860D03*
X109600Y-78200D03*
X99030Y59680D03*
X100300Y38700D03*
X94900Y14100D03*
X69260Y25670D03*
X83060Y12260D03*
X72850Y-25940D03*
X53650Y68960D03*
X56120Y48070D03*
X57900Y32000D03*
X47420Y52070D03*
X47520Y-38240D03*
X13500Y76300D03*
X1100Y60300D03*
X10330Y70670D03*
X-7160Y50240D03*
X-1250Y38400D03*
X-8200Y22600D03*
X-1400Y-28900D03*
X-10710Y-66290D03*
X141230Y34070D03*
G54D18*
X-2090Y1430D03*
Y-14310D03*
G54D16*
X208670Y38560D03*
Y28560D03*
X218670Y8560D03*
X208670D03*
Y18560D03*
X218670D03*
X208670Y-1440D03*
X218670D03*
X208670Y-21440D03*
X218670D03*
Y-11440D03*
X208670D03*
X218670Y-41440D03*
Y-31440D03*
X208670Y-41440D03*
Y-31440D03*
Y-51440D03*
X218670D03*
X184590Y6740D03*
X174590D03*
X144590D03*
X124590D03*
X134590D03*
X114590D03*
%LPD*%
G75*
G54D10*
X-7800Y-85180D03*
Y72300D03*
X220210Y-85180D03*
Y72300D03*
G54D11*
X-10710Y-66290D03*
X-13900Y-69400D03*
X-1800Y-75400D03*
X-12700Y-74100D03*
X-13800Y-62300D03*
X-13900Y-49500D03*
X-11830Y-58570D03*
X-13800Y-38700D03*
X-13000Y-29700D03*
X-10870Y-42430D03*
X-10520Y-35620D03*
X-1400Y-28900D03*
X-10500Y-26100D03*
X-14870Y-19630D03*
X-15160Y-11160D03*
X-15280Y-1720D03*
X-14150Y6750D03*
X-1700Y20600D03*
X-14600Y26300D03*
X-14200Y30300D03*
X-14600Y34600D03*
X-7550Y37700D03*
X-8200Y22600D03*
X-1250Y38400D03*
X-7160Y50240D03*
X-14200Y39300D03*
X-14400Y43200D03*
X-14300Y51600D03*
X-13900Y56700D03*
X-13000Y61400D03*
X1700Y-80100D03*
X9100Y-88400D03*
X9700Y-91700D03*
X4400Y-91000D03*
X4700Y-86700D03*
X8700Y-65700D03*
X15300Y-79000D03*
X12850Y-71340D03*
X13350Y-65640D03*
X7100Y-57000D03*
X10100Y-55000D03*
X9200Y-47400D03*
X4000D03*
X3500Y-54700D03*
X6800Y-51700D03*
Y-59900D03*
X13450Y-46140D03*
Y-51040D03*
X13350Y-55940D03*
Y-60840D03*
X10200Y-32300D03*
X5600Y-30800D03*
X2400Y-31400D03*
X2200Y-35200D03*
X4800Y-39600D03*
X9400D03*
X6800Y-35100D03*
Y-43400D03*
X13450Y-31340D03*
Y-36240D03*
Y-41240D03*
X15300Y-27100D03*
X11600Y-25900D03*
X8400Y-23700D03*
X9900Y-27900D03*
X2200Y-27500D03*
X4100Y-23500D03*
X6900Y-13500D03*
X6800Y-18500D03*
Y-26800D03*
X-710Y-24390D03*
X10650Y-20540D03*
X13150Y-19140D03*
X10650Y-18240D03*
X13950Y-14640D03*
X11550Y-14040D03*
X12350Y-16640D03*
Y-22140D03*
X7400Y2000D03*
X7600Y4500D03*
X13150Y-11540D03*
X13850Y-8340D03*
X10950Y-8840D03*
Y-4440D03*
X14150Y-4340D03*
X12550Y-6240D03*
X14250Y-340D03*
X12650Y-2240D03*
X14150Y3260D03*
X7700Y7800D03*
X7900Y10800D03*
X8000Y13700D03*
X8100Y16600D03*
X9600Y18600D03*
X11400Y20000D03*
X14500Y21700D03*
X16050Y13760D03*
X13850Y6960D03*
X15150Y8960D03*
X-710Y8030D03*
X9700Y32500D03*
X9600Y36600D03*
X5400Y38000D03*
Y33900D03*
X13750Y35460D03*
Y30460D03*
X9700Y40300D03*
X10000Y45600D03*
X11100Y52500D03*
X5000Y42200D03*
X5400Y46300D03*
X13750Y50160D03*
Y45260D03*
Y40360D03*
X10330Y70670D03*
X1100Y60300D03*
X2400Y78800D03*
X13500Y76300D03*
X18500Y-85200D03*
X16400Y-70900D03*
X31500D03*
X26600Y-71700D03*
X21900Y-72200D03*
X18300Y-78800D03*
X16400Y-75100D03*
X23100Y-77200D03*
X28900Y-75800D03*
X16950Y-67440D03*
X20150Y-64240D03*
X16950Y-62540D03*
Y-52740D03*
Y-47840D03*
X29350Y-54840D03*
X25950Y-51940D03*
X26750Y-55340D03*
X23650Y-54640D03*
X23050Y-52140D03*
X22950Y-49740D03*
X29550Y-52240D03*
X31550Y-53540D03*
X20500Y-35500D03*
X16950Y-37940D03*
X16850Y-33040D03*
X20450Y-29140D03*
X18490Y-26900D03*
X30050Y-5740D03*
X30350Y-2740D03*
X17400Y21600D03*
X31000Y20600D03*
X22450Y13860D03*
X19350Y13760D03*
X27550Y9060D03*
X24650D03*
X21550D03*
X18450Y8960D03*
X23150Y10960D03*
X20050Y10860D03*
X16750D03*
X24640Y37770D03*
X30880Y26230D03*
X17950Y32960D03*
X20050Y29060D03*
X17850Y30860D03*
X18050Y28560D03*
X18250Y26360D03*
X23150Y45460D03*
Y47860D03*
X18650Y44060D03*
Y46460D03*
Y48960D03*
Y51460D03*
X21050Y53760D03*
X18850Y53660D03*
X20940Y48060D03*
X31620Y50830D03*
X40700Y-80100D03*
X48800Y-80200D03*
X45200D03*
X34550Y-76840D03*
X34050Y-64240D03*
X33550Y-54640D03*
X34260Y-50540D03*
X47520Y-38240D03*
X33250Y-24840D03*
X35350Y-24340D03*
X35250Y-22240D03*
X33250Y-21540D03*
X47020Y-1240D03*
X34450Y20460D03*
X37550Y20560D03*
X40650D03*
X43550D03*
X46350Y20460D03*
X46650Y13760D03*
X43950Y13860D03*
X41050D03*
X37950D03*
X47350Y10860D03*
X44550Y10960D03*
X41650D03*
X42160Y23960D03*
X47420Y52070D03*
X41320Y40860D03*
X40820Y66870D03*
X62050Y-36140D03*
Y-31040D03*
X65370Y-33580D03*
X64390Y-43680D03*
X65250Y20460D03*
X52750Y20560D03*
X55850D03*
X58750D03*
X61950Y20460D03*
X65050Y13560D03*
X61750D03*
X59050Y13860D03*
X56150D03*
X53050D03*
X49950Y13760D03*
X64150Y8760D03*
X60850D03*
X66250Y10860D03*
X62950D03*
X59750Y10960D03*
X56850D03*
X53750D03*
X50650Y10860D03*
X65050Y4860D03*
X62690Y5000D03*
X54500Y32100D03*
X51320Y29370D03*
X57900Y32000D03*
X56120Y48070D03*
X66020Y39570D03*
X58620Y65470D03*
X56250Y67260D03*
X64850Y68060D03*
X60320Y63070D03*
X53650Y68960D03*
X60300Y68000D03*
X81400Y-78500D03*
X71900Y-78400D03*
X67950Y-30940D03*
X68050Y-36140D03*
X68320Y-43670D03*
X72850Y-25940D03*
X83060Y12260D03*
X68050Y20460D03*
X74150Y13660D03*
X71250D03*
X68150D03*
X73250Y8860D03*
X70350D03*
X67250D03*
X75350Y10960D03*
X72450D03*
X69350D03*
X67250Y4960D03*
X76150Y5460D03*
X79550Y7760D03*
X83250Y5160D03*
X69450Y4860D03*
X71790Y5020D03*
X80890Y5320D03*
X80900Y23000D03*
X69260Y25670D03*
X82300Y25590D03*
X81300Y42600D03*
X69220Y39270D03*
X82350Y51660D03*
X73640D03*
X71890Y44200D03*
X79870Y68400D03*
X75470Y68340D03*
X70600Y68200D03*
X75250Y58060D03*
X82800Y68300D03*
X90800Y-78400D03*
X98800Y-71600D03*
X92100Y-71700D03*
X89000Y-71500D03*
X94480Y-34320D03*
X99200Y-1900D03*
X97700Y-9300D03*
X99500Y-7800D03*
X100100Y-10700D03*
X94900Y21700D03*
Y14100D03*
X96700Y28500D03*
X88220Y25570D03*
X85310Y25880D03*
X100300Y38700D03*
X89920Y55400D03*
X100500Y47900D03*
X99030Y59680D03*
X89250Y67960D03*
X85620Y68570D03*
X112600Y-80500D03*
X112400Y-83600D03*
X112600Y-77400D03*
X112400Y-75000D03*
X101000Y-71700D03*
X109600Y-78200D03*
X112840Y-48860D03*
X105800Y-57800D03*
X112640Y-43860D03*
X112540Y-38860D03*
X112440Y-33860D03*
X109600Y-23860D03*
X110500Y-25800D03*
X106100Y-23860D03*
X116600Y-8100D03*
X112500Y1800D03*
X114600D03*
X114050Y-9440D03*
X109400Y-6300D03*
X111900Y-9300D03*
X112050Y-7140D03*
X115200Y-600D03*
X104450Y13750D03*
X112300Y36100D03*
X103000Y26700D03*
Y32300D03*
X113400Y33500D03*
X115900Y38500D03*
X113000Y30700D03*
X110500Y23400D03*
X103300Y42800D03*
X111800Y56200D03*
X113750Y55650D03*
X129500Y-90000D03*
X119500Y-91000D03*
Y-88300D03*
X118500Y-72700D03*
Y-75000D03*
X123400Y-73400D03*
Y-75900D03*
X134200Y-76800D03*
X118500Y-79600D03*
X133200Y-51100D03*
X130650Y-53640D03*
X132700Y-41800D03*
X130650Y-45040D03*
X130700Y-32600D03*
X133800Y-25900D03*
X118100Y-10500D03*
X122700Y-3600D03*
X125800Y1300D03*
X123400Y1400D03*
X118300Y-1100D03*
X119600Y6700D03*
X134300Y15600D03*
X125490Y16010D03*
X118800Y16000D03*
X131490Y15790D03*
X128490Y15810D03*
X122600Y15900D03*
X122000Y35900D03*
X132100Y36300D03*
X133100Y33500D03*
X123300Y33400D03*
X122200Y29900D03*
X132500Y30130D03*
X124300Y37600D03*
X120200Y45300D03*
X124000Y49500D03*
X126800Y49600D03*
X125300Y51000D03*
X126000Y65800D03*
X123500Y58700D03*
X120300Y61600D03*
X121650Y60050D03*
X139500Y-90700D03*
X139400Y-88100D03*
X136500Y-63300D03*
X143800Y-50200D03*
X141600Y-45300D03*
X145200Y-41300D03*
X142800Y-36400D03*
X142600Y-32000D03*
X137200Y-31400D03*
X137500Y-15300D03*
X140300Y-26600D03*
X146700Y-16800D03*
X149600Y-300D03*
X144270Y15970D03*
X139600Y5900D03*
Y8500D03*
X145450Y25900D03*
X141230Y34070D03*
X140890Y23590D03*
X136400Y23300D03*
X140500Y26500D03*
X145400Y29900D03*
X146010Y37710D03*
X146220Y33780D03*
X136580Y36820D03*
Y27200D03*
X135900Y41900D03*
X145400Y42000D03*
X142600Y40900D03*
X142100Y67400D03*
X143400Y60200D03*
X151020Y58230D03*
X156100Y-79600D03*
X154900Y-58300D03*
X161000Y-51000D03*
X164700Y-59500D03*
X162900Y-47200D03*
X156900Y-49300D03*
X165500Y-43300D03*
X154600Y-44400D03*
X152600Y-35500D03*
X162100Y-35400D03*
X156500Y-39100D03*
X159600Y-41500D03*
X163700Y-39000D03*
Y-30400D03*
X154400Y-30200D03*
X158400Y-32800D03*
X161500Y-18500D03*
X163700Y-16800D03*
X164000Y-13500D03*
X157600Y-13700D03*
X162800Y-27300D03*
X157600Y-25000D03*
X160700Y-300D03*
X161900Y11500D03*
X162310Y17610D03*
X165200Y17200D03*
X160340Y19600D03*
X151500Y11600D03*
X165000Y11500D03*
X163290Y36730D03*
X168290Y31200D03*
X153950Y31760D03*
X158270Y53840D03*
X168290Y45300D03*
X160310Y45420D03*
X161100Y54200D03*
X152400Y69200D03*
X155150Y64690D03*
X171550Y-61340D03*
X173250Y-57540D03*
X176800Y-46500D03*
X177000Y-26800D03*
X169600Y-24400D03*
X183900Y-6800D03*
X173300Y18100D03*
X169800Y17300D03*
X176040Y22950D03*
X176000Y49510D03*
X173050Y43060D03*
X184600Y40500D03*
X181650Y44350D03*
X180580Y39680D03*
X179800Y65800D03*
X170650Y60760D03*
X184400Y64000D03*
X196100Y-83400D03*
X188200Y-83100D03*
X192400Y-83200D03*
X201500Y-89100D03*
X201150Y-82040D03*
X200700Y-78000D03*
X199100Y-75000D03*
X196450Y-78740D03*
X192800Y-46600D03*
Y-26500D03*
X192600Y-6800D03*
X189600Y14700D03*
X193300Y22100D03*
X198300Y36100D03*
X195040Y50960D03*
X198390Y39090D03*
X200200Y48000D03*
X200950Y64150D03*
X197900Y70700D03*
X194900D03*
X209400Y-91200D03*
X206200Y-88100D03*
X208600Y-85800D03*
X203850Y-80440D03*
X206800Y-78800D03*
X204300Y-71000D03*
X211000Y-75800D03*
X214400Y-65700D03*
X215700Y-70400D03*
X203150Y-74640D03*
X210350Y-64840D03*
X208350Y-70340D03*
X214100Y-57500D03*
X219000Y-58900D03*
X215100Y-61100D03*
X217700Y34000D03*
X216900Y44300D03*
X207160Y67140D03*
X209700Y72800D03*
X207000Y74000D03*
X210700Y77500D03*
X206600Y78200D03*
X221600Y-73200D03*
X225400Y-71000D03*
X220400Y-66900D03*
X223900Y-63000D03*
X226650Y-58340D03*
Y-48540D03*
Y-38640D03*
Y-28840D03*
Y-19040D03*
Y-9140D03*
Y660D03*
Y10460D03*
X222300Y33800D03*
X226650Y25360D03*
Y35160D03*
X221600Y44600D03*
X226650Y44960D03*
G54D12*
X-2090Y-14310D03*
Y1430D03*
G54D13*
X24590Y-89340D03*
X34590D03*
Y76460D03*
X24590D03*
X44590Y-89340D03*
Y76460D03*
X54590Y-89340D03*
X64590D03*
X54590Y76460D03*
X64590D03*
X74590Y-89340D03*
X84590D03*
X74590Y76460D03*
X84590D03*
X94590Y-89340D03*
Y76460D03*
X114590Y-89340D03*
X104590D03*
X114590Y6740D03*
X104590Y76460D03*
X114590D03*
X134590Y-89340D03*
X124590D03*
X134590Y6740D03*
X124590D03*
Y76460D03*
X134590D03*
X144590Y-89340D03*
Y6740D03*
Y76460D03*
X164590Y-89340D03*
X154590D03*
X164590Y6740D03*
X154590D03*
Y76460D03*
X164590D03*
X174590Y-89340D03*
X184590D03*
X174590Y6740D03*
X184590D03*
X174590Y76460D03*
X184590D03*
X194590Y-89340D03*
Y76460D03*
X218670Y-51440D03*
X208670D03*
Y-31440D03*
Y-41440D03*
X218670Y-31440D03*
Y-41440D03*
X208670Y-11440D03*
X218670D03*
Y-21440D03*
X208670D03*
X218670Y-1440D03*
X208670D03*
X218670Y18560D03*
X208670D03*
Y8560D03*
X218670D03*
Y38560D03*
X208670Y28560D03*
X218670D03*
X208670Y38560D03*
G54D14*
X202900Y53000D03*
Y58000D03*
X207900Y53000D03*
X212900D03*
X217900D03*
X207900Y58000D03*
X212900D03*
X217900D03*
X222900Y53000D03*
Y58000D03*
G54D15*
G01X29250Y16260D02*
X20550D01*
G01X18150Y16160D02*
X20450D01*
G01X204550Y-66640D02*
X208230Y-62960D01*
X220210Y-85180D01*
M02*
