G04 ================== begin FILE IDENTIFICATION RECORD ==================*
G04 Layout Name:  D:/ET_EvilBoard/Layout_V4/EvilSploit_0625A.brd*
G04 Film Name:    3*
G04 File Format:  Gerber RS274X*
G04 File Origin:  Cadence Allegro 16.6-P004*
G04 Origin Date:  Sun Jun 25 07:11:54 2017*
G04 *
G04 Layer:  VIA CLASS/POWER*
G04 Layer:  PIN/POWER*
G04 Layer:  ETCH/POWER*
G04 Layer:  BOARD GEOMETRY/OUTLINE*
G04 *
G04 Offset:    (0.0 0.0)*
G04 Mirror:    No*
G04 Mode:      Positive*
G04 Rotation:  0*
G04 FullContactRelief:  No*
G04 UndefLineWidth:     0.0*
G04 ================== end FILE IDENTIFICATION RECORD ====================*
%FSLAX25Y25*MOIN*%
%IR0*IPPOS*OFA0.00000B0.00000*MIA0B0*SFA1.00000B1.00000*%
%ADD10C,.175*%
%ADD11C,.02*%
%ADD14C,.0354*%
%ADD13C,.0591*%
%ADD12C,.0276*%
%ADD15C,.01*%
%ADD17C,.0404*%
%ADD16C,.044*%
%ADD18C,.0364*%
%ADD19C,.0794*%
G75*
%LPD*%
G75*
G36*
G01X-12440Y-92820D02*
G02X-15440Y-89820I0J3000D01*
G01Y76940D01*
G02X-12440Y79940I3000J0D01*
G01X30640D01*
G02X31310Y78690I7J-801D01*
G03X37870I3280J-2230D01*
G02X38540Y79940I663J449D01*
G01X48990D01*
Y72360D01*
X48300Y71670D01*
X43380D01*
X43330Y71610D01*
X18900D01*
X16100Y74410D01*
G02X15360Y75520I-1J801D01*
G03X11640I-1860J780D01*
G02X10900Y74410I-739J-309D01*
G01X9100D01*
X-14310Y51000D01*
Y-68500D01*
X-9500Y-73310D01*
X-3000D01*
X15140Y-91450D01*
G02X14580Y-92820I-562J-570D01*
G01X-12440D01*
G37*
G36*
G01X17900Y-92500D02*
X90Y-74690D01*
X60Y-74620D01*
G03X-1020Y-73540I-1860J-780D01*
G01X-1090Y-73510D01*
X-2500Y-72100D01*
X-9000D01*
X-11880Y-69220D01*
X-11900Y-69090D01*
G03X-12900Y-67650I-1995J-318D01*
G01X-13100Y-67530D01*
Y-64210D01*
X-12880Y-64100D01*
G03X-11910Y-61590I-921J1798D01*
G02X-11350Y-60530I749J282D01*
G03X-12170Y-56580I-494J1958D01*
G02X-13100Y-55790I-130J789D01*
G01Y-51370D01*
X-12900Y-51250D01*
G03Y-47750I-1000J1750D01*
G01X-13100Y-47630D01*
Y-44860D01*
G02X-11890Y-44170I801J2D01*
G03X-11060Y-40420I1022J1741D01*
G02X-11890Y-39360I-75J796D01*
G03X-11790Y-38480I-1909J663D01*
G02X-10860Y-37610I795J82D01*
G03X-11800Y-34050I337J1993D01*
G02X-13100Y-33430I-502J620D01*
G01Y-31750D01*
X-12750Y-31700D01*
G03X-11060Y-29140I-250J2003D01*
G02X-10350Y-28110I768J231D01*
G03X-11790Y-24550I-146J2012D01*
G02X-13100Y-23930I-509J618D01*
G01Y-20610D01*
X-13060Y-20520D01*
G03Y-18740I-1810J890D01*
G01X-13100Y-18650D01*
Y5020D01*
G03Y8480I-1050J1730D01*
G01Y24950D01*
G03Y27650I-1500J1350D01*
G01Y28610D01*
G03Y31990I-1100J1690D01*
G01Y33250D01*
G03Y35950I-1500J1350D01*
G01Y37610D01*
G03Y40990I-1100J1690D01*
G01Y41640D01*
X-12980Y41760D01*
G03X-13100Y44750I-1419J1440D01*
G01Y49980D01*
G03X-12320Y51180I-1194J1629D01*
G01X-12300Y51300D01*
X9600Y73200D01*
X15600D01*
X18400Y70400D01*
X43900D01*
X43950Y70460D01*
X48800D01*
X50200Y71860D01*
Y79200D01*
X51200Y80200D01*
X56300D01*
X58800Y77700D01*
Y72960D01*
X61300Y70460D01*
X62530D01*
G02X63190Y69210I-1J-800D01*
G03X63120Y69100I1668J-1139D01*
G02X61780Y69050I-686J415D01*
G03X58760Y68970I-1483J-1052D01*
G02X57570Y68790I-674J430D01*
G03X55850Y69240I-1319J-1530D01*
G02X55380Y69510I-88J392D01*
G03X53840Y67150I-1733J-552D01*
G02X54270Y66840I41J-396D01*
G03X58020Y66290I1977J419D01*
G02X59210Y66550I706J-380D01*
G03X61810Y66990I1091J1453D01*
G02X63150Y66970I663J-449D01*
G03X66510Y69210I1700J1090D01*
G02X67170Y70460I661J450D01*
G01X68190D01*
G02X68870Y69250I-4J-798D01*
G03X72330I1730J-1050D01*
G02X73010Y70460I684J412D01*
G01X77570D01*
G02X78270Y69280I0J-798D01*
G03X81020Y66990I1594J-882D01*
G02X81550Y66980I259J-305D01*
G03X81860Y66740I1262J1310D01*
G02X82010Y65490I-413J-684D01*
G01X81200Y64680D01*
X61170D01*
X61090Y64720D01*
G03X58670Y62300I-770J-1650D01*
G01X58710Y62220D01*
Y35090D01*
X57360Y33740D01*
X57280Y33710D01*
G03X56870Y33500I618J-1711D01*
G02X55880Y33580I-445J663D01*
G03X52480Y32150I-1379J-1478D01*
G02X51580Y31370I-800J14D01*
G03X53340Y29320I-259J-2003D01*
G02X54240Y30100I800J-14D01*
G03X55790Y30540I269J2002D01*
G02X56790Y30560I512J-613D01*
G03X58670Y30350I1113J1440D01*
G01X58750Y30390D01*
X82130D01*
X83700Y28820D01*
Y28140D01*
G02X82720Y27360I-800J0D01*
G03X80530Y25180I-418J-1770D01*
G02X80280Y24710I-390J-94D01*
G03X82670Y23410I618J-1710D01*
G02X82920Y23880I390J94D01*
G03X83660Y24380I-618J1712D01*
G02X84200Y24430I297J-265D01*
G03X86220Y24300I1107J1448D01*
G02X86720Y24220I201J-345D01*
G03X87860Y27560I1501J1352D01*
G02X86920Y28350I-141J787D01*
G01Y30160D01*
X83470Y33610D01*
X61930D01*
Y61460D01*
X82540D01*
X87230Y66150D01*
Y66560D01*
X87780D01*
X87900Y66460D01*
G03X90860Y69180I1348J1503D01*
G02X91500Y70460I639J480D01*
G01X149620D01*
G02X150410Y69530I0J-801D01*
G03X154390I1990J-330D01*
G02X155180Y70460I790J129D01*
G01X184850D01*
X185000Y70610D01*
X193050D01*
X193120Y70300D01*
G03X196130Y69360I1777J400D01*
G02X196670I270J-296D01*
G03X199680Y70300I1233J1340D01*
G01X199750Y70610D01*
X210580D01*
X210650Y70290D01*
G03X218430Y62690I9563J2007D01*
G01X218550Y62670D01*
X219220Y62000D01*
X225600D01*
X226700Y60900D01*
Y48900D01*
X225300Y47500D01*
X213400D01*
X212460Y46560D01*
X212850Y46160D01*
Y39160D01*
X210150Y36460D01*
X205450D01*
X203550Y34560D01*
Y29750D01*
X202300Y28500D01*
X195440D01*
X187100Y20160D01*
X173500D01*
X170600Y23060D01*
X154260D01*
X146100Y14900D01*
X143700D01*
X141100Y17500D01*
Y20400D01*
X142900Y22200D01*
Y23410D01*
G03Y23770I-2010J180D01*
G01Y28900D01*
X139800Y32000D01*
X135830D01*
G02X135060Y33000I3J799D01*
G03X131140I-1960J500D01*
G02X130370Y32000I-773J-201D01*
G01X129710D01*
Y42670D01*
X127860Y44520D01*
X128610Y45260D01*
Y49430D01*
G03Y49770I-1810J170D01*
G01Y50640D01*
X126540Y52710D01*
X125930D01*
X125860Y52730D01*
G03X124740I-560J-1730D01*
G01X124670Y52710D01*
X123860D01*
X121390Y50240D01*
Y48090D01*
G02X120480Y47300I-800J2D01*
G03X121800Y44070I-281J-2000D01*
G02X123000Y44150I635J-486D01*
G01X123660Y43490D01*
X124330D01*
X126490Y41330D01*
Y39820D01*
G02X125270Y39140I-800J1D01*
G03X122860Y36490I-968J-1540D01*
G02X122530Y35270I-638J-482D01*
G03X121290Y33190I770J-1869D01*
G02X120500Y32310I-795J-80D01*
G01X116190D01*
G02X115400Y33220I2J800D01*
G03X111660Y32480I-1999J282D01*
G01X111810Y32210D01*
X110230Y30630D01*
G02X108860Y31190I-570J561D01*
G01Y39780D01*
X115360Y46280D01*
Y54800D01*
X115400Y54880D01*
G03X114820Y57120I-1650J768D01*
G03X113500Y57810I-1320J-918D01*
G01X112650D01*
X112570Y57850D01*
G03X111750Y54380I-769J-1650D01*
G02X112140Y53980I-10J-400D01*
G01Y47620D01*
X105640Y41120D01*
Y34440D01*
G02X104320Y33830I-800J-3D01*
G03Y30770I-1320J-1530D01*
G02X105640Y30160I520J-607D01*
G01Y26040D01*
X104800Y25200D01*
Y23280D01*
X101820Y20300D01*
X97660D01*
G02X96870Y21270I-7J801D01*
G03X92960Y21130I-1973J431D01*
G02X92190Y20110I-768J-221D01*
G01X91830D01*
X85690Y13970D01*
Y11390D01*
X85300Y11000D01*
Y9800D01*
X82300D01*
X80000Y12100D01*
Y16560D01*
X79760Y16800D01*
X76160D01*
X69900Y23060D01*
X69070D01*
Y23820D01*
X69430Y23860D01*
G03X67940Y24410I-178J1812D01*
G02X67370Y23060I-576J-552D01*
G01X44980D01*
G02X44180Y23890I-1J799D01*
G03X40180Y23540I-2021J63D01*
G01X40190Y23500D01*
Y23060D01*
X39250D01*
Y25260D01*
X29650Y34860D01*
X22150D01*
X15350Y41660D01*
Y42050D01*
X14700Y42700D01*
X14440D01*
Y43350D01*
X14660Y43460D01*
G03X12540Y46880I-910J1803D01*
G02X11480Y46980I-474J642D01*
G03X8520I-1480J-1380D01*
G02X7220Y47180I-581J547D01*
G03X3880Y44970I-1818J-881D01*
G02X3770Y43800I-596J-534D01*
G03X3810Y40570I1231J-1600D01*
G02X3920Y39380I-473J-644D01*
G03X4010Y36530I1478J-1380D01*
G02Y35370I-546J-580D01*
G03X4980Y31920I1388J-1471D01*
G01X5300Y31860D01*
Y27970D01*
X-5110D01*
X-8740Y24340D01*
X-8820Y24310D01*
G03X-6490Y21980I620J-1710D01*
G01X-6460Y22060D01*
X-3770Y24750D01*
X5300D01*
Y-12270D01*
G03Y-14730I1600J-1230D01*
G01Y-17150D01*
G03Y-19850I1500J-1350D01*
G01Y-20710D01*
G02X4390Y-21500I-799J2D01*
G03X2290Y-24400I-291J-2000D01*
G02X1750Y-25530I-718J-351D01*
G03X1690Y-25550I606J-1918D01*
G02X1210Y-25030I-103J387D01*
G03X-630Y-26410I-1918J640D01*
G02X190Y-27290I25J-798D01*
G03X820Y-28970I2009J-205D01*
G02X870Y-30080I-551J-581D01*
G03X840Y-32680I1530J-1318D01*
G02X780Y-33760I-618J-507D01*
G03X3870Y-36330I1416J-1440D01*
G02X5180Y-36300I666J-448D01*
G03X5210Y-36350I1747J1014D01*
G01X5300Y-36460D01*
Y-36800D01*
G02X4590Y-37590I-799J4D01*
G03X4360Y-41570I211J-2009D01*
G02X4920Y-42650I-180J-778D01*
G03X5210Y-44650I1879J-749D01*
G01X5300Y-44760D01*
Y-45550D01*
X4820D01*
X4750Y-45520D01*
G03X4360Y-49390I-746J-1879D01*
G02X5300Y-50170I141J-786D01*
G01Y-50340D01*
X5210Y-50450D01*
G03X4790Y-51860I1593J-1242D01*
G02X3850Y-52710I-798J-62D01*
G03X4080Y-56640I-346J-1992D01*
G02X5100Y-57290I230J-764D01*
G03X5260Y-57840I2001J284D01*
G01X5300Y-57920D01*
Y-58540D01*
X5210Y-58650D01*
G03X5300Y-61250I1590J-1247D01*
G01Y-62300D01*
X7250Y-64250D01*
X7060Y-64530D01*
G03X9870Y-67340I1640J-1170D01*
G01X10150Y-67150D01*
X11610Y-68610D01*
G02X11560Y-69790I-565J-567D01*
G03X14310Y-72730I1290J-1550D01*
G02X15320Y-72610I578J-554D01*
G03X15400Y-72650I940J1780D01*
G02Y-73350I-202J-350D01*
G03X14650Y-76120I998J-1757D01*
G02X14340Y-77220I-690J-399D01*
G03X16660Y-80500I969J-1775D01*
G02X17150Y-80460I271J-293D01*
G03X20300Y-79100I1152J1660D01*
G02X21650Y-78650I790J-120D01*
G01X28300Y-85300D01*
Y-91400D01*
X27200Y-92500D01*
X17900D01*
G37*
G36*
G01X29510Y-84800D02*
X6510Y-61800D01*
Y24350D01*
X14340D01*
Y19660D01*
X26640Y7360D01*
Y-38340D01*
X25550Y-39430D01*
X21550D01*
X19340Y-41640D01*
Y-55850D01*
X22100Y-58610D01*
X35790D01*
Y-83380D01*
X40740Y-88340D01*
X40700Y-88550D01*
G03X41310Y-91570I3890J-786D01*
G02X40640Y-92820I-663J-449D01*
G01X29560D01*
G02X29270Y-92140I-4J400D01*
G01X29510Y-91900D01*
Y-84800D01*
G37*
G36*
G01X6510Y28370D02*
Y36300D01*
X11700Y41490D01*
X14140D01*
Y41160D01*
X17920Y37380D01*
G02X17360Y36010I-562J-570D01*
G01X16800D01*
X14340Y33550D01*
Y28370D01*
X6510D01*
G37*
G36*
G01X22600Y-57400D02*
X20550Y-55350D01*
Y-42140D01*
X22050Y-40640D01*
X26050D01*
X27850Y-38840D01*
Y-8190D01*
G02X29050Y-7490I801J5D01*
G03X31750Y-4650I999J1754D01*
G02X31800Y-4150I334J219D01*
G03X29130Y-1130I-1445J1413D01*
G02X27850Y-490I-480J639D01*
G01Y480D01*
X28430D01*
X28550Y610D01*
G02X28600Y670I1577J-1263D01*
G03X28650Y1170I-284J281D01*
G02X28600Y1260I1739J1025D01*
G01X28480Y1460D01*
X27850D01*
Y7040D01*
X28130Y7130D01*
G03X26340Y10680I-579J1934D01*
G02X25860I-240J317D01*
G03X25170Y11010I-1201J-1624D01*
G03X24400Y12540I-2018J-57D01*
G02X24290Y13020I253J311D01*
G03X21110Y15370I-1838J840D01*
G02X20590Y15350I-272J295D01*
G03X20130Y15620I-1242J-1590D01*
G01X20060Y15650D01*
X17430Y18280D01*
G02X17830Y19630I566J567D01*
G03X16250Y23260I-427J1973D01*
G02X15770Y23270I-233J325D01*
G03X15550Y23430I-1296J-1551D01*
G01Y29540D01*
X15590Y29620D01*
G03Y31300I-1840J840D01*
G01X15550Y31380D01*
Y33050D01*
X17300Y34800D01*
X18700D01*
X23640Y29860D01*
X25050D01*
X27350Y27560D01*
Y23160D01*
X29120Y21390D01*
X29060Y21160D01*
G03X31560Y18660I1940J-560D01*
G01X31790Y18720D01*
X36020Y14490D01*
X35970Y14280D01*
G03X38370Y11880I1980J-420D01*
G01X38580Y11930D01*
X39630Y10880D01*
X39640Y10740D01*
G03X40560Y9260I2008J222D01*
G01X40750Y9140D01*
Y-51650D01*
X35000Y-57400D01*
X22600D01*
G37*
G36*
G01X43590Y-85490D02*
X39810Y-81720D01*
Y-54300D01*
X41960Y-52150D01*
Y10260D01*
X28560Y23660D01*
Y28060D01*
X25550Y31070D01*
X24140D01*
X22930Y32280D01*
G02X23490Y33650I562J570D01*
G01X29150D01*
X38040Y24760D01*
Y21850D01*
X69400D01*
X75660Y15590D01*
X78790D01*
Y11600D01*
X81800Y8590D01*
X85290D01*
Y5370D01*
X92890Y-2230D01*
Y-17130D01*
X99790Y-24030D01*
Y-36170D01*
X58220Y-77740D01*
X53350D01*
X45590Y-85490D01*
X45380Y-85450D01*
G03X43800I-790J-3890D01*
G01X43590Y-85490D01*
G37*
G36*
G01X58440Y-88340D02*
X64860Y-81910D01*
X66430D01*
X92430Y-55910D01*
X103210D01*
G02X103950Y-57020I1J-801D01*
G03X103790Y-57800I1849J-786D01*
G01Y-66190D01*
X86380D01*
X66640Y-85930D01*
X66380Y-85800D01*
G03X61310Y-91570I-1786J-3543D01*
G02X60640Y-92820I-663J-449D01*
G01X58540D01*
G02X57870Y-91570I-7J801D01*
G03X58480Y-88550I-3280J2234D01*
G01X58440Y-88340D01*
G37*
G36*
G01X78540Y-92820D02*
G02X77870Y-91570I-7J801D01*
G03X74770Y-85370I-3282J2234D01*
G02X74240Y-84010I38J798D01*
G01X88040Y-70210D01*
X105070D01*
X106970Y-72110D01*
X150930D01*
X161910Y-61130D01*
Y-57430D01*
X171610Y-47730D01*
Y-24400D01*
G03X167590I-2010J0D01*
G01Y-46070D01*
X157890Y-55770D01*
Y-59470D01*
X149270Y-68090D01*
X145280D01*
G02X144720Y-66720I3J801D01*
G01X151610Y-59830D01*
Y-300D01*
Y-240D01*
G02X152410Y590I799J30D01*
G01X158430D01*
X161010Y3170D01*
Y4140D01*
X161580D01*
X161700Y4020D01*
G03X166880Y9980I2894J2716D01*
G02X166760Y10510I227J330D01*
G03X167020Y11590I-1759J995D01*
G02X167820Y12420I799J31D01*
G01X189840D01*
X194310Y7950D01*
X174790Y-11570D01*
Y-46500D01*
G03X178810I2010J0D01*
G01Y-27680D01*
X178840Y-27600D01*
G03Y-26000I-1840J800D01*
G01X178810Y-25920D01*
Y-13230D01*
X183230Y-8810D01*
X183900D01*
G03X185870Y-6420I0J2007D01*
G01X185830Y-6210D01*
X203490Y11450D01*
Y20540D01*
X207670Y24710D01*
X207880Y24670D01*
G03X206080Y31570I790J3891D01*
G02X204760Y32180I-520J607D01*
G01Y34060D01*
X205950Y35250D01*
X206480D01*
X206570Y35190D01*
G03X212230Y36790I2104J3369D01*
G01X212250Y36850D01*
X214060Y38660D01*
Y46290D01*
X225800D01*
X226480Y46970D01*
G02X227850Y46410I570J-562D01*
G01Y-89820D01*
G02X224850Y-92820I-3000J0D01*
G01X188540D01*
G02X187870Y-91570I-7J801D01*
G03X181310I-3280J2230D01*
G02X180640Y-92820I-663J-449D01*
G01X178540D01*
G02X177870Y-91570I-7J801D01*
G03X171310I-3280J2230D01*
G02X170640Y-92820I-663J-449D01*
G01X168540D01*
G02X167870Y-91570I-7J801D01*
G03X161310I-3280J2230D01*
G02X160640Y-92820I-663J-449D01*
G01X158540D01*
G02X157870Y-91570I-7J801D01*
G03X151310I-3280J2230D01*
G02X150640Y-92820I-663J-449D01*
G01X148540D01*
G02X147870Y-91570I-7J801D01*
G03X141310I-3280J2230D01*
G02X140640Y-92820I-663J-449D01*
G01X138540D01*
G02X137870Y-91570I-7J801D01*
G03X131310I-3280J2230D01*
G02X130640Y-92820I-663J-449D01*
G01X128540D01*
G02X127870Y-91570I-7J801D01*
G03X121310I-3280J2230D01*
G02X120640Y-92820I-663J-449D01*
G01X118540D01*
G02X117870Y-91570I-7J801D01*
G03X111310I-3280J2230D01*
G02X110640Y-92820I-663J-449D01*
G01X108540D01*
G02X107870Y-91570I-7J801D01*
G03X101310I-3280J2230D01*
G02X100640Y-92820I-663J-449D01*
G01X98540D01*
G02X97870Y-91570I-7J801D01*
G03X91310I-3280J2230D01*
G02X90640Y-92820I-663J-449D01*
G01X88540D01*
G02X87870Y-91570I-7J801D01*
G03X81310I-3280J2230D01*
G02X80640Y-92820I-663J-449D01*
G01X78540D01*
G37*
G36*
G01X115710Y-56470D02*
X111130Y-51890D01*
X91680D01*
G02X91120Y-50520I3J801D01*
G01X103810Y-37830D01*
Y-25870D01*
X108460D01*
X108530Y-26190D01*
G03X111920Y-27220I1970J392D01*
G01X113330Y-25810D01*
X125570D01*
X131790Y-32030D01*
Y-37730D01*
X134490Y-40430D01*
Y-63300D01*
G03X134530Y-63720I2012J-20D01*
G02X133750Y-64690I-780J-171D01*
G01X119230D01*
X115710Y-61170D01*
Y-56470D01*
G37*
G36*
G01X113930Y-18190D02*
X101530Y-5790D01*
X99500D01*
G03X98080Y-6380I0J-2004D01*
G01X97590Y-6860D01*
G02X96910Y-6580I-282J282D01*
G01Y-570D01*
X89310Y7030D01*
Y12470D01*
X90110Y13260D01*
G02X90790Y12980I282J-282D01*
G01Y11870D01*
X93070Y9590D01*
X97670D01*
X113470Y-6210D01*
X117370D01*
X127970Y-16810D01*
X136160D01*
G03X139010Y-13960I1340J1510D01*
G01Y-3530D01*
X143130Y590D01*
X146790D01*
G02X147590Y-240I1J-800D01*
G01Y-18190D01*
X113930D01*
G37*
G36*
G01X129230Y-13790D02*
X118630Y-3190D01*
X114730D01*
X100810Y10720D01*
G02X101380Y12090I565J569D01*
G01X103310D01*
X103410Y12030D01*
G03X104450Y11740I1040J1720D01*
G01X110580D01*
X115410Y16570D01*
G02X116780Y16000I570J-562D01*
G03X120120Y14470I2020J0D01*
G02X121200Y14440I524J-603D01*
G03X123870Y14330I1397J1460D01*
G02X124350Y14350I253J-312D01*
G03X126640I1145J1661D01*
G02X127130Y14310I219J-333D01*
G03X129730Y14220I1353J1500D01*
G02X130230Y14210I244J-318D01*
G03X132800Y14260I1255J1581D01*
G03X136310Y15600I1499J1340D01*
G01Y19580D01*
G02X136990Y19860I398J-2D01*
G01X137290Y19570D01*
Y15670D01*
X141970Y10990D01*
X142920D01*
Y10350D01*
X142710Y10240D01*
G03X141710Y4000I1878J-3501D01*
G01X141980Y3720D01*
X135990Y-2270D01*
Y-13790D01*
X129230D01*
G37*
G36*
G01X135810Y-30370D02*
X129020Y-23580D01*
G02X129580Y-22210I563J569D01*
G01X147590D01*
Y-58170D01*
X141070Y-64690D01*
X139250D01*
G02X138470Y-63720I0J799D01*
G03X138510Y-63300I-1972J400D01*
G01Y-38770D01*
X135810Y-36070D01*
Y-30370D01*
G37*
G36*
G01X127800Y50300D02*
Y45600D01*
X126500Y44300D01*
X124000D01*
X122200Y46100D01*
Y49900D01*
X124200Y51900D01*
X126200D01*
X127800Y50300D01*
G37*
G36*
G01X140770Y21780D02*
X137950Y24590D01*
G02X137970Y25730I570J560D01*
G03X138020Y25780I-1405J1455D01*
G02X138670Y25670I287J-277D01*
G03X140780Y24510I1830J830D01*
G02X141690Y23720I110J-793D01*
G01Y22700D01*
X140770Y21780D01*
G37*
G36*
G01X187600Y18950D02*
X195940Y27290D01*
X202800D01*
X204310Y28800D01*
X204700Y28410D01*
X204710Y28260D01*
G03X204780Y27770I3958J315D01*
G01X204820Y27560D01*
X199470Y22200D01*
Y13110D01*
X197150Y10790D01*
X191230Y16710D01*
X189600D01*
G03X188680Y16490I-5J-2011D01*
G01X188590Y16440D01*
X175990D01*
G02X175220Y17480I-6J801D01*
G03X175320Y18140I-1919J628D01*
G02X176120Y18950I800J10D01*
G01X187600D01*
G37*
G36*
G01X227850Y63390D02*
G02X226480Y62830I-800J2D01*
G01X226100Y63210D01*
X219720D01*
X215210Y67720D01*
X214750Y68170D01*
X211100Y71820D01*
X199580D01*
G03X198200Y72700I-1683J-1118D01*
G02X197700Y73990I122J789D01*
G03X197870Y78690I-3111J2466D01*
G02X198540Y79940I663J449D01*
G01X224850D01*
G02X227850Y76940I0J-3000D01*
G01Y63390D01*
G37*
%LPC*%
G75*
G36*
G01X196860Y47880D02*
G03X196810Y47830I1805J-1855D01*
G02X195630I-590J539D01*
G03X195470Y47990I-1910J-1750D01*
G02Y49170I539J590D01*
G03X195520Y49220I-1805J1855D01*
G02X196670Y49190I560J-572D01*
G03X196830Y49030I2050J1890D01*
G02X196860Y47880I-542J-590D01*
G37*
G36*
G01X196830Y43130D02*
G03X196670Y42970I1890J-2050D01*
G02X195520Y42940I-590J542D01*
G03X195470Y42990I-1855J-1805D01*
G02Y44170I539J590D01*
G03X195630Y44330I-1750J1910D01*
G02X196810I590J-539D01*
G03X196860Y44280I1855J1805D01*
G02X196830Y43130I-572J-560D01*
G37*
G36*
G01X123410Y60520D02*
G02X121740Y58230I89J-1819D01*
G02X119840Y59840I-91J1819D01*
G02X122110Y61810I462J1761D01*
G02X123410Y60520I-458J-1762D01*
G37*
G36*
G01X205990Y51250D02*
G03X204810I-590J-539D01*
G02X201040Y54800I-1918J1740D01*
G03X201010Y55950I-572J560D01*
G02X204950Y59890I1890J2050D01*
G03X206100Y59860I590J542D01*
G02X209700I1800J-1860D01*
G03X210850Y59890I560J572D01*
G02X214840Y60000I2049J-1891D01*
G03X215960I560J576D01*
G02X219790Y55950I1941J-2001D01*
G03X219760Y54800I542J-590D01*
G02X219810Y54750I-1806J-1856D01*
G03X220990I590J539D01*
G02Y51250I1910J-1750D01*
G03X219810I-590J-539D01*
G02X215990I-1910J1750D01*
G03X214810I-590J-539D01*
G02X210990I-1910J1750D01*
G03X209810I-590J-539D01*
G02X205990I-1910J1750D01*
G37*
G36*
G01X11760Y49820D02*
G03X11010Y50480I-787J-139D01*
G02X13090Y52840I89J2018D01*
G03X13840Y52180I787J139D01*
G02X11760Y49820I-89J-2018D01*
G37*
G36*
G01X67500Y40950D02*
G03X68030Y40900I293J271D01*
G02X67740Y37890I1189J-1634D01*
G03X67210Y37940I-293J-271D01*
G02X67500Y40950I-1189J1634D01*
G37*
G36*
G01X199820Y37670D02*
G03X199780Y37150I287J-284D01*
G02X196570Y36680I-1486J-1051D01*
G03X195950Y37720I-756J254D01*
G02X195520Y37940I133J790D01*
G03X195470Y37990I-1855J-1805D01*
G02Y39170I539J590D01*
G03X195520Y39220I-1805J1855D01*
G02X196090Y39450I562J-571D01*
G03X196470Y39720I2J399D01*
G02X199820Y37670I1919J-626D01*
G37*
G36*
G01X182200Y38860D02*
G02X181750Y41070I-1622J821D01*
G03X182980Y41320I515J615D01*
G02X183430Y39110I1622J-821D01*
G03X182200Y38860I-515J-615D01*
G37*
G36*
G01X146850Y31000D02*
G02X144520Y31490I-1448J-1101D01*
G03X144770Y32680I-385J702D01*
G02X144950Y35080I1450J1098D01*
G03X144880Y36280I-562J569D01*
G02X145370Y39410I1130J1426D01*
G03X145260Y40190I-137J378D01*
G02X144740Y40300I112J1816D01*
G03X144240Y40110I-145J-371D01*
G02X143260Y42600I-1640J792D01*
G03X143760Y42790I145J371D01*
G02X146620Y40650I1640J-790D01*
G03X146810Y39340I542J-590D01*
G02X147280Y36410I-802J-1631D01*
G03X147350Y35210I562J-569D01*
G02X147100Y32190I-1130J-1427D01*
G03X146850Y31000I385J-702D01*
G37*
G36*
G01X37020Y-23210D02*
G02X34700Y-26250I-1673J-1129D01*
G02X31770Y-23460I-1450J1410D01*
G03Y-22920I-290J270D01*
G02X34820Y-20270I1478J1379D01*
G02X37020Y-23210I429J-1972D01*
G37*
G36*
G01X66920Y-45120D02*
G03X65800Y-45130I-555J-577D01*
G02X65790Y-42230I-1410J1445D01*
G03X66910Y-42220I555J577D01*
G02X66920Y-45120I1410J-1445D01*
G37*
G54D17*
X-1700Y20600D03*
X-7550Y37700D03*
X-710Y8030D03*
X18500Y-85200D03*
X24640Y37770D03*
X31620Y50830D03*
X41320Y40860D03*
X40820Y66870D03*
X81300Y42600D03*
X82350Y51660D03*
X73640D03*
X71890Y44200D03*
X75250Y58060D03*
X96700Y28500D03*
X89920Y55400D03*
X100500Y47900D03*
X126000Y65800D03*
X135900Y41900D03*
X163290Y36730D03*
X168290Y31200D03*
X153950Y31760D03*
X168290Y45300D03*
X160310Y45420D03*
X155150Y64690D03*
X173050Y43060D03*
X179800Y65800D03*
X170650Y60760D03*
X184400Y64000D03*
X207160Y67140D03*
X47520Y-38240D03*
X72850Y-25940D03*
X109600Y-78200D03*
X112840Y-48860D03*
X112640Y-43860D03*
X112540Y-38860D03*
X112440Y-33860D03*
G54D16*
X-2090Y-14310D03*
Y1430D03*
G54D18*
X-1250Y38400D03*
X1100Y60300D03*
X115900Y38500D03*
X103300Y42800D03*
X136580Y36820D03*
X143400Y60200D03*
X151020Y58230D03*
X161100Y54200D03*
X181650Y44350D03*
X200200Y48000D03*
X200950Y64150D03*
G54D19*
X174590Y6740D03*
X184590D03*
X218670Y-51440D03*
X208670D03*
Y-31440D03*
Y-41440D03*
X218670Y-31440D03*
Y-41440D03*
X208670Y-11440D03*
X218670D03*
Y-21440D03*
X208670D03*
X218670Y-1440D03*
X208670D03*
X218670Y18560D03*
X208670D03*
Y8560D03*
X218670D03*
X114590Y6740D03*
X134590D03*
X124590D03*
%LPD*%
G75*
G54D10*
X-7800Y-85180D03*
Y72300D03*
X220210Y-85180D03*
Y72300D03*
G54D11*
G01X-8200Y22600D02*
X-4440Y26360D01*
X18250D01*
G01X44590Y-89340D02*
X54180Y-79750D01*
X59050D01*
X101800Y-37000D01*
Y-23200D01*
G01X44590Y-89340D02*
X37800Y-82550D01*
Y-54080D01*
G01D02*
X34260Y-50540D01*
G01X64590Y-89340D02*
X66070D01*
X87210Y-68200D01*
X105900D01*
G01X54590Y-89340D02*
X64030Y-79900D01*
X65600D01*
X91600Y-53900D01*
X110300D01*
X113700Y-57300D01*
Y-62000D01*
X118400Y-66700D01*
X141900D01*
X149600Y-59000D01*
Y-20200D01*
G01X60320Y63070D02*
Y34420D01*
X57900Y32000D01*
G01D02*
X82800D01*
X85310Y29490D01*
Y25880D01*
G01X85620Y68570D02*
Y66820D01*
X81870Y63070D01*
X60320D01*
G01X101800Y-23200D02*
X94900Y-16300D01*
Y-1400D01*
X87300Y6200D01*
Y13300D01*
X92500Y18500D01*
X102300D01*
X107250Y23450D01*
Y40450D01*
X113750Y46950D01*
Y55650D01*
G01X97700Y-9300D02*
X98000D01*
X99500Y-7800D01*
G01X103600Y-10700D02*
X100700Y-7800D01*
X99500D01*
G01X103600Y-10700D02*
X100100D01*
G01X104450Y13750D02*
X104100Y14100D01*
X94900D01*
G01X105900Y-68200D02*
X105800Y-68100D01*
Y-57800D01*
G01X169600Y-24400D02*
Y-46900D01*
X159900Y-56600D01*
Y-60300D01*
X150100Y-70100D01*
X107800D01*
X105900Y-68200D01*
G01X110500Y-25800D02*
X112500Y-23800D01*
X126400D01*
X133800Y-31200D01*
Y-36900D01*
X136500Y-39600D01*
Y-63300D01*
G01X109600Y-23860D02*
X110500Y-24760D01*
Y-25800D01*
G01X106100Y-23860D02*
X109600D01*
G01X106100D02*
X102460D01*
X101800Y-23200D01*
G01X149600Y-20200D02*
X113100D01*
X103600Y-10700D01*
G01X104450Y13750D02*
X109750D01*
X122200Y26200D01*
Y29900D01*
G01X113000Y30700D02*
X121400D01*
X122200Y29900D01*
G01X111800Y56200D02*
X113500D01*
X113750Y55650D01*
G01X134300Y15600D02*
Y21200D01*
X136400Y23300D01*
G01X132500Y30130D02*
X128100D01*
G01X136400Y23300D02*
X132500Y27200D01*
Y30130D01*
G01X128100D02*
X122430D01*
X122200Y29900D01*
G01X124300Y45800D02*
X128100Y42000D01*
Y30130D01*
G01X140500Y26500D02*
X140800Y28400D01*
X139070Y30130D01*
X132500D01*
G01X124000Y49500D02*
X123300Y46800D01*
X124300Y45800D01*
G01D02*
X124800D01*
X126300Y47300D01*
X126800Y49600D01*
G01X149600Y-20200D02*
Y-300D01*
G01X189600Y14700D02*
X189330Y14430D01*
X159770D01*
X158350Y15850D01*
X149450D01*
X146600Y13000D01*
X142800D01*
X139300Y16500D01*
Y20400D01*
X136400Y23300D01*
G01X176800Y-26600D02*
Y-46500D01*
G01Y-26600D02*
Y-12400D01*
X183000Y-6200D01*
G01X177000Y-26800D02*
X176800Y-26600D01*
G01X197150Y7950D02*
X183000Y-6200D01*
G01X183900Y-6800D02*
X183600D01*
X183000Y-6200D01*
G01X189600Y14700D02*
X190400D01*
X197150Y7950D01*
G01X208670Y28560D02*
X201480Y21370D01*
Y12280D01*
X197150Y7950D01*
X-10710Y-66290D03*
X-13900Y-69400D03*
X-1800Y-75400D03*
X-12700Y-74100D03*
X-13800Y-62300D03*
X-13900Y-49500D03*
X-11830Y-58570D03*
X-13800Y-38700D03*
X-13000Y-29700D03*
X-10870Y-42430D03*
X-10520Y-35620D03*
X-1400Y-28900D03*
X-10500Y-26100D03*
X-14870Y-19630D03*
X-15160Y-11160D03*
X-15280Y-1720D03*
X-14150Y6750D03*
X-1700Y20600D03*
X-14600Y26300D03*
X-14200Y30300D03*
X-14600Y34600D03*
X-7550Y37700D03*
X-8200Y22600D03*
X-1250Y38400D03*
X-7160Y50240D03*
X-14200Y39300D03*
X-14400Y43200D03*
X-14300Y51600D03*
X-13900Y56700D03*
X-13000Y61400D03*
X1700Y-80100D03*
X9100Y-88400D03*
X9700Y-91700D03*
X4400Y-91000D03*
X4700Y-86700D03*
X8700Y-65700D03*
X15300Y-79000D03*
X12850Y-71340D03*
X13350Y-65640D03*
X7100Y-57000D03*
X10100Y-55000D03*
X9200Y-47400D03*
X4000D03*
X3500Y-54700D03*
X6800Y-51700D03*
Y-59900D03*
X13450Y-46140D03*
Y-51040D03*
X13350Y-55940D03*
Y-60840D03*
X10200Y-32300D03*
X5600Y-30800D03*
X2400Y-31400D03*
X2200Y-35200D03*
X4800Y-39600D03*
X9400D03*
X6800Y-35100D03*
Y-43400D03*
X13450Y-31340D03*
Y-36240D03*
Y-41240D03*
X15300Y-27100D03*
X11600Y-25900D03*
X8400Y-23700D03*
X9900Y-27900D03*
X2200Y-27500D03*
X4100Y-23500D03*
X6900Y-13500D03*
X6800Y-18500D03*
Y-26800D03*
X-710Y-24390D03*
X10650Y-20540D03*
X13150Y-19140D03*
X10650Y-18240D03*
X13950Y-14640D03*
X11550Y-14040D03*
X12350Y-16640D03*
Y-22140D03*
X7400Y2000D03*
X7600Y4500D03*
X13150Y-11540D03*
X13850Y-8340D03*
X10950Y-8840D03*
Y-4440D03*
X14150Y-4340D03*
X12550Y-6240D03*
X14250Y-340D03*
X12650Y-2240D03*
X14150Y3260D03*
X7700Y7800D03*
X7900Y10800D03*
X8000Y13700D03*
X8100Y16600D03*
X9600Y18600D03*
X11400Y20000D03*
X14500Y21700D03*
X16050Y13760D03*
X13850Y6960D03*
X15150Y8960D03*
X-710Y8030D03*
X9700Y32500D03*
X9600Y36600D03*
X5400Y38000D03*
Y33900D03*
X13750Y35460D03*
Y30460D03*
X9700Y40300D03*
X10000Y45600D03*
X11100Y52500D03*
X5000Y42200D03*
X5400Y46300D03*
X13750Y50160D03*
Y45260D03*
Y40360D03*
X10330Y70670D03*
X1100Y60300D03*
X2400Y78800D03*
X13500Y76300D03*
X18500Y-85200D03*
X16400Y-70900D03*
X31500D03*
X26600Y-71700D03*
X21900Y-72200D03*
X18300Y-78800D03*
X16400Y-75100D03*
X23100Y-77200D03*
X28900Y-75800D03*
X16950Y-67440D03*
X20150Y-64240D03*
X16950Y-62540D03*
Y-52740D03*
Y-47840D03*
X29350Y-54840D03*
X25950Y-51940D03*
X26750Y-55340D03*
X23650Y-54640D03*
X23050Y-52140D03*
X22950Y-49740D03*
X29550Y-52240D03*
X31550Y-53540D03*
X20500Y-35500D03*
X16950Y-37940D03*
X16850Y-33040D03*
X20450Y-29140D03*
X18490Y-26900D03*
X30050Y-5740D03*
X30350Y-2740D03*
X17400Y21600D03*
X31000Y20600D03*
X22450Y13860D03*
X19350Y13760D03*
X27550Y9060D03*
X24650D03*
X21550D03*
X18450Y8960D03*
X23150Y10960D03*
X20050Y10860D03*
X16750D03*
X24640Y37770D03*
X30880Y26230D03*
X17950Y32960D03*
X20050Y29060D03*
X17850Y30860D03*
X18050Y28560D03*
X18250Y26360D03*
X23150Y45460D03*
Y47860D03*
X18650Y44060D03*
Y46460D03*
Y48960D03*
Y51460D03*
X21050Y53760D03*
X18850Y53660D03*
X20940Y48060D03*
X31620Y50830D03*
X40700Y-80100D03*
X48800Y-80200D03*
X45200D03*
X34550Y-76840D03*
X34050Y-64240D03*
X33550Y-54640D03*
X34260Y-50540D03*
X47520Y-38240D03*
X33250Y-24840D03*
X35350Y-24340D03*
X35250Y-22240D03*
X33250Y-21540D03*
X47020Y-1240D03*
X34450Y20460D03*
X37550Y20560D03*
X40650D03*
X43550D03*
X46350Y20460D03*
X46650Y13760D03*
X43950Y13860D03*
X41050D03*
X37950D03*
X47350Y10860D03*
X44550Y10960D03*
X41650D03*
X42160Y23960D03*
X47420Y52070D03*
X41320Y40860D03*
X40820Y66870D03*
X62050Y-36140D03*
Y-31040D03*
X65370Y-33580D03*
X64390Y-43680D03*
X65250Y20460D03*
X52750Y20560D03*
X55850D03*
X58750D03*
X61950Y20460D03*
X65050Y13560D03*
X61750D03*
X59050Y13860D03*
X56150D03*
X53050D03*
X49950Y13760D03*
X64150Y8760D03*
X60850D03*
X66250Y10860D03*
X62950D03*
X59750Y10960D03*
X56850D03*
X53750D03*
X50650Y10860D03*
X65050Y4860D03*
X62690Y5000D03*
X54500Y32100D03*
X51320Y29370D03*
X57900Y32000D03*
X56120Y48070D03*
X66020Y39570D03*
X58620Y65470D03*
X56250Y67260D03*
X64850Y68060D03*
X60320Y63070D03*
X53650Y68960D03*
X60300Y68000D03*
X81400Y-78500D03*
X71900Y-78400D03*
X67950Y-30940D03*
X68050Y-36140D03*
X68320Y-43670D03*
X72850Y-25940D03*
X83060Y12260D03*
X68050Y20460D03*
X74150Y13660D03*
X71250D03*
X68150D03*
X73250Y8860D03*
X70350D03*
X67250D03*
X75350Y10960D03*
X72450D03*
X69350D03*
X67250Y4960D03*
X76150Y5460D03*
X79550Y7760D03*
X83250Y5160D03*
X69450Y4860D03*
X71790Y5020D03*
X80890Y5320D03*
X80900Y23000D03*
X69260Y25670D03*
X82300Y25590D03*
X81300Y42600D03*
X69220Y39270D03*
X82350Y51660D03*
X73640D03*
X71890Y44200D03*
X79870Y68400D03*
X75470Y68340D03*
X70600Y68200D03*
X75250Y58060D03*
X82800Y68300D03*
X90800Y-78400D03*
X98800Y-71600D03*
X92100Y-71700D03*
X89000Y-71500D03*
X94480Y-34320D03*
X99200Y-1900D03*
X97700Y-9300D03*
X99500Y-7800D03*
X100100Y-10700D03*
X94900Y21700D03*
Y14100D03*
X96700Y28500D03*
X88220Y25570D03*
X85310Y25880D03*
X100300Y38700D03*
X89920Y55400D03*
X100500Y47900D03*
X99030Y59680D03*
X89250Y67960D03*
X85620Y68570D03*
X112600Y-80500D03*
X112400Y-83600D03*
X112600Y-77400D03*
X112400Y-75000D03*
X101000Y-71700D03*
X109600Y-78200D03*
X112840Y-48860D03*
X105800Y-57800D03*
X112640Y-43860D03*
X112540Y-38860D03*
X112440Y-33860D03*
X109600Y-23860D03*
X110500Y-25800D03*
X106100Y-23860D03*
X116600Y-8100D03*
X112500Y1800D03*
X114600D03*
X114050Y-9440D03*
X109400Y-6300D03*
X111900Y-9300D03*
X112050Y-7140D03*
X115200Y-600D03*
X104450Y13750D03*
X112300Y36100D03*
X103000Y26700D03*
Y32300D03*
X113400Y33500D03*
X115900Y38500D03*
X113000Y30700D03*
X110500Y23400D03*
X103300Y42800D03*
X111800Y56200D03*
X113750Y55650D03*
X129500Y-90000D03*
X119500Y-91000D03*
Y-88300D03*
X118500Y-72700D03*
Y-75000D03*
X123400Y-73400D03*
Y-75900D03*
X134200Y-76800D03*
X118500Y-79600D03*
X133200Y-51100D03*
X130650Y-53640D03*
X132700Y-41800D03*
X130650Y-45040D03*
X130700Y-32600D03*
X133800Y-25900D03*
X118100Y-10500D03*
X122700Y-3600D03*
X125800Y1300D03*
X123400Y1400D03*
X118300Y-1100D03*
X119600Y6700D03*
X134300Y15600D03*
X125490Y16010D03*
X118800Y16000D03*
X131490Y15790D03*
X128490Y15810D03*
X122600Y15900D03*
X122000Y35900D03*
X132100Y36300D03*
X133100Y33500D03*
X123300Y33400D03*
X122200Y29900D03*
X132500Y30130D03*
X124300Y37600D03*
X120200Y45300D03*
X124000Y49500D03*
X126800Y49600D03*
X125300Y51000D03*
X126000Y65800D03*
X123500Y58700D03*
X120300Y61600D03*
X121650Y60050D03*
X139500Y-90700D03*
X139400Y-88100D03*
X136500Y-63300D03*
X143800Y-50200D03*
X141600Y-45300D03*
X145200Y-41300D03*
X142800Y-36400D03*
X142600Y-32000D03*
X137200Y-31400D03*
X137500Y-15300D03*
X140300Y-26600D03*
X146700Y-16800D03*
X149600Y-300D03*
X144270Y15970D03*
X139600Y5900D03*
Y8500D03*
X145450Y25900D03*
X141230Y34070D03*
X140890Y23590D03*
X136400Y23300D03*
X140500Y26500D03*
X145400Y29900D03*
X146010Y37710D03*
X146220Y33780D03*
X136580Y36820D03*
Y27200D03*
X135900Y41900D03*
X145400Y42000D03*
X142600Y40900D03*
X142100Y67400D03*
X143400Y60200D03*
X151020Y58230D03*
X156100Y-79600D03*
X154900Y-58300D03*
X161000Y-51000D03*
X164700Y-59500D03*
X162900Y-47200D03*
X156900Y-49300D03*
X165500Y-43300D03*
X154600Y-44400D03*
X152600Y-35500D03*
X162100Y-35400D03*
X156500Y-39100D03*
X159600Y-41500D03*
X163700Y-39000D03*
Y-30400D03*
X154400Y-30200D03*
X158400Y-32800D03*
X161500Y-18500D03*
X163700Y-16800D03*
X164000Y-13500D03*
X157600Y-13700D03*
X162800Y-27300D03*
X157600Y-25000D03*
X160700Y-300D03*
X161900Y11500D03*
X162310Y17610D03*
X165200Y17200D03*
X160340Y19600D03*
X151500Y11600D03*
X165000Y11500D03*
X163290Y36730D03*
X168290Y31200D03*
X153950Y31760D03*
X158270Y53840D03*
X168290Y45300D03*
X160310Y45420D03*
X161100Y54200D03*
X152400Y69200D03*
X155150Y64690D03*
X171550Y-61340D03*
X173250Y-57540D03*
X176800Y-46500D03*
X177000Y-26800D03*
X169600Y-24400D03*
X183900Y-6800D03*
X173300Y18100D03*
X169800Y17300D03*
X176040Y22950D03*
X176000Y49510D03*
X173050Y43060D03*
X184600Y40500D03*
X181650Y44350D03*
X180580Y39680D03*
X179800Y65800D03*
X170650Y60760D03*
X184400Y64000D03*
X196100Y-83400D03*
X188200Y-83100D03*
X192400Y-83200D03*
X201500Y-89100D03*
X201150Y-82040D03*
X200700Y-78000D03*
X199100Y-75000D03*
X196450Y-78740D03*
X192800Y-46600D03*
Y-26500D03*
X192600Y-6800D03*
X189600Y14700D03*
X193300Y22100D03*
X198300Y36100D03*
X195040Y50960D03*
X198390Y39090D03*
X200200Y48000D03*
X200950Y64150D03*
X197900Y70700D03*
X194900D03*
X209400Y-91200D03*
X206200Y-88100D03*
X208600Y-85800D03*
X203850Y-80440D03*
X206800Y-78800D03*
X204300Y-71000D03*
X211000Y-75800D03*
X214400Y-65700D03*
X215700Y-70400D03*
X203150Y-74640D03*
X210350Y-64840D03*
X208350Y-70340D03*
X214100Y-57500D03*
X219000Y-58900D03*
X215100Y-61100D03*
X217700Y34000D03*
X216900Y44300D03*
X207160Y67140D03*
X209700Y72800D03*
X207000Y74000D03*
X210700Y77500D03*
X206600Y78200D03*
X221600Y-73200D03*
X225400Y-71000D03*
X220400Y-66900D03*
X223900Y-63000D03*
X226650Y-58340D03*
Y-48540D03*
Y-38640D03*
Y-28840D03*
Y-19040D03*
Y-9140D03*
Y660D03*
Y10460D03*
X222300Y33800D03*
X226650Y25360D03*
Y35160D03*
X221600Y44600D03*
X226650Y44960D03*
G54D12*
X-2090Y-14310D03*
Y1430D03*
G54D13*
X24590Y-89340D03*
X34590D03*
Y76460D03*
X24590D03*
X44590Y-89340D03*
Y76460D03*
X54590Y-89340D03*
X64590D03*
X54590Y76460D03*
X64590D03*
X74590Y-89340D03*
X84590D03*
X74590Y76460D03*
X84590D03*
X94590Y-89340D03*
Y76460D03*
X114590Y-89340D03*
X104590D03*
X114590Y6740D03*
X104590Y76460D03*
X114590D03*
X134590Y-89340D03*
X124590D03*
X134590Y6740D03*
X124590D03*
Y76460D03*
X134590D03*
X144590Y-89340D03*
Y6740D03*
Y76460D03*
X164590Y-89340D03*
X154590D03*
X164590Y6740D03*
X154590D03*
Y76460D03*
X164590D03*
X174590Y-89340D03*
X184590D03*
X174590Y6740D03*
X184590D03*
X174590Y76460D03*
X184590D03*
X194590Y-89340D03*
Y76460D03*
X218670Y-51440D03*
X208670D03*
Y-31440D03*
Y-41440D03*
X218670Y-31440D03*
Y-41440D03*
X208670Y-11440D03*
X218670D03*
Y-21440D03*
X208670D03*
X218670Y-1440D03*
X208670D03*
X218670Y18560D03*
X208670D03*
Y8560D03*
X218670D03*
Y38560D03*
X208670Y28560D03*
X218670D03*
X208670Y38560D03*
G54D14*
X202900Y53000D03*
Y58000D03*
X207900Y53000D03*
X212900D03*
X217900D03*
X207900Y58000D03*
X212900D03*
X217900D03*
X222900Y53000D03*
Y58000D03*
G54D15*
G01X109800Y33600D02*
Y28900D01*
X113500Y25200D01*
Y22700D01*
X107000Y16200D01*
X93400D01*
X92300Y15100D01*
Y12500D01*
X93700Y11100D01*
X98300D01*
X114100Y-4700D01*
X118000D01*
X128600Y-15300D01*
X137500D01*
G01X112300Y36100D02*
X109800Y33600D01*
G01X161900Y11500D02*
X159500Y9100D01*
Y3800D01*
X157800Y2100D01*
X142500D01*
X137500Y-2900D01*
Y-15300D01*
M02*
