G04 ================== begin FILE IDENTIFICATION RECORD ==================*
G04 Layout Name:  D:/ET_EvilBoard/Layout_V4/EvilSploit_0625A.brd*
G04 Film Name:    BOTTOM*
G04 File Format:  Gerber RS274X*
G04 File Origin:  Cadence Allegro 16.6-P004*
G04 Origin Date:  Sun Jun 25 07:11:54 2017*
G04 *
G04 Layer:  BOARD GEOMETRY/OUTLINE*
G04 Layer:  ETCH/BOTTOM*
G04 Layer:  PIN/BOTTOM*
G04 Layer:  VIA CLASS/BOTTOM*
G04 *
G04 Offset:    (0.0 0.0)*
G04 Mirror:    No*
G04 Mode:      Positive*
G04 Rotation:  0*
G04 FullContactRelief:  No*
G04 UndefLineWidth:     6.0*
G04 ================== end FILE IDENTIFICATION RECORD ====================*
%FSLAX25Y25*MOIN*%
%IR0*IPPOS*OFA0.00000B0.00000*MIA0B0*SFA1.00000B1.00000*%
%ADD10C,.175*%
%ADD15R,.02X.025*%
%ADD16R,.025X.02*%
%ADD11C,.02*%
%ADD18R,.022X.052*%
%ADD21R,.022X.0625*%
%ADD20R,.056X.017*%
%ADD23C,.0354*%
%ADD12C,.0276*%
%ADD19R,.0591X.0236*%
%ADD14R,.035X.0299*%
%ADD17R,.0299X.035*%
%ADD13R,.0591X.0591*%
%ADD22R,.0394X.0276*%
%ADD24C,.005*%
%ADD25C,.01*%
%ADD26C,.006*%
%ADD27C,.0404*%
%ADD28C,.048*%
G75*
%LPD*%
G75*
G36*
G01X66960Y28100D02*
G02X67610Y26840I1J-797D01*
G03X70600Y24160I1647J-1170D01*
G01X77600D01*
X78880Y22890D01*
X78900Y22750D01*
G03X82890Y23320I2000J250D01*
G02X83130Y23750I397J60D01*
G03X83710Y24140I-820J1846D01*
G01X83990Y24250D01*
X84200Y24190D01*
G03X87100Y26820I1112J1688D01*
G01X86960Y27080D01*
X88320Y28430D01*
G02X89000Y28150I281J-284D01*
G01Y28100D01*
X94520D01*
Y33110D01*
X95230D01*
Y32950D01*
X97670D01*
Y32960D01*
X98290D01*
Y26110D01*
X97140D01*
Y25310D01*
X96990D01*
Y22890D01*
X97140D01*
Y22090D01*
X99840D01*
G02X100120Y21410I-2J-398D01*
G01X99490Y20770D01*
X99470D01*
X99460Y20760D01*
X91270D01*
X87540Y17030D01*
Y9980D01*
X90540Y6980D01*
Y-28340D01*
X110830Y-48630D01*
X110820Y-48800D01*
G03Y-48920I2020J-60D01*
G01X110830Y-49090D01*
X108340Y-51580D01*
Y-55580D01*
G02X107050Y-56210I-799J0D01*
G03Y-59390I-1250J-1590D01*
G02X108340Y-60020I491J-630D01*
G01Y-65880D01*
X100680Y-73540D01*
X88610D01*
X76770Y-85370D01*
X70620D01*
Y-92820D01*
X68560D01*
Y-85370D01*
X60620D01*
Y-92820D01*
X58560D01*
Y-85370D01*
X50620D01*
Y-92820D01*
X48560D01*
Y-85370D01*
X40620D01*
Y-92820D01*
X28560D01*
Y-85370D01*
X20620D01*
Y-92820D01*
X-12440D01*
G02X-15440Y-89820I0J3000D01*
G01Y76940D01*
G02X-12440Y79940I3000J0D01*
G01X13430D01*
G02X13990Y78570I-2J-800D01*
G01X13730Y78310D01*
X13560Y78320D01*
G03X15520Y76360I-60J-2020D01*
G01X15510Y76530D01*
X17990Y79010D01*
X30620D01*
Y73910D01*
X17430D01*
X13710Y70200D01*
G02X12350Y70740I-563J565D01*
G03X10260Y68650I-2020J-70D01*
G02X10800Y67290I-25J-797D01*
G01X8280Y64760D01*
X-120D01*
X-2510Y62370D01*
Y39980D01*
G03X10I1260J-1580D01*
G01Y57500D01*
G02X890Y58290I800J-5D01*
G03X2680Y59040I210J2010D01*
G01X9220D01*
X20470Y70290D01*
X50880D01*
G02X51670Y69340I3J-801D01*
G03X55640Y68610I1982J-380D01*
G01X55700Y68940D01*
X57480D01*
G02X58280Y68100I2J-799D01*
G03X58290Y67810I2019J-76D01*
G01Y67780D01*
X58010Y67400D01*
G03X58020Y63540I607J-1928D01*
G01X58300Y63160D01*
Y63140D01*
G03X58370Y62540I2019J-68D01*
G01X58390Y62480D01*
Y62030D01*
X58100D01*
Y58220D01*
X55170D01*
Y58070D01*
X54370D01*
Y57320D01*
X50530D01*
X47310Y54090D01*
X47170Y54070D01*
G03X49420Y51820I250J-2000D01*
G01X49440Y51960D01*
X51790Y54300D01*
X54370D01*
Y53550D01*
X54870D01*
Y49660D01*
G03X57460Y46560I1255J-1583D01*
G01X64690D01*
X70630Y52500D01*
X73240D01*
Y57520D01*
X67720D01*
Y53870D01*
X63430Y49580D01*
X57890D01*
Y53550D01*
X58390D01*
Y57360D01*
X61320D01*
Y57510D01*
X62120D01*
Y58020D01*
X67260D01*
Y63340D01*
X72180D01*
X89990Y45530D01*
G02X89430Y44160I-562J-570D01*
G01X87450D01*
Y38640D01*
X92420D01*
X94440Y36620D01*
Y33120D01*
X89480D01*
Y33630D01*
X88680D01*
Y33780D01*
X86260D01*
Y33630D01*
X85690D01*
Y33790D01*
X83250D01*
Y33630D01*
X82460D01*
Y33120D01*
X76850D01*
Y28100D01*
X80790D01*
Y26930D01*
G03X80640Y26740I1507J-1344D01*
G02X79410Y26620I-665J448D01*
G01X78860Y27180D01*
X71710D01*
Y29110D01*
X72210D01*
Y33630D01*
X71410D01*
Y33780D01*
X68990D01*
Y33630D01*
X68190D01*
Y33120D01*
X62680D01*
Y28100D01*
X66960D01*
G37*
G36*
G01X38560Y73910D02*
Y79010D01*
X50620D01*
Y73910D01*
X38560D01*
G37*
G36*
G01X64050Y65860D02*
X62310Y67710D01*
X62320Y67880D01*
G03Y68100I-2019J110D01*
G02X63120Y68940I798J41D01*
G01X72660D01*
G02X73460Y68200I1J-802D01*
G03X77060Y67100I2012J144D01*
G02X78310Y67120I633J-492D01*
G03X78610Y66820I1570J1270D01*
G01Y62400D01*
G02X77240Y61840I-800J2D01*
G01X73220Y65860D01*
X64050D01*
G37*
G36*
G01X81700Y-84010D02*
X89650Y-76060D01*
X94160D01*
G02X94720Y-77430I-2J-800D01*
G01X86770Y-85370D01*
X82270D01*
G02X81700Y-84010I-2J799D01*
G37*
G36*
G01X96710Y-7350D02*
Y10890D01*
X99110D01*
Y11040D01*
X99910D01*
Y14940D01*
X100740D01*
Y-5010D01*
G02X99820Y-5800I-798J-1D01*
G03X97550Y-7290I-314J-1996D01*
G03X97210Y-7340I123J-2014D01*
G01X97160Y-7350D01*
X96710D01*
G37*
G36*
G01X116840Y40310D02*
X116600Y40400D01*
G03X115840Y40520I-690J-1901D01*
G01X115670Y40510D01*
X109720Y46460D01*
X95740D01*
X84060Y58140D01*
Y61060D01*
X86640D01*
Y61210D01*
X87440D01*
Y61720D01*
X92680D01*
Y66740D01*
X88240D01*
G02X87500Y67830I3J798D01*
G03X87640Y68540I-1880J740D01*
G01Y68940D01*
X139380D01*
G02X140150Y67930I-1J-800D01*
G03X144100Y67110I1951J-525D01*
G02X145460Y67560I792J-113D01*
G01X146640Y66380D01*
Y63910D01*
G02X145960Y63630I-398J2D01*
G01X145820Y63760D01*
X142180D01*
X130740Y52320D01*
Y45720D01*
X128780Y43760D01*
X120290D01*
X116840Y40310D01*
G37*
G36*
G01X108560Y-92820D02*
Y-85370D01*
X105850D01*
Y-76610D01*
X106970Y-75490D01*
G02X108340Y-76050I570J-562D01*
G01Y-76620D01*
G03X110860I1260J-1580D01*
G01Y-73160D01*
X111960Y-72060D01*
G02X113330Y-72620I570J-562D01*
G01Y-85370D01*
X110620D01*
Y-92820D01*
X108560D01*
G37*
G36*
G01X119660Y-19280D02*
X107060Y-6680D01*
Y-3070D01*
G02X108430Y-2510I800J-2D01*
G01X112480Y-6560D01*
X117580D01*
X120890Y-9870D01*
Y-24930D01*
G02X120210Y-25210I-398J2D01*
G01X119660Y-24670D01*
Y-19280D01*
G37*
G36*
G01X125070Y-8190D02*
X119720Y-2840D01*
X115220D01*
X110970Y1410D01*
G02X111540Y2770I568J561D01*
G01X118560D01*
Y11480D01*
X120620D01*
Y2770D01*
X128560D01*
Y10710D01*
X122470D01*
G02X121900Y12070I-2J799D01*
G01X123230Y13400D01*
X123400Y14040D01*
X123550Y14120D01*
G03X123870Y14330I-943J1785D01*
G02X124350Y14350I253J-312D01*
G03X126610Y14330I1145J1661D01*
G02X127230Y13990I220J-335D01*
G01Y13890D01*
X129880Y11240D01*
X130620D01*
Y2260D01*
X129480D01*
X126440Y-780D01*
Y-7630D01*
G02X125070Y-8190I-800J2D01*
G37*
G36*
G01X102280Y39490D02*
X106940D01*
Y38820D01*
X106780D01*
Y36380D01*
X106940D01*
Y35590D01*
X109970D01*
X110460Y35090D01*
G02X110180Y34410I-282J-282D01*
G01X107140D01*
Y33610D01*
X106990D01*
Y31190D01*
X107140D01*
Y29860D01*
X105980D01*
X104350Y28230D01*
X104070Y28400D01*
G03X103000Y28710I-1070J-1692D01*
G01X102310D01*
Y38700D01*
G03X102280Y39030I-2009J-16D01*
G01Y39490D01*
G37*
G36*
G01X117590Y30770D02*
X116680Y29860D01*
X115810D01*
G02X115010Y30670I0J800D01*
G03X113000Y32710I-2010J30D01*
G01X111930D01*
X111660Y32980D01*
Y33290D01*
G02X112410Y34090I799J2D01*
G03X114090Y35180I-110J2009D01*
G01X114110Y35230D01*
X114440Y35560D01*
X114820Y35180D01*
X117590D01*
Y30770D01*
G37*
G36*
G01X128560Y-92820D02*
Y-89260D01*
G02X129920Y-88690I799J2D01*
G01X130620Y-89400D01*
Y-92820D01*
X128560D01*
G37*
G36*
G01X122410Y-85370D02*
X117060Y-80030D01*
Y-71930D01*
X118260Y-70730D01*
Y-58130D01*
X121560Y-54840D01*
G02X122240Y-55120I282J-282D01*
G01Y-55780D01*
X119740Y-58280D01*
Y-81120D01*
X123310Y-84690D01*
G02X123030Y-85370I-283J-281D01*
G01X122410D01*
G37*
G36*
G01X126020Y-83840D02*
X122260Y-80080D01*
Y-59320D01*
X122770Y-58810D01*
G02X124140Y-59370I570J-562D01*
G01Y-80520D01*
X126770Y-83160D01*
G02X126490Y-83840I-282J-282D01*
G01X126020D01*
G37*
G36*
G01X118560Y-92820D02*
Y-87020D01*
G02X119920Y-86450I799J2D01*
G01X120620Y-87160D01*
Y-92820D01*
X118560D01*
G37*
G36*
G01X176120Y-79960D02*
G03X175990Y-80120I950J-905D01*
G01X175930D01*
X175870Y-80180D01*
X173430D01*
Y-80940D01*
X146440D01*
Y-76510D01*
X138500D01*
Y-77440D01*
X132220D01*
X131460Y-76680D01*
Y-71610D01*
X134240D01*
Y-71460D01*
X135040D01*
Y-70710D01*
X138500D01*
Y-70900D01*
X146440D01*
Y-61500D01*
X143730D01*
Y-57350D01*
X144320Y-56760D01*
X170480D01*
X175660Y-51580D01*
Y-49300D01*
G02X176560Y-48510I798J-2D01*
G03X178020Y-48110I235J2008D01*
G01X178130Y-48020D01*
X183990Y-48080D01*
Y-52740D01*
X187240D01*
X190210Y-55710D01*
X206540D01*
X206840Y-55410D01*
X212640D01*
Y-49470D01*
G02X214000Y-48910I797J-5D01*
G01X214700Y-49610D01*
Y-55410D01*
X222640D01*
Y-47470D01*
X216840D01*
X216140Y-46770D01*
G02X216700Y-45410I565J563D01*
G01X222640D01*
Y-37470D01*
X216840D01*
X216140Y-36770D01*
G02X216700Y-35410I565J563D01*
G01X222640D01*
Y-27470D01*
X216840D01*
X216140Y-26770D01*
G02X216700Y-25410I565J563D01*
G01X222640D01*
Y-17470D01*
X216840D01*
X216140Y-16770D01*
G02X216700Y-15410I565J563D01*
G01X222640D01*
Y-7470D01*
X216840D01*
X216140Y-6770D01*
G02X216700Y-5410I565J563D01*
G01X222640D01*
Y2530D01*
X216840D01*
X216140Y3230D01*
G02X216700Y4590I565J563D01*
G01X222640D01*
Y12530D01*
X216840D01*
X216140Y13230D01*
G02X216700Y14590I565J563D01*
G01X222640D01*
Y22530D01*
X216840D01*
X214300Y25070D01*
X212640D01*
Y32530D01*
X207550D01*
X206840Y33230D01*
G02X207410Y34590I569J561D01*
G01X212640D01*
Y42530D01*
X204700D01*
Y35210D01*
X203020D01*
G02X202460Y36580I2J800D01*
G01X202560Y36680D01*
Y43480D01*
X202720Y43640D01*
X208320D01*
X211020Y46340D01*
X225920D01*
X226480Y46900D01*
G02X227850Y46340I570J-562D01*
G01Y-89820D01*
G02X224850Y-92820I-3000J0D01*
G01X188560D01*
Y-85370D01*
X185850D01*
Y-71970D01*
X182420Y-68540D01*
X181970D01*
Y-67780D01*
X174190D01*
Y-66930D01*
X170150D01*
Y-67190D01*
X167700D01*
Y-61500D01*
X159760D01*
Y-75900D01*
X167700D01*
Y-75210D01*
X170150D01*
Y-75470D01*
X174190D01*
Y-74820D01*
X177290D01*
Y-77010D01*
X177440D01*
Y-77990D01*
X177290D01*
Y-79000D01*
G03X177230Y-79360I1250J-393D01*
G01X177150Y-79440D01*
G03X176260Y-79820I34J-1312D01*
G01X176120Y-79960D01*
G37*
G36*
G01X131180Y-63240D02*
G02X129810Y-62680I-570J562D01*
G01Y-23080D01*
X128960Y-22230D01*
Y-1820D01*
X130520Y-260D01*
X139330D01*
Y-4520D01*
X140090D01*
Y-8230D01*
X140390Y-8520D01*
G02X139820Y-9890I-565J-569D01*
G01X138230D01*
Y-12430D01*
X137390Y-13280D01*
X137250Y-13300D01*
G03X136260Y-13700I235J-2006D01*
G02X134970Y-13070I-492J629D01*
G01Y-9890D01*
X130750D01*
Y-17110D01*
X131350D01*
Y-19880D01*
X131330D01*
Y-23920D01*
X155870D01*
Y-20310D01*
X157630D01*
X158660Y-19280D01*
G02X158880Y-19170I279J-283D01*
G03X159210Y-18880I-58J398D01*
G02X159410Y-18520I775J-195D01*
G01X162360Y-15580D01*
Y-11180D01*
X163670Y-9870D01*
X165630D01*
Y-17720D01*
X164090Y-19260D01*
Y-19880D01*
X163330D01*
Y-19890D01*
X159980D01*
G02X159340Y-19570I0J799D01*
G01Y-20690D01*
X159190D01*
Y-23110D01*
X159340D01*
Y-23910D01*
X163330D01*
Y-23920D01*
X166800D01*
G02X167590Y-24630I-4J-799D01*
G03X170770Y-26040I2006J233D01*
G02X172040Y-26690I468J-651D01*
G01Y-50080D01*
X168980Y-53140D01*
X141280D01*
X131180Y-63240D01*
G37*
G36*
G01X135220Y34200D02*
X133740Y32720D01*
Y31990D01*
X133270D01*
X133200Y32010D01*
G03X132610Y32140I-722J-1875D01*
G02X131860Y32940I49J798D01*
G01Y33220D01*
X133520Y34880D01*
G03X133840Y35290I-1411J1431D01*
G02X135110Y35430I687J-406D01*
G03X135200Y35350I1386J1469D01*
G02X135220Y34200I-548J-585D01*
G37*
G36*
G01X124620Y27660D02*
G02X123940Y28870I6J799D01*
G03X122100Y31920I-1739J1031D01*
G02X121260Y32720I-41J798D01*
G01Y33080D01*
G02X122040Y33880I800J1D01*
G03X124000Y35600I-38J2021D01*
G03X126270Y37130I303J2000D01*
G01X126340Y37440D01*
X128470D01*
G02X129030Y36070I-3J-801D01*
G01X128770Y35810D01*
X127340D01*
Y35010D01*
X127190D01*
Y32590D01*
X127340D01*
Y31790D01*
X127790D01*
Y28890D01*
X127940D01*
Y27660D01*
X124620D01*
G37*
G36*
G01X138560Y-92820D02*
Y-85860D01*
X139330D01*
X140620Y-87160D01*
Y-92820D01*
X138560D01*
G37*
G36*
G01X144010Y-19880D02*
Y-17690D01*
X143860D01*
Y-16890D01*
X142450D01*
Y-13560D01*
X143490D01*
Y-13710D01*
X146190D01*
X147470Y-14990D01*
X148530D01*
Y-17720D01*
X148090Y-18160D01*
Y-19880D01*
X144010D01*
G37*
G36*
G01X138560Y2260D02*
Y10710D01*
X137520D01*
G02X136950Y12070I-2J799D01*
G01X137460Y12580D01*
Y17520D01*
X137280Y17700D01*
X137480Y18190D01*
X139940D01*
Y13720D01*
X141590Y12070D01*
G02X141020Y10710I-568J-561D01*
G01X140620D01*
Y2260D01*
X138560D01*
G37*
G36*
G01X140610Y22860D02*
X138520D01*
X138420Y22960D01*
Y23270D01*
G03X138320Y23930I-2020J32D01*
G01X138240Y24160D01*
X139090Y25010D01*
X139370Y24830D01*
G03X140640Y24480I1142J1666D01*
G01X140820Y24500D01*
X141480Y23840D01*
Y19670D01*
X141290Y19490D01*
G02X140610Y19770I-282J282D01*
G01Y22860D01*
G37*
G36*
G01X149550Y15460D02*
Y21160D01*
X151630D01*
Y21960D01*
X151780D01*
Y24380D01*
X151630D01*
Y25640D01*
X152050D01*
Y31160D01*
X148920D01*
X148670Y31410D01*
X148560D01*
G02X147900Y32660I2J800D01*
G03X147310Y35480I-1680J1120D01*
G02X147270Y36130I211J339D01*
G03X147590Y36450I-1260J1580D01*
G01X150370D01*
X156340Y30480D01*
Y24620D01*
X154740Y23020D01*
Y16380D01*
X154970Y16140D01*
G02X154690Y15460I-282J-282D01*
G01X149550D01*
G37*
G36*
G01X142080Y43540D02*
Y42870D01*
X141840Y42770D01*
G03X141210Y42360I767J-1867D01*
G01X141080Y42240D01*
X140210Y42290D01*
X139130Y41210D01*
X135420D01*
G02X134860Y42580I2J800D01*
G01X135820Y43540D01*
X142080D01*
G37*
G36*
G01X159930Y71390D02*
X159870Y59460D01*
X156280D01*
Y58660D01*
X156130D01*
Y56240D01*
X156280D01*
Y55440D01*
X156570D01*
Y54930D01*
X156520Y54840D01*
G03X156270Y54090I1750J-1000D01*
G01X156250Y53950D01*
X154610Y52320D01*
X152280D01*
Y56650D01*
G03X151050Y60250I-1259J1580D01*
G02X150260Y61050I10J800D01*
G01Y67880D01*
X148120Y70020D01*
G02X148680Y71390I562J570D01*
G01X159930D01*
G37*
G36*
G01X157540Y-16130D02*
G02X156170Y-15560I-569J564D01*
G01Y-6490D01*
X155110D01*
Y-4520D01*
X155870D01*
Y-4510D01*
X159860D01*
Y-3710D01*
X160010D01*
Y-1290D01*
X159860D01*
Y-490D01*
X155870D01*
Y-480D01*
X151640D01*
X151610Y-120D01*
G03X151580Y90I-2010J-180D01*
G01X151570Y130D01*
Y570D01*
X168880D01*
X168890Y580D01*
X169420D01*
X169430Y590D01*
X171730D01*
X172110Y200D01*
G02X171830Y-480I-281J-282D01*
G01X163330D01*
Y-4520D01*
X164090D01*
Y-5140D01*
X164440Y-5480D01*
G02X163870Y-6850I-565J-569D01*
G01X162410D01*
X159340Y-9920D01*
Y-14320D01*
X157540Y-16130D01*
G37*
G36*
G01X180680Y10710D02*
X178420Y12960D01*
X172420D01*
X170910Y14470D01*
G02X171000Y15680I568J566D01*
G03X171400Y16070I-1195J1626D01*
G02X172390Y16290I629J-492D01*
G03X172380Y19900I907J1808D01*
G01X172120Y19760D01*
X171690Y20190D01*
G02X172250Y21560I562J570D01*
G01X174570D01*
G03X176600Y24890I1468J1389D01*
G01X176320Y24970D01*
Y30820D01*
X171300D01*
Y25580D01*
X170790D01*
Y24780D01*
X170640D01*
Y22360D01*
X170790D01*
Y20760D01*
X170120D01*
X166360Y24520D01*
Y33380D01*
X167220Y34240D01*
X171820D01*
X178030Y40450D01*
X178570Y39910D01*
X178560Y39740D01*
G03X181830Y38090I2020J-62D01*
G01X182110Y38310D01*
X185340Y35080D01*
Y33420D01*
X180140Y28220D01*
Y14870D01*
X182940Y12070D01*
G02X182370Y10710I-568J-561D01*
G01X180680D01*
G37*
G36*
G01X163120Y35260D02*
X161910Y36470D01*
Y38190D01*
X154670Y45430D01*
G02X155230Y46800I562J570D01*
G01X157500D01*
Y50930D01*
X158380Y51820D01*
X158520Y51840D01*
G03X159870Y52600I-240J2006D01*
G03X162490Y55660I1229J1599D01*
G01X162370Y55780D01*
X162450Y71390D01*
X192080D01*
G02X192880Y70620I1J-799D01*
G03X193640Y69120I2019J81D01*
G01Y68600D01*
X194590Y67650D01*
Y65320D01*
X179200Y49940D01*
G02X177890Y50220I-564J565D01*
G03X176180Y51520I-1890J-711D01*
G02X175820Y51920I39J397D01*
G01Y52320D01*
X174820D01*
Y53340D01*
X175220D01*
Y57360D01*
X170700D01*
Y56560D01*
X170550D01*
Y54140D01*
X170700D01*
Y53340D01*
X171800D01*
Y52320D01*
X170800D01*
Y46800D01*
X175540D01*
Y43080D01*
X170320Y37860D01*
X165720D01*
X163120Y35260D01*
G37*
G36*
G01X188980Y31490D02*
X189210Y31730D01*
Y37120D01*
X186590Y40130D01*
X186610Y40300D01*
G03X183320Y42070I-2012J204D01*
G01X183040Y41840D01*
X182500Y42390D01*
X182800Y42690D01*
X182830Y42710D01*
G03X183650Y44630I-1180J1639D01*
G02X184440Y45540I792J110D01*
G01X195220D01*
X197070Y47390D01*
G02X198360Y47160I565J-566D01*
G03X199790Y46020I1839J840D01*
G02X200190Y44670I-164J-783D01*
G01X200040Y44520D01*
Y38760D01*
G02X198970Y38000I-802J-5D01*
G03X196430Y36860I-672J-1903D01*
G01X196330Y36620D01*
X195660D01*
Y37350D01*
X190140D01*
Y32330D01*
X192560D01*
X192720Y32180D01*
G02X192160Y30810I-563J-569D01*
G01X189260D01*
G02X188980Y31490I2J398D01*
G37*
G36*
G01X189660Y-39970D02*
X191690Y-37950D01*
X191700D01*
X191730Y-37920D01*
X204700D01*
Y-41350D01*
X199400D01*
Y-40470D01*
X193440D01*
Y-45250D01*
X199400D01*
Y-44370D01*
X202460D01*
G02X203030Y-45740I5J-801D01*
G01X200080Y-48680D01*
G02X199400Y-48400I-281J284D01*
G01Y-47950D01*
X193440D01*
Y-52690D01*
X191470D01*
X189970Y-51190D01*
Y-40460D01*
X189870D01*
X189660Y-39970D01*
G37*
G36*
G01X189970Y-21910D02*
X193930Y-17950D01*
X204700D01*
Y-21250D01*
X199400D01*
Y-20370D01*
X193440D01*
Y-25150D01*
X199400D01*
Y-24270D01*
X201760D01*
G02X202330Y-25640I5J-801D01*
G01X199890Y-28080D01*
X199400Y-27870D01*
Y-27850D01*
X193440D01*
Y-32590D01*
X191470D01*
X189970Y-31090D01*
Y-21910D01*
G37*
G36*
G01Y-2210D02*
X194230Y2050D01*
X204700D01*
Y-1550D01*
X199400D01*
Y-670D01*
X193440D01*
Y-5450D01*
X199400D01*
Y-4570D01*
X203060D01*
G02X203630Y-5940I5J-801D01*
G01X200530Y-9030D01*
X199400D01*
Y-8150D01*
X193440D01*
Y-12690D01*
X191270D01*
X189970Y-11390D01*
Y-2210D01*
G37*
G36*
G01X203340Y16800D02*
X200270Y19870D01*
X199700D01*
Y20750D01*
X193740D01*
Y18130D01*
G02X192370Y17560I-801J-5D01*
G01X190270Y19670D01*
Y27790D01*
X193740D01*
Y23450D01*
X199700D01*
X199920Y23540D01*
X204700Y18760D01*
Y17360D01*
G02X203340Y16800I-797J5D01*
G37*
G36*
G01X209830Y63790D02*
X212880Y60740D01*
X219880D01*
G02X220550Y59510I-2J-799D01*
G03X220900Y56060I2350J-1504D01*
G02Y54940I-576J-560D01*
G03X220710Y54730I1970J-1973D01*
G02X220090I-310J251D01*
G03X215960Y55000I-2187J-1731D01*
G02X214840I-560J576D01*
G03X210960I-1940J-2000D01*
G02X209840I-560J576D01*
G03X209630Y55190I-1973J-1970D01*
G02Y55810I251J310D01*
G03X205900Y56060I-1727J2190D01*
G02Y54940I-576J-560D01*
G03X205710Y54730I1970J-1973D01*
G02X205090I-310J251D01*
G03X201390Y55340I-2186J-1732D01*
G01X201110Y55170D01*
X200410Y55870D01*
Y58830D01*
X204260Y62680D01*
Y63790D01*
X209830D01*
G37*
G36*
G01X205860Y74490D02*
X201780Y78570D01*
G02X202340Y79940I562J570D01*
G01X224850D01*
G02X227850Y76940I0J-3000D01*
G01Y62660D01*
G02X226480Y62100I-800J2D01*
G01X225320Y63260D01*
X213920D01*
X210870Y66310D01*
X205860D01*
Y74490D01*
G37*
%LPC*%
G75*
G36*
G01X21870Y43900D02*
G03X20590Y43500I-509J-618D01*
G02X17030Y45260I-1941J555D01*
G02X17060Y47710I1620J1205D01*
G02Y50210I1590J1250D01*
G02X17070Y52710I1591J1244D01*
G02X19870Y55400I1782J947D01*
G02X21060Y51740I1180J-1640D01*
G03X20670Y51360I9J-399D01*
G02X20620Y51020I-2017J123D01*
G03X21270Y50050I781J-180D01*
G02X22200Y49640I-323J-1993D01*
G02X24770Y46660I946J-1782D01*
G02X21870Y43900I-1626J-1195D01*
G37*
G36*
G01X19620Y31830D02*
G02X19860Y31070I-1768J-976D01*
G02X20550Y27100I194J-2011D01*
G03X20250Y26660I95J-387D01*
G02X16470Y27310I-1998J-300D01*
G02X16300Y29570I1581J1255D01*
G02X16180Y31990I1551J1290D01*
G02X19620Y31830I1769J972D01*
G37*
G36*
G01X31500Y-49150D02*
X29750D01*
X28640Y-48040D01*
Y-38340D01*
X30950Y-36030D01*
X48550D01*
X53750Y-41230D01*
X67950D01*
X70840Y-38340D01*
Y-28340D01*
X69740Y-27240D01*
Y-20040D01*
X75650Y-14130D01*
X81550D01*
X84360Y-16940D01*
Y-50740D01*
X78650Y-56450D01*
X45750D01*
X38450Y-49150D01*
X37020D01*
G03X36240Y-50120I0J-799D01*
G02X35350Y-52240I-1978J-417D01*
G03X35150Y-53400I432J-672D01*
G02X31750Y-55550I-1598J-1236D01*
G02X31250Y-55540I-210J2010D01*
G02X28340Y-56590I-1897J700D01*
G02X25120Y-56530I-1587J1250D01*
G03X24610Y-56420I-319J-241D01*
G02X21830Y-53750I-965J1778D01*
G02X21380Y-51010I1221J1608D01*
G02X24920Y-49300I1569J1271D01*
G03X25770Y-49930I783J168D01*
G02X27370Y-50500I185J-2012D01*
G03X28390Y-50590I564J567D01*
G02X31440Y-51520I1163J-1651D01*
G02X31860Y-51540I114J-2019D01*
G03X32300Y-51050I55J393D01*
G02X32280Y-50120I1958J507D01*
G03X31500Y-49150I-780J171D01*
G37*
G36*
G01X127950Y47040D02*
X119750D01*
X119550Y47240D01*
X112950D01*
X112400Y47790D01*
X104300D01*
X102900Y49190D01*
X99300D01*
X98750Y49740D01*
X98650D01*
Y49830D01*
X98090Y50400D01*
Y54800D01*
X98130Y54840D01*
G03X97560Y56200I-568J561D01*
G01X93660D01*
Y61220D01*
X97720D01*
G02X99990Y61460I1310J-1539D01*
G01X100080Y61410D01*
X102710D01*
Y61260D01*
X103510D01*
Y60170D01*
X105080D01*
X106210Y59040D01*
X115040D01*
Y59960D01*
X115090Y60010D01*
Y61800D01*
X116090Y62800D01*
Y62960D01*
X116250D01*
X116500Y63210D01*
X118300D01*
X119500Y64410D01*
X122000D01*
X125810Y60600D01*
Y57600D01*
X124400Y56190D01*
X123900D01*
X122490Y54780D01*
G03X123050Y53410I562J-570D01*
G01X128200D01*
X129210Y52400D01*
Y48300D01*
X127950Y47040D01*
G37*
G54D27*
X-10710Y-66290D03*
X-1400Y-28900D03*
X-8200Y22600D03*
X-7160Y50240D03*
X57900Y32000D03*
X83060Y12260D03*
G54D28*
X-2090Y-14310D03*
Y1430D03*
%LPD*%
G75*
G36*
G01X53250Y-42440D02*
X68450D01*
X72050Y-38840D01*
Y-27840D01*
X70950Y-26740D01*
Y-20540D01*
X76150Y-15340D01*
X81050D01*
X83150Y-17440D01*
Y-50240D01*
X78150Y-55240D01*
X46250D01*
X38950Y-47940D01*
X30250D01*
X29850Y-47540D01*
Y-38840D01*
X31450Y-37240D01*
X48050D01*
X53250Y-42440D01*
G37*
G36*
G01X120300Y52800D02*
X120900Y52200D01*
X127700D01*
X128000Y51900D01*
Y48800D01*
X127450Y48250D01*
X120250D01*
X120050Y48450D01*
X113450D01*
X112900Y49000D01*
X104800D01*
X103400Y50400D01*
X99800D01*
X99300Y50900D01*
Y54300D01*
X99600Y54600D01*
X103100D01*
X104900Y52800D01*
X120300D01*
G37*
G36*
G01X120500Y54500D02*
X116750D01*
X116250Y55000D01*
Y59460D01*
X116300Y59510D01*
Y61300D01*
X117000Y62000D01*
X118800D01*
X119090Y62290D01*
X119310D01*
Y62440D01*
X120110D01*
Y63200D01*
X121500D01*
X124600Y60100D01*
Y58100D01*
X123900Y57400D01*
X123400D01*
X120500Y54500D01*
G37*
G54D10*
X-7800Y-85180D03*
Y72300D03*
X220210Y-85180D03*
Y72300D03*
G54D20*
X152350Y-13480D03*
Y-16040D03*
Y-8360D03*
Y-10920D03*
X169450Y-16040D03*
Y-13480D03*
Y-10920D03*
Y-8360D03*
G54D11*
G01X79610Y36130D02*
Y36580D01*
G01D02*
Y40910D01*
X81300Y42600D01*
G01X96450Y35370D02*
Y37450D01*
G01D02*
X92500Y41400D01*
X89960D01*
G01X96450Y37450D02*
X97700Y38700D01*
X100300D01*
G01D02*
Y26700D01*
G01D02*
Y25000D01*
X99400Y24100D01*
G01X103000Y26700D02*
X100300D01*
G01X109200Y37600D02*
X110800D01*
X112300Y36100D01*
G01X109400Y32400D02*
X111100Y30700D01*
X113000D01*
G01X129600Y33800D02*
X132100Y36300D01*
G01X130200Y30100D02*
X132470D01*
X132500Y30130D01*
G01X208670Y28560D02*
X204030Y33200D01*
X194540D01*
X192900Y34840D01*
X-10710Y-66290D03*
X-13900Y-69400D03*
X-1800Y-75400D03*
X-12700Y-74100D03*
X-13800Y-62300D03*
X-13900Y-49500D03*
X-11830Y-58570D03*
X-13800Y-38700D03*
X-13000Y-29700D03*
X-10870Y-42430D03*
X-10520Y-35620D03*
X-1400Y-28900D03*
X-10500Y-26100D03*
X-14870Y-19630D03*
X-15160Y-11160D03*
X-15280Y-1720D03*
X-14150Y6750D03*
X-1700Y20600D03*
X-14600Y26300D03*
X-14200Y30300D03*
X-14600Y34600D03*
X-7550Y37700D03*
X-8200Y22600D03*
X-1250Y38400D03*
X-7160Y50240D03*
X-14200Y39300D03*
X-14400Y43200D03*
X-14300Y51600D03*
X-13900Y56700D03*
X-13000Y61400D03*
X1700Y-80100D03*
X9100Y-88400D03*
X9700Y-91700D03*
X4400Y-91000D03*
X4700Y-86700D03*
X8700Y-65700D03*
X15300Y-79000D03*
X12850Y-71340D03*
X13350Y-65640D03*
X7100Y-57000D03*
X10100Y-55000D03*
X9200Y-47400D03*
X4000D03*
X3500Y-54700D03*
X6800Y-51700D03*
Y-59900D03*
X13450Y-46140D03*
Y-51040D03*
X13350Y-55940D03*
Y-60840D03*
X10200Y-32300D03*
X5600Y-30800D03*
X2400Y-31400D03*
X2200Y-35200D03*
X4800Y-39600D03*
X9400D03*
X6800Y-35100D03*
Y-43400D03*
X13450Y-31340D03*
Y-36240D03*
Y-41240D03*
X15300Y-27100D03*
X11600Y-25900D03*
X8400Y-23700D03*
X9900Y-27900D03*
X2200Y-27500D03*
X4100Y-23500D03*
X6900Y-13500D03*
X6800Y-18500D03*
Y-26800D03*
X-710Y-24390D03*
X10650Y-20540D03*
X13150Y-19140D03*
X10650Y-18240D03*
X13950Y-14640D03*
X11550Y-14040D03*
X12350Y-16640D03*
Y-22140D03*
X7400Y2000D03*
X7600Y4500D03*
X13150Y-11540D03*
X13850Y-8340D03*
X10950Y-8840D03*
Y-4440D03*
X14150Y-4340D03*
X12550Y-6240D03*
X14250Y-340D03*
X12650Y-2240D03*
X14150Y3260D03*
X7700Y7800D03*
X7900Y10800D03*
X8000Y13700D03*
X8100Y16600D03*
X9600Y18600D03*
X11400Y20000D03*
X14500Y21700D03*
X16050Y13760D03*
X13850Y6960D03*
X15150Y8960D03*
X-710Y8030D03*
X9700Y32500D03*
X9600Y36600D03*
X5400Y38000D03*
Y33900D03*
X13750Y35460D03*
Y30460D03*
X9700Y40300D03*
X10000Y45600D03*
X11100Y52500D03*
X5000Y42200D03*
X5400Y46300D03*
X13750Y50160D03*
Y45260D03*
Y40360D03*
X10330Y70670D03*
X1100Y60300D03*
X2400Y78800D03*
X13500Y76300D03*
X18500Y-85200D03*
X16400Y-70900D03*
X31500D03*
X26600Y-71700D03*
X21900Y-72200D03*
X18300Y-78800D03*
X16400Y-75100D03*
X23100Y-77200D03*
X28900Y-75800D03*
X16950Y-67440D03*
X20150Y-64240D03*
X16950Y-62540D03*
Y-52740D03*
Y-47840D03*
X29350Y-54840D03*
X25950Y-51940D03*
X26750Y-55340D03*
X23650Y-54640D03*
X23050Y-52140D03*
X22950Y-49740D03*
X29550Y-52240D03*
X31550Y-53540D03*
X20500Y-35500D03*
X16950Y-37940D03*
X16850Y-33040D03*
X20450Y-29140D03*
X18490Y-26900D03*
X30050Y-5740D03*
X30350Y-2740D03*
X17400Y21600D03*
X31000Y20600D03*
X22450Y13860D03*
X19350Y13760D03*
X27550Y9060D03*
X24650D03*
X21550D03*
X18450Y8960D03*
X23150Y10960D03*
X20050Y10860D03*
X16750D03*
X24640Y37770D03*
X30880Y26230D03*
X17950Y32960D03*
X20050Y29060D03*
X17850Y30860D03*
X18050Y28560D03*
X18250Y26360D03*
X23150Y45460D03*
Y47860D03*
X18650Y44060D03*
Y46460D03*
Y48960D03*
Y51460D03*
X21050Y53760D03*
X18850Y53660D03*
X20940Y48060D03*
X31620Y50830D03*
X40700Y-80100D03*
X48800Y-80200D03*
X45200D03*
X34550Y-76840D03*
X34050Y-64240D03*
X33550Y-54640D03*
X34260Y-50540D03*
X47520Y-38240D03*
X33250Y-24840D03*
X35350Y-24340D03*
X35250Y-22240D03*
X33250Y-21540D03*
X47020Y-1240D03*
X34450Y20460D03*
X37550Y20560D03*
X40650D03*
X43550D03*
X46350Y20460D03*
X46650Y13760D03*
X43950Y13860D03*
X41050D03*
X37950D03*
X47350Y10860D03*
X44550Y10960D03*
X41650D03*
X42160Y23960D03*
X47420Y52070D03*
X41320Y40860D03*
X40820Y66870D03*
X62050Y-36140D03*
Y-31040D03*
X65370Y-33580D03*
X64390Y-43680D03*
X65250Y20460D03*
X52750Y20560D03*
X55850D03*
X58750D03*
X61950Y20460D03*
X65050Y13560D03*
X61750D03*
X59050Y13860D03*
X56150D03*
X53050D03*
X49950Y13760D03*
X64150Y8760D03*
X60850D03*
X66250Y10860D03*
X62950D03*
X59750Y10960D03*
X56850D03*
X53750D03*
X50650Y10860D03*
X65050Y4860D03*
X62690Y5000D03*
X54500Y32100D03*
X51320Y29370D03*
X57900Y32000D03*
X56120Y48070D03*
X66020Y39570D03*
X58620Y65470D03*
X56250Y67260D03*
X64850Y68060D03*
X60320Y63070D03*
X53650Y68960D03*
X60300Y68000D03*
X81400Y-78500D03*
X71900Y-78400D03*
X67950Y-30940D03*
X68050Y-36140D03*
X68320Y-43670D03*
X72850Y-25940D03*
X83060Y12260D03*
X68050Y20460D03*
X74150Y13660D03*
X71250D03*
X68150D03*
X73250Y8860D03*
X70350D03*
X67250D03*
X75350Y10960D03*
X72450D03*
X69350D03*
X67250Y4960D03*
X76150Y5460D03*
X79550Y7760D03*
X83250Y5160D03*
X69450Y4860D03*
X71790Y5020D03*
X80890Y5320D03*
X80900Y23000D03*
X69260Y25670D03*
X82300Y25590D03*
X81300Y42600D03*
X69220Y39270D03*
X82350Y51660D03*
X73640D03*
X71890Y44200D03*
X79870Y68400D03*
X75470Y68340D03*
X70600Y68200D03*
X75250Y58060D03*
X82800Y68300D03*
X90800Y-78400D03*
X98800Y-71600D03*
X92100Y-71700D03*
X89000Y-71500D03*
X94480Y-34320D03*
X99200Y-1900D03*
X97700Y-9300D03*
X99500Y-7800D03*
X100100Y-10700D03*
X94900Y21700D03*
Y14100D03*
X96700Y28500D03*
X88220Y25570D03*
X85310Y25880D03*
X100300Y38700D03*
X89920Y55400D03*
X100500Y47900D03*
X99030Y59680D03*
X89250Y67960D03*
X85620Y68570D03*
X112600Y-80500D03*
X112400Y-83600D03*
X112600Y-77400D03*
X112400Y-75000D03*
X101000Y-71700D03*
X109600Y-78200D03*
X112840Y-48860D03*
X105800Y-57800D03*
X112640Y-43860D03*
X112540Y-38860D03*
X112440Y-33860D03*
X109600Y-23860D03*
X110500Y-25800D03*
X106100Y-23860D03*
X116600Y-8100D03*
X112500Y1800D03*
X114600D03*
X114050Y-9440D03*
X109400Y-6300D03*
X111900Y-9300D03*
X112050Y-7140D03*
X115200Y-600D03*
X104450Y13750D03*
X112300Y36100D03*
X103000Y26700D03*
Y32300D03*
X113400Y33500D03*
X115900Y38500D03*
X113000Y30700D03*
X110500Y23400D03*
X103300Y42800D03*
X111800Y56200D03*
X113750Y55650D03*
X129500Y-90000D03*
X119500Y-91000D03*
Y-88300D03*
X118500Y-72700D03*
Y-75000D03*
X123400Y-73400D03*
Y-75900D03*
X134200Y-76800D03*
X118500Y-79600D03*
X133200Y-51100D03*
X130650Y-53640D03*
X132700Y-41800D03*
X130650Y-45040D03*
X130700Y-32600D03*
X133800Y-25900D03*
X118100Y-10500D03*
X122700Y-3600D03*
X125800Y1300D03*
X123400Y1400D03*
X118300Y-1100D03*
X119600Y6700D03*
X134300Y15600D03*
X125490Y16010D03*
X118800Y16000D03*
X131490Y15790D03*
X128490Y15810D03*
X122600Y15900D03*
X122000Y35900D03*
X132100Y36300D03*
X133100Y33500D03*
X123300Y33400D03*
X122200Y29900D03*
X132500Y30130D03*
X124300Y37600D03*
X120200Y45300D03*
X124000Y49500D03*
X126800Y49600D03*
X125300Y51000D03*
X126000Y65800D03*
X123500Y58700D03*
X120300Y61600D03*
X121650Y60050D03*
X139500Y-90700D03*
X139400Y-88100D03*
X136500Y-63300D03*
X143800Y-50200D03*
X141600Y-45300D03*
X145200Y-41300D03*
X142800Y-36400D03*
X142600Y-32000D03*
X137200Y-31400D03*
X137500Y-15300D03*
X140300Y-26600D03*
X146700Y-16800D03*
X149600Y-300D03*
X144270Y15970D03*
X139600Y5900D03*
Y8500D03*
X145450Y25900D03*
X141230Y34070D03*
X140890Y23590D03*
X136400Y23300D03*
X140500Y26500D03*
X145400Y29900D03*
X146010Y37710D03*
X146220Y33780D03*
X136580Y36820D03*
Y27200D03*
X135900Y41900D03*
X145400Y42000D03*
X142600Y40900D03*
X142100Y67400D03*
X143400Y60200D03*
X151020Y58230D03*
X156100Y-79600D03*
X154900Y-58300D03*
X161000Y-51000D03*
X164700Y-59500D03*
X162900Y-47200D03*
X156900Y-49300D03*
X165500Y-43300D03*
X154600Y-44400D03*
X152600Y-35500D03*
X162100Y-35400D03*
X156500Y-39100D03*
X159600Y-41500D03*
X163700Y-39000D03*
Y-30400D03*
X154400Y-30200D03*
X158400Y-32800D03*
X161500Y-18500D03*
X163700Y-16800D03*
X164000Y-13500D03*
X157600Y-13700D03*
X162800Y-27300D03*
X157600Y-25000D03*
X160700Y-300D03*
X161900Y11500D03*
X162310Y17610D03*
X165200Y17200D03*
X160340Y19600D03*
X151500Y11600D03*
X165000Y11500D03*
X163290Y36730D03*
X168290Y31200D03*
X153950Y31760D03*
X158270Y53840D03*
X168290Y45300D03*
X160310Y45420D03*
X161100Y54200D03*
X152400Y69200D03*
X155150Y64690D03*
X171550Y-61340D03*
X173250Y-57540D03*
X176800Y-46500D03*
X177000Y-26800D03*
X169600Y-24400D03*
X183900Y-6800D03*
X173300Y18100D03*
X169800Y17300D03*
X176040Y22950D03*
X176000Y49510D03*
X173050Y43060D03*
X184600Y40500D03*
X181650Y44350D03*
X180580Y39680D03*
X179800Y65800D03*
X170650Y60760D03*
X184400Y64000D03*
X196100Y-83400D03*
X188200Y-83100D03*
X192400Y-83200D03*
X201500Y-89100D03*
X201150Y-82040D03*
X200700Y-78000D03*
X199100Y-75000D03*
X196450Y-78740D03*
X192800Y-46600D03*
Y-26500D03*
X192600Y-6800D03*
X189600Y14700D03*
X193300Y22100D03*
X198300Y36100D03*
X195040Y50960D03*
X198390Y39090D03*
X200200Y48000D03*
X200950Y64150D03*
X197900Y70700D03*
X194900D03*
X209400Y-91200D03*
X206200Y-88100D03*
X208600Y-85800D03*
X203850Y-80440D03*
X206800Y-78800D03*
X204300Y-71000D03*
X211000Y-75800D03*
X214400Y-65700D03*
X215700Y-70400D03*
X203150Y-74640D03*
X210350Y-64840D03*
X208350Y-70340D03*
X214100Y-57500D03*
X219000Y-58900D03*
X215100Y-61100D03*
X217700Y34000D03*
X216900Y44300D03*
X207160Y67140D03*
X209700Y72800D03*
X207000Y74000D03*
X210700Y77500D03*
X206600Y78200D03*
X221600Y-73200D03*
X225400Y-71000D03*
X220400Y-66900D03*
X223900Y-63000D03*
X226650Y-58340D03*
Y-48540D03*
Y-38640D03*
Y-28840D03*
Y-19040D03*
Y-9140D03*
Y660D03*
Y10460D03*
X222300Y33800D03*
X226650Y25360D03*
Y35160D03*
X221600Y44600D03*
X226650Y44960D03*
G54D12*
X-2090Y-14310D03*
Y1430D03*
G54D21*
X136600Y-6020D03*
G54D22*
X186980Y-46600D03*
Y-50340D03*
X196420D03*
Y-46600D03*
X186980Y-42860D03*
X196420D03*
X186980Y-30240D03*
X196420D03*
X186980Y-22760D03*
Y-26500D03*
X196420D03*
Y-22760D03*
X186980Y-3060D03*
Y-6800D03*
Y-10540D03*
X196420D03*
Y-6800D03*
Y-3060D03*
X187280Y22100D03*
Y18360D03*
X196720D03*
Y22100D03*
X187280Y25840D03*
X196720D03*
G54D13*
X24590Y-89340D03*
X34590D03*
Y76460D03*
X24590D03*
X44590Y-89340D03*
Y76460D03*
X54590Y-89340D03*
X64590D03*
X54590Y76460D03*
X64590D03*
X74590Y-89340D03*
X84590D03*
X74590Y76460D03*
X84590D03*
X94590Y-89340D03*
Y76460D03*
X114590Y-89340D03*
X104590D03*
X114590Y6740D03*
X104590Y76460D03*
X114590D03*
X134590Y-89340D03*
X124590D03*
X134590Y6740D03*
X124590D03*
Y76460D03*
X134590D03*
X144590Y-89340D03*
Y6740D03*
Y76460D03*
X164590Y-89340D03*
X154590D03*
X164590Y6740D03*
X154590D03*
Y76460D03*
X164590D03*
X174590Y-89340D03*
X184590D03*
X174590Y6740D03*
X184590D03*
X174590Y76460D03*
X184590D03*
X194590Y-89340D03*
Y76460D03*
X218670Y-51440D03*
X208670D03*
Y-31440D03*
Y-41440D03*
X218670Y-31440D03*
Y-41440D03*
X208670Y-11440D03*
X218670D03*
Y-21440D03*
X208670D03*
X218670Y-1440D03*
X208670D03*
X218670Y18560D03*
X208670D03*
Y8560D03*
X218670D03*
Y38560D03*
X208670Y28560D03*
X218670D03*
X208670Y38560D03*
G54D14*
X65440Y30610D03*
Y36130D03*
X64500Y55010D03*
Y60530D03*
X79610Y30610D03*
Y36130D03*
X70480Y55010D03*
Y60530D03*
X91760Y30610D03*
Y36130D03*
X96420Y58710D03*
Y64230D03*
X89920D03*
Y58710D03*
X106590Y51000D03*
X112570D03*
X106590Y56520D03*
X112570D03*
X118550Y51000D03*
Y56520D03*
X192900Y34840D03*
Y40360D03*
G54D23*
X202900Y53000D03*
Y58000D03*
X207900Y53000D03*
X212900D03*
X217900D03*
X207900Y58000D03*
X212900D03*
X217900D03*
X222900Y53000D03*
Y58000D03*
G54D24*
G01X161200Y72650D02*
X17950D01*
X8800Y63500D01*
X400D01*
X-1250Y61850D01*
Y38400D01*
G01X1100Y60300D02*
X8700D01*
X19950Y71550D01*
X144810D01*
X149000Y67360D01*
Y47200D01*
X159050Y37150D01*
Y35650D01*
X161600Y33100D01*
Y20860D01*
X160340Y19600D01*
G01X13500Y76300D02*
X17470Y80270D01*
X198300D01*
X204600Y73970D01*
Y65550D01*
X205100Y65050D01*
X210350D01*
X213400Y62000D01*
X224800D01*
X226800Y60000D01*
Y49000D01*
X225400Y47600D01*
X210500D01*
X207800Y44900D01*
X202200D01*
X201300Y44000D01*
Y37200D01*
X200200Y36100D01*
X198300D01*
G01X162310Y17610D02*
X159290D01*
X158400Y18500D01*
Y21400D01*
X160000Y23000D01*
Y32800D01*
X157300Y35500D01*
Y37100D01*
X147900Y46500D01*
Y66900D01*
X144600Y70200D01*
X86610D01*
X86390Y70420D01*
X84850D01*
X84630Y70200D01*
X80690D01*
X80640Y70250D01*
X79100D01*
X79050Y70200D01*
X54890D01*
X53650Y68960D01*
G01X60300Y68000D02*
X63510Y64600D01*
X72700D01*
X96550Y40750D01*
X111030D01*
X115340Y36440D01*
X117190D01*
X117750Y37000D01*
Y39440D01*
X120810Y42500D01*
X129300D01*
X132000Y45200D01*
Y51800D01*
X142700Y62500D01*
X145300D01*
X146400Y61400D01*
Y45500D01*
X155300Y36600D01*
Y35400D01*
X158800Y31900D01*
Y24000D01*
X158700Y23900D01*
Y23640D01*
X157100Y22040D01*
Y18200D01*
X159540Y15760D01*
X164290D01*
X165200Y17200D01*
G01X112840Y-48860D02*
X109600Y-52100D01*
Y-66400D01*
X101200Y-74800D01*
X89130D01*
X74590Y-89340D01*
G01X79870Y68400D02*
Y58990D01*
X96060Y42800D01*
X103300D01*
G01X82800Y68300D02*
Y57620D01*
X95220Y45200D01*
X109200D01*
X115900Y38500D01*
G01X84590Y-89340D02*
X96510Y-77420D01*
X100140D01*
X110700Y-66860D01*
Y-54300D01*
X114900Y-50100D01*
Y-46120D01*
X112640Y-43860D01*
G01X112540Y-38860D02*
X116210Y-42530D01*
Y-50490D01*
X111800Y-54900D01*
Y-67320D01*
X94590Y-84530D01*
Y-89340D01*
G01X145400Y42000D02*
X142600Y44800D01*
X135300D01*
X131750Y41250D01*
X121640D01*
X118850Y38460D01*
Y30250D01*
X117200Y28600D01*
X106500D01*
X104900Y27000D01*
Y24400D01*
X100010Y19510D01*
X99990D01*
X99980Y19500D01*
X91790D01*
X88800Y16510D01*
Y10500D01*
X91800Y7500D01*
Y-27820D01*
X112840Y-48860D01*
G01X112640Y-43860D02*
X93100Y-24320D01*
Y8000D01*
X90200Y10900D01*
Y16000D01*
X92550Y18350D01*
X92580D01*
X92630Y18400D01*
X100460D01*
X106010Y23950D01*
Y24850D01*
X106000Y24860D01*
Y26400D01*
X107100Y27500D01*
X117800D01*
X120000Y29700D01*
Y37790D01*
X122160Y39950D01*
X139650D01*
X140700Y41000D01*
X142600Y40900D01*
G01X112540Y-38860D02*
X94200Y-20520D01*
Y8460D01*
X94000Y8660D01*
Y9300D01*
X91500Y11800D01*
Y15710D01*
X93090Y17300D01*
X101700D01*
X107300Y22900D01*
Y25500D01*
X108200Y26400D01*
X131600D01*
X135000Y29800D01*
Y32200D01*
X140800Y38000D01*
X143100D01*
X144700Y39600D01*
X145900D01*
X147300Y41000D01*
Y43000D01*
X143400Y46900D01*
Y60200D01*
G01X109600Y-78200D02*
Y-72640D01*
X114000Y-68240D01*
Y-55960D01*
X118500Y-51460D01*
Y-51400D01*
X118600Y-51300D01*
Y-34100D01*
X113700Y-29200D01*
X106900D01*
X95450Y-17750D01*
Y10050D01*
X92900Y12600D01*
Y15250D01*
X93850Y16200D01*
X102500D01*
X108400Y22100D01*
Y24900D01*
X108800Y25300D01*
X111500D01*
X112500Y24300D01*
X131060D01*
X138510Y31750D01*
X142450D01*
X144480Y33780D01*
X146220D01*
G01X96450Y31370D02*
Y27800D01*
X95620Y26970D01*
G01X112440Y-33860D02*
X117400Y-38820D01*
Y-51000D01*
X112900Y-55500D01*
Y-67780D01*
X104590Y-76090D01*
Y-89340D01*
G01X124590D02*
X115800Y-80550D01*
Y-71410D01*
X117000Y-70210D01*
Y-57610D01*
X121500Y-53110D01*
Y-31400D01*
X111500Y-21400D01*
X108000D01*
X104100Y-17500D01*
Y10700D01*
X106800Y13400D01*
Y15000D01*
X111100Y19300D01*
X127980D01*
X131490Y15790D01*
G01X128490Y15810D02*
Y14410D01*
X130400Y12500D01*
X135600D01*
X136200Y13100D01*
Y17000D01*
X131600Y21600D01*
X112000D01*
X111200Y20800D01*
X108700D01*
X102000Y14100D01*
Y-22500D01*
X107200Y-27700D01*
X115190D01*
X120290Y-32800D01*
Y-52600D01*
X115790Y-57100D01*
Y-69700D01*
X114590Y-70900D01*
Y-89340D01*
G01X134590D02*
X132350D01*
X128110Y-85100D01*
X125500D01*
X121000Y-80600D01*
Y-58800D01*
X123500Y-56300D01*
Y-30290D01*
X118400Y-25190D01*
Y-19800D01*
X105800Y-7200D01*
Y10600D01*
X111800Y16600D01*
X118200D01*
X118800Y16000D01*
G01X125490Y16010D02*
Y16910D01*
X124500Y17900D01*
X121150D01*
X120650Y17400D01*
Y14650D01*
X119840Y13840D01*
X111240D01*
X107200Y9800D01*
Y500D01*
X113000Y-5300D01*
X118100D01*
X122150Y-9350D01*
Y-25750D01*
X125400Y-29000D01*
Y-80000D01*
X130000Y-84600D01*
X139850D01*
X144590Y-89340D01*
G01X154590D02*
X150150Y-84900D01*
X145400D01*
X143200Y-82700D01*
X130200D01*
X126800Y-79300D01*
Y-27500D01*
X124600Y-25300D01*
Y-9500D01*
X119200Y-4100D01*
X114700D01*
X108900Y1700D01*
Y9300D01*
X110800Y11200D01*
X116810D01*
X117310Y11700D01*
Y12010D01*
X118040Y12740D01*
X120790D01*
X122100Y14050D01*
X122600Y15900D01*
G01X151500Y11600D02*
X143840D01*
X141200Y14240D01*
Y17610D01*
X142740Y19150D01*
Y24360D01*
X142400Y24700D01*
Y27420D01*
X141420Y28400D01*
X139500D01*
X138600Y27500D01*
Y26300D01*
X137600Y25300D01*
X135600D01*
X135200Y25700D01*
X134020D01*
X131520Y23200D01*
X112040D01*
X111840Y23400D01*
X110500D01*
G01X112570Y51000D02*
X118550D01*
G01X106590D02*
X112570D01*
G01X106590D02*
X105690Y51900D01*
X101160Y52500D01*
G01X146010Y37710D02*
X150890D01*
X157600Y31000D01*
Y24100D01*
X156000Y22500D01*
Y16900D01*
X158240Y14660D01*
X165800D01*
X169600Y10860D01*
Y4100D01*
X168440Y2940D01*
X167910D01*
X167900Y2930D01*
X147020D01*
X145090Y1000D01*
X130000D01*
X127700Y-1300D01*
Y-22750D01*
X128550Y-23600D01*
Y-64650D01*
X128100Y-65100D01*
Y-77800D01*
X131300Y-81000D01*
X144000D01*
X145200Y-82200D01*
X175700D01*
G01X142470Y-78700D02*
X131700D01*
X130200Y-77200D01*
Y-66000D01*
X141800Y-54400D01*
X169500D01*
X173300Y-50600D01*
Y-25100D01*
X179500Y-18900D01*
Y-6540D01*
X181200Y-4840D01*
Y-1100D01*
X184200Y1900D01*
X187940D01*
X190100Y4060D01*
Y9900D01*
X188900Y11100D01*
X185690D01*
X181400Y15390D01*
Y27700D01*
X186600Y32900D01*
Y35600D01*
X182500Y39700D01*
Y40600D01*
X180750Y42350D01*
Y43450D01*
X181650Y44350D01*
G01X124300Y37600D02*
X125400Y38700D01*
X134700D01*
X136580Y36820D01*
G01X184600Y40500D02*
X187950Y36650D01*
Y32250D01*
X182500Y26800D01*
Y16000D01*
X186300Y12200D01*
X189370D01*
X191200Y10370D01*
Y3600D01*
X188300Y700D01*
X184560D01*
X182500Y-1360D01*
Y-5100D01*
X180600Y-7000D01*
Y-19700D01*
X174400Y-25900D01*
Y-51060D01*
X169960Y-55500D01*
X143800D01*
X142470Y-56830D01*
Y-63700D01*
G01X145600Y-2500D02*
Y-610D01*
X148040Y1830D01*
X168360D01*
X168370Y1840D01*
X168900D01*
X168910Y1850D01*
X172250D01*
X176700Y-2600D01*
G01X165000Y11500D02*
X163150Y13350D01*
X157250D01*
X156400Y14200D01*
X150300D01*
X149500Y13400D01*
X143600D01*
X142300Y14700D01*
Y17150D01*
X144500Y19350D01*
Y23710D01*
X143840Y24370D01*
Y24890D01*
X143650Y25070D01*
X143600Y25130D01*
Y28500D01*
X142200Y29900D01*
X139280D01*
X136580Y27200D01*
G01X179700Y-82200D02*
X177200Y-84700D01*
X166200D01*
X164590Y-86310D01*
Y-89340D01*
G01X160700Y-300D02*
X161600Y-1200D01*
Y-2500D01*
G01X151020Y58230D02*
Y47300D01*
X160650Y37670D01*
Y35950D01*
X162900Y33700D01*
Y22900D01*
X167800Y18000D01*
Y15800D01*
X171900Y11700D01*
X177900D01*
X179500Y10100D01*
Y3900D01*
X176700Y1100D01*
Y-2600D01*
G01X194900Y70700D02*
Y69120D01*
X195850Y68170D01*
Y64800D01*
X176800Y45750D01*
Y42560D01*
X170840Y36600D01*
X166240D01*
X164000Y34360D01*
Y23500D01*
X169800Y17700D01*
Y17300D01*
G01X173300Y18100D02*
X172000D01*
X170600Y19500D01*
X169600D01*
X165100Y24000D01*
Y33900D01*
X166700Y35500D01*
X171300D01*
X177900Y42100D01*
Y45290D01*
X196950Y64340D01*
Y68170D01*
X197900Y69120D01*
Y70700D01*
G01X161200Y72650D02*
X161100Y54200D01*
G01X202900Y53000D02*
X201500D01*
X199150Y55350D01*
Y59350D01*
X203000Y63200D01*
Y71800D01*
X202150Y72650D01*
X161200D01*
G01X174590Y-89340D02*
X176460D01*
X182900Y-82900D01*
Y-74000D01*
X181700Y-72800D01*
X179700D01*
G01Y-78800D02*
X179100D01*
X178690Y-79210D01*
Y-79240D01*
X178540Y-79390D01*
Y-79950D01*
X178140Y-80350D01*
X178090D01*
X177690Y-80750D01*
X177190D01*
X177050Y-80890D01*
Y-81430D01*
X176470D01*
X175700Y-82200D01*
G01X179700Y-69800D02*
X181900D01*
X184590Y-72490D01*
Y-89340D01*
G01X179700Y-75800D02*
X180000Y-76100D01*
Y-78500D01*
X179700Y-78800D01*
G01X180580Y39680D02*
X179300Y40960D01*
Y44900D01*
X181200Y46800D01*
X194700D01*
X198050Y50150D01*
Y59810D01*
X198100Y59860D01*
Y60400D01*
X200950Y63250D01*
Y64150D01*
G01X200200Y48000D02*
X207900D01*
X212900Y53000D01*
G54D15*
X60110Y55770D03*
X56380Y55810D03*
X60110Y59770D03*
X56380Y59810D03*
X70200Y35370D03*
Y31370D03*
X97900Y9300D03*
Y13300D03*
X87470Y35370D03*
Y31370D03*
X96450D03*
Y35370D03*
X84470D03*
Y31370D03*
X85430Y59470D03*
Y63470D03*
X101500Y63000D03*
Y59000D03*
X133030Y-69200D03*
Y-73200D03*
X118100Y60700D03*
Y64700D03*
X144700Y-15300D03*
Y-11300D03*
X138600Y16600D03*
Y20600D03*
X172170Y-73200D03*
Y-69200D03*
X176700Y-6600D03*
Y-2600D03*
G54D25*
G01X64390Y-43680D02*
X52960D01*
X47520Y-38240D01*
G01X56380Y55810D02*
X51160D01*
X47420Y52070D01*
G01X68320Y-43670D02*
X64400D01*
X64390Y-43680D01*
G01X65440Y30610D02*
X69440D01*
X70200Y31370D01*
G01X65440Y36130D02*
Y38990D01*
X66020Y39570D01*
G01X70480Y55010D02*
Y54490D01*
X64060Y48070D01*
X56120D01*
G01X56380Y55810D02*
Y48330D01*
X56120Y48070D01*
G01X64500Y55010D02*
X64750D01*
X67860Y58120D01*
Y58160D01*
X70230Y60530D01*
X70480D01*
G01X60110Y55770D02*
X63740D01*
X64500Y55010D01*
G01X56380Y59810D02*
Y67130D01*
X56250Y67260D01*
G01X60320Y63070D02*
X60110Y62860D01*
Y59770D01*
G01D02*
X63740D01*
X64500Y60530D01*
G01X68320Y-43670D02*
X72850Y-39140D01*
Y-25940D01*
G01X69260Y25670D02*
X78230D01*
X80900Y23000D01*
G01X70200Y31370D02*
Y26610D01*
X69260Y25670D01*
G01X82300Y25590D02*
Y28700D01*
X84470Y30870D01*
Y31370D01*
G01D02*
X80370D01*
X79610Y30610D01*
G01X69220Y39270D02*
X70200Y38290D01*
Y35370D01*
G01X79610Y36130D02*
X83710D01*
G01X79610Y36580D02*
X83260D01*
X83710Y36130D01*
G01X70480Y60530D02*
X72780D01*
X75250Y58060D01*
G01X94900Y14100D02*
X97100D01*
X97900Y13300D01*
G01X84470Y35370D02*
X87470D01*
G01D02*
X91000D01*
X91760Y36130D01*
G01X95620Y26970D02*
Y30540D01*
X96450Y31370D01*
G01D02*
X95810D01*
G01X83710Y36130D02*
X84470Y35370D01*
G01X95810Y31370D02*
X94450Y32730D01*
Y33640D01*
X91760Y36130D01*
G01X87470Y31370D02*
Y29720D01*
X85310Y27560D01*
Y25880D01*
G01X91760Y30610D02*
X88230D01*
X87470Y31370D01*
G01X96420Y58710D02*
X98060D01*
X99030Y59680D01*
G01X101500Y59000D02*
X99710D01*
X99030Y59680D01*
G01X89920Y58710D02*
Y55400D01*
G01X96420Y64230D02*
X92690Y67960D01*
X89250D01*
G01X101770Y63280D02*
X100820Y64230D01*
X96420D01*
G01X85430Y59470D02*
X86190Y58710D01*
X89920D01*
G01Y64230D02*
X89160Y63470D01*
X85430D01*
G01X85620Y68570D02*
X85430Y68380D01*
Y63470D01*
G01X101500Y59000D02*
X101840Y58660D01*
X104450D01*
X106590Y56520D01*
G01X112570D02*
X112120D01*
X111800Y56200D01*
G01X112570Y56520D02*
X112880D01*
X113750Y55650D01*
G01X142470Y-73700D02*
X133530D01*
X133030Y-73200D01*
G01D02*
Y-75630D01*
X134200Y-76800D01*
G01X136900Y-69200D02*
X133030D01*
G01X130400Y-23000D02*
Y-8400D01*
X132780Y-6020D01*
X136600D01*
G01X133600Y-21900D02*
X132860Y-21160D01*
Y-13500D01*
G01X133220Y-2640D02*
X136600Y-6020D01*
G01X126000Y65800D02*
X119200D01*
X118100Y64700D01*
G01X136500Y-63300D02*
Y-68800D01*
X136900Y-69200D01*
G01D02*
X141970D01*
X142470Y-68700D01*
G01X140340Y-13500D02*
X139300D01*
X137500Y-15300D01*
G01X146700Y-16800D02*
X145200Y-15300D01*
X144700D01*
G01X146700Y-16800D02*
X146890Y-17120D01*
X146550Y-18500D01*
X145810Y-18950D01*
X145600Y-18900D01*
G01X149600Y-21900D02*
X145600D01*
G01X149600D02*
Y-18790D01*
X152350Y-16040D01*
G01X141600Y-21900D02*
Y-18900D01*
G01X137600Y-21900D02*
X141600D01*
G01X144700Y-11300D02*
X145920D01*
X148100Y-13480D01*
X152350D01*
G01X149600Y-2500D02*
Y-300D01*
G01X145600Y-2500D02*
Y-7300D01*
X149220Y-10920D01*
X152350D01*
G01X144700Y-11300D02*
Y-10700D01*
X141600Y-7600D01*
Y-2500D01*
G01X144270Y15970D02*
X144510D01*
X147040Y18500D01*
G01D02*
Y20840D01*
X149370Y23170D01*
G01X136400Y23300D02*
Y22800D01*
X138600Y20600D01*
G01X145450Y25900D02*
X148180Y23170D01*
X149370D01*
G01X145400Y29900D02*
X148040D01*
X149540Y28400D01*
G01X163730Y-78700D02*
X162830Y-79600D01*
X156100D01*
G01X172170Y-73200D02*
X171670Y-73700D01*
X163730D01*
G01X172170Y-69200D02*
X171670Y-68700D01*
X163730D01*
G01X157600Y-21900D02*
Y-25000D01*
G01X153600Y-21900D02*
Y-19900D01*
X154700Y-18800D01*
X157000D01*
X160850Y-14950D01*
Y-10550D01*
X163040Y-8360D01*
X169450D01*
G01X165600Y-21900D02*
X161600D01*
G01X165600D02*
Y-19890D01*
X169450Y-16040D01*
G01X165600Y-2500D02*
Y-4510D01*
X169450Y-8360D01*
G01X152350D02*
X153600Y-7110D01*
Y-2500D01*
G01X157600D02*
X153600D01*
G01X153370Y23170D02*
X152560Y22360D01*
Y18500D01*
G01X155060Y28400D02*
Y30650D01*
X153950Y31760D01*
G01X155060Y28400D02*
X153370Y26710D01*
Y23170D01*
G01X158270Y53840D02*
Y57180D01*
X158540Y57450D01*
G01X154990Y49560D02*
Y50560D01*
X158270Y53840D01*
G01X160510Y49560D02*
Y45620D01*
X160310Y45420D01*
G01X167790Y49560D02*
Y45800D01*
X168290Y45300D01*
G01X168960Y55350D02*
X167790Y54180D01*
Y49560D01*
G01X154540Y57450D02*
Y64080D01*
X155150Y64690D01*
G01X175700Y-72800D02*
X172570D01*
X172170Y-73200D01*
G01X175700Y-69800D02*
X172770D01*
X172170Y-69200D01*
G01X186980Y-46600D02*
X176800Y-46500D01*
G01X186980Y-26500D02*
X177300D01*
X177000Y-26800D01*
G01X169600Y-21900D02*
Y-24400D01*
G01X176700Y-6600D02*
Y-9780D01*
X173000Y-13480D01*
X169450D01*
G01X186980Y-6800D02*
X183900D01*
G01X169450Y-10920D02*
X173180D01*
X173700Y-10400D01*
Y-6600D01*
X169600Y-2500D01*
G01X184590Y6740D02*
X180920Y3070D01*
Y910D01*
X179400Y-610D01*
Y-4300D01*
X177100Y-6600D01*
X176700D01*
G01X187280Y22100D02*
X185400D01*
X184100Y20800D01*
Y16800D01*
X184210Y16690D01*
Y16520D01*
X184850Y15880D01*
X185020D01*
X186200Y14700D01*
X189600D01*
G01X173810Y28060D02*
Y23930D01*
X173050Y23570D01*
G01D02*
X175420D01*
X176040Y22950D01*
G01X168290Y31200D02*
Y28060D01*
G01D02*
Y24330D01*
X169050Y23570D01*
G01X173310Y49560D02*
Y55000D01*
X172960Y55350D01*
G01X176000Y49510D02*
X173360D01*
X173310Y49560D01*
G01X170650Y60760D02*
X168960Y59070D01*
Y55350D01*
G01X196420Y-46600D02*
X192800D01*
G01X208670Y-51440D02*
X205910Y-54200D01*
X190840D01*
X186980Y-50340D01*
G01X218670Y-51440D02*
X213670Y-46440D01*
X204460D01*
X200560Y-50340D01*
X196420D01*
G01Y-42860D02*
X207250D01*
X208670Y-41440D01*
G01X218670D02*
X213670Y-36440D01*
X205250D01*
X205220Y-36410D01*
X191100D01*
X191070Y-36440D01*
X191060D01*
X186980Y-40520D01*
Y-42860D01*
G01X208670Y-31440D02*
X206010Y-34100D01*
X190840D01*
X186980Y-30240D01*
G01X218670Y-31440D02*
X213670Y-26440D01*
X203660D01*
X199860Y-30240D01*
X196420D01*
G01Y-26500D02*
X192800D01*
G01X196420Y-22760D02*
X207350D01*
X208670Y-21440D01*
G01X218670D02*
X213670Y-16440D01*
X193300D01*
X186980Y-22760D01*
G01X208670Y-11440D02*
X205910Y-14200D01*
X190640D01*
X186980Y-10540D01*
G01X196420Y-6800D02*
X192600D01*
G01X196420Y-10540D02*
X201160D01*
X205140Y-6560D01*
X213790D01*
X218670Y-11440D01*
G01X196420Y-3060D02*
X207050D01*
X208670Y-1440D01*
G01X218670D02*
X213670Y3560D01*
X193600D01*
X186980Y-3060D01*
G01X208670Y8560D02*
X208210Y8100D01*
X199700D01*
X189440Y18360D01*
X187280D01*
G01X196720D02*
X199640D01*
X204440Y13560D01*
X213670D01*
X218670Y8560D01*
G01X196720Y22100D02*
X193300D01*
G01X196720Y25840D02*
X199760D01*
X207040Y18560D01*
X208670D01*
G01X218670D02*
X213670Y23560D01*
X205240D01*
X199500Y29300D01*
X188600D01*
X187280Y27980D01*
Y25840D01*
G54D16*
X95400Y24100D03*
X99400D03*
X105200Y37600D03*
X109200D03*
X105400Y32400D03*
X109400D03*
X133600Y-21900D03*
X125600Y33800D03*
X129600D03*
X126200Y30100D03*
X130200D03*
X149600Y-21900D03*
X145600D03*
X141600D03*
X137600D03*
X145600Y-18900D03*
X141600D03*
Y-2500D03*
X145600D03*
X149600D03*
X149370Y23170D03*
X161600Y-21900D03*
X157600D03*
X165600D03*
X153600D03*
X161600Y-2500D03*
X157600D03*
X165600D03*
X153600D03*
X153370Y23170D03*
X158540Y57450D03*
X154540D03*
X179700Y-82200D03*
X175700D03*
X179700Y-78800D03*
X175700D03*
Y-72800D03*
X179700D03*
X175700Y-69800D03*
X179700D03*
X175700Y-75800D03*
X179700D03*
X169600Y-21900D03*
Y-2500D03*
X173050Y23570D03*
X169050D03*
X172960Y55350D03*
X168960D03*
G54D26*
G01X-12440Y-94820D02*
X224850D01*
G03X229850Y-89820I0J5000D01*
G01Y76940D01*
G03X224850Y81940I-5000J0D01*
G01X-12440D01*
G03X-17440Y76940I0J-5000D01*
G01Y-89820D01*
G03X-12440Y-94820I5000J0D01*
G01X229850Y57060D02*
Y-74940D01*
G54D17*
X101160Y52500D03*
X95640D03*
X89960Y41400D03*
X84440D03*
X147040Y18500D03*
X149540Y28400D03*
X152560Y18500D03*
X155060Y28400D03*
X168290Y28060D03*
X160510Y49560D03*
X154990D03*
X167790D03*
X173810Y28060D03*
X173310Y49560D03*
G54D18*
X132860Y-13500D03*
X140340D03*
G54D19*
X142470Y-63700D03*
Y-68700D03*
Y-73700D03*
Y-78700D03*
X163730D03*
Y-73700D03*
Y-68700D03*
Y-63700D03*
M02*
