G04 ================== begin FILE IDENTIFICATION RECORD ==================*
G04 Layout Name:  D:/ET_EvilBoard/Layout_V4/EvilSploit_0625A.brd*
G04 Film Name:    BOTTOM_PASTE*
G04 File Format:  Gerber RS274X*
G04 File Origin:  Cadence Allegro 16.6-P004*
G04 Origin Date:  Sun Jun 25 07:11:54 2017*
G04 *
G04 Layer:  VIA CLASS/PASTEMASK_BOTTOM*
G04 Layer:  PIN/PASTEMASK_BOTTOM*
G04 Layer:  PACKAGE GEOMETRY/PASTEMASK_BOTTOM*
G04 Layer:  BOARD GEOMETRY/OUTLINE*
G04 *
G04 Offset:    (0.0 0.0)*
G04 Mirror:    No*
G04 Mode:      Positive*
G04 Rotation:  0*
G04 FullContactRelief:  No*
G04 UndefLineWidth:     6.0*
G04 ================== end FILE IDENTIFICATION RECORD ====================*
%FSLAX25Y25*MOIN*%
%IR0*IPPOS*OFA0.00000B0.00000*MIA0B0*SFA1.00000B1.00000*%
%ADD11R,.02X.025*%
%ADD12R,.025X.02*%
%ADD14R,.022X.052*%
%ADD17R,.022X.0625*%
%ADD16R,.056X.017*%
%ADD15R,.0591X.0236*%
%ADD10R,.035X.0299*%
%ADD13R,.0299X.035*%
%ADD18R,.0394X.0276*%
%ADD19C,.006*%
G75*
%LPD*%
G75*
G54D10*
X65440Y30610D03*
Y36130D03*
X64500Y55010D03*
Y60530D03*
X79610Y30610D03*
Y36130D03*
X70480Y55010D03*
Y60530D03*
X91760Y30610D03*
Y36130D03*
X96420Y58710D03*
Y64230D03*
X89920D03*
Y58710D03*
X106590Y51000D03*
X112570D03*
X106590Y56520D03*
X112570D03*
X118550Y51000D03*
Y56520D03*
X192900Y34840D03*
Y40360D03*
G54D11*
X60110Y55770D03*
X56380Y55810D03*
X60110Y59770D03*
X56380Y59810D03*
X70200Y35370D03*
Y31370D03*
X97900Y9300D03*
Y13300D03*
X87470Y35370D03*
Y31370D03*
X96450D03*
Y35370D03*
X84470D03*
Y31370D03*
X85430Y59470D03*
Y63470D03*
X101500Y63000D03*
Y59000D03*
X133030Y-69200D03*
Y-73200D03*
X118100Y60700D03*
Y64700D03*
X144700Y-15300D03*
Y-11300D03*
X138600Y16600D03*
Y20600D03*
X172170Y-73200D03*
Y-69200D03*
X176700Y-6600D03*
Y-2600D03*
G54D12*
X95400Y24100D03*
X99400D03*
X105200Y37600D03*
X109200D03*
X105400Y32400D03*
X109400D03*
X133600Y-21900D03*
X125600Y33800D03*
X129600D03*
X126200Y30100D03*
X130200D03*
X149600Y-21900D03*
X145600D03*
X141600D03*
X137600D03*
X145600Y-18900D03*
X141600D03*
Y-2500D03*
X145600D03*
X149600D03*
X149370Y23170D03*
X161600Y-21900D03*
X157600D03*
X165600D03*
X153600D03*
X161600Y-2500D03*
X157600D03*
X165600D03*
X153600D03*
X153370Y23170D03*
X158540Y57450D03*
X154540D03*
X179700Y-82200D03*
X175700D03*
X179700Y-78800D03*
X175700D03*
Y-72800D03*
X179700D03*
X175700Y-69800D03*
X179700D03*
X175700Y-75800D03*
X179700D03*
X169600Y-21900D03*
Y-2500D03*
X173050Y23570D03*
X169050D03*
X172960Y55350D03*
X168960D03*
G54D13*
X101160Y52500D03*
X95640D03*
X89960Y41400D03*
X84440D03*
X147040Y18500D03*
X149540Y28400D03*
X152560Y18500D03*
X155060Y28400D03*
X168290Y28060D03*
X160510Y49560D03*
X154990D03*
X167790D03*
X173810Y28060D03*
X173310Y49560D03*
G54D14*
X132860Y-13500D03*
X140340D03*
G54D15*
X142470Y-63700D03*
Y-68700D03*
Y-73700D03*
Y-78700D03*
X163730D03*
Y-73700D03*
Y-68700D03*
Y-63700D03*
G54D16*
X152350Y-13480D03*
Y-16040D03*
Y-8360D03*
Y-10920D03*
X169450Y-16040D03*
Y-13480D03*
Y-10920D03*
Y-8360D03*
G54D17*
X136600Y-6020D03*
G54D18*
X186980Y-46600D03*
Y-50340D03*
X196420D03*
Y-46600D03*
X186980Y-42860D03*
X196420D03*
X186980Y-30240D03*
X196420D03*
X186980Y-22760D03*
Y-26500D03*
X196420D03*
Y-22760D03*
X186980Y-3060D03*
Y-6800D03*
Y-10540D03*
X196420D03*
Y-6800D03*
Y-3060D03*
X187280Y22100D03*
Y18360D03*
X196720D03*
Y22100D03*
X187280Y25840D03*
X196720D03*
G54D19*
G01X-12440Y-94820D02*
X224850D01*
G03X229850Y-89820I0J5000D01*
G01Y76940D01*
G03X224850Y81940I-5000J0D01*
G01X-12440D01*
G03X-17440Y76940I0J-5000D01*
G01Y-89820D01*
G03X-12440Y-94820I5000J0D01*
G01X229850Y57060D02*
Y-74940D01*
M02*
