G04 ================== begin FILE IDENTIFICATION RECORD ==================*
G04 Layout Name:  D:/ET_EvilBoard/Layout_V4/EvilSploit_0625A.brd*
G04 Film Name:    DRILL*
G04 File Format:  Gerber RS274X*
G04 File Origin:  Cadence Allegro 16.6-P004*
G04 Origin Date:  Sun Jun 25 07:11:54 2017*
G04 *
G04 Layer:  MANUFACTURING/NCLEGEND-1-4*
G04 Layer:  BOARD GEOMETRY/OUTLINE*
G04 *
G04 Offset:    (0.0 0.0)*
G04 Mirror:    No*
G04 Mode:      Positive*
G04 Rotation:  0*
G04 FullContactRelief:  No*
G04 UndefLineWidth:     6.0*
G04 ================== end FILE IDENTIFICATION RECORD ====================*
%FSLAX25Y25*MOIN*%
%IR0*IPPOS*OFA0.00000B0.00000*MIA0B0*SFA1.00000B1.00000*%
%AMMACRO11*
1,1,.006,.006,0.0*
20,1,.006,.006,0.0,-.006,0.0,0.0*
1,1,.006,-.006,0.0*
1,1,.006,0.0,.006*
20,1,.006,0.0,.006,0.0,-.006,0.0*
1,1,.006,0.0,-.006*
%
%ADD11MACRO11*%
%AMMACRO14*
1,1,.006,.0118,.0118*
20,1,.006,.0118,.0118,.0118,-.0118,0.0*
1,1,.006,.0118,-.0118*
20,1,.006,.0118,-.0118,-.0118,-.0118,0.0*
1,1,.006,-.0118,-.0118*
20,1,.006,-.0118,-.0118,-.0118,.0118,0.0*
1,1,.006,-.0118,.0118*
20,1,.006,-.0118,.0118,.0118,.0118,0.0*
1,1,.006,.0118,.0118*
%
%ADD14MACRO14*%
%AMMACRO12*
1,1,.006,.005716,-.0138*
20,1,.006,.005716,-.0138,-.005716,-.0138,0.0*
1,1,.006,-.005716,-.0138*
20,1,.006,-.005716,-.0138,-.0138,-.005716,0.0*
1,1,.006,-.0138,-.005716*
20,1,.006,-.0138,-.005716,-.0138,.005716,0.0*
1,1,.006,-.0138,.005716*
20,1,.006,-.0138,.005716,-.005716,.0138,0.0*
1,1,.006,-.005716,.0138*
20,1,.006,-.005716,.0138,.005716,.0138,0.0*
1,1,.006,.005716,.0138*
20,1,.006,.005716,.0138,.0138,.005716,0.0*
1,1,.006,.0138,.005716*
20,1,.006,.0138,.005716,.0138,-.005716,0.0*
1,1,.006,.0138,-.005716*
20,1,.006,.0138,-.005716,.005716,-.0138,0.0*
1,1,.006,.005716,-.0138*
%
%ADD12MACRO12*%
%AMMACRO10*
1,1,.006,0.0,.0625*
20,1,.006,0.0,.0625,-.054127,.03125,0.0*
1,1,.006,-.054127,.03125*
20,1,.006,-.054127,.03125,-.054127,-.03125,0.0*
1,1,.006,-.054127,-.03125*
20,1,.006,-.054127,-.03125,0.0,-.0625,0.0*
1,1,.006,0.0,-.0625*
20,1,.006,0.0,-.0625,.054127,-.03125,0.0*
1,1,.006,.054127,-.03125*
20,1,.006,.054127,-.03125,.054127,.03125,0.0*
1,1,.006,.054127,.03125*
20,1,.006,.054127,.03125,0.0,.0625,0.0*
1,1,.006,0.0,.0625*
%
%ADD10MACRO10*%
%AMMACRO13*
1,1,.006,.0197,0.0*
20,1,.006,.0197,0.0,.00985,.017061,0.0*
1,1,.006,.00985,.017061*
20,1,.006,.00985,.017061,-.00985,.017061,0.0*
1,1,.006,-.00985,.017061*
20,1,.006,-.00985,.017061,-.0197,0.0,0.0*
1,1,.006,-.0197,0.0*
20,1,.006,-.0197,0.0,-.00985,-.017061,0.0*
1,1,.006,-.00985,-.017061*
20,1,.006,-.00985,-.017061,.00985,-.017061,0.0*
1,1,.006,.00985,-.017061*
20,1,.006,.00985,-.017061,.0197,0.0,0.0*
1,1,.006,.0197,0.0*
%
%ADD13MACRO13*%
%ADD15C,.006*%
G75*
%LPD*%
G75*
G54D10*
X-7800Y-85180D03*
Y72300D03*
X220210Y-85180D03*
Y72300D03*
X335700Y-61690D03*
G54D11*
X-10710Y-66290D03*
X-13900Y-69400D03*
X-1800Y-75400D03*
X-12700Y-74100D03*
X-13800Y-62300D03*
X-13900Y-49500D03*
X-11830Y-58570D03*
X-13800Y-38700D03*
X-13000Y-29700D03*
X-10870Y-42430D03*
X-10520Y-35620D03*
X-1400Y-28900D03*
X-10500Y-26100D03*
X-14870Y-19630D03*
X-15160Y-11160D03*
X-15280Y-1720D03*
X-14150Y6750D03*
X-1700Y20600D03*
X-14600Y26300D03*
X-14200Y30300D03*
X-14600Y34600D03*
X-7550Y37700D03*
X-8200Y22600D03*
X-1250Y38400D03*
X-7160Y50240D03*
X-14200Y39300D03*
X-14400Y43200D03*
X-14300Y51600D03*
X-13900Y56700D03*
X-13000Y61400D03*
X1700Y-80100D03*
X9100Y-88400D03*
X9700Y-91700D03*
X4400Y-91000D03*
X4700Y-86700D03*
X8700Y-65700D03*
X15300Y-79000D03*
X12850Y-71340D03*
X13350Y-65640D03*
X7100Y-57000D03*
X10100Y-55000D03*
X9200Y-47400D03*
X4000D03*
X3500Y-54700D03*
X6800Y-51700D03*
Y-59900D03*
X13450Y-46140D03*
Y-51040D03*
X13350Y-55940D03*
Y-60840D03*
X10200Y-32300D03*
X5600Y-30800D03*
X2400Y-31400D03*
X2200Y-35200D03*
X4800Y-39600D03*
X9400D03*
X6800Y-35100D03*
Y-43400D03*
X13450Y-31340D03*
Y-36240D03*
Y-41240D03*
X15300Y-27100D03*
X11600Y-25900D03*
X8400Y-23700D03*
X9900Y-27900D03*
X2200Y-27500D03*
X4100Y-23500D03*
X6900Y-13500D03*
X6800Y-18500D03*
Y-26800D03*
X-710Y-24390D03*
X10650Y-20540D03*
X13150Y-19140D03*
X10650Y-18240D03*
X13950Y-14640D03*
X11550Y-14040D03*
X12350Y-16640D03*
Y-22140D03*
X7400Y2000D03*
X7600Y4500D03*
X13150Y-11540D03*
X13850Y-8340D03*
X10950Y-8840D03*
Y-4440D03*
X14150Y-4340D03*
X12550Y-6240D03*
X14250Y-340D03*
X12650Y-2240D03*
X14150Y3260D03*
X7700Y7800D03*
X7900Y10800D03*
X8000Y13700D03*
X8100Y16600D03*
X9600Y18600D03*
X11400Y20000D03*
X14500Y21700D03*
X16050Y13760D03*
X13850Y6960D03*
X15150Y8960D03*
X-710Y8030D03*
X9700Y32500D03*
X9600Y36600D03*
X5400Y38000D03*
Y33900D03*
X13750Y35460D03*
Y30460D03*
X9700Y40300D03*
X10000Y45600D03*
X11100Y52500D03*
X5000Y42200D03*
X5400Y46300D03*
X13750Y50160D03*
Y45260D03*
Y40360D03*
X10330Y70670D03*
X1100Y60300D03*
X2400Y78800D03*
X13500Y76300D03*
X18500Y-85200D03*
X16400Y-70900D03*
X31500D03*
X26600Y-71700D03*
X21900Y-72200D03*
X18300Y-78800D03*
X16400Y-75100D03*
X23100Y-77200D03*
X28900Y-75800D03*
X16950Y-67440D03*
X20150Y-64240D03*
X16950Y-62540D03*
Y-52740D03*
Y-47840D03*
X29350Y-54840D03*
X25950Y-51940D03*
X26750Y-55340D03*
X23650Y-54640D03*
X23050Y-52140D03*
X22950Y-49740D03*
X29550Y-52240D03*
X31550Y-53540D03*
X20500Y-35500D03*
X16950Y-37940D03*
X16850Y-33040D03*
X20450Y-29140D03*
X18490Y-26900D03*
X30050Y-5740D03*
X30350Y-2740D03*
X17400Y21600D03*
X31000Y20600D03*
X22450Y13860D03*
X19350Y13760D03*
X27550Y9060D03*
X24650D03*
X21550D03*
X18450Y8960D03*
X23150Y10960D03*
X20050Y10860D03*
X16750D03*
X24640Y37770D03*
X30880Y26230D03*
X17950Y32960D03*
X20050Y29060D03*
X17850Y30860D03*
X18050Y28560D03*
X18250Y26360D03*
X23150Y45460D03*
Y47860D03*
X18650Y44060D03*
Y46460D03*
Y48960D03*
Y51460D03*
X21050Y53760D03*
X18850Y53660D03*
X20940Y48060D03*
X31620Y50830D03*
X40700Y-80100D03*
X48800Y-80200D03*
X45200D03*
X34550Y-76840D03*
X34050Y-64240D03*
X33550Y-54640D03*
X34260Y-50540D03*
X47520Y-38240D03*
X33250Y-24840D03*
X35350Y-24340D03*
X35250Y-22240D03*
X33250Y-21540D03*
X47020Y-1240D03*
X34450Y20460D03*
X37550Y20560D03*
X40650D03*
X43550D03*
X46350Y20460D03*
X46650Y13760D03*
X43950Y13860D03*
X41050D03*
X37950D03*
X47350Y10860D03*
X44550Y10960D03*
X41650D03*
X42160Y23960D03*
X47420Y52070D03*
X41320Y40860D03*
X40820Y66870D03*
X62050Y-36140D03*
Y-31040D03*
X65370Y-33580D03*
X64390Y-43680D03*
X65250Y20460D03*
X52750Y20560D03*
X55850D03*
X58750D03*
X61950Y20460D03*
X65050Y13560D03*
X61750D03*
X59050Y13860D03*
X56150D03*
X53050D03*
X49950Y13760D03*
X64150Y8760D03*
X60850D03*
X66250Y10860D03*
X62950D03*
X59750Y10960D03*
X56850D03*
X53750D03*
X50650Y10860D03*
X65050Y4860D03*
X62690Y5000D03*
X54500Y32100D03*
X51320Y29370D03*
X57900Y32000D03*
X56120Y48070D03*
X66020Y39570D03*
X58620Y65470D03*
X56250Y67260D03*
X64850Y68060D03*
X60320Y63070D03*
X53650Y68960D03*
X60300Y68000D03*
X81400Y-78500D03*
X71900Y-78400D03*
X67950Y-30940D03*
X68050Y-36140D03*
X68320Y-43670D03*
X72850Y-25940D03*
X83060Y12260D03*
X68050Y20460D03*
X74150Y13660D03*
X71250D03*
X68150D03*
X73250Y8860D03*
X70350D03*
X67250D03*
X75350Y10960D03*
X72450D03*
X69350D03*
X67250Y4960D03*
X76150Y5460D03*
X79550Y7760D03*
X83250Y5160D03*
X69450Y4860D03*
X71790Y5020D03*
X80890Y5320D03*
X80900Y23000D03*
X69260Y25670D03*
X82300Y25590D03*
X81300Y42600D03*
X69220Y39270D03*
X82350Y51660D03*
X73640D03*
X71890Y44200D03*
X79870Y68400D03*
X75470Y68340D03*
X70600Y68200D03*
X75250Y58060D03*
X82800Y68300D03*
X90800Y-78400D03*
X98800Y-71600D03*
X92100Y-71700D03*
X89000Y-71500D03*
X94480Y-34320D03*
X99200Y-1900D03*
X97700Y-9300D03*
X99500Y-7800D03*
X100100Y-10700D03*
X94900Y21700D03*
Y14100D03*
X96700Y28500D03*
X88220Y25570D03*
X85310Y25880D03*
X100300Y38700D03*
X89920Y55400D03*
X100500Y47900D03*
X99030Y59680D03*
X89250Y67960D03*
X85620Y68570D03*
X112600Y-80500D03*
X112400Y-83600D03*
X112600Y-77400D03*
X112400Y-75000D03*
X101000Y-71700D03*
X109600Y-78200D03*
X112840Y-48860D03*
X105800Y-57800D03*
X112640Y-43860D03*
X112540Y-38860D03*
X112440Y-33860D03*
X109600Y-23860D03*
X110500Y-25800D03*
X106100Y-23860D03*
X116600Y-8100D03*
X112500Y1800D03*
X114600D03*
X114050Y-9440D03*
X109400Y-6300D03*
X111900Y-9300D03*
X112050Y-7140D03*
X115200Y-600D03*
X104450Y13750D03*
X112300Y36100D03*
X103000Y26700D03*
Y32300D03*
X113400Y33500D03*
X115900Y38500D03*
X113000Y30700D03*
X110500Y23400D03*
X103300Y42800D03*
X111800Y56200D03*
X113750Y55650D03*
X129500Y-90000D03*
X119500Y-91000D03*
Y-88300D03*
X118500Y-72700D03*
Y-75000D03*
X123400Y-73400D03*
Y-75900D03*
X134200Y-76800D03*
X118500Y-79600D03*
X133200Y-51100D03*
X130650Y-53640D03*
X132700Y-41800D03*
X130650Y-45040D03*
X130700Y-32600D03*
X133800Y-25900D03*
X118100Y-10500D03*
X122700Y-3600D03*
X125800Y1300D03*
X123400Y1400D03*
X118300Y-1100D03*
X119600Y6700D03*
X134300Y15600D03*
X125490Y16010D03*
X118800Y16000D03*
X131490Y15790D03*
X128490Y15810D03*
X122600Y15900D03*
X122000Y35900D03*
X132100Y36300D03*
X133100Y33500D03*
X123300Y33400D03*
X122200Y29900D03*
X132500Y30130D03*
X124300Y37600D03*
X120200Y45300D03*
X124000Y49500D03*
X126800Y49600D03*
X125300Y51000D03*
X126000Y65800D03*
X123500Y58700D03*
X120300Y61600D03*
X121650Y60050D03*
X139500Y-90700D03*
X139400Y-88100D03*
X136500Y-63300D03*
X143800Y-50200D03*
X141600Y-45300D03*
X145200Y-41300D03*
X142800Y-36400D03*
X142600Y-32000D03*
X137200Y-31400D03*
X137500Y-15300D03*
X140300Y-26600D03*
X146700Y-16800D03*
X149600Y-300D03*
X144270Y15970D03*
X139600Y5900D03*
Y8500D03*
X145450Y25900D03*
X141230Y34070D03*
X140890Y23590D03*
X136400Y23300D03*
X140500Y26500D03*
X145400Y29900D03*
X146010Y37710D03*
X146220Y33780D03*
X136580Y36820D03*
Y27200D03*
X135900Y41900D03*
X145400Y42000D03*
X142600Y40900D03*
X142100Y67400D03*
X143400Y60200D03*
X151020Y58230D03*
X156100Y-79600D03*
X154900Y-58300D03*
X161000Y-51000D03*
X164700Y-59500D03*
X162900Y-47200D03*
X156900Y-49300D03*
X165500Y-43300D03*
X154600Y-44400D03*
X152600Y-35500D03*
X162100Y-35400D03*
X156500Y-39100D03*
X159600Y-41500D03*
X163700Y-39000D03*
Y-30400D03*
X154400Y-30200D03*
X158400Y-32800D03*
X161500Y-18500D03*
X163700Y-16800D03*
X164000Y-13500D03*
X157600Y-13700D03*
X162800Y-27300D03*
X157600Y-25000D03*
X160700Y-300D03*
X161900Y11500D03*
X162310Y17610D03*
X165200Y17200D03*
X160340Y19600D03*
X151500Y11600D03*
X165000Y11500D03*
X163290Y36730D03*
X168290Y31200D03*
X153950Y31760D03*
X158270Y53840D03*
X168290Y45300D03*
X160310Y45420D03*
X161100Y54200D03*
X152400Y69200D03*
X155150Y64690D03*
X171550Y-61340D03*
X173250Y-57540D03*
X176800Y-46500D03*
X177000Y-26800D03*
X169600Y-24400D03*
X183900Y-6800D03*
X173300Y18100D03*
X169800Y17300D03*
X176040Y22950D03*
X176000Y49510D03*
X173050Y43060D03*
X184600Y40500D03*
X181650Y44350D03*
X180580Y39680D03*
X179800Y65800D03*
X170650Y60760D03*
X184400Y64000D03*
X196100Y-83400D03*
X188200Y-83100D03*
X192400Y-83200D03*
X201500Y-89100D03*
X201150Y-82040D03*
X200700Y-78000D03*
X199100Y-75000D03*
X196450Y-78740D03*
X192800Y-46600D03*
Y-26500D03*
X192600Y-6800D03*
X189600Y14700D03*
X193300Y22100D03*
X198300Y36100D03*
X195040Y50960D03*
X198390Y39090D03*
X200200Y48000D03*
X200950Y64150D03*
X197900Y70700D03*
X194900D03*
X209400Y-91200D03*
X206200Y-88100D03*
X208600Y-85800D03*
X203850Y-80440D03*
X206800Y-78800D03*
X204300Y-71000D03*
X211000Y-75800D03*
X214400Y-65700D03*
X215700Y-70400D03*
X203150Y-74640D03*
X210350Y-64840D03*
X208350Y-70340D03*
X214100Y-57500D03*
X219000Y-58900D03*
X215100Y-61100D03*
X217700Y34000D03*
X216900Y44300D03*
X207160Y67140D03*
X209700Y72800D03*
X207000Y74000D03*
X210700Y77500D03*
X206600Y78200D03*
X221600Y-73200D03*
X225400Y-71000D03*
X220400Y-66900D03*
X223900Y-63000D03*
X226650Y-58340D03*
Y-48540D03*
Y-38640D03*
Y-28840D03*
Y-19040D03*
Y-9140D03*
Y660D03*
Y10460D03*
X222300Y33800D03*
X226650Y25360D03*
Y35160D03*
X221600Y44600D03*
X226650Y44960D03*
X335700Y22610D03*
G54D12*
X-2090Y-14310D03*
Y1430D03*
X335700Y-89790D03*
G54D13*
X24590Y-89340D03*
X34590D03*
Y76460D03*
X24590D03*
X44590Y-89340D03*
Y76460D03*
X54590Y-89340D03*
X64590D03*
X54590Y76460D03*
X64590D03*
X74590Y-89340D03*
X84590D03*
X74590Y76460D03*
X84590D03*
X94590Y-89340D03*
Y76460D03*
X114590Y-89340D03*
X104590D03*
X114590Y6740D03*
X104590Y76460D03*
X114590D03*
X134590Y-89340D03*
X124590D03*
X134590Y6740D03*
X124590D03*
Y76460D03*
X134590D03*
X144590Y-89340D03*
Y6740D03*
Y76460D03*
X164590Y-89340D03*
X154590D03*
X164590Y6740D03*
X154590D03*
Y76460D03*
X164590D03*
X174590Y-89340D03*
X184590D03*
X174590Y6740D03*
X184590D03*
X174590Y76460D03*
X184590D03*
X194590Y-89340D03*
Y76460D03*
X218670Y-51440D03*
X208670D03*
Y-31440D03*
Y-41440D03*
X218670Y-31440D03*
Y-41440D03*
X208670Y-11440D03*
X218670D03*
Y-21440D03*
X208670D03*
X218670Y-1440D03*
X208670D03*
X218670Y18560D03*
X208670D03*
Y8560D03*
X218670D03*
Y38560D03*
X208670Y28560D03*
X218670D03*
X208670Y38560D03*
X335700Y-33590D03*
G54D14*
X202900Y53000D03*
Y58000D03*
X207900Y53000D03*
X212900D03*
X217900D03*
X207900Y58000D03*
X212900D03*
X217900D03*
X222900Y53000D03*
Y58000D03*
X335700Y-5490D03*
G54D15*
G01X-12440Y-94820D02*
X224850D01*
G03X229850Y-89820I0J5000D01*
G01Y76940D01*
G03X224850Y81940I-5000J0D01*
G01X-12440D01*
G03X-17440Y76940I0J-5000D01*
G01Y-89820D01*
G03X-12440Y-94820I5000J0D01*
G01X229850Y57060D02*
Y-74940D01*
G01X290750Y-103840D02*
Y117860D01*
X774350D01*
Y-103840D01*
X290750D01*
G01Y-75740D02*
X774350D01*
G01X290750Y-47640D02*
X774350D01*
G01X290750Y-19540D02*
X774350D01*
G01X290750Y8560D02*
X774350D01*
G01X290750Y36660D02*
X774350D01*
G01X301750Y46010D02*
Y58510D01*
X307650D01*
G01X305470Y52470D02*
X301750D01*
G01X315240Y58510D02*
X318960D01*
G01X317100D02*
Y46010D01*
G01X315240D02*
X318960D01*
G01X330430Y52260D02*
X333530D01*
Y48510D01*
X332600Y47260D01*
X331510Y46430D01*
X329970Y46010D01*
X328420Y46430D01*
X327330Y47260D01*
X326400Y48510D01*
X325780Y49970D01*
X325470Y51630D01*
Y53090D01*
X325780Y54340D01*
X326400Y55800D01*
X327330Y57050D01*
X328260Y57880D01*
X329500Y58510D01*
X330580D01*
X331820Y58090D01*
X332760Y57260D01*
G01X338490Y58510D02*
Y49550D01*
X339110Y47680D01*
X340350Y46430D01*
X341900Y46010D01*
X343450Y46430D01*
X344690Y47680D01*
X345310Y49550D01*
Y58510D01*
G01X351200Y46010D02*
Y58510D01*
X355070D01*
X356310Y57880D01*
X357090Y57050D01*
X357400Y55380D01*
X357090Y53720D01*
X356160Y52680D01*
X355070Y52050D01*
X351200D01*
G01X355070D02*
X357400Y46010D01*
G01X369800D02*
X363600D01*
Y58510D01*
X369800D01*
G01X367320Y52470D02*
X363600D01*
G01X290750Y64760D02*
X774350D01*
G01X290750Y92860D02*
X774350D01*
G01X380650Y64760D02*
Y-103840D01*
G01X374140Y99110D02*
Y111610D01*
X377240D01*
X378480Y110980D01*
X379410Y110150D01*
X380190Y108900D01*
X380810Y107440D01*
X380960Y105360D01*
X380810Y103280D01*
X380190Y101820D01*
X379410Y100570D01*
X378480Y99730D01*
X377240Y99110D01*
X374140D01*
G01X386850D02*
Y111610D01*
X390720D01*
X391960Y110980D01*
X392740Y110150D01*
X393050Y108480D01*
X392740Y106820D01*
X391810Y105780D01*
X390720Y105150D01*
X386850D01*
G01X390720D02*
X393050Y99110D01*
G01X400490Y111610D02*
X404210D01*
G01X402350D02*
Y99110D01*
G01X400490D02*
X404210D01*
G01X411650Y111610D02*
Y99110D01*
X417850D01*
G01X424050Y111610D02*
Y99110D01*
X430250D01*
G01X455360Y110570D02*
X454430Y111190D01*
X453350Y111610D01*
X452110D01*
X450710Y110980D01*
X449630Y109940D01*
X448850Y108690D01*
X448230Y106610D01*
X448070Y104730D01*
X448390Y102860D01*
X448850Y101610D01*
X449780Y100360D01*
X450870Y99530D01*
X451950Y99110D01*
X453030D01*
X454120Y99530D01*
X455050Y100150D01*
X455830Y100980D01*
G01X461090Y99110D02*
Y111610D01*
G01X467610D02*
Y99110D01*
G01Y105360D02*
X461090D01*
G01X472870Y99110D02*
X476750Y111610D01*
X480630Y99110D01*
G01X479230Y103480D02*
X474270D01*
G01X486050Y99110D02*
Y111610D01*
X489920D01*
X491160Y110980D01*
X491940Y110150D01*
X492250Y108480D01*
X491940Y106820D01*
X491010Y105780D01*
X489920Y105150D01*
X486050D01*
G01X489920D02*
X492250Y99110D01*
G01X501550Y111610D02*
Y99110D01*
G01X497990Y111610D02*
X505110D01*
G01X513950Y98690D02*
X513640Y98900D01*
Y99320D01*
X513950Y99530D01*
X514260Y99320D01*
Y98900D01*
X513950Y98690D01*
G01Y104320D02*
X513640Y104530D01*
Y104940D01*
X513950Y105150D01*
X514260Y104940D01*
Y104530D01*
X513950Y104320D01*
G01X538750Y111610D02*
Y99110D01*
G01X535190Y111610D02*
X542310D01*
G01X551150Y99110D02*
X549910Y99320D01*
X548830Y100150D01*
X547890Y101400D01*
X547270Y102860D01*
X546960Y104530D01*
Y106190D01*
X547270Y107860D01*
X547890Y109320D01*
X548830Y110570D01*
X549910Y111400D01*
X551150Y111610D01*
X552390Y111400D01*
X553470Y110570D01*
X554410Y109320D01*
X555030Y107860D01*
X555340Y106190D01*
Y104530D01*
X555030Y102860D01*
X554410Y101400D01*
X553470Y100150D01*
X552390Y99320D01*
X551150Y99110D01*
G01X560450D02*
Y111610D01*
X564170D01*
X565410Y110980D01*
X566340Y109530D01*
X566650Y107860D01*
X566340Y106190D01*
X565560Y104940D01*
X564170Y104320D01*
X560450D01*
G01X588350Y111610D02*
Y99110D01*
G01X586180Y107440D02*
X590520D01*
G01X600750Y99110D02*
X599820Y99320D01*
X598890Y100150D01*
X598270Y101610D01*
X597960Y103280D01*
X598270Y104940D01*
X598890Y106400D01*
X599820Y107230D01*
X600750Y107440D01*
X601680Y107230D01*
X602610Y106400D01*
X603230Y104940D01*
X603390Y103280D01*
X603230Y101610D01*
X602610Y100150D01*
X601680Y99320D01*
X600750Y99110D01*
G01X626790Y105780D02*
X627410Y106400D01*
X627870Y107440D01*
X628190Y108900D01*
X627870Y110150D01*
X627260Y110980D01*
X626170Y111610D01*
X621990D01*
Y99110D01*
X627100D01*
X628190Y99940D01*
X628810Y101190D01*
X629110Y102650D01*
X628810Y104110D01*
X627870Y105360D01*
X626790Y105780D01*
X621990D01*
G01X637950Y99110D02*
X636710Y99320D01*
X635630Y100150D01*
X634690Y101400D01*
X634070Y102860D01*
X633760Y104530D01*
Y106190D01*
X634070Y107860D01*
X634690Y109320D01*
X635630Y110570D01*
X636710Y111400D01*
X637950Y111610D01*
X639190Y111400D01*
X640270Y110570D01*
X641210Y109320D01*
X641830Y107860D01*
X642140Y106190D01*
Y104530D01*
X641830Y102860D01*
X641210Y101400D01*
X640270Y100150D01*
X639190Y99320D01*
X637950Y99110D01*
G01X650350Y111610D02*
Y99110D01*
G01X646790Y111610D02*
X653910D01*
G01X662750D02*
Y99110D01*
G01X659190Y111610D02*
X666310D01*
G01X675150Y99110D02*
X673910Y99320D01*
X672830Y100150D01*
X671890Y101400D01*
X671270Y102860D01*
X670960Y104530D01*
Y106190D01*
X671270Y107860D01*
X671890Y109320D01*
X672830Y110570D01*
X673910Y111400D01*
X675150Y111610D01*
X676390Y111400D01*
X677470Y110570D01*
X678410Y109320D01*
X679030Y107860D01*
X679340Y106190D01*
Y104530D01*
X679030Y102860D01*
X678410Y101400D01*
X677470Y100150D01*
X676390Y99320D01*
X675150Y99110D01*
G01X683520D02*
Y111610D01*
X687550Y101190D01*
X691580Y111610D01*
Y99110D01*
G01X404670Y74110D02*
X408550Y86610D01*
X412430Y74110D01*
G01X411030Y78480D02*
X406070D01*
G01X417850Y86610D02*
Y74110D01*
X424050D01*
G01X430250Y86610D02*
Y74110D01*
X436450D01*
G01X454740Y86610D02*
Y77650D01*
X455360Y75780D01*
X456600Y74530D01*
X458150Y74110D01*
X459700Y74530D01*
X460940Y75780D01*
X461560Y77650D01*
Y86610D01*
G01X466990Y74110D02*
Y86610D01*
X474110Y74110D01*
Y86610D01*
G01X481090D02*
X484810D01*
G01X482950D02*
Y74110D01*
G01X481090D02*
X484810D01*
G01X495350Y86610D02*
Y74110D01*
G01X491790Y86610D02*
X498910D01*
G01X504490Y75780D02*
X505740Y74730D01*
X507130Y74110D01*
X508370D01*
X509610Y74730D01*
X510540Y75780D01*
X511010Y77240D01*
X510700Y78690D01*
X509920Y79940D01*
X508520Y80780D01*
X506670Y81190D01*
X505580Y82030D01*
X505110Y83480D01*
X505430Y84940D01*
X506200Y85980D01*
X507280Y86610D01*
X508370D01*
X509460Y86190D01*
X510390Y85150D01*
G01X528670Y74110D02*
X532550Y86610D01*
X536430Y74110D01*
G01X535030Y78480D02*
X530070D01*
G01X541850Y74110D02*
Y86610D01*
X545720D01*
X546960Y85980D01*
X547740Y85150D01*
X548050Y83480D01*
X547740Y81820D01*
X546810Y80780D01*
X545720Y80150D01*
X541850D01*
G01X545720D02*
X548050Y74110D01*
G01X560450D02*
X554250D01*
Y86610D01*
X560450D01*
G01X557970Y80570D02*
X554250D01*
G01X580290Y86610D02*
X584010D01*
G01X582150D02*
Y74110D01*
G01X580290D02*
X584010D01*
G01X590990D02*
Y86610D01*
X598110Y74110D01*
Y86610D01*
G01X615320Y74110D02*
Y86610D01*
X619350Y76190D01*
X623380Y86610D01*
Y74110D01*
G01X629890Y86610D02*
X633610D01*
G01X631750D02*
Y74110D01*
G01X629890D02*
X633610D01*
G01X641050Y86610D02*
Y74110D01*
X647250D01*
G01X653290Y75780D02*
X654540Y74730D01*
X655930Y74110D01*
X657170D01*
X658410Y74730D01*
X659340Y75780D01*
X659810Y77240D01*
X659500Y78690D01*
X658720Y79940D01*
X657320Y80780D01*
X655470Y81190D01*
X654380Y82030D01*
X653910Y83480D01*
X654230Y84940D01*
X655000Y85980D01*
X656080Y86610D01*
X657170D01*
X658260Y86190D01*
X659190Y85150D01*
G01X453650Y-85620D02*
X454590Y-84370D01*
X455670Y-83750D01*
X456910Y-83540D01*
X458460Y-83960D01*
X459550Y-85000D01*
X459860Y-86250D01*
X459700Y-87500D01*
X459080Y-88540D01*
X455980Y-90620D01*
X454590Y-92080D01*
X453650Y-94170D01*
X453340Y-96040D01*
X459860D01*
G01X468690D02*
X469000Y-93330D01*
X469470Y-91040D01*
X470080Y-88960D01*
X470860Y-86670D01*
X472100Y-83540D01*
X465900D01*
G01X481400Y-96460D02*
X481090Y-96250D01*
Y-95830D01*
X481400Y-95620D01*
X481710Y-95830D01*
Y-96250D01*
X481400Y-96460D01*
G01X490850Y-90830D02*
X491940Y-89370D01*
X492870Y-88540D01*
X494110Y-88120D01*
X495200Y-88540D01*
X495970Y-89370D01*
X496590Y-90620D01*
X496750Y-92080D01*
X496590Y-93330D01*
X495970Y-94580D01*
X495040Y-95620D01*
X493960Y-96040D01*
X492720Y-95620D01*
X491630Y-94370D01*
X491010Y-92500D01*
X490850Y-90420D01*
X491160Y-87710D01*
X491630Y-86250D01*
X492400Y-84790D01*
X493490Y-83750D01*
X494570Y-83540D01*
X495660Y-83960D01*
X496440Y-85000D01*
G01X450400Y-67940D02*
Y-55440D01*
X448540Y-57940D01*
G01Y-67940D02*
X452260D01*
G01X459850Y-57520D02*
X460790Y-56270D01*
X461870Y-55650D01*
X463110Y-55440D01*
X464660Y-55860D01*
X465750Y-56900D01*
X466060Y-58150D01*
X465900Y-59400D01*
X465280Y-60440D01*
X462180Y-62520D01*
X460790Y-63980D01*
X459850Y-66070D01*
X459540Y-67940D01*
X466060D01*
G01X471790Y-66070D02*
X472720Y-67110D01*
X473800Y-67730D01*
X475200Y-67940D01*
X476600Y-67520D01*
X477680Y-66690D01*
X478460Y-65230D01*
X478610Y-63570D01*
X478300Y-61900D01*
X477520Y-60860D01*
X476440Y-60020D01*
X475360Y-59820D01*
X474270Y-60020D01*
X472880Y-60860D01*
X473340Y-55440D01*
X477520D01*
G01X487600Y-68360D02*
X487290Y-68150D01*
Y-67730D01*
X487600Y-67520D01*
X487910Y-67730D01*
Y-68150D01*
X487600Y-68360D01*
G01X500000Y-55440D02*
X498760Y-55860D01*
X497830Y-56900D01*
X497210Y-58150D01*
X496740Y-59820D01*
X496590Y-61690D01*
X496740Y-63570D01*
X497210Y-65230D01*
X497830Y-66480D01*
X498760Y-67520D01*
X500000Y-67940D01*
X501240Y-67520D01*
X502170Y-66480D01*
X502790Y-65230D01*
X503260Y-63570D01*
X503410Y-61690D01*
X503260Y-59820D01*
X502790Y-58150D01*
X502170Y-56900D01*
X501240Y-55860D01*
X500000Y-55440D01*
G01X453190Y-37340D02*
X454120Y-38800D01*
X455360Y-39630D01*
X456760Y-39840D01*
X458000Y-39630D01*
X459240Y-38590D01*
X460010Y-37340D01*
X460160Y-36090D01*
X459860Y-34630D01*
X458770Y-33590D01*
X457680Y-33170D01*
X456290D01*
G01X457680D02*
X458610Y-32550D01*
X459390Y-31510D01*
X459700Y-30260D01*
X459390Y-29010D01*
X458610Y-27970D01*
X457220Y-27340D01*
X455830Y-27550D01*
X454430Y-28380D01*
G01X466360Y-38380D02*
X467450Y-39420D01*
X468690Y-39840D01*
X469930Y-39420D01*
X471010Y-38170D01*
X471790Y-36300D01*
X472100Y-34420D01*
Y-32130D01*
X471790Y-30260D01*
X471010Y-28590D01*
X470080Y-27760D01*
X469000Y-27340D01*
X467760Y-27760D01*
X466830Y-28590D01*
X466210Y-29840D01*
X465900Y-31510D01*
X466210Y-32960D01*
X466990Y-34420D01*
X467920Y-35260D01*
X469000Y-35470D01*
X470240Y-35050D01*
X471170Y-34010D01*
X472100Y-32130D01*
G01X481400Y-40260D02*
X481090Y-40050D01*
Y-39630D01*
X481400Y-39420D01*
X481710Y-39630D01*
Y-40050D01*
X481400Y-40260D01*
G01X495660Y-39840D02*
Y-27340D01*
X489920Y-36300D01*
X497680D01*
G01X453650Y-1320D02*
X454590Y-70D01*
X455670Y550D01*
X456910Y760D01*
X458460Y340D01*
X459550Y-700D01*
X459860Y-1950D01*
X459700Y-3200D01*
X459080Y-4240D01*
X455980Y-6320D01*
X454590Y-7780D01*
X453650Y-9870D01*
X453340Y-11740D01*
X459860D01*
G01X465590Y-9240D02*
X466520Y-10700D01*
X467760Y-11530D01*
X469160Y-11740D01*
X470400Y-11530D01*
X471640Y-10490D01*
X472410Y-9240D01*
X472560Y-7990D01*
X472260Y-6530D01*
X471170Y-5490D01*
X470080Y-5070D01*
X468690D01*
G01X470080D02*
X471010Y-4450D01*
X471790Y-3410D01*
X472100Y-2160D01*
X471790Y-910D01*
X471010Y130D01*
X469620Y760D01*
X468230Y550D01*
X466830Y-280D01*
G01X481400Y-12160D02*
X481090Y-11950D01*
Y-11530D01*
X481400Y-11320D01*
X481710Y-11530D01*
Y-11950D01*
X481400Y-12160D01*
G01X490850Y-6530D02*
X491940Y-5070D01*
X492870Y-4240D01*
X494110Y-3820D01*
X495200Y-4240D01*
X495970Y-5070D01*
X496590Y-6320D01*
X496750Y-7780D01*
X496590Y-9030D01*
X495970Y-10280D01*
X495040Y-11320D01*
X493960Y-11740D01*
X492720Y-11320D01*
X491630Y-10070D01*
X491010Y-8200D01*
X490850Y-6120D01*
X491160Y-3410D01*
X491630Y-1950D01*
X492400Y-490D01*
X493490Y550D01*
X494570Y760D01*
X495660Y340D01*
X496440Y-700D01*
G01X456600Y16360D02*
Y28860D01*
X454740Y26360D01*
G01Y16360D02*
X458460D01*
G01X466050Y26780D02*
X466990Y28030D01*
X468070Y28650D01*
X469310Y28860D01*
X470860Y28440D01*
X471950Y27400D01*
X472260Y26150D01*
X472100Y24900D01*
X471480Y23860D01*
X468380Y21780D01*
X466990Y20320D01*
X466050Y18230D01*
X465740Y16360D01*
X472260D01*
G01X481400Y15940D02*
X481090Y16150D01*
Y16570D01*
X481400Y16780D01*
X481710Y16570D01*
Y16150D01*
X481400Y15940D01*
G01X493800Y28860D02*
X492560Y28440D01*
X491630Y27400D01*
X491010Y26150D01*
X490540Y24480D01*
X490390Y22610D01*
X490540Y20730D01*
X491010Y19070D01*
X491630Y17820D01*
X492560Y16780D01*
X493800Y16360D01*
X495040Y16780D01*
X495970Y17820D01*
X496590Y19070D01*
X497060Y20730D01*
X497210Y22610D01*
X497060Y24480D01*
X496590Y26150D01*
X495970Y27400D01*
X495040Y28440D01*
X493800Y28860D01*
G01X453340Y47680D02*
X454590Y46630D01*
X455980Y46010D01*
X457220D01*
X458460Y46630D01*
X459390Y47680D01*
X459860Y49140D01*
X459550Y50590D01*
X458770Y51840D01*
X457370Y52680D01*
X455520Y53090D01*
X454430Y53930D01*
X453960Y55380D01*
X454280Y56840D01*
X455050Y57880D01*
X456130Y58510D01*
X457220D01*
X458310Y58090D01*
X459240Y57050D01*
G01X467140Y58510D02*
X470860D01*
G01X469000D02*
Y46010D01*
G01X467140D02*
X470860D01*
G01X478450Y58510D02*
X484350D01*
X478450Y46010D01*
X484350D01*
G01X496900D02*
X490700D01*
Y58510D01*
X496900D01*
G01X494420Y52470D02*
X490700D01*
G01X573940Y-96040D02*
Y-83540D01*
X581060Y-96040D01*
Y-83540D01*
G01X589900Y-96040D02*
X588660Y-95830D01*
X587580Y-95000D01*
X586640Y-93750D01*
X586020Y-92290D01*
X585710Y-90620D01*
Y-88960D01*
X586020Y-87290D01*
X586640Y-85830D01*
X587580Y-84580D01*
X588660Y-83750D01*
X589900Y-83540D01*
X591140Y-83750D01*
X592220Y-84580D01*
X593160Y-85830D01*
X593780Y-87290D01*
X594090Y-88960D01*
Y-90620D01*
X593780Y-92290D01*
X593160Y-93750D01*
X592220Y-95000D01*
X591140Y-95830D01*
X589900Y-96040D01*
G01X598740D02*
Y-83540D01*
X605860Y-96040D01*
Y-83540D01*
G01X612690Y-91870D02*
X616710D01*
G01X624000Y-96040D02*
Y-83540D01*
X627720D01*
X628960Y-84170D01*
X629890Y-85620D01*
X630200Y-87290D01*
X629890Y-88960D01*
X629110Y-90210D01*
X627720Y-90830D01*
X624000D01*
G01X636400Y-83540D02*
Y-96040D01*
X642600D01*
G01X648020D02*
X651900Y-83540D01*
X655780Y-96040D01*
G01X654380Y-91670D02*
X649420D01*
G01X664300Y-83540D02*
Y-96040D01*
G01X660740Y-83540D02*
X667860D01*
G01X679800Y-96040D02*
X673600D01*
Y-83540D01*
X679800D01*
G01X677320Y-89580D02*
X673600D01*
G01X685690Y-96040D02*
Y-83540D01*
X688790D01*
X690030Y-84170D01*
X690960Y-85000D01*
X691740Y-86250D01*
X692360Y-87710D01*
X692510Y-89790D01*
X692360Y-91870D01*
X691740Y-93330D01*
X690960Y-94580D01*
X690030Y-95420D01*
X688790Y-96040D01*
X685690D01*
G01X569750Y64760D02*
Y-103840D01*
G01X599200Y-67940D02*
Y-55440D01*
X602920D01*
X604160Y-56070D01*
X605090Y-57520D01*
X605400Y-59190D01*
X605090Y-60860D01*
X604310Y-62110D01*
X602920Y-62730D01*
X599200D01*
G01X611600Y-55440D02*
Y-67940D01*
X617800D01*
G01X623220D02*
X627100Y-55440D01*
X630980Y-67940D01*
G01X629580Y-63570D02*
X624620D01*
G01X639500Y-55440D02*
Y-67940D01*
G01X635940Y-55440D02*
X643060D01*
G01X655000Y-67940D02*
X648800D01*
Y-55440D01*
X655000D01*
G01X652520Y-61480D02*
X648800D01*
G01X660890Y-67940D02*
Y-55440D01*
X663990D01*
X665230Y-56070D01*
X666160Y-56900D01*
X666940Y-58150D01*
X667560Y-59610D01*
X667710Y-61690D01*
X667560Y-63770D01*
X666940Y-65230D01*
X666160Y-66480D01*
X665230Y-67320D01*
X663990Y-67940D01*
X660890D01*
G01X599200Y-39840D02*
Y-27340D01*
X602920D01*
X604160Y-27970D01*
X605090Y-29420D01*
X605400Y-31090D01*
X605090Y-32760D01*
X604310Y-34010D01*
X602920Y-34630D01*
X599200D01*
G01X611600Y-27340D02*
Y-39840D01*
X617800D01*
G01X623220D02*
X627100Y-27340D01*
X630980Y-39840D01*
G01X629580Y-35470D02*
X624620D01*
G01X639500Y-27340D02*
Y-39840D01*
G01X635940Y-27340D02*
X643060D01*
G01X655000Y-39840D02*
X648800D01*
Y-27340D01*
X655000D01*
G01X652520Y-33380D02*
X648800D01*
G01X660890Y-39840D02*
Y-27340D01*
X663990D01*
X665230Y-27970D01*
X666160Y-28800D01*
X666940Y-30050D01*
X667560Y-31510D01*
X667710Y-33590D01*
X667560Y-35670D01*
X666940Y-37130D01*
X666160Y-38380D01*
X665230Y-39220D01*
X663990Y-39840D01*
X660890D01*
G01X599200Y-11740D02*
Y760D01*
X602920D01*
X604160Y130D01*
X605090Y-1320D01*
X605400Y-2990D01*
X605090Y-4660D01*
X604310Y-5910D01*
X602920Y-6530D01*
X599200D01*
G01X611600Y760D02*
Y-11740D01*
X617800D01*
G01X623220D02*
X627100Y760D01*
X630980Y-11740D01*
G01X629580Y-7370D02*
X624620D01*
G01X639500Y760D02*
Y-11740D01*
G01X635940Y760D02*
X643060D01*
G01X655000Y-11740D02*
X648800D01*
Y760D01*
X655000D01*
G01X652520Y-5280D02*
X648800D01*
G01X660890Y-11740D02*
Y760D01*
X663990D01*
X665230Y130D01*
X666160Y-700D01*
X666940Y-1950D01*
X667560Y-3410D01*
X667710Y-5490D01*
X667560Y-7570D01*
X666940Y-9030D01*
X666160Y-10280D01*
X665230Y-11120D01*
X663990Y-11740D01*
X660890D01*
G01X599200Y16360D02*
Y28860D01*
X602920D01*
X604160Y28230D01*
X605090Y26780D01*
X605400Y25110D01*
X605090Y23440D01*
X604310Y22190D01*
X602920Y21570D01*
X599200D01*
G01X611600Y28860D02*
Y16360D01*
X617800D01*
G01X623220D02*
X627100Y28860D01*
X630980Y16360D01*
G01X629580Y20730D02*
X624620D01*
G01X639500Y28860D02*
Y16360D01*
G01X635940Y28860D02*
X643060D01*
G01X655000Y16360D02*
X648800D01*
Y28860D01*
X655000D01*
G01X652520Y22820D02*
X648800D01*
G01X660890Y16360D02*
Y28860D01*
X663990D01*
X665230Y28230D01*
X666160Y27400D01*
X666940Y26150D01*
X667560Y24690D01*
X667710Y22610D01*
X667560Y20530D01*
X666940Y19070D01*
X666160Y17820D01*
X665230Y16980D01*
X663990Y16360D01*
X660890D01*
G01X599200Y46010D02*
Y58510D01*
X602920D01*
X604160Y57880D01*
X605090Y56430D01*
X605400Y54760D01*
X605090Y53090D01*
X604310Y51840D01*
X602920Y51220D01*
X599200D01*
G01X611600Y58510D02*
Y46010D01*
X617800D01*
G01X623220D02*
X627100Y58510D01*
X630980Y46010D01*
G01X629580Y50380D02*
X624620D01*
G01X639500Y58510D02*
Y46010D01*
G01X635940Y58510D02*
X643060D01*
G01X655000Y46010D02*
X648800D01*
Y58510D01*
X655000D01*
G01X652520Y52470D02*
X648800D01*
G01X660890Y46010D02*
Y58510D01*
X663990D01*
X665230Y57880D01*
X666160Y57050D01*
X666940Y55800D01*
X667560Y54340D01*
X667710Y52260D01*
X667560Y50180D01*
X666940Y48720D01*
X666160Y47470D01*
X665230Y46630D01*
X663990Y46010D01*
X660890D01*
G01X696850Y64760D02*
Y-103840D01*
G01X726450Y-34630D02*
X727540Y-33170D01*
X728470Y-32340D01*
X729710Y-31920D01*
X730800Y-32340D01*
X731570Y-33170D01*
X732190Y-34420D01*
X732350Y-35880D01*
X732190Y-37130D01*
X731570Y-38380D01*
X730640Y-39420D01*
X729560Y-39840D01*
X728320Y-39420D01*
X727230Y-38170D01*
X726610Y-36300D01*
X726450Y-34220D01*
X726760Y-31510D01*
X727230Y-30050D01*
X728000Y-28590D01*
X729090Y-27550D01*
X730170Y-27340D01*
X731260Y-27760D01*
X732040Y-28800D01*
G01X743660Y-39840D02*
Y-27340D01*
X737920Y-36300D01*
X745680D01*
G01X729400Y-11740D02*
Y760D01*
X727540Y-1740D01*
G01Y-11740D02*
X731260D01*
G01X741800Y760D02*
X740560Y340D01*
X739630Y-700D01*
X739010Y-1950D01*
X738540Y-3620D01*
X738390Y-5490D01*
X738540Y-7370D01*
X739010Y-9030D01*
X739630Y-10280D01*
X740560Y-11320D01*
X741800Y-11740D01*
X743040Y-11320D01*
X743970Y-10280D01*
X744590Y-9030D01*
X745060Y-7370D01*
X745210Y-5490D01*
X745060Y-3620D01*
X744590Y-1950D01*
X743970Y-700D01*
X743040Y340D01*
X741800Y760D01*
G01X719790Y18230D02*
X720720Y17190D01*
X721800Y16570D01*
X723200Y16360D01*
X724600Y16780D01*
X725680Y17610D01*
X726460Y19070D01*
X726610Y20730D01*
X726300Y22400D01*
X725520Y23440D01*
X724440Y24280D01*
X723360Y24480D01*
X722270Y24280D01*
X720880Y23440D01*
X721340Y28860D01*
X725520D01*
G01X735600Y16360D02*
Y28860D01*
X733740Y26360D01*
G01Y16360D02*
X737460D01*
G01X748000D02*
X749080Y16570D01*
X750320Y17190D01*
X751100Y18230D01*
X751410Y19690D01*
X751100Y21150D01*
X750170Y22400D01*
X748770Y23030D01*
X747230D01*
X746290Y23440D01*
X745520Y24480D01*
X745210Y25940D01*
X745680Y27400D01*
X746760Y28440D01*
X748000Y28860D01*
X749240Y28440D01*
X750320Y27400D01*
X750790Y25940D01*
X750480Y24480D01*
X749710Y23440D01*
X748770Y23030D01*
X747230D01*
X745830Y22400D01*
X744900Y21150D01*
X744590Y19690D01*
X744900Y18230D01*
X745680Y17190D01*
X746920Y16570D01*
X748000Y16360D01*
G01X723200Y46010D02*
X721960Y46220D01*
X720880Y47050D01*
X719940Y48300D01*
X719320Y49760D01*
X719010Y51430D01*
Y53090D01*
X719320Y54760D01*
X719940Y56220D01*
X720880Y57470D01*
X721960Y58300D01*
X723200Y58510D01*
X724440Y58300D01*
X725520Y57470D01*
X726460Y56220D01*
X727080Y54760D01*
X727390Y53090D01*
Y51430D01*
X727080Y49760D01*
X726460Y48300D01*
X725520Y47050D01*
X724440Y46220D01*
X723200Y46010D01*
G01X724440Y49340D02*
X726300Y46010D01*
G01X735600Y58510D02*
Y46010D01*
G01X732040Y58510D02*
X739160D01*
G01X748000Y46010D02*
Y51630D01*
X744900Y58510D01*
G01X751100D02*
X748000Y51630D01*
G01X732650Y-85620D02*
X733590Y-84370D01*
X734670Y-83750D01*
X735910Y-83540D01*
X737460Y-83960D01*
X738550Y-85000D01*
X738860Y-86250D01*
X738700Y-87500D01*
X738080Y-88540D01*
X734980Y-90620D01*
X733590Y-92080D01*
X732650Y-94170D01*
X732340Y-96040D01*
X738860D01*
G01X737460Y-67940D02*
Y-55440D01*
X731720Y-64400D01*
X739480D01*
M02*
