G04 ================== begin FILE IDENTIFICATION RECORD ==================*
G04 Layout Name:  D:/ET_EvilBoard/Layout_V4/EvilSploit_0625A.brd*
G04 Film Name:    TOP*
G04 File Format:  Gerber RS274X*
G04 File Origin:  Cadence Allegro 16.6-P004*
G04 Origin Date:  Sun Jun 25 07:11:54 2017*
G04 *
G04 Layer:  BOARD GEOMETRY/OUTLINE*
G04 Layer:  ETCH/TOP*
G04 Layer:  PIN/TOP*
G04 Layer:  VIA CLASS/TOP*
G04 *
G04 Offset:    (0.0 0.0)*
G04 Mirror:    No*
G04 Mode:      Positive*
G04 Rotation:  0*
G04 FullContactRelief:  No*
G04 UndefLineWidth:     6.0*
G04 ================== end FILE IDENTIFICATION RECORD ====================*
%FSLAX25Y25*MOIN*%
%IR0*IPPOS*OFA0.00000B0.00000*MIA0B0*SFA1.00000B1.00000*%
%ADD10C,.175*%
%ADD53R,.2205X.2205*%
%AMMACRO45*
4,1,32,-.0817,-.0856,
-.0856,-.0817,
-.0856,.0817,
-.085539,.082379,
-.085361,.083036,
-.085072,.083653,
-.08468,.08421,
-.084197,.084691,
-.083638,.085081,
-.08302,.085367,
-.082362,.085542,
-.0817,.0856,
.0817,.0856,
.082379,.085539,
.083036,.085361,
.083653,.085072,
.08421,.08468,
.084691,.084197,
.085081,.083638,
.085367,.08302,
.085542,.082362,
.0856,.0817,
.0856,-.0817,
.085539,-.082379,
.085361,-.083036,
.085072,-.083653,
.08468,-.08421,
.084197,-.084691,
.083638,-.085081,
.08302,-.085367,
.082362,-.085542,
.0817,-.0856,
-.0817,-.0856,
0.0*
%
%ADD45MACRO45*%
%ADD37O,.0236X.0094*%
%ADD36O,.0094X.0236*%
%ADD28R,.0846X.248*%
%ADD30R,.248X.0846*%
%AMMACRO54*
4,1,41,0.0,-.0276,
.0069,-.0276,
.0081,-.027493,
.009263,-.02718,
.010354,-.026669,
.011339,-.025977,
.01219,-.025124,
.012879,-.024136,
.013387,-.023044,
.013697,-.02188,
.0138,-.0207,
.0138,.0207,
.013693,.0219,
.01338,.023063,
.012869,.024154,
.012177,.025139,
.011324,.02599,
.010336,.026679,
.009244,.027187,
.00808,.027497,
.0069,.0276,
-.0069,.0276,
-.0081,.027493,
-.009263,.02718,
-.010354,.026669,
-.011339,.025977,
-.01219,.025124,
-.012879,.024136,
-.013387,.023044,
-.013697,.02188,
-.0138,.0207,
-.0138,-.0207,
-.013693,-.0219,
-.01338,-.023063,
-.012869,-.024154,
-.012177,-.025139,
-.011324,-.02599,
-.010336,-.026679,
-.009244,-.027187,
-.00808,-.027497,
-.0069,-.0276,
0.0,-.0276,
0.0*
%
%ADD54MACRO54*%
%ADD32R,.1X.1051*%
%ADD42R,.1051X.1*%
%ADD21R,.012X.02*%
%ADD43R,.03X.05*%
%ADD29R,.02X.05*%
%ADD38R,.05X.03*%
%ADD15R,.02X.025*%
%ADD12R,.025X.02*%
%ADD34R,.022X.052*%
%ADD13C,.02*%
%ADD14R,.04X.035*%
%ADD23R,.055X.04*%
%ADD56R,.04X.055*%
%ADD48C,.024*%
%ADD39R,.071X.044*%
%ADD25R,.092X.051*%
%ADD22R,.02X.02*%
%ADD50R,.086X.022*%
%ADD47R,.0118X.0315*%
%ADD19R,.063X.063*%
%ADD52R,.0315X.0118*%
%ADD46R,.04X.04*%
%ADD31R,.057X.044*%
%ADD55C,.0354*%
%ADD41R,.0118X.0335*%
%ADD27R,.044X.057*%
%ADD49R,.089X.023*%
%ADD40R,.0335X.0118*%
%ADD51R,.023X.089*%
%ADD33R,.056X.048*%
%ADD20R,.0531X.0157*%
%ADD26R,.0413X.0276*%
%ADD16C,.0276*%
%ADD17R,.0551X.0472*%
%ADD44R,.035X.0299*%
%ADD11R,.0299X.035*%
%ADD24R,.0591X.0591*%
%ADD18R,.0374X.0669*%
%ADD35R,.0965X.0965*%
%ADD57C,.005*%
%ADD58C,.006*%
%ADD59C,.008*%
%ADD60C,.01*%
%ADD62C,.0404*%
%ADD61C,.048*%
G75*
%LPD*%
G75*
G36*
G01X69300Y-39240D02*
G03X67340I-980J-1110D01*
G03X65370I-985J-1108D01*
G03X63400I-985J-1108D01*
G03X61440I-980J-1110D01*
G03X60690Y-38890I-977J-1115D01*
G01X60360Y-38830D01*
Y-35740D01*
X59910Y-35290D01*
X60000Y-35050D01*
G03X58600Y-33080I-1400J488D01*
G01X58190D01*
X58160Y-33070D01*
G03X57890Y-33050I-246J-1492D01*
G01X53790D01*
Y-32970D01*
X45250D01*
Y-36830D01*
X39450D01*
X34450Y-31830D01*
X29960D01*
Y-22640D01*
X26860Y-19540D01*
Y6760D01*
X25750Y7870D01*
X16350D01*
X15860Y7380D01*
X15750D01*
Y7270D01*
X15140Y6660D01*
Y-22140D01*
X21240Y-28240D01*
Y-31440D01*
X22440Y-32640D01*
Y-38040D01*
X19340Y-41140D01*
Y-44640D01*
X19990Y-45290D01*
X19440Y-45840D01*
Y-54640D01*
X21940Y-57140D01*
Y-57200D01*
X22000D01*
X22250Y-57450D01*
X35060D01*
G02X36340Y-58090I479J-641D01*
G01Y-62640D01*
X38350Y-64650D01*
X62750D01*
X67050Y-60350D01*
X67640D01*
Y-66540D01*
X69250Y-68150D01*
X106150D01*
X110060Y-64240D01*
Y-56840D01*
G02X110660Y-55510I601J529D01*
G01X113200D01*
X114330Y-56640D01*
Y-66030D01*
X124330D01*
Y-76440D01*
X116580Y-84190D01*
Y-85210D01*
X116420Y-85370D01*
X110620D01*
Y-92820D01*
X108560D01*
Y-85370D01*
X100620D01*
Y-92820D01*
X98560D01*
Y-85370D01*
X90620D01*
Y-92820D01*
X88560D01*
Y-85370D01*
X80620D01*
Y-92820D01*
X78560D01*
Y-85370D01*
X70620D01*
Y-92820D01*
X68560D01*
Y-85370D01*
X60620D01*
Y-92820D01*
X58560D01*
Y-85370D01*
X50620D01*
Y-92820D01*
X48560D01*
Y-85370D01*
X40620D01*
Y-92820D01*
X28560D01*
Y-85370D01*
X20620D01*
Y-92820D01*
X-12440D01*
G02X-15440Y-89820I0J3000D01*
G01Y76940D01*
G02X-12440Y79940I3000J0D01*
G01X5370D01*
G02X5940Y78570I6J-801D01*
G01X2690Y75330D01*
Y67030D01*
X370Y64710D01*
X-1730D01*
X-2530Y63910D01*
X-5430D01*
X-7130Y62210D01*
X-10730D01*
X-13210Y59730D01*
Y22770D01*
X-12910Y22470D01*
Y20340D01*
X-12110D01*
Y20190D01*
X-9690D01*
Y20340D01*
X-8150D01*
Y16850D01*
X-7790D01*
Y16680D01*
X-7350Y16240D01*
Y-4990D01*
X-5380Y-6960D01*
X-3680D01*
Y-8240D01*
X3680D01*
Y-7810D01*
X4510Y-6970D01*
X6170D01*
X12760Y-380D01*
Y12880D01*
X15320Y15440D01*
X72180D01*
X78270Y21530D01*
Y22460D01*
X78940D01*
X79040Y22220D01*
G03X80060Y21160I1866J774D01*
G01X80240Y21080D01*
X80290Y21030D01*
Y12840D01*
G02X81050Y12110I-37J-799D01*
G03X83120Y10240I2013J148D01*
G01X83290Y10250D01*
X83500Y10040D01*
X83930D01*
Y9280D01*
X92470D01*
Y10990D01*
X93840Y12360D01*
X94090Y12250D01*
G03X95220Y12110I803J1852D01*
G02X96150Y11320I129J-791D01*
G01Y5750D01*
X96910D01*
Y5410D01*
X98580Y3740D01*
X109610D01*
X109940Y4070D01*
G02X110620Y3790I281J-283D01*
G01Y2770D01*
X116200D01*
X121580Y-2610D01*
X124330D01*
Y-11690D01*
X114330D01*
Y-15630D01*
X112850D01*
X100150Y-2930D01*
X47350D01*
X45230Y-5050D01*
G02X43860Y-4490I-570J562D01*
G01Y6360D01*
X42400Y7820D01*
X32000D01*
X31140Y6960D01*
Y-18640D01*
X32550Y-20050D01*
X35050D01*
X43550Y-28550D01*
X54250D01*
X56050Y-30350D01*
X59650D01*
X61350Y-28650D01*
X63150D01*
X63670Y-28130D01*
X63910Y-28210D01*
G03X65370Y-27920I481J1400D01*
G03X67020Y-28130I980J1110D01*
G01X67280Y-28000D01*
X67770Y-28490D01*
X67180Y-29070D01*
G03X69320Y-31210I1070J-1070D01*
G01X69500Y-31020D01*
G02X70800Y-31250I570J-564D01*
G03X71030Y-31620I1360J589D01*
G03Y-33580I1110J-980D01*
G03X70760Y-35090I1111J-978D01*
G01X70850Y-35330D01*
X70440Y-35740D01*
Y-38840D01*
X70090Y-38880D01*
G03X69300Y-39240I193J-1471D01*
G37*
G36*
G01X-500Y17000D02*
Y18980D01*
G03X310Y20800I-1199J1624D01*
G01X290Y20990D01*
X4700Y25400D01*
Y28000D01*
X5900Y29200D01*
X9000D01*
X10400Y27800D01*
Y24000D01*
X5800Y19400D01*
Y16900D01*
X4650Y15750D01*
X5000Y15400D01*
Y-300D01*
X3120Y-2180D01*
X-2820D01*
X-3600Y-1400D01*
Y-520D01*
X-3110D01*
X-3030Y-560D01*
G03X70Y1840I939J1989D01*
G02X860Y2790I786J150D01*
G01X3060D01*
Y9530D01*
X640D01*
G03X-2060I-1350J-1500D01*
G01X-3600D01*
Y15900D01*
X-3100Y16400D01*
X-1100D01*
X-500Y17000D01*
G37*
G36*
G01X7580Y-440D02*
G02X6210Y120I-570J562D01*
G01Y15600D01*
X7010Y16400D01*
Y18900D01*
X11350Y23240D01*
X11700Y22890D01*
X18810D01*
X18850Y22850D01*
X24350D01*
X25660Y24160D01*
Y27750D01*
X27880D01*
X29550Y29420D01*
X30350D01*
Y36440D01*
X26330D01*
Y30770D01*
X23260D01*
Y36360D01*
X22150Y37470D01*
X17550D01*
X15740Y35660D01*
Y29800D01*
X15650Y29710D01*
X11800D01*
X11090Y29000D01*
X10910D01*
X9500Y30410D01*
X5400D01*
X3490Y28500D01*
Y25900D01*
X-1710Y20700D01*
Y17610D01*
X-2940D01*
Y24350D01*
X-7190D01*
X-7270Y24390D01*
G03X-8440Y24610I-942J-1788D01*
G01X-8470Y24600D01*
X-8890D01*
Y24860D01*
X-10190D01*
Y50640D01*
X-9580D01*
G02X-9180Y50240I0J-400D01*
G03X-5140I2020J0D01*
G02X-4740Y50640I400J0D01*
G01X-610D01*
G02X-50Y49270I-2J-800D01*
G01X-870Y48450D01*
X-4260D01*
Y42930D01*
X-2510D01*
Y39980D01*
G03Y36820I1260J-1580D01*
G01Y32310D01*
X-4260D01*
Y26790D01*
X1760D01*
Y32310D01*
X10D01*
Y36820D01*
G03Y39980I-1260J1580D01*
G01Y42930D01*
X1760D01*
Y47520D01*
X3960Y49720D01*
X6200D01*
Y53740D01*
X2180D01*
Y51500D01*
X1560Y50880D01*
G02X870Y51160I-288J281D01*
G01Y56180D01*
X-130D01*
Y57510D01*
G02X790Y58300I798J1D01*
G03X1300Y58290I294J2000D01*
G02X2180Y57490I80J-796D01*
G01Y55720D01*
X6200D01*
Y59020D01*
X7510Y60330D01*
X10020D01*
Y60690D01*
X18330D01*
Y66710D01*
X10020D01*
Y68220D01*
X10440Y68650D01*
X10580Y68670D01*
G03X8330Y70920I-250J2000D01*
G01X8310Y70780D01*
X6390Y68870D01*
X5710D01*
Y74070D01*
X8530Y76890D01*
X10690D01*
G02X11490Y76150I1J-801D01*
G03X14170Y74390I2015J147D01*
G01X14410Y74480D01*
X19470Y69420D01*
Y64430D01*
X26990D01*
Y67940D01*
X28180D01*
Y62360D01*
X27670Y61860D01*
G02X26990Y62140I-282J282D01*
G01Y62970D01*
X19470D01*
Y56950D01*
X26990D01*
Y58700D01*
X28080D01*
X29710Y60330D01*
X32220D01*
Y65340D01*
X34620D01*
X34990Y65700D01*
G02X35670Y65420I282J-282D01*
G01Y58660D01*
X39890D01*
Y65880D01*
X39480D01*
G02X39200Y66560I2J398D01*
G01X40140Y67510D01*
X41900D01*
X43150Y66260D01*
Y58660D01*
X45550D01*
X46350Y57860D01*
X47600D01*
Y55690D01*
X42380D01*
X40540Y57530D01*
X36400D01*
X34560Y55690D01*
Y48550D01*
X36560Y46550D01*
G02X36000Y45180I-562J-570D01*
G01X35060D01*
Y42690D01*
X34130Y41760D01*
Y33500D01*
X35280Y32350D01*
Y27310D01*
X40720D01*
X42320Y25710D01*
X47290D01*
Y24270D01*
X47140D01*
Y21850D01*
X47290D01*
Y21050D01*
X51810D01*
Y22140D01*
X71820D01*
X73970Y24280D01*
G02X74650Y24000I282J-282D01*
G01Y23030D01*
X70680Y19060D01*
X13820D01*
X9140Y14380D01*
Y1120D01*
X7580Y-440D01*
G37*
G36*
G01X19350Y24060D02*
X19310Y24100D01*
X12200D01*
X11700Y24600D01*
Y27900D01*
X12300Y28500D01*
X13260D01*
X13300Y28490D01*
G03X14200I450J1970D01*
G01X14240Y28500D01*
X16150D01*
X16950Y29300D01*
Y35160D01*
X18050Y36260D01*
X21650D01*
X22050Y35860D01*
Y30060D01*
X22630Y29480D01*
Y29420D01*
X22690D01*
X24450Y27660D01*
Y24660D01*
X23850Y24060D01*
X19350D01*
G37*
G36*
G01X22750Y-56240D02*
X20650Y-54140D01*
Y-46340D01*
X21150Y-45840D01*
X24950D01*
X25140Y-45650D01*
X25590D01*
X25720Y-45520D01*
X26280D01*
Y-43410D01*
X28350Y-41340D01*
Y-33840D01*
X29150Y-33040D01*
X30540D01*
X30750Y-33250D01*
X34160D01*
X38950Y-38040D01*
X44750D01*
X45450Y-38740D01*
Y-40640D01*
X45950Y-41140D01*
X54150D01*
X54850Y-40440D01*
Y-36540D01*
X55450Y-35940D01*
X57150D01*
X58600D01*
X58850D01*
X59150Y-36240D01*
Y-38940D01*
X58950Y-39140D01*
X58550D01*
X57950Y-39740D01*
Y-41140D01*
X54150Y-44940D01*
X35450D01*
X34450Y-43940D01*
X29950D01*
X29210Y-44680D01*
X28080D01*
Y-49260D01*
X29070D01*
X29150Y-49340D01*
X34450D01*
X36050Y-50940D01*
Y-54740D01*
X34550Y-56240D01*
X22750D01*
G37*
G36*
G01X36250Y-21840D02*
Y-31440D01*
X35650Y-32040D01*
X31250D01*
X30850Y-31640D01*
Y-21140D01*
X31650Y-20340D01*
X34750D01*
X36250Y-21840D01*
G37*
G36*
G01X21250Y-44840D02*
X20550Y-44140D01*
Y-41640D01*
X23650Y-38540D01*
Y-32140D01*
X22450Y-30940D01*
Y-29400D01*
G03Y-28880I-2000J260D01*
G01Y-27740D01*
X16350Y-21640D01*
Y6160D01*
X16850Y6660D01*
X25250D01*
X25650Y6260D01*
Y-20040D01*
X28750Y-23140D01*
Y-31940D01*
X28050Y-32640D01*
X27550D01*
X27250Y-32940D01*
Y-36440D01*
X26250Y-37440D01*
Y-37940D01*
X25450Y-38740D01*
Y-44640D01*
X25250Y-44840D01*
X21250D01*
G37*
G36*
G01X22230Y73210D02*
X16860Y78570D01*
G02X17430Y79940I564J569D01*
G01X30620D01*
Y74630D01*
X29200Y73210D01*
X22230D01*
G37*
G36*
G01X38850Y-63440D02*
X37550Y-62140D01*
Y-53340D01*
X38750Y-52140D01*
X65450D01*
X65650Y-51940D01*
Y-48640D01*
X66950Y-47340D01*
X69450D01*
X72150Y-44640D01*
Y-39740D01*
X71650Y-39240D01*
Y-36240D01*
X71950Y-35940D01*
X72100D01*
X73560D01*
X73750D01*
X74450Y-36640D01*
Y-45240D01*
X77850Y-48640D01*
Y-57740D01*
X76450Y-59140D01*
X66550D01*
X62250Y-63440D01*
X38850D01*
G37*
G36*
G01X39350Y-36540D02*
X38350Y-35540D01*
Y-30940D01*
X40550Y-28740D01*
X54440D01*
X56050Y-30350D01*
X59650D01*
X59860Y-30140D01*
X62650D01*
X63550Y-31040D01*
Y-32240D01*
X62750Y-33040D01*
X55250D01*
X54250Y-32040D01*
X45250D01*
X44950Y-32340D01*
Y-36140D01*
X44550Y-36540D01*
X39350D01*
G37*
G36*
G01X56550Y-29140D02*
X54750Y-27340D01*
X44050D01*
X35550Y-18840D01*
X33050D01*
X32350Y-18140D01*
Y-3000D01*
G03Y-2480I-2000J260D01*
G01Y6460D01*
X32500Y6610D01*
X41900D01*
X42650Y5860D01*
Y-18240D01*
X44250Y-19840D01*
X56950D01*
X61050Y-23940D01*
Y-25240D01*
G03X61040Y-25390I1369J-167D01*
G01Y-26810D01*
G03X61050Y-26960I1379J17D01*
G01Y-27240D01*
X60550Y-27740D01*
X59530D01*
Y-28760D01*
X59150Y-29140D01*
X56550D01*
G37*
G36*
G01X59950Y-19040D02*
X58950Y-18040D01*
X46550D01*
X45250Y-16740D01*
Y-6740D01*
X47850Y-4140D01*
X99650D01*
X112350Y-16840D01*
X124450D01*
X125150Y-17540D01*
Y-19440D01*
X124050Y-20540D01*
X109350D01*
X105710Y-16900D01*
X100060D01*
X93500Y-10340D01*
X66350D01*
X63650Y-13040D01*
Y-20940D01*
X62950Y-21640D01*
Y-27140D01*
X62650Y-27440D01*
X62150D01*
X61860Y-27150D01*
Y-23600D01*
X61850Y-23590D01*
Y-22240D01*
X61650Y-22040D01*
X60950D01*
X59950Y-21040D01*
Y-19040D01*
G37*
G36*
G01X43360Y28230D02*
X42900Y28690D01*
Y34130D01*
X37060D01*
X36650Y34540D01*
Y40720D01*
X37090Y41160D01*
X39580D01*
Y41960D01*
X39730D01*
Y44380D01*
X39580D01*
Y45310D01*
X47060D01*
Y44380D01*
X46910D01*
Y41960D01*
X47060D01*
Y40430D01*
X43940D01*
Y33610D01*
X49670D01*
X50510Y32770D01*
Y31500D01*
X52410Y29600D01*
G02X51850Y28230I-562J-570D01*
G01X43360D01*
G37*
G36*
G01X55920Y66750D02*
X55660Y67010D01*
Y67040D01*
X55120Y67580D01*
G03X52110Y70260I-1470J1380D01*
G02X50930Y70210I-613J517D01*
G01X48480Y72660D01*
X38560D01*
Y79940D01*
X50620D01*
Y72490D01*
X59040D01*
Y69580D01*
G03X58290Y67810I1261J-1578D01*
G02X58010Y67400I-398J-29D01*
G03X57090Y66790I615J-1926D01*
G02X55920Y66750I-604J525D01*
G37*
G36*
G01X83700Y28350D02*
G02X82730Y27560I-801J-7D01*
G03X81950Y27580I-441J-1970D01*
G02X81010Y28370I-140J787D01*
G01Y31860D01*
X63400D01*
Y61900D01*
X93440D01*
Y31860D01*
X83700D01*
Y28350D01*
G37*
G36*
G01X60030Y27840D02*
X58830Y29040D01*
G02X58970Y30290I563J570D01*
G03X59260Y30510I-1070J1711D01*
G01X64010D01*
Y27840D01*
X60030D01*
G37*
G36*
G01X55840Y29730D02*
X53030Y32540D01*
Y33810D01*
X51560Y35280D01*
Y35980D01*
G02X52930Y36540I800J-2D01*
G01X56260Y33210D01*
X56120Y32950D01*
G03X56620Y30440I1781J-950D01*
G01X56760Y30320D01*
Y29730D01*
X55840D01*
G37*
G36*
G01X62750Y67300D02*
X62310Y67730D01*
X62320Y67910D01*
G03X61560Y69580I-2019J89D01*
G01Y71650D01*
X62410Y72490D01*
X68560D01*
Y73310D01*
G02X69240Y73590I398J-2D01*
G01X69260Y73570D01*
G03X69820Y73340I561J569D01*
G02X70620Y72540I2J-798D01*
G01Y72490D01*
X76770D01*
X78130Y71140D01*
X79650D01*
Y70430D01*
X79350Y70350D01*
G03X78280Y69640I523J-1949D01*
G02X77030Y69620I-633J492D01*
G03X73460Y68160I-1559J-1282D01*
G02X72660Y67300I-796J-61D01*
G01X62750D01*
G37*
G36*
G01X69750Y-66940D02*
X68850Y-66040D01*
Y-61140D01*
X69950Y-60040D01*
X77450D01*
X79250Y-58240D01*
Y-47540D01*
X76350Y-44640D01*
Y-37840D01*
X77350Y-36840D01*
X79420D01*
X79630Y-37050D01*
X80050D01*
Y-43340D01*
X80350Y-43640D01*
X94250D01*
X96000Y-45390D01*
Y-53600D01*
X97700Y-55300D01*
X106810D01*
X108850Y-57340D01*
Y-63740D01*
X105650Y-66940D01*
X69750D01*
G37*
G36*
G01X78650Y-17640D02*
X77850Y-16840D01*
X76050D01*
X75050Y-15840D01*
Y-13440D01*
X74750Y-13140D01*
X70950D01*
X70650Y-13440D01*
Y-17040D01*
X70370Y-17320D01*
X68530D01*
X68450Y-17240D01*
Y-15740D01*
X68230Y-15520D01*
Y-15320D01*
X68030D01*
X66750Y-14040D01*
Y-11840D01*
X67440Y-11150D01*
X84260D01*
X89550Y-16440D01*
Y-30040D01*
X87450Y-32140D01*
X85250D01*
X84750Y-31640D01*
X81850D01*
X81150Y-30940D01*
Y-30040D01*
X81550Y-29640D01*
X84850D01*
X85250Y-29240D01*
Y-28340D01*
X85950Y-27640D01*
Y-24040D01*
X85150Y-23240D01*
Y-22740D01*
X84950Y-22540D01*
X80550D01*
X80250Y-22840D01*
Y-23240D01*
X80050Y-23440D01*
Y-25240D01*
X79570Y-25720D01*
X76560D01*
Y-25840D01*
X75750D01*
X74350Y-27240D01*
X70050D01*
X69700Y-26890D01*
Y-25390D01*
G03X69650Y-25020I-1394J0D01*
G01Y-24840D01*
X69950Y-24540D01*
X74750D01*
X76550Y-22740D01*
X77550D01*
X78650Y-21640D01*
Y-17640D01*
G37*
G36*
G01X105000Y-42000D02*
X106800Y-43800D01*
Y-46900D01*
X111900Y-52000D01*
X124400D01*
X125000Y-52600D01*
Y-54600D01*
X124100Y-55500D01*
X114900D01*
X113700Y-54300D01*
X99300D01*
X98200Y-53200D01*
Y-42600D01*
X98800Y-42000D01*
X105000D01*
G37*
G36*
G01X125270Y-65090D02*
Y-56040D01*
X126210Y-55100D01*
Y-52100D01*
X125270Y-51160D01*
Y-31690D01*
X114330D01*
Y-31950D01*
G02X113680Y-32270I-401J-6D01*
G03X113220Y-35720I-1242J-1590D01*
G02X114330Y-36460I309J-739D01*
G01Y-36880D01*
G02X113700Y-37210I-401J-1D01*
G03X113250Y-40750I-1162J-1651D01*
G02X114330Y-41500I280J-749D01*
G01Y-42210D01*
X113810D01*
X113720Y-42150D01*
G03X113280Y-45780I-1078J-1711D01*
G02X114330Y-46540I252J-758D01*
G01Y-47100D01*
X113830D01*
X113750Y-47060D01*
G03X111040Y-47950I-910J-1800D01*
G02X109760Y-48150I-713J366D01*
G01X108010Y-46400D01*
Y-43300D01*
X105500Y-40790D01*
X98300D01*
X96990Y-42100D01*
Y-42740D01*
G02X95620Y-43300I-800J2D01*
G01X94750Y-42430D01*
X88650D01*
Y-33950D01*
X88320D01*
G02X88030Y-33270I-4J400D01*
G01X90760Y-30540D01*
Y-15940D01*
X87740Y-12920D01*
G02X88300Y-11550I562J570D01*
G01X93000D01*
X99560Y-18110D01*
X105210D01*
X105710Y-18610D01*
G02X105420Y-19290I-287J-280D01*
G01X96600D01*
X94990Y-20900D01*
Y-26200D01*
X96800Y-28010D01*
X113800D01*
X115100Y-26710D01*
X124800D01*
X126410Y-25100D01*
Y-22900D01*
X125270Y-21760D01*
Y-21030D01*
X126360Y-19940D01*
Y-17040D01*
X125270Y-15950D01*
Y-12630D01*
X135390D01*
G02X135990Y-13960I1J-800D01*
G03X139010I1510J-1340D01*
G02X139610Y-12630I599J530D01*
G01X177730D01*
Y-23980D01*
G02X176950Y-24780I-799J-1D01*
G03Y-28820I50J-2020D01*
G02X177730Y-29620I-19J-799D01*
G01Y-43680D01*
G02X176890Y-44480I-799J-2D01*
G03Y-48520I-90J-2020D01*
G02X177730Y-49320I41J-798D01*
G01Y-65090D01*
X139140D01*
G02X138390Y-64010I-1J800D01*
G03X134610I-1890J710D01*
G02X133860Y-65090I-749J-280D01*
G01X125270D01*
G37*
G36*
G01X108000Y-22200D02*
X124000D01*
X125200Y-23400D01*
Y-24600D01*
X124300Y-25500D01*
X114600D01*
X113300Y-26800D01*
X97300D01*
X96200Y-25700D01*
Y-21400D01*
X97100Y-20500D01*
X106300D01*
X108000Y-22200D01*
G37*
G36*
G01X95110Y19540D02*
Y16510D01*
G02X94740Y16110I-401J0D01*
G03X94450Y16070I130J-2015D01*
G01X94410Y16060D01*
X93960D01*
Y22830D01*
G02X95330Y23390I800J-2D01*
G01X96130Y22590D01*
X97080D01*
Y19540D01*
X95110D01*
G37*
G36*
G01X98710Y24580D02*
X98170Y25110D01*
X97170D01*
X94790Y27490D01*
Y30510D01*
X96510D01*
X99390Y27630D01*
Y24860D01*
G02X98710Y24580I-398J2D01*
G37*
G36*
G01X104180Y28340D02*
G03X102310Y28600I-1181J-1640D01*
G01X102070Y28510D01*
X98840Y31750D01*
Y32540D01*
X100400D01*
X101400Y33540D01*
X102960D01*
X104080Y34660D01*
G02X105450Y34100I570J-562D01*
G01Y28990D01*
G02X104180Y28340I-800J-3D01*
G37*
G36*
G01X113700Y46740D02*
X113420Y47010D01*
X99630D01*
X99520Y46900D01*
G02X98840Y47180I-281J283D01*
G01Y48560D01*
X104640D01*
X107360Y51280D01*
G02X108730Y50720I570J-562D01*
G01Y50540D01*
X114670D01*
G02X115240Y49170I6J-801D01*
G01X114930Y48870D01*
X114380D01*
Y47020D01*
G02X113700Y46740I-398J1D01*
G37*
G36*
G01X88400Y67300D02*
G02X87610Y68230I-3J798D01*
G03X87560Y69120I-1991J335D01*
G02X88330Y70140I771J219D01*
G01X90180D01*
X91320Y69000D01*
X89960Y67640D01*
Y67300D01*
X88400D01*
G37*
G36*
G01X112600Y32720D02*
Y34080D01*
X112880Y34170D01*
G03X114070Y35130I-578J1933D01*
G01X114190Y35340D01*
X115290D01*
Y32720D01*
X112600D01*
G37*
G36*
G01X124200Y55900D02*
X123610D01*
X119150Y60360D01*
X110250D01*
X109250Y61360D01*
Y63160D01*
X110550Y64460D01*
X120650D01*
X123950Y61160D01*
X124760Y60360D01*
Y56460D01*
X124200Y55900D01*
G37*
G36*
G01X128560Y-92820D02*
Y-87510D01*
X129260Y-86810D01*
G02X130620Y-87370I563J-565D01*
G01Y-92820D01*
X128560D01*
G37*
G36*
G01X132060Y-84010D02*
X133010Y-83060D01*
Y-76030D01*
X134990D01*
Y-82840D01*
X133080Y-84750D01*
Y-85370D01*
X132620D01*
G02X132060Y-84010I5J797D01*
G37*
G36*
G01X122840Y410D02*
X121840Y1410D01*
G02X122400Y2770I565J563D01*
G01X126420D01*
X127420Y1780D01*
G02X126850Y410I-565J-569D01*
G01X122840D01*
G37*
G36*
G01X119260Y3990D02*
X118560Y4690D01*
Y8240D01*
X120620D01*
Y4550D01*
G02X119260Y3990I-797J5D01*
G37*
G36*
G01X122440Y31930D02*
Y33910D01*
X122700Y34010D01*
G03X124000Y35600I-696J1896D01*
G03X124320Y35580I286J2001D01*
G02X125130Y34780I10J-800D01*
G01Y28760D01*
X124100D01*
Y29220D01*
X124120Y29280D01*
G03X122730Y31850I-1921J622D01*
G01X122440Y31930D01*
G37*
G36*
G01X132280Y32720D02*
Y34260D01*
X132580Y34340D01*
G03X134050Y35790I-483J1959D01*
G02X134790Y35880I388J-101D01*
G03X134970Y35600I1784J949D01*
G01Y32720D01*
X132280D01*
G37*
G36*
G01X122510Y45480D02*
X122660D01*
Y44910D01*
X122500D01*
Y43060D01*
X119560D01*
Y47550D01*
X119650Y47640D01*
X120820D01*
X121950Y48770D01*
X122270Y48460D01*
X122290Y48420D01*
G03X122510Y48140I1692J1103D01*
G01Y45480D01*
G37*
G36*
G01X125970Y60870D02*
X124800Y62020D01*
X122210Y64610D01*
Y70980D01*
X122060Y71130D01*
G02X122620Y72490I565J563D01*
G01X126770D01*
X129430Y69840D01*
X136280D01*
X136740Y69380D01*
Y64780D01*
X127330D01*
Y57710D01*
X126650Y57040D01*
G02X125970Y57330I-280J285D01*
G01Y60870D01*
G37*
G36*
G01X139990Y-81530D02*
X143080Y-84620D01*
Y-85370D01*
X140620D01*
Y-92820D01*
X138560D01*
Y-85370D01*
G02X138010Y-84110I101J794D01*
G01Y-76030D01*
X139990D01*
Y-81530D01*
G37*
G36*
G01X139540Y21510D02*
Y23470D01*
X138760D01*
G02X138480Y24150I2J398D01*
G01X139230Y24900D01*
X139490Y24750D01*
G03X141010Y24550I1004J1752D01*
G02X142010Y23770I199J-776D01*
G01Y23510D01*
X142640Y22880D01*
G02X142080Y21510I-562J-570D01*
G01X139540D01*
G37*
G36*
G01X135190Y41260D02*
Y44670D01*
X138510D01*
Y42480D01*
X138660D01*
Y41260D01*
X135190D01*
G37*
G36*
G01X142210Y69420D02*
G02X141460Y70220I49J797D01*
G01Y71550D01*
X142410Y72490D01*
X148560D01*
Y79940D01*
X150620D01*
Y72490D01*
X153330D01*
Y72090D01*
X156880Y68540D01*
X163720D01*
Y64320D01*
X162190Y62790D01*
Y62300D01*
X154410D01*
Y64510D01*
X153610D01*
Y64660D01*
X151190D01*
Y64510D01*
X150620D01*
Y64670D01*
X148180D01*
Y64510D01*
X147620D01*
Y64670D01*
X145420D01*
Y68520D01*
X143780D01*
G03X142210Y69420I-1684J-1118D01*
G37*
G36*
G01X154940Y-80490D02*
X153010Y-78560D01*
Y-76030D01*
X154990D01*
Y-77120D01*
X157000Y-79120D01*
G02X156430Y-80490I-565J-569D01*
G01X154940D01*
G37*
G36*
G01X158010Y-1020D02*
X161800Y2770D01*
X163520D01*
G02X164080Y1410I-5J-797D01*
G01X160980Y-1690D01*
X158010D01*
Y-1020D01*
G37*
G36*
G01X171790Y25640D02*
X152200D01*
Y47820D01*
X174380D01*
Y45230D01*
Y25640D01*
X171790D01*
G37*
G36*
G01X167860Y53850D02*
X166630Y55070D01*
Y55120D01*
X164710Y57040D01*
Y61750D01*
X164740Y61780D01*
X170850D01*
G02X171650Y60940I2J-799D01*
G01Y56840D01*
X171230Y56420D01*
X170430D01*
X167860Y53850D01*
G37*
G36*
G01X189120Y-81410D02*
X210180Y-60350D01*
Y-55410D01*
X212640D01*
Y-49470D01*
G02X214000Y-48910I797J-5D01*
G01X214700Y-49610D01*
Y-55410D01*
X222640D01*
Y-47470D01*
X216840D01*
X216140Y-46770D01*
G02X216700Y-45410I565J563D01*
G01X222640D01*
Y-37470D01*
X216840D01*
X216140Y-36770D01*
G02X216700Y-35410I565J563D01*
G01X222640D01*
Y-27470D01*
X216840D01*
X216140Y-26770D01*
G02X216700Y-25410I565J563D01*
G01X222640D01*
Y-17470D01*
X217010D01*
X216310Y-16770D01*
G02X216870Y-15410I565J563D01*
G01X222640D01*
Y-7470D01*
X216840D01*
X216140Y-6770D01*
G02X216700Y-5410I565J563D01*
G01X222640D01*
Y2530D01*
X216840D01*
X216140Y3230D01*
G02X216700Y4590I565J563D01*
G01X222640D01*
Y12530D01*
X216840D01*
X216140Y13230D01*
G02X216700Y14590I565J563D01*
G01X222640D01*
Y22530D01*
X216840D01*
X214300Y25070D01*
X212640D01*
Y32530D01*
X204960D01*
Y34590D01*
X212640D01*
Y42530D01*
X204960D01*
Y45160D01*
X207240Y47440D01*
X220520D01*
X223320Y50240D01*
X223440Y50260D01*
G03X224900Y54940I-541J2737D01*
G02Y56060I576J560D01*
G03X220900I-2000J1940D01*
G02Y54940I-576J-560D01*
G03X220710Y54730I1970J-1973D01*
G02X220090I-310J251D01*
G03X215960Y55000I-2187J-1731D01*
G02X214840I-560J576D01*
G03X210960I-1940J-2000D01*
G02X209840I-560J576D01*
G03X209630Y55190I-1973J-1970D01*
G02Y55810I251J310D01*
G03X207240Y60710I-1730J2189D01*
G01X207020Y60660D01*
X205020Y62660D01*
X204220D01*
X202960Y63920D01*
X202970Y64090D01*
G03X202000Y65870I-2018J55D01*
G01X201810Y65990D01*
Y68350D01*
X201660D01*
Y69150D01*
X200620D01*
G02X199850Y70160I0J799D01*
G03X199160Y72280I-1948J538D01*
G01Y76320D01*
X198560Y76930D01*
Y79940D01*
X224850D01*
G02X227850Y76940I0J-3000D01*
G01Y-89820D01*
G02X224850Y-92820I-3000J0D01*
G01X188560D01*
Y-85370D01*
X182760D01*
X179650Y-82260D01*
X174960D01*
X174790Y-82090D01*
G02X175070Y-81410I284J281D01*
G01X189120D01*
G37*
G36*
G01X178560Y4630D02*
Y8570D01*
X179280Y9290D01*
Y12280D01*
X180170D01*
Y16320D01*
X175940D01*
G02X175190Y17400I1J801D01*
G03X175320Y18060I-1887J715D01*
G02X176120Y18840I799J-20D01*
G01X177420D01*
X181520Y22940D01*
X197520D01*
X203340Y28760D01*
G02X204700Y28190I561J-568D01*
G01Y25070D01*
X203530D01*
X193090Y14630D01*
Y7930D01*
X189920Y4760D01*
G02X188560Y5320I-563J565D01*
G01Y10710D01*
X187710D01*
Y12100D01*
G02X188820Y12840I801J1D01*
G03X189180Y16680I780J1864D01*
G02X188210Y17460I-171J780D01*
G01Y17760D01*
X187410D01*
Y17910D01*
X184990D01*
Y17760D01*
X184190D01*
Y13240D01*
X184690D01*
Y10710D01*
X180620D01*
Y4770D01*
X179920Y4070D01*
G02X178560Y4630I-563J565D01*
G37*
G36*
G01X183560Y61860D02*
Y65130D01*
X185260D01*
Y65930D01*
X185410D01*
Y68540D01*
X187580D01*
X188740Y67380D01*
Y65110D01*
X184930Y61300D01*
G02X183560Y61860I-570J562D01*
G37*
G36*
G01X176400Y61180D02*
G02X177180Y62130I785J151D01*
G01X177260D01*
Y62930D01*
X177410D01*
Y65350D01*
X177260D01*
Y65920D01*
X177420D01*
Y68360D01*
X177410D01*
Y68540D01*
X180740D01*
Y65130D01*
X181040D01*
Y62550D01*
X179260D01*
G03X177960Y61950I-3J-1702D01*
G01X177850Y61810D01*
X177750D01*
Y61640D01*
X177720Y61560D01*
G03X177560Y60850I1540J-720D01*
G01Y58600D01*
X177110Y58160D01*
G02X176430Y58440I-282J282D01*
G01Y60850D01*
G03X176400Y61180I-1702J12D01*
G37*
G36*
G01X193390Y-47460D02*
X190040Y-50820D01*
G02X188670Y-50250I-569J564D01*
G01Y-49160D01*
X192020Y-45800D01*
G02X193390Y-46370I569J-565D01*
G01Y-47460D01*
G37*
G36*
G01X195390Y-24870D02*
X190040Y-30230D01*
G02X188670Y-29660I-569J564D01*
G01Y-28780D01*
X194020Y-23420D01*
G02X195390Y-23990I569J-565D01*
G01Y-24870D01*
G37*
G36*
G01X191610Y-5330D02*
X192540Y-4390D01*
G02X193910Y-4960I569J-565D01*
G01Y-6940D01*
X192980Y-7880D01*
G02X191610Y-7310I-569J565D01*
G01Y-5330D01*
G37*
G36*
G01X194900Y39780D02*
X195590Y40470D01*
X198140D01*
Y41360D01*
X198460Y41670D01*
G02X199140Y41390I282J-282D01*
G01Y38920D01*
G02X198330Y38120I-800J0D01*
G03X198120Y38110I-9J-2019D01*
G01X194280D01*
Y39660D01*
X194400Y39780D01*
X194900D01*
G37*
G36*
G01X199340Y54260D02*
X197530Y52450D01*
G02X196420Y52440I-560J570D01*
G03X195090Y52980I-1376J-1481D01*
G02X194310Y53780I20J799D01*
G01Y57070D01*
X196920Y59680D01*
Y60430D01*
X197680D01*
Y64670D01*
G02X198360Y64950I398J-1D01*
G01X198940Y64380D01*
X198930Y64210D01*
G03X201010Y62130I2020J-60D01*
G01X201180Y62140D01*
X203180Y60140D01*
X203980D01*
X205240Y58880D01*
X205190Y58660D01*
G03X205900Y56060I2710J-657D01*
G02Y54940I-576J-560D01*
G03X205710Y54730I1970J-1973D01*
G02X205090I-310J251D01*
G03X200410Y54260I-2190J-1730D01*
G01X199340D01*
G37*
%LPC*%
G75*
G36*
G01X620Y-28940D02*
Y-37890D01*
X-140D01*
Y-39670D01*
X1760D01*
Y-45190D01*
X10D01*
Y-55810D01*
X1760D01*
Y-59800D01*
X5360Y-63400D01*
Y-70780D01*
X16120Y-81540D01*
X104480D01*
X107590Y-78430D01*
X107580Y-78260D01*
G02X109540Y-80220I2020J60D01*
G01X109370Y-80210D01*
X105520Y-84060D01*
X15080D01*
X2840Y-71820D01*
Y-64440D01*
X2240Y-63840D01*
G03X880Y-64410I-561J-568D01*
G01Y-69060D01*
X-140D01*
Y-72790D01*
X-4660D01*
Y-71990D01*
X-4810D01*
Y-69060D01*
X-9680D01*
G03X-10540Y-68300I-798J-37D01*
G02Y-64280I-170J2010D01*
G03X-9680Y-63520I62J797D01*
G01X-10D01*
G03X550Y-62150I-2J800D01*
G01X-270Y-61330D01*
X-4260D01*
Y-55810D01*
X-2510D01*
Y-45190D01*
X-4260D01*
Y-39670D01*
X-2660D01*
Y-37890D01*
X-6420D01*
Y-34030D01*
X-8610D01*
Y-33880D01*
X-9410D01*
Y-29360D01*
X-6420D01*
Y-29350D01*
X-4200D01*
G03X-3400Y-28650I5J801D01*
G02X620Y-28940I2002J-262D01*
G37*
G36*
G01X22550Y39550D02*
X18350D01*
X16040Y41860D01*
Y54260D01*
X17850Y56070D01*
X23750D01*
X25560Y54260D01*
Y47240D01*
X30350D01*
Y40220D01*
X26330D01*
Y41400D01*
G03X24960Y41960I-800J-2D01*
G01X22550Y39550D01*
G37*
G54D62*
X169600Y-24400D03*
G54D61*
X-2090Y-14310D03*
%LPD*%
G75*
G36*
G01X23250Y54860D02*
X24350Y53760D01*
Y43060D01*
X22050Y40760D01*
X18850D01*
X17250Y42360D01*
Y53760D01*
X18350Y54860D01*
X23250D01*
G37*
G36*
G01X64620Y58670D02*
X66020Y60070D01*
X90620D01*
X91920Y58770D01*
Y35070D01*
X90320Y33470D01*
X65520D01*
X64620Y34370D01*
Y58670D01*
G37*
G54D10*
X-7800Y-85180D03*
Y72300D03*
X220210Y-85180D03*
Y72300D03*
G54D11*
X-1640Y-66290D03*
X-7160D03*
X-1640Y53410D03*
X-7160D03*
X13660Y26230D03*
X8140D03*
X21880D03*
X27400D03*
X22260Y50830D03*
X27780D03*
G54D20*
X0Y-1320D03*
Y-3880D03*
Y-6440D03*
Y-9000D03*
Y-11560D03*
G54D12*
X-2400Y-70780D03*
X-6400D03*
X-2400Y57900D03*
X-6400D03*
X25850Y-34760D03*
X29850D03*
X47520Y-34990D03*
X45550Y23060D03*
X49550D03*
X45320Y43170D03*
X49320D03*
X41320D03*
X37320D03*
X61820Y-48010D03*
X57820D03*
X51520Y-34990D03*
X62070Y-17230D03*
X66070D03*
Y-20230D03*
X62070D03*
X78720Y-30630D03*
X82720D03*
X78720Y-34380D03*
X82720D03*
X78720Y-41130D03*
X82720D03*
X78720Y-38130D03*
X82720D03*
X78720Y-24630D03*
X82720D03*
X78720Y-27630D03*
X82720D03*
X86200Y11300D03*
X90200D03*
X110040Y39800D03*
X106040D03*
X110040Y42800D03*
X106040D03*
X132920Y43690D03*
X128920D03*
X120920Y46690D03*
X124920D03*
X132920D03*
X128920D03*
X128900Y40100D03*
X132900D03*
X124920Y43690D03*
X120920D03*
X124000Y39800D03*
X120000D03*
X149900Y14300D03*
X140920Y46690D03*
X136920D03*
X140920Y43690D03*
X136920D03*
X153900Y14300D03*
X157900D03*
X161900D03*
X165900D03*
X177900D03*
X173900D03*
X169900D03*
X179000Y67140D03*
X175000D03*
X183000D03*
X175000Y64140D03*
X179000D03*
X191870Y36090D03*
X195870D03*
X191870Y39090D03*
X195870D03*
X191870Y42490D03*
X195870D03*
X187000Y67140D03*
X199400D03*
X203400D03*
G54D21*
X-6530Y18870D03*
X-4560D03*
X-2590D03*
Y22330D03*
X-4560D03*
X-6530D03*
G54D30*
X50480Y-74220D03*
Y-57880D03*
G54D40*
X60700Y32120D03*
Y34080D03*
Y36050D03*
Y38020D03*
Y39990D03*
Y41960D03*
Y43930D03*
Y45900D03*
Y47860D03*
Y49830D03*
Y51800D03*
Y53770D03*
Y55740D03*
Y57710D03*
Y59680D03*
Y61640D03*
X96140Y38020D03*
Y36050D03*
Y34080D03*
Y32120D03*
Y53770D03*
Y51800D03*
Y49830D03*
Y47860D03*
Y45900D03*
Y43930D03*
Y41960D03*
Y39990D03*
Y61640D03*
Y59680D03*
Y57710D03*
Y55740D03*
X149510Y25900D03*
Y27870D03*
Y29840D03*
Y31810D03*
Y33780D03*
Y35750D03*
Y37710D03*
Y39680D03*
Y41650D03*
Y43620D03*
Y45590D03*
Y47560D03*
X177070Y37710D03*
Y35750D03*
Y33780D03*
Y31810D03*
Y29840D03*
Y27870D03*
Y25900D03*
Y47560D03*
Y45590D03*
Y43620D03*
Y41650D03*
Y39680D03*
G54D31*
X41960Y-40850D03*
Y-33750D03*
G54D22*
X4190Y51730D03*
Y57730D03*
G54D13*
G01X27530Y-49820D02*
Y-53620D01*
X27550Y-53640D01*
G01X31060Y-39490D02*
Y-40930D01*
X27300Y-44690D01*
Y-49590D01*
X27530Y-49820D01*
G01X31060Y-39490D02*
X32420Y-40850D01*
X41960D01*
G01X31060Y-39490D02*
X29850Y-38280D01*
Y-34760D01*
G01X52020Y-42490D02*
X43600D01*
X41960Y-40850D01*
G01X72910Y-74850D02*
X51110D01*
X50480Y-74220D01*
G01X57890Y-38500D02*
X56000Y-40390D01*
Y-41000D01*
X54510Y-42490D01*
X52020D01*
G01X72910Y-74850D02*
X82010D01*
G01D02*
X91110D01*
G01X89790Y3990D02*
X80690D01*
G01X100210Y-74850D02*
X99580Y-74220D01*
G01X91110Y-74850D02*
X100210D01*
G01X100550Y-23080D02*
X101330Y-23860D01*
X106100D01*
G01X109600D02*
X119800D01*
G01X152400Y66250D02*
Y69200D01*
X-10710Y-66290D03*
X-13900Y-69400D03*
X-1800Y-75400D03*
X-12700Y-74100D03*
X-13800Y-62300D03*
X-13900Y-49500D03*
X-11830Y-58570D03*
X-13800Y-38700D03*
X-13000Y-29700D03*
X-10870Y-42430D03*
X-10520Y-35620D03*
X-1400Y-28900D03*
X-10500Y-26100D03*
X-14870Y-19630D03*
X-15160Y-11160D03*
X-15280Y-1720D03*
X-14150Y6750D03*
X-1700Y20600D03*
X-14600Y26300D03*
X-14200Y30300D03*
X-14600Y34600D03*
X-7550Y37700D03*
X-8200Y22600D03*
X-1250Y38400D03*
X-7160Y50240D03*
X-14200Y39300D03*
X-14400Y43200D03*
X-14300Y51600D03*
X-13900Y56700D03*
X-13000Y61400D03*
X1700Y-80100D03*
X9100Y-88400D03*
X9700Y-91700D03*
X4400Y-91000D03*
X4700Y-86700D03*
X8700Y-65700D03*
X15300Y-79000D03*
X12850Y-71340D03*
X13350Y-65640D03*
X7100Y-57000D03*
X10100Y-55000D03*
X9200Y-47400D03*
X4000D03*
X3500Y-54700D03*
X6800Y-51700D03*
Y-59900D03*
X13450Y-46140D03*
Y-51040D03*
X13350Y-55940D03*
Y-60840D03*
X10200Y-32300D03*
X5600Y-30800D03*
X2400Y-31400D03*
X2200Y-35200D03*
X4800Y-39600D03*
X9400D03*
X6800Y-35100D03*
Y-43400D03*
X13450Y-31340D03*
Y-36240D03*
Y-41240D03*
X15300Y-27100D03*
X11600Y-25900D03*
X8400Y-23700D03*
X9900Y-27900D03*
X2200Y-27500D03*
X4100Y-23500D03*
X6900Y-13500D03*
X6800Y-18500D03*
Y-26800D03*
X-710Y-24390D03*
X10650Y-20540D03*
X13150Y-19140D03*
X10650Y-18240D03*
X13950Y-14640D03*
X11550Y-14040D03*
X12350Y-16640D03*
Y-22140D03*
X7400Y2000D03*
X7600Y4500D03*
X13150Y-11540D03*
X13850Y-8340D03*
X10950Y-8840D03*
Y-4440D03*
X14150Y-4340D03*
X12550Y-6240D03*
X14250Y-340D03*
X12650Y-2240D03*
X14150Y3260D03*
X7700Y7800D03*
X7900Y10800D03*
X8000Y13700D03*
X8100Y16600D03*
X9600Y18600D03*
X11400Y20000D03*
X14500Y21700D03*
X16050Y13760D03*
X13850Y6960D03*
X15150Y8960D03*
X-710Y8030D03*
X9700Y32500D03*
X9600Y36600D03*
X5400Y38000D03*
Y33900D03*
X13750Y35460D03*
Y30460D03*
X9700Y40300D03*
X10000Y45600D03*
X11100Y52500D03*
X5000Y42200D03*
X5400Y46300D03*
X13750Y50160D03*
Y45260D03*
Y40360D03*
X10330Y70670D03*
X1100Y60300D03*
X2400Y78800D03*
X13500Y76300D03*
X18500Y-85200D03*
X16400Y-70900D03*
X31500D03*
X26600Y-71700D03*
X21900Y-72200D03*
X18300Y-78800D03*
X16400Y-75100D03*
X23100Y-77200D03*
X28900Y-75800D03*
X16950Y-67440D03*
X20150Y-64240D03*
X16950Y-62540D03*
Y-52740D03*
Y-47840D03*
X29350Y-54840D03*
X25950Y-51940D03*
X26750Y-55340D03*
X23650Y-54640D03*
X23050Y-52140D03*
X22950Y-49740D03*
X29550Y-52240D03*
X31550Y-53540D03*
X20500Y-35500D03*
X16950Y-37940D03*
X16850Y-33040D03*
X20450Y-29140D03*
X18490Y-26900D03*
X30050Y-5740D03*
X30350Y-2740D03*
X17400Y21600D03*
X31000Y20600D03*
X22450Y13860D03*
X19350Y13760D03*
X27550Y9060D03*
X24650D03*
X21550D03*
X18450Y8960D03*
X23150Y10960D03*
X20050Y10860D03*
X16750D03*
X24640Y37770D03*
X30880Y26230D03*
X17950Y32960D03*
X20050Y29060D03*
X17850Y30860D03*
X18050Y28560D03*
X18250Y26360D03*
X23150Y45460D03*
Y47860D03*
X18650Y44060D03*
Y46460D03*
Y48960D03*
Y51460D03*
X21050Y53760D03*
X18850Y53660D03*
X20940Y48060D03*
X31620Y50830D03*
X40700Y-80100D03*
X48800Y-80200D03*
X45200D03*
X34550Y-76840D03*
X34050Y-64240D03*
X33550Y-54640D03*
X34260Y-50540D03*
X47520Y-38240D03*
X33250Y-24840D03*
X35350Y-24340D03*
X35250Y-22240D03*
X33250Y-21540D03*
X47020Y-1240D03*
X34450Y20460D03*
X37550Y20560D03*
X40650D03*
X43550D03*
X46350Y20460D03*
X46650Y13760D03*
X43950Y13860D03*
X41050D03*
X37950D03*
X47350Y10860D03*
X44550Y10960D03*
X41650D03*
X42160Y23960D03*
X47420Y52070D03*
X41320Y40860D03*
X40820Y66870D03*
X62050Y-36140D03*
Y-31040D03*
X65370Y-33580D03*
X64390Y-43680D03*
X65250Y20460D03*
X52750Y20560D03*
X55850D03*
X58750D03*
X61950Y20460D03*
X65050Y13560D03*
X61750D03*
X59050Y13860D03*
X56150D03*
X53050D03*
X49950Y13760D03*
X64150Y8760D03*
X60850D03*
X66250Y10860D03*
X62950D03*
X59750Y10960D03*
X56850D03*
X53750D03*
X50650Y10860D03*
X65050Y4860D03*
X62690Y5000D03*
X54500Y32100D03*
X51320Y29370D03*
X57900Y32000D03*
X56120Y48070D03*
X66020Y39570D03*
X58620Y65470D03*
X56250Y67260D03*
X64850Y68060D03*
X60320Y63070D03*
X53650Y68960D03*
X60300Y68000D03*
X81400Y-78500D03*
X71900Y-78400D03*
X67950Y-30940D03*
X68050Y-36140D03*
X68320Y-43670D03*
X72850Y-25940D03*
X83060Y12260D03*
X68050Y20460D03*
X74150Y13660D03*
X71250D03*
X68150D03*
X73250Y8860D03*
X70350D03*
X67250D03*
X75350Y10960D03*
X72450D03*
X69350D03*
X67250Y4960D03*
X76150Y5460D03*
X79550Y7760D03*
X83250Y5160D03*
X69450Y4860D03*
X71790Y5020D03*
X80890Y5320D03*
X80900Y23000D03*
X69260Y25670D03*
X82300Y25590D03*
X81300Y42600D03*
X69220Y39270D03*
X82350Y51660D03*
X73640D03*
X71890Y44200D03*
X79870Y68400D03*
X75470Y68340D03*
X70600Y68200D03*
X75250Y58060D03*
X82800Y68300D03*
X90800Y-78400D03*
X98800Y-71600D03*
X92100Y-71700D03*
X89000Y-71500D03*
X94480Y-34320D03*
X99200Y-1900D03*
X97700Y-9300D03*
X99500Y-7800D03*
X100100Y-10700D03*
X94900Y21700D03*
Y14100D03*
X96700Y28500D03*
X88220Y25570D03*
X85310Y25880D03*
X100300Y38700D03*
X89920Y55400D03*
X100500Y47900D03*
X99030Y59680D03*
X89250Y67960D03*
X85620Y68570D03*
X112600Y-80500D03*
X112400Y-83600D03*
X112600Y-77400D03*
X112400Y-75000D03*
X101000Y-71700D03*
X109600Y-78200D03*
X112840Y-48860D03*
X105800Y-57800D03*
X112640Y-43860D03*
X112540Y-38860D03*
X112440Y-33860D03*
X109600Y-23860D03*
X110500Y-25800D03*
X106100Y-23860D03*
X116600Y-8100D03*
X112500Y1800D03*
X114600D03*
X114050Y-9440D03*
X109400Y-6300D03*
X111900Y-9300D03*
X112050Y-7140D03*
X115200Y-600D03*
X104450Y13750D03*
X112300Y36100D03*
X103000Y26700D03*
Y32300D03*
X113400Y33500D03*
X115900Y38500D03*
X113000Y30700D03*
X110500Y23400D03*
X103300Y42800D03*
X111800Y56200D03*
X113750Y55650D03*
X129500Y-90000D03*
X119500Y-91000D03*
Y-88300D03*
X118500Y-72700D03*
Y-75000D03*
X123400Y-73400D03*
Y-75900D03*
X134200Y-76800D03*
X118500Y-79600D03*
X133200Y-51100D03*
X130650Y-53640D03*
X132700Y-41800D03*
X130650Y-45040D03*
X130700Y-32600D03*
X133800Y-25900D03*
X118100Y-10500D03*
X122700Y-3600D03*
X125800Y1300D03*
X123400Y1400D03*
X118300Y-1100D03*
X119600Y6700D03*
X134300Y15600D03*
X125490Y16010D03*
X118800Y16000D03*
X131490Y15790D03*
X128490Y15810D03*
X122600Y15900D03*
X122000Y35900D03*
X132100Y36300D03*
X133100Y33500D03*
X123300Y33400D03*
X122200Y29900D03*
X132500Y30130D03*
X124300Y37600D03*
X120200Y45300D03*
X124000Y49500D03*
X126800Y49600D03*
X125300Y51000D03*
X126000Y65800D03*
X123500Y58700D03*
X120300Y61600D03*
X121650Y60050D03*
X139500Y-90700D03*
X139400Y-88100D03*
X136500Y-63300D03*
X143800Y-50200D03*
X141600Y-45300D03*
X145200Y-41300D03*
X142800Y-36400D03*
X142600Y-32000D03*
X137200Y-31400D03*
X137500Y-15300D03*
X140300Y-26600D03*
X146700Y-16800D03*
X149600Y-300D03*
X144270Y15970D03*
X139600Y5900D03*
Y8500D03*
X145450Y25900D03*
X141230Y34070D03*
X140890Y23590D03*
X136400Y23300D03*
X140500Y26500D03*
X145400Y29900D03*
X146010Y37710D03*
X146220Y33780D03*
X136580Y36820D03*
Y27200D03*
X135900Y41900D03*
X145400Y42000D03*
X142600Y40900D03*
X142100Y67400D03*
X143400Y60200D03*
X151020Y58230D03*
X156100Y-79600D03*
X154900Y-58300D03*
X161000Y-51000D03*
X164700Y-59500D03*
X162900Y-47200D03*
X156900Y-49300D03*
X165500Y-43300D03*
X154600Y-44400D03*
X152600Y-35500D03*
X162100Y-35400D03*
X156500Y-39100D03*
X159600Y-41500D03*
X163700Y-39000D03*
Y-30400D03*
X154400Y-30200D03*
X158400Y-32800D03*
X161500Y-18500D03*
X163700Y-16800D03*
X164000Y-13500D03*
X157600Y-13700D03*
X162800Y-27300D03*
X157600Y-25000D03*
X160700Y-300D03*
X161900Y11500D03*
X162310Y17610D03*
X165200Y17200D03*
X160340Y19600D03*
X151500Y11600D03*
X165000Y11500D03*
X163290Y36730D03*
X168290Y31200D03*
X153950Y31760D03*
X158270Y53840D03*
X168290Y45300D03*
X160310Y45420D03*
X161100Y54200D03*
X152400Y69200D03*
X155150Y64690D03*
X171550Y-61340D03*
X173250Y-57540D03*
X176800Y-46500D03*
X177000Y-26800D03*
X169600Y-24400D03*
X183900Y-6800D03*
X173300Y18100D03*
X169800Y17300D03*
X176040Y22950D03*
X176000Y49510D03*
X173050Y43060D03*
X184600Y40500D03*
X181650Y44350D03*
X180580Y39680D03*
X179800Y65800D03*
X170650Y60760D03*
X184400Y64000D03*
X196100Y-83400D03*
X188200Y-83100D03*
X192400Y-83200D03*
X201500Y-89100D03*
X201150Y-82040D03*
X200700Y-78000D03*
X199100Y-75000D03*
X196450Y-78740D03*
X192800Y-46600D03*
Y-26500D03*
X192600Y-6800D03*
X189600Y14700D03*
X193300Y22100D03*
X198300Y36100D03*
X195040Y50960D03*
X198390Y39090D03*
X200200Y48000D03*
X200950Y64150D03*
X197900Y70700D03*
X194900D03*
X209400Y-91200D03*
X206200Y-88100D03*
X208600Y-85800D03*
X203850Y-80440D03*
X206800Y-78800D03*
X204300Y-71000D03*
X211000Y-75800D03*
X214400Y-65700D03*
X215700Y-70400D03*
X203150Y-74640D03*
X210350Y-64840D03*
X208350Y-70340D03*
X214100Y-57500D03*
X219000Y-58900D03*
X215100Y-61100D03*
X217700Y34000D03*
X216900Y44300D03*
X207160Y67140D03*
X209700Y72800D03*
X207000Y74000D03*
X210700Y77500D03*
X206600Y78200D03*
X221600Y-73200D03*
X225400Y-71000D03*
X220400Y-66900D03*
X223900Y-63000D03*
X226650Y-58340D03*
Y-48540D03*
Y-38640D03*
Y-28840D03*
Y-19040D03*
Y-9140D03*
Y660D03*
Y10460D03*
X222300Y33800D03*
X226650Y25360D03*
Y35160D03*
X221600Y44600D03*
X226650Y44960D03*
G54D41*
X65620Y29160D03*
X63660D03*
Y64600D03*
X65620D03*
X81370Y29160D03*
X79400D03*
X77440D03*
X75470D03*
X73500D03*
X71530D03*
X69560D03*
X67590D03*
Y64600D03*
X69560D03*
X71530D03*
X73500D03*
X75470D03*
X77440D03*
X79400D03*
X81370D03*
X93180Y29160D03*
X91220D03*
X89250D03*
X87280D03*
X85310D03*
X83340D03*
Y64600D03*
X85310D03*
X87280D03*
X89250D03*
X91220D03*
X93180D03*
X166240Y22950D03*
X164270D03*
X162310D03*
X160340D03*
X158370D03*
X156400D03*
X154430D03*
X152460D03*
Y50510D03*
X154430D03*
X156400D03*
X158370D03*
X160340D03*
X162310D03*
X164270D03*
X166240D03*
X174120Y22950D03*
X172150D03*
X170180D03*
X168210D03*
Y50510D03*
X170180D03*
X172150D03*
X174120D03*
G54D50*
X114050Y52660D03*
Y57660D03*
Y62660D03*
Y67660D03*
X132650Y52660D03*
Y67660D03*
Y62660D03*
Y57660D03*
G54D23*
X14570Y63700D03*
X23230Y59960D03*
Y67440D03*
G54D14*
X-7550Y-58570D03*
X-1250D03*
X-7550Y-42430D03*
X-1250D03*
X-7550Y29550D03*
X-1250D03*
X-7550Y45690D03*
X-1250D03*
G54D32*
X51670Y-12230D03*
G54D60*
G01X-6400Y-70780D02*
Y-83780D01*
X-7800Y-85180D01*
G01X-7160Y-66290D02*
X-10710D01*
G01X-14870Y-19630D02*
X-10550D01*
G01X-15280Y-1720D02*
X-10550D01*
G01X-15160Y-11160D02*
X-10550D01*
G01Y6750D02*
X-14150D01*
G01X34590Y76460D02*
X29830Y71700D01*
X21600D01*
X14900Y78400D01*
X7900D01*
X4200Y74700D01*
Y66400D01*
X1000Y63200D01*
X-1100D01*
X-1900Y62400D01*
X-4800D01*
X-6500Y60700D01*
X-10100D01*
X-11700Y59100D01*
Y23400D01*
X-10900Y22600D01*
G01X-8200D02*
X-10900D01*
G01X-6530Y22330D02*
X-6800Y22600D01*
X-8200D01*
G01X-7160Y53410D02*
Y50240D01*
G01X-1400Y-31620D02*
Y-28900D01*
G01X-710Y-19040D02*
Y-24390D01*
G01X0Y-11560D02*
X20Y-11540D01*
X13150D01*
G01X-710Y6160D02*
Y8030D01*
G01X10330Y70670D02*
X8000Y68340D01*
Y66600D01*
G01X27550Y-64240D02*
X20150D01*
G01X27550D02*
X34050D01*
G01X21650Y-54430D02*
Y-53810D01*
X23050Y-52410D01*
Y-52140D01*
G01X27530Y-49820D02*
X28250Y-50540D01*
X34260D01*
G01X31060Y-46970D02*
X54410D01*
X56240Y-45140D01*
X58550D01*
X60450Y-43240D01*
Y-41060D01*
G01X24640Y32930D02*
Y37770D01*
G01X27400Y26230D02*
X30880D01*
G01X21880Y27290D02*
X23850Y29260D01*
X27250D01*
X28340Y30350D01*
Y32930D01*
G01X20940Y43730D02*
X22770D01*
G01X27780Y50830D02*
X31620D01*
G01X34260Y-50540D02*
X35560Y-49240D01*
X56590D01*
X57820Y-48010D01*
G01X33550Y-54640D02*
X34260Y-53930D01*
Y-50540D01*
G01X47520Y-34990D02*
Y-38240D01*
G01X42160Y23960D02*
X43060Y23060D01*
X45550D01*
G01X51320Y29370D02*
X49970Y30720D01*
X47750D01*
G01X39090Y37020D02*
X41320Y39250D01*
Y40860D01*
G01X45260Y52070D02*
X47420D01*
G01X49620Y51070D02*
Y51120D01*
X48670Y52070D01*
X47420D01*
G01X41320Y43170D02*
X45320D01*
G01X41320Y40860D02*
Y43170D01*
G01X40820Y66870D02*
X41520Y66170D01*
Y62270D01*
G01X62150Y-30940D02*
X67950D01*
G01X68050Y-36140D02*
X62050D01*
G01X57890Y-32600D02*
X64390D01*
X65370Y-33580D01*
G01X57890Y-36530D02*
Y-38500D01*
G01X51520Y-34990D02*
X52020Y-35490D01*
Y-38490D01*
G01X57890Y-34560D02*
X51950D01*
X51520Y-34990D01*
G01X64390Y-41060D02*
Y-43680D01*
G01X66070Y-17230D02*
Y-20230D01*
G01D02*
X69140D01*
X69640Y-19730D01*
G01X64390Y-26100D02*
Y-22590D01*
X66070Y-20910D01*
Y-20230D01*
G01X72640Y-19730D02*
Y-21850D01*
X71550Y-22940D01*
X67850D01*
X66350Y-24440D01*
Y-26100D01*
G01X62420D02*
Y-20580D01*
X62070Y-20230D01*
G01X62490Y3990D02*
X62690Y5000D01*
G01X60700Y32120D02*
X58020D01*
X57900Y32000D01*
G01X60700Y47860D02*
X56330D01*
X56120Y48070D01*
G01X65620Y64600D02*
Y67290D01*
X64850Y68060D01*
G01X68050Y-31040D02*
Y-36140D01*
G01X72850Y-34560D02*
X74870D01*
X75850Y-35540D01*
Y-36840D01*
X77140Y-38130D01*
G01D02*
X78720D01*
G01Y-34380D02*
X77970D01*
X76190Y-32600D01*
X72850D01*
G01X82720Y-38130D02*
X84160D01*
X86070Y-36220D01*
X86630D01*
G01X82720Y-41130D02*
X85720D01*
X86630Y-40220D01*
G01X72850Y-30630D02*
X78720D01*
G01X68320Y-41060D02*
Y-43670D01*
G01X70290Y-26100D02*
Y-28100D01*
X68250Y-30140D01*
G01X82720Y-24630D02*
Y-27630D01*
G01X78720D02*
X77020D01*
X75990Y-28660D01*
X72850D01*
G01X70290Y-26100D02*
X71250Y-25140D01*
G01X71590Y3990D02*
X71790Y5020D01*
G01X80690Y3990D02*
X80890Y5320D01*
G01X83060Y20880D02*
X82590D01*
X81100Y22370D01*
Y22800D01*
X80900Y23000D01*
G01X83060Y15360D02*
X89040D01*
G01X83060D02*
Y12260D01*
G01X69560Y29160D02*
Y25970D01*
X69260Y25670D01*
G01X79400Y29160D02*
Y26680D01*
X80490Y25590D01*
X82300D01*
G01X89040Y20880D02*
X88810Y21110D01*
Y22910D01*
X88250Y23470D01*
X87350D01*
X87040Y23780D01*
X84440D01*
X83210Y25010D01*
Y25360D01*
X82980Y25590D01*
X82300D01*
G01X81370Y29160D02*
Y34570D01*
G01X71530Y29160D02*
Y39990D01*
G01X72920Y43170D02*
X71890Y44200D01*
G01X68150Y45010D02*
X68220Y44940D01*
G01D02*
X71150D01*
G01D02*
X71890Y44200D01*
G01X79400Y47860D02*
X78420Y46880D01*
G01X96140Y47860D02*
X79400D01*
G01X78420Y46880D02*
X91220Y34080D01*
G01X75470Y64600D02*
Y68340D01*
G01X89000Y-71500D02*
Y-72740D01*
X91110Y-74850D01*
G01X92100Y-71700D02*
Y-73860D01*
X91110Y-74850D01*
G01X101000Y-71700D02*
Y-74060D01*
X100210Y-74850D01*
G01X99580Y-74220D02*
X98800Y-73440D01*
Y-71600D01*
G01X100550Y-34320D02*
X94480D01*
G01X96720Y20890D02*
X95910Y21700D01*
X94900D01*
G01X100300Y38700D02*
X99490Y38020D01*
X96140D01*
G01X83340Y34060D02*
Y29160D01*
G01X87280D02*
Y26880D01*
X87410Y26750D01*
Y26380D01*
X88220Y25570D01*
G01X91220Y34080D02*
Y29160D01*
G01X85310D02*
Y25880D01*
G01X96140Y47860D02*
X100460D01*
G01X96140Y59680D02*
X99030D01*
G01X89250Y64600D02*
Y67960D01*
G01X85310Y64600D02*
Y68260D01*
X85620Y68570D01*
G01X126500Y-70560D02*
Y-76410D01*
X118090Y-84820D01*
Y-85840D01*
X114590Y-89340D01*
G01X100210Y-63050D02*
X103350D01*
G01X114590Y6740D02*
Y6520D01*
X122210Y-1100D01*
X129710D01*
X131500Y-2890D01*
Y-7160D01*
G01X100460Y47860D02*
X100500Y47900D01*
G01X123500Y58700D02*
Y54400D01*
X119350Y50250D01*
X118570D01*
X118520Y50200D01*
X118400D01*
X116400Y48200D01*
Y46600D01*
G01X111800Y56200D02*
X113460Y57660D01*
X114050D01*
G01X113800Y55900D02*
X114050Y56150D01*
Y57660D01*
G01X121650Y60050D02*
X119040Y62660D01*
X114050D01*
G01X120700Y62500D02*
Y70350D01*
X114590Y76460D01*
G01X124590Y-89340D02*
X131500Y-82430D01*
Y-70560D01*
G01X119800Y-28860D02*
X126960D01*
X130700Y-32600D01*
G01X124590Y6740D02*
X129370Y1960D01*
X133900D01*
X136500Y-640D01*
Y-7160D01*
G01X132650Y67660D02*
X127860D01*
X126000Y65800D01*
G01X121650Y60050D02*
X124040Y57660D01*
G01X120700Y62500D02*
X120300Y61600D01*
G01X144590Y-89340D02*
Y-83990D01*
X141500Y-80900D01*
Y-70560D01*
G01X134590Y-89340D02*
Y-85380D01*
X136500Y-83470D01*
Y-70560D01*
G01X146500D02*
Y-81250D01*
X154590Y-89340D01*
G01X144590Y6740D02*
X146500Y4830D01*
Y-7160D01*
G01X134590Y6740D02*
Y5820D01*
X141500Y-1090D01*
Y-7160D01*
G01X145450Y25900D02*
X149510D01*
G01Y27870D02*
X154430D01*
G01X149510Y29840D02*
X145460D01*
X145400Y29900D01*
G01X136920Y43690D02*
Y42920D01*
X135900Y41900D01*
G01X143400Y66250D02*
X142100Y67400D01*
G01X149400Y66250D02*
X152400D01*
G01X146400D02*
X149400D01*
G01X156500Y-70560D02*
Y-76490D01*
X159110Y-79100D01*
X161110D01*
X163410Y-81400D01*
X166650D01*
X174590Y-89340D01*
G01X151500Y-70560D02*
Y-79190D01*
X154310Y-82000D01*
X160280D01*
X164590Y-89340D01*
G01X208670Y-51440D02*
Y-59720D01*
X188490Y-79900D01*
X174660D01*
X172700Y-77940D01*
X169950D01*
X166500Y-74490D01*
Y-70560D01*
G01X161500D02*
Y-74790D01*
X166250Y-79540D01*
X170100D01*
X174330Y-83770D01*
X179020D01*
X184590Y-89340D01*
G01X166500Y-7160D02*
Y-3620D01*
X171380Y1260D01*
X179250D01*
X184590Y6600D01*
Y6740D01*
G01X161500Y-7160D02*
Y-3310D01*
X165770Y960D01*
X167750D01*
X173530Y6740D01*
X174590D01*
G01X154590D02*
Y1190D01*
X151500Y-1900D01*
Y-7160D01*
G01X156500D02*
Y-390D01*
X163630Y6740D01*
G01D02*
X164590D01*
G01X163290Y36730D02*
X172150Y27870D01*
G01X163290Y36730D02*
X160340Y39680D01*
G01X163290Y36730D02*
X172150Y45590D01*
G01X154430Y27870D02*
X163290Y36730D01*
G01X158370Y50510D02*
Y53740D01*
X158270Y53840D01*
G01X160340Y39680D02*
Y50510D01*
G01X167530Y58890D02*
X168780D01*
X170650Y60760D01*
G01X158870Y65190D02*
X158370Y64690D01*
X155150D01*
G01X152400Y66250D02*
X153590D01*
X155150Y64690D01*
G01X218670Y-51440D02*
X213670Y-46440D01*
X205160D01*
X204100Y-47500D01*
Y-60390D01*
X188150Y-76340D01*
X173150D01*
X171500Y-74690D01*
Y-70560D01*
G01X208670Y-41440D02*
X205260D01*
X201800Y-44900D01*
Y-56990D01*
X188230Y-70560D01*
X176500D01*
G01X218670Y-41440D02*
X213670Y-36440D01*
X205160D01*
X199700Y-41900D01*
Y-52790D01*
X188630Y-63860D01*
X183200D01*
G01X208670Y-31440D02*
X206550D01*
X197400Y-40590D01*
Y-50490D01*
X189030Y-58860D01*
X183200D01*
G01Y-53860D02*
X189130D01*
X194900Y-48090D01*
Y-39800D01*
X202900Y-31800D01*
Y-29600D01*
X206060Y-26440D01*
X213670D01*
X218670Y-31440D01*
G01X183200Y-48860D02*
X186830D01*
X192200Y-43490D01*
Y-39000D01*
X199950Y-31250D01*
Y-30160D01*
X202800Y-27310D01*
Y-23710D01*
X205070Y-21440D01*
X208670D01*
G01X218670D02*
Y-21270D01*
X213840Y-16440D01*
X204760D01*
X200800Y-20400D01*
Y-26810D01*
X198000Y-29610D01*
Y-30000D01*
X190200Y-37800D01*
Y-40790D01*
X187130Y-43860D01*
X183200D01*
G01X208670Y-11440D02*
X205670D01*
X198900Y-18210D01*
Y-25910D01*
X188360Y-36450D01*
Y-37000D01*
X186500Y-38860D01*
X183200D01*
G01X218670Y-11440D02*
X213670Y-6440D01*
X204760D01*
X202250Y-8950D01*
Y-11050D01*
X196900Y-16400D01*
Y-25500D01*
X188540Y-33860D01*
X183200D01*
G01X208670Y-1440D02*
X206560D01*
X199650Y-8350D01*
Y-9850D01*
X194700Y-14800D01*
Y-20610D01*
X186450Y-28860D01*
X183200D01*
G01Y-23860D02*
X187450D01*
X192400Y-18910D01*
Y-14010D01*
X197800Y-8610D01*
Y-6040D01*
X202840Y-1000D01*
Y1640D01*
X204760Y3560D01*
X213670D01*
X218670Y-1440D01*
G01X208670Y8560D02*
X204560D01*
X200940Y4940D01*
Y1600D01*
X195420Y-3920D01*
Y-7570D01*
X190100Y-12890D01*
Y-17790D01*
X189030Y-18860D01*
X183200D01*
G01Y-13860D02*
X185330D01*
X190100Y-9090D01*
Y-4700D01*
X198900Y4100D01*
Y6610D01*
X205850Y13560D01*
X213670D01*
X218670Y8560D01*
G01X176500Y-7160D02*
X178650D01*
X180390Y-8900D01*
X186200D01*
X188200Y-6900D01*
Y-2610D01*
X197000Y6190D01*
Y9410D01*
X206150Y18560D01*
X208670D01*
G01X218670D02*
X213670Y23560D01*
X204160D01*
X194600Y14000D01*
Y7300D01*
X186400Y-900D01*
X173200D01*
X171500Y-2600D01*
Y-7160D01*
G01X186200Y15500D02*
Y8350D01*
X184590Y6740D01*
G01X177900Y14300D02*
X177770Y14170D01*
Y9920D01*
X174590Y6740D01*
G01X174120Y22950D02*
X176040D01*
G01X172150Y27870D02*
Y22950D01*
G01X174120Y50510D02*
X175000D01*
X176000Y49510D01*
G01D02*
X177070Y48440D01*
Y47560D01*
G01X172150Y45590D02*
X177070D01*
G01X187000Y67140D02*
Y66600D01*
X184400Y64000D01*
G01X179000Y67140D02*
X179800Y65800D01*
G01D02*
X179000Y64140D01*
G01X186200Y19500D02*
X190700D01*
X193300Y22100D01*
G01X191870Y42490D02*
Y44010D01*
X195040Y47180D01*
G01D02*
Y50960D01*
G01X195870Y39090D02*
X198390D01*
G01X203400Y67140D02*
X207160D01*
G54D24*
X24590Y-89340D03*
X34590D03*
Y76460D03*
X24590D03*
X44590Y-89340D03*
Y76460D03*
X54590Y-89340D03*
X64590D03*
X54590Y76460D03*
X64590D03*
X74590Y-89340D03*
X84590D03*
X74590Y76460D03*
X84590D03*
X94590Y-89340D03*
Y76460D03*
X114590Y-89340D03*
X104590D03*
X114590Y6740D03*
X104590Y76460D03*
X114590D03*
X134590Y-89340D03*
X124590D03*
X134590Y6740D03*
X124590D03*
Y76460D03*
X134590D03*
X144590Y-89340D03*
Y6740D03*
Y76460D03*
X164590Y-89340D03*
X154590D03*
X164590Y6740D03*
X154590D03*
Y76460D03*
X164590D03*
X174590Y-89340D03*
X184590D03*
X174590Y6740D03*
X184590D03*
X174590Y76460D03*
X184590D03*
X194590Y-89340D03*
Y76460D03*
X218670Y-51440D03*
X208670D03*
Y-31440D03*
Y-41440D03*
X218670Y-31440D03*
Y-41440D03*
X208670Y-11440D03*
X218670D03*
Y-21440D03*
X208670D03*
X218670Y-1440D03*
X208670D03*
X218670Y18560D03*
X208670D03*
Y8560D03*
X218670D03*
Y38560D03*
X208670Y28560D03*
X218670D03*
X208670Y38560D03*
G54D33*
X47750Y30720D03*
X39090D03*
X47750Y37020D03*
X39090D03*
X158870Y65190D03*
X167530D03*
X158870Y58890D03*
X167530D03*
G54D51*
X131500Y-70560D03*
X126500D03*
Y-7160D03*
X131500D03*
X146500Y-70560D03*
X141500D03*
X136500D03*
Y-7160D03*
X141500D03*
X146500D03*
X166500Y-70560D03*
X161500D03*
X156500D03*
X151500D03*
Y-7160D03*
X156500D03*
X161500D03*
X166500D03*
X176500Y-70560D03*
X171500D03*
Y-7160D03*
X176500D03*
G54D15*
X-4400Y-35620D03*
Y-31620D03*
X-1400D03*
Y-35620D03*
X-7400Y-31620D03*
Y-35620D03*
X-10900Y18600D03*
Y22600D03*
X8000Y62600D03*
Y66600D03*
X30200D03*
Y62600D03*
X49620Y55070D03*
Y51070D03*
Y59070D03*
Y63070D03*
X52020Y-38490D03*
Y-42490D03*
X76240Y-15730D03*
Y-19730D03*
X69640Y-15730D03*
Y-19730D03*
X72640D03*
Y-15730D03*
X86630Y-40220D03*
Y-36220D03*
X98170Y8020D03*
Y12020D03*
X101170Y8020D03*
Y12020D03*
X116490Y18920D03*
X107490D03*
X113490D03*
X116490Y22920D03*
X107490D03*
X113490D03*
X116400Y42600D03*
Y46600D03*
X131490Y18920D03*
X128490D03*
X125490D03*
X122490D03*
X119490D03*
X131490Y22920D03*
X128490D03*
X125490D03*
X122490D03*
X119490D03*
X143400Y54250D03*
X146400Y62250D03*
Y66250D03*
X143400Y58250D03*
Y66250D03*
Y62250D03*
X149400Y66250D03*
Y62250D03*
X152400Y66250D03*
Y62250D03*
X186200Y19500D03*
Y15500D03*
X195660Y62700D03*
Y66700D03*
G54D42*
X71760Y-53030D03*
G54D16*
X-2090Y-14310D03*
Y1430D03*
G54D52*
X136950Y15970D03*
Y17940D03*
Y19900D03*
X140890D03*
Y17940D03*
Y15970D03*
X136950Y21870D03*
X140890D03*
G54D25*
X27550Y-64240D03*
Y-53640D03*
G54D34*
X45260Y52070D03*
X41520D03*
X37780D03*
Y62270D03*
X41520D03*
X45260D03*
G54D43*
X81020Y-53030D03*
G54D35*
X65370Y-33580D03*
G54D44*
X83060Y15360D03*
Y20880D03*
X100600Y-51840D03*
Y-57360D03*
X89040Y15360D03*
Y20880D03*
G54D17*
X-710Y-19040D03*
Y6160D03*
G54D26*
X31060Y-46970D03*
Y-39490D03*
X23300Y-43230D03*
G54D53*
X163290Y36730D03*
G54D18*
X-10550Y-19630D03*
Y6750D03*
G54D27*
X26240Y-29000D03*
X33340D03*
G54D54*
X174040Y58780D03*
X179950D03*
G54D36*
X64390Y-41060D03*
X62420D03*
X60450D03*
Y-26100D03*
X62420D03*
X64390D03*
X70290Y-41060D03*
X68320D03*
X66350D03*
Y-26100D03*
X68320D03*
X70290D03*
G54D45*
X78420Y46880D03*
G54D55*
X202900Y53000D03*
Y58000D03*
X207900Y53000D03*
X212900D03*
X217900D03*
X207900Y58000D03*
X212900D03*
X217900D03*
X222900Y53000D03*
Y58000D03*
G54D46*
X100550Y-44980D03*
Y-34320D03*
Y-12420D03*
Y-23080D03*
G54D19*
X-10550Y-11160D03*
Y-1720D03*
G54D28*
X20990Y-6030D03*
X37330D03*
G54D37*
X57890Y-38500D03*
Y-36530D03*
Y-34560D03*
Y-32600D03*
Y-30630D03*
Y-28660D03*
X72850Y-30630D03*
Y-32600D03*
Y-34560D03*
Y-36530D03*
Y-38500D03*
Y-28660D03*
G54D47*
X98690Y16950D03*
X96720D03*
Y20890D03*
X98690D03*
X102620Y16950D03*
X100650D03*
Y20890D03*
X102620D03*
X110990Y30130D03*
X109020D03*
X107060D03*
X105090D03*
Y34070D03*
X107060D03*
X109020D03*
X110990D03*
X116900Y30130D03*
X114930D03*
Y34070D03*
X116900D03*
X120830Y30130D03*
X118860D03*
Y34070D03*
X120830D03*
X130670Y30130D03*
X128700D03*
X126740D03*
X124770D03*
Y34070D03*
X126740D03*
X128700D03*
X130670D03*
X140510Y30130D03*
X138540D03*
X136580D03*
X134610D03*
Y34070D03*
X136580D03*
X138540D03*
X140510D03*
G54D56*
X191300Y55840D03*
X187560Y47180D03*
X195040D03*
G54D38*
X51670Y-21490D03*
G54D29*
X20940Y32930D03*
X24640D03*
X28340D03*
Y43730D03*
X20940D03*
G54D57*
G01X-2400Y-70780D02*
X-1640Y-70020D01*
Y-66290D01*
G01X-7550Y-58570D02*
X-11830D01*
G01X-7400Y-35620D02*
Y-42280D01*
X-7550Y-42430D01*
G01X-7400Y-35620D02*
X-10520D01*
G01X-7550Y-42430D02*
X-10870D01*
G01X-7400Y-31620D02*
X-4400D01*
G01Y-35620D02*
X-1400D01*
G01X-10550Y-11160D02*
Y-19630D01*
G01D02*
X-1300D01*
X-710Y-19040D01*
G01X-10550Y6750D02*
Y-1720D01*
G01Y-11160D02*
Y-1720D01*
G01X0Y-3880D02*
X-720Y-4600D01*
X-4400D01*
X-4990Y-4010D01*
Y16760D01*
X-4560Y17190D01*
Y18870D01*
G01X0Y-6440D02*
X-740Y-5700D01*
X-4860D01*
X-6090Y-4470D01*
Y16760D01*
X-6530Y17200D01*
Y18870D01*
G01X-10900Y18600D02*
Y7100D01*
X-10550Y6750D01*
G01X-2590Y22330D02*
Y20600D01*
G01Y18870D02*
Y20600D01*
G01D02*
X-1700D01*
G01X-7550Y45690D02*
Y37700D01*
G01D02*
Y29550D01*
G01X-1640Y53410D02*
Y57140D01*
X-2400Y57900D01*
G01X-6400D02*
Y58200D01*
X-4300Y60300D01*
X1100D01*
G01X109600Y-78200D02*
X105000Y-82800D01*
X15600D01*
X4100Y-71300D01*
Y-63920D01*
X-1250Y-58570D01*
G01Y-42430D02*
Y-58570D01*
G01X-1400Y-35620D02*
Y-42280D01*
X-1250Y-42430D01*
G01X0Y-9000D02*
Y-11560D01*
G01X75470Y29160D02*
Y26810D01*
X75910Y26370D01*
Y22510D01*
X71200Y17800D01*
X14340D01*
X10400Y13860D01*
Y600D01*
X5190Y-4610D01*
X3990D01*
X3260Y-3880D01*
X0D01*
G01X77440Y29160D02*
Y26800D01*
X77010Y26370D01*
Y22050D01*
X71660Y16700D01*
X14800D01*
X11500Y13400D01*
Y140D01*
X5650Y-5710D01*
X3990D01*
X3260Y-6440D01*
X0D01*
G01X-1250Y38400D02*
Y29550D01*
G01Y45690D02*
Y38400D01*
G01Y45690D02*
Y46290D01*
X4190Y51730D01*
G01Y57730D02*
Y58790D01*
X8000Y62600D01*
G01D02*
X13470D01*
X14570Y63700D01*
G01X13500Y76300D02*
X14370D01*
X23230Y67440D01*
G01D02*
X24990Y69200D01*
X33700D01*
X35900Y71400D01*
X47960D01*
X53300Y66060D01*
Y66030D01*
X54000Y65330D01*
Y58550D01*
X58780Y53770D01*
X60700D01*
G01X30200Y66600D02*
X34100D01*
X37800Y70300D01*
X47500D01*
X52200Y65600D01*
Y65570D01*
X52900Y64870D01*
Y58090D01*
X57500Y53490D01*
Y51400D01*
X59070Y49830D01*
X60700D01*
G01X23230Y59960D02*
X27560D01*
X30200Y62600D01*
G01X33340Y-29000D02*
X33250Y-21540D01*
G01X67590Y29160D02*
Y27390D01*
X65570Y25370D01*
X58720D01*
X57120Y26970D01*
X42840D01*
X39090Y30720D01*
G01D02*
X38690D01*
X35390Y34020D01*
Y41240D01*
X37320Y43170D01*
G01X65620Y29160D02*
Y27310D01*
X64890Y26580D01*
X59510D01*
X57620Y28470D01*
X55320D01*
X51770Y32020D01*
Y33290D01*
X48040Y37020D01*
X47750D01*
G01X49320Y43170D02*
Y38590D01*
X47750Y37020D01*
G01X60700Y34080D02*
X57170D01*
X52520Y38730D01*
Y44170D01*
X50120Y46570D01*
X38320D01*
X35820Y49070D01*
Y55170D01*
X36920Y56270D01*
X40020D01*
X41520Y54770D01*
Y52070D01*
G01X60700Y36050D02*
X56860D01*
X53720Y39190D01*
Y44970D01*
X50820Y47870D01*
X38820D01*
X37780Y48910D01*
Y52070D01*
G01Y62270D02*
Y66930D01*
X39620Y68770D01*
X42420D01*
X44420Y66770D01*
X47620D01*
X49620Y64770D01*
Y63070D01*
G01Y59070D02*
Y59120D01*
X46870D01*
X45260Y60730D01*
Y62270D01*
G01X71760Y-53030D02*
X66910Y-57880D01*
X50480D01*
G01X49550Y23060D02*
X49890Y23400D01*
X71300D01*
X73500Y25600D01*
Y29160D01*
G01X71530Y39990D02*
X65520Y33980D01*
G01D02*
Y32570D01*
G01X63660Y29160D02*
X63120Y29700D01*
G01X55150Y30860D02*
Y31450D01*
X54500Y32100D01*
G01X63120Y29700D02*
X56310D01*
X55150Y30860D01*
G01X65520Y32570D02*
X63660Y30710D01*
Y29160D01*
G01X49620Y63070D02*
X51800Y60890D01*
Y48690D01*
X54920Y45570D01*
Y39780D01*
X56680Y38020D01*
X60700D01*
G01X58620Y65470D02*
X57820Y64670D01*
Y60670D01*
X58810Y59680D01*
X60700D01*
G01X56250Y67260D02*
X56470Y67040D01*
G01D02*
Y60180D01*
X58940Y57710D01*
X60700D01*
G01X49620Y55070D02*
Y59070D01*
G01X53650Y68960D02*
Y67270D01*
X54400Y66520D01*
Y66490D01*
X55100Y65790D01*
Y59300D01*
X58660Y55740D01*
X60700D01*
G01X63660Y64600D02*
X61100Y67160D01*
X60300Y68000D01*
G01X64590Y76460D02*
X60300Y72170D01*
Y68000D01*
G01X72850Y-38500D02*
Y-51940D01*
X71760Y-53030D01*
G01X72850Y-36530D02*
Y-38500D01*
G01Y-25940D02*
X72690Y-26100D01*
X70290D01*
G01X81370Y34570D02*
X78420Y37520D01*
G01X81370Y34570D02*
X82830D01*
G01D02*
X83340Y34060D01*
G01X78420Y37520D02*
Y46880D01*
G01X73640Y51660D02*
X78420Y46880D01*
G01X81300Y42600D02*
X82230Y46880D01*
G01X78420D02*
X76630D01*
X72920Y43170D01*
G01X71530Y39990D02*
X78420Y46880D01*
G01X68080Y57220D02*
X73640Y51660D01*
G01X82230Y46880D02*
X78420D01*
G01X79870Y68400D02*
X80070Y68430D01*
X80950Y67550D01*
Y67530D01*
X81370Y67110D01*
Y64600D01*
G01X66960Y57220D02*
X68080D01*
G01X83340Y64600D02*
Y67760D01*
X82800Y68300D01*
G01X74590Y76460D02*
X78650Y72400D01*
X86300D01*
X87300Y71400D01*
X90700D01*
X91800Y70300D01*
X101500D01*
X103250Y68550D01*
Y56550D01*
X102440Y55740D01*
X96140D01*
G01X86200Y11300D02*
X84020D01*
X83060Y12260D01*
G01X96720Y16950D02*
Y15920D01*
X94900Y14100D01*
G01X114590Y6740D02*
X110830D01*
X109090Y5000D01*
X99100D01*
X98170Y5930D01*
Y8020D01*
G01X98690Y16950D02*
Y12540D01*
X98170Y12020D01*
G01X90200Y11300D02*
X91000D01*
X92700Y13000D01*
Y23710D01*
X89250Y27160D01*
Y29160D01*
G01X93180D02*
Y27320D01*
X96650Y23850D01*
X97650D01*
X98690Y22810D01*
Y20890D01*
G01X100650D02*
Y28150D01*
X96680Y32120D01*
X96140D01*
G01Y34080D02*
X96420Y33800D01*
X99880D01*
X100880Y34800D01*
X102440D01*
X106040Y38400D01*
Y39800D01*
G01X116900Y34070D02*
Y35800D01*
X116100Y36600D01*
X114850D01*
X113450Y38000D01*
Y43150D01*
X111950Y44650D01*
X101600D01*
X101100Y44150D01*
Y41120D01*
X102350Y39870D01*
Y37950D01*
X100800Y36400D01*
X96490D01*
X96140Y36050D01*
G01X104590Y76460D02*
X107600Y73450D01*
Y53300D01*
X104120Y49820D01*
X98320D01*
X98000Y49500D01*
X96470D01*
X96140Y49830D01*
G01Y53770D02*
X102470D01*
X104350Y55650D01*
Y69010D01*
X101960Y71400D01*
X93500D01*
X92400Y72500D01*
X88550D01*
X84590Y76460D01*
G01X96140Y51800D02*
X98000D01*
X98870Y52670D01*
X102930D01*
X105450Y55190D01*
Y69470D01*
X102420Y72500D01*
X98550D01*
X94590Y76460D01*
G01X96140Y39990D02*
X98090D01*
X99000Y40900D01*
Y44600D01*
X100150Y45750D01*
X112900D01*
X114550Y44100D01*
Y40990D01*
X115040Y40500D01*
X119300D01*
X120000Y39800D01*
G01X91220Y64600D02*
Y67120D01*
X92100Y68000D01*
X96570D01*
X97500Y67070D01*
G01X93180Y64600D02*
X98830D01*
X101200Y66970D01*
G01X96140Y61640D02*
X100670D01*
X101200Y62170D01*
G01X119800Y-48860D02*
X112840D01*
G01X100550Y-44980D02*
Y-51790D01*
X100600Y-51840D01*
G01X119800Y-43860D02*
X112640D01*
G01X119800Y-38860D02*
X112540D01*
G01X119800Y-33860D02*
X112440D01*
G01X104450Y13750D02*
X102620Y15580D01*
Y16950D01*
G01X113490Y18920D02*
Y15710D01*
X116200Y13000D01*
X120000D01*
X120700Y12300D01*
X139030D01*
X144590Y6740D01*
G01X134590D02*
X132660D01*
X128200Y11200D01*
X119400D01*
X118800Y11800D01*
X114000D01*
X113000Y12800D01*
X109200D01*
X107490Y14510D01*
Y18920D01*
G01X124590Y6740D02*
X121830Y9500D01*
X118950D01*
X117900Y10550D01*
X103700D01*
X101170Y8020D01*
G01X100650Y16950D02*
Y12540D01*
X101170Y12020D01*
G01X154590Y6740D02*
X153030D01*
X148400Y11370D01*
X147330D01*
X145100Y13600D01*
X121500D01*
X121000Y14100D01*
X116800D01*
X115400Y15500D01*
Y16600D01*
X116490Y17690D01*
Y18920D01*
G01X102620Y20890D02*
Y26320D01*
X103000Y26700D01*
G01X110990Y34070D02*
Y34790D01*
X112300Y36100D01*
G01X113400Y33500D02*
X114070Y34070D01*
X114930D01*
G01X105090Y30130D02*
Y34070D01*
G01X103000Y32300D02*
X104770Y34070D01*
X105090D01*
G01X110990Y30130D02*
X112430D01*
X113000Y30700D01*
G01X114930Y30130D02*
X113570D01*
X113000Y30700D01*
G01X118860Y30130D02*
Y27360D01*
X116490Y24990D01*
Y22920D01*
G01X107060Y30130D02*
Y23350D01*
X107490Y22920D01*
G01X109020Y30130D02*
Y26880D01*
X110500Y25400D01*
Y23400D01*
G01X116900Y30130D02*
Y28300D01*
X113490Y24890D01*
Y22920D01*
G01X110040Y39800D02*
X107060Y36820D01*
Y34070D01*
G01X109020D02*
Y36420D01*
X110100Y37500D01*
X111080D01*
X111530Y37950D01*
X111650D01*
X112140Y38440D01*
Y38540D01*
X112300Y38700D01*
Y42400D01*
X111900Y42800D01*
X110040D01*
G01X106040D02*
X103300D01*
G01X115900Y38500D02*
X118860Y35640D01*
Y34070D01*
G01X118300Y41800D02*
X117200D01*
X116400Y42600D01*
G01X125490Y18920D02*
Y16010D01*
G01X119490Y18920D02*
Y16690D01*
X118800Y16000D01*
G01X131490Y18920D02*
Y15790D01*
G01X128490Y18920D02*
Y15810D01*
G01X131490Y22920D02*
X133300Y21110D01*
Y20540D01*
X133700Y20140D01*
Y18700D01*
X134460Y17940D01*
X136950D01*
G01X122490Y18920D02*
Y16010D01*
X122600Y15900D01*
G01X130670Y34070D02*
Y34870D01*
X132100Y36300D01*
G01X120830Y34070D02*
Y34730D01*
X122000Y35900D01*
G01X124770Y34070D02*
X123970D01*
X123300Y33400D01*
G01X124770Y30130D02*
Y34070D01*
G01X134610D02*
X133670D01*
X133100Y33500D01*
G01X120830Y30130D02*
X121970D01*
X122200Y29900D01*
G01X132500Y30130D02*
X134610D01*
G01X130670D02*
X132500D01*
G01X124300Y37600D02*
Y39500D01*
X124000Y39800D01*
G01X136950Y19900D02*
X135500D01*
X134400Y21000D01*
Y24400D01*
X133100Y25700D01*
X130500D01*
X128490Y23690D01*
Y22920D01*
G01X138540Y30130D02*
Y26000D01*
X137740Y25200D01*
X135600D01*
X134000Y26800D01*
X129500D01*
X127920Y25220D01*
X126570D01*
X125490Y24140D01*
Y22920D01*
G01X122490D02*
Y24190D01*
X124620Y26320D01*
X126720D01*
X128700Y28300D01*
Y30130D01*
G01X119490Y22920D02*
Y24990D01*
X122000Y27500D01*
X125900D01*
X126740Y28340D01*
Y30130D01*
G01X128900Y40100D02*
X126740Y37940D01*
Y34070D01*
G01X149510Y31810D02*
X145090D01*
X144500Y32400D01*
Y32880D01*
X144370Y33010D01*
Y35170D01*
X141590Y37950D01*
X138950D01*
X138100Y38800D01*
X135600D01*
X135000Y38200D01*
X130200D01*
X129700Y37700D01*
Y36800D01*
X128700Y35800D01*
Y34070D01*
G01X120920Y46690D02*
Y45200D01*
G01Y43690D02*
Y45200D01*
G01D02*
X120820Y45300D01*
X120200D01*
G01X132650Y62660D02*
X137600D01*
X138100Y62160D01*
Y51300D01*
X137400Y50600D01*
X132830D01*
X128920Y46690D01*
G01D02*
X124920D01*
G01X132920D02*
Y43690D01*
G01X136920Y46690D02*
X132920D01*
G01X149510Y35750D02*
X149410Y35650D01*
X145950D01*
X145740Y35860D01*
X145240D01*
X144160Y36940D01*
Y37440D01*
X142550Y39050D01*
X140450D01*
X139500Y40000D01*
X133000D01*
X132900Y40100D01*
G01X124920Y43690D02*
Y42420D01*
X124300Y41800D01*
X118300D01*
G01D02*
Y48070D01*
X119130Y48900D01*
X120300D01*
X129060Y57660D01*
X132650D01*
G01X124590Y76460D02*
X129950Y71100D01*
X136800D01*
X138000Y69900D01*
Y63820D01*
X139200Y62620D01*
Y51200D01*
X141400Y49000D01*
X143500D01*
X146910Y45590D01*
X149510D01*
G01X140890Y15970D02*
X144270D01*
G01X136950D02*
X134670D01*
X134300Y15600D01*
G01X140890Y19900D02*
X145300D01*
X146600Y18600D01*
X154300D01*
X156400Y20700D01*
Y22950D01*
G01X149900Y14300D02*
Y13200D01*
X151500Y11600D01*
G01X158370Y22950D02*
Y19370D01*
X155900Y16900D01*
X146000D01*
X144960Y17940D01*
X140890D01*
G01X138540Y34070D02*
Y36200D01*
X139040Y36700D01*
X141280D01*
X143270Y34710D01*
Y24030D01*
X146900Y20400D01*
X154200D01*
X154430Y20630D01*
Y22950D01*
G01X140510Y34070D02*
X141230D01*
G01X140890Y21870D02*
Y23590D01*
G01X136950Y21870D02*
Y22750D01*
X136400Y23300D01*
G01X140500Y26500D02*
X140510Y26690D01*
Y30130D01*
G01X149510Y37710D02*
X146010D01*
G01X149510Y33780D02*
X146220D01*
G01X136580Y34070D02*
Y36820D01*
G01Y30130D02*
Y27200D01*
G01X152460Y22950D02*
X148050D01*
X148000Y22900D01*
G01X145400Y42000D02*
X145750Y41650D01*
X149510D01*
G01X142600Y40900D02*
X143820Y39680D01*
X149510D01*
G01X140920Y43690D02*
X141230Y44000D01*
X149130D01*
X149510Y43620D01*
G01X140920Y46690D02*
Y43690D01*
G01X143400Y54250D02*
X144450Y53200D01*
X149590D01*
X150480Y54090D01*
X152360D01*
X154430Y52020D01*
Y50510D01*
G01X149510Y47560D02*
X147340D01*
X144800Y50100D01*
X142000D01*
X140400Y51700D01*
Y63700D01*
X139100Y65000D01*
Y72010D01*
X134650Y76460D01*
X134590D01*
G01X144590D02*
X140200Y72070D01*
Y65460D01*
X141500Y64160D01*
Y52160D01*
X142250Y51410D01*
X149890D01*
X150790Y50510D01*
X152460D01*
G01X143400Y62250D02*
Y60200D01*
G01D02*
Y58250D01*
G01X149400Y62250D02*
Y59750D01*
X151020Y58230D01*
G01X146400Y62250D02*
X149400D01*
G01X161900Y14300D02*
Y11500D01*
G01Y14300D02*
X165900D01*
G01X162310Y22950D02*
Y17610D01*
G01D02*
X161800Y17100D01*
X159300D01*
X157900Y15700D01*
Y14300D01*
G01X165200Y17200D02*
X164270Y18030D01*
Y22950D01*
G01X169900Y14300D02*
X167000Y17200D01*
X165200D01*
G01X160340Y22950D02*
Y19600D01*
G01X173900Y14300D02*
Y12600D01*
X172800Y11500D01*
X165000D01*
G01X169800Y17300D02*
X166360Y20740D01*
X166240D01*
Y22950D01*
G01X163630Y6740D02*
X163160D01*
X158200Y11700D01*
X156500D01*
X153900Y14300D01*
G01X161100Y54200D02*
X162310Y52790D01*
Y50510D01*
G01X158870Y58890D02*
X159520D01*
X164270Y54140D01*
Y50510D01*
G01X166240D02*
Y53680D01*
X165370Y54550D01*
Y54600D01*
X163450Y56520D01*
Y62270D01*
X166370Y65190D01*
X167530D01*
G01X151020Y58230D02*
X156400Y52750D01*
Y50510D01*
G01X152400Y62250D02*
X153000Y61510D01*
X155620Y58890D01*
X158870D01*
G01X175000Y67140D02*
X169480D01*
X167530Y65190D01*
G01X172150Y50510D02*
Y52110D01*
X173040Y53000D01*
X173130D01*
X173170Y53040D01*
X181440D01*
X184100Y55700D01*
Y58690D01*
X190000Y64590D01*
Y67900D01*
X188100Y69800D01*
X157400D01*
X154590Y72610D01*
Y76460D01*
G01X164590D02*
X170050Y71000D01*
X188440D01*
X188540Y70900D01*
X188560D01*
X189160Y70300D01*
X189500D01*
X191400Y68400D01*
Y64110D01*
X185800Y58510D01*
Y53700D01*
X183500Y51400D01*
Y43540D01*
X184640Y42400D01*
X186000D01*
X186500Y41900D01*
Y36200D01*
X185600Y35300D01*
X181700D01*
X181250Y35750D01*
X177070D01*
G01X170180Y22950D02*
Y21120D01*
X171200Y20100D01*
X176900D01*
X181000Y24200D01*
X197000D01*
X203710Y30910D01*
X203700Y31820D01*
Y45680D01*
X206720Y48700D01*
X220000D01*
X222900Y51600D01*
Y53000D01*
G01X168210Y22950D02*
Y21010D01*
X169520Y19700D01*
X170020D01*
X171620Y18100D01*
X173300D01*
G01X177070Y29840D02*
X197960D01*
X200400Y32280D01*
Y47800D01*
X200200Y48000D01*
G01X217900Y53000D02*
Y50900D01*
X216900Y49900D01*
X206360D01*
X202600Y46140D01*
Y31360D01*
X197140Y25900D01*
X177070D01*
G01Y31810D02*
X190510D01*
X191200Y32500D01*
G01X207900Y53000D02*
X201500Y46600D01*
Y31820D01*
X197550Y27870D01*
X177070D01*
G01Y37710D02*
X183090D01*
X183100Y37700D01*
G01X177070Y33780D02*
X186780D01*
X187800Y34800D01*
Y42700D01*
X187000Y43500D01*
X185100D01*
X184600Y44000D01*
Y50700D01*
X187700Y53800D01*
Y58600D01*
X192600Y63500D01*
Y68900D01*
X190100Y71400D01*
X189620D01*
X189010Y72010D01*
X188990D01*
X188900Y72100D01*
X178950D01*
X174590Y76460D01*
G01X184600Y40500D02*
X182950Y41650D01*
X177070D01*
G01X181650Y44350D02*
X180920Y43620D01*
X177070D01*
G01X174040Y58780D02*
Y57450D01*
X171750Y55160D01*
X170950D01*
X168210Y52420D01*
Y50510D01*
G01X170180D02*
Y52180D01*
X172060Y54060D01*
X172210D01*
X173210Y55060D01*
X175800D01*
X179520Y58780D01*
X179950D01*
G01X177070Y39680D02*
X180580D01*
G01X175000Y64140D02*
X174040Y63180D01*
Y58780D01*
G01X183000Y67140D02*
X182300Y66440D01*
Y61130D01*
X179950Y58780D01*
G01X198300Y36100D02*
X195880D01*
X195870Y36090D01*
G01X191870D02*
X191010D01*
X189500Y37600D01*
Y45240D01*
X187560Y47180D01*
G01X195870Y42490D02*
X195270D01*
X194520Y41740D01*
Y41180D01*
X194380Y41040D01*
X193880D01*
X193480Y40640D01*
X193420D01*
X191870Y39090D01*
G01X195870Y42490D02*
X197490D01*
X198100Y43100D01*
Y51240D01*
X199860Y53000D01*
X202900D01*
G01X207900Y58000D02*
X204500Y61400D01*
X203700D01*
X200950Y64150D01*
G01X195660Y66700D02*
X196100Y67140D01*
X199400D01*
G01X200950Y64150D02*
X199400Y65700D01*
Y67140D01*
G01X195660Y62700D02*
Y60200D01*
X191300Y55840D01*
G01X197900Y70700D02*
Y75800D01*
X197240Y76460D01*
X194590D01*
G01X184590D02*
X186390D01*
X190350Y72500D01*
X193100D01*
X194900Y70700D01*
G54D39*
X62490Y-7810D03*
Y3990D03*
X82010Y-63050D03*
Y-74850D03*
X72910Y-63050D03*
Y-74850D03*
X80690Y-7810D03*
Y3990D03*
X71590Y-7810D03*
Y3990D03*
X100210Y-63050D03*
Y-74850D03*
X91110Y-63050D03*
Y-74850D03*
X89790Y-7810D03*
Y3990D03*
G54D48*
X97500Y67070D03*
X101200Y62170D03*
Y66970D03*
X148000Y22900D03*
X183100Y37700D03*
X191200Y32500D03*
G54D58*
G01X62420Y-41060D02*
Y-47410D01*
X61820Y-48010D01*
G01X66350Y-41060D02*
Y-45540D01*
X63880Y-48010D01*
X61820D01*
G01X72640Y-15730D02*
X72950D01*
X74340Y-17120D01*
Y-17900D01*
X74540Y-18100D01*
Y-18340D01*
X75930Y-19730D01*
X76240D01*
G01X128920Y43690D02*
X124920D01*
G01X-12440Y-94820D02*
X224850D01*
G03X229850Y-89820I0J5000D01*
G01Y76940D01*
G03X224850Y81940I-5000J0D01*
G01X-12440D01*
G03X-17440Y76940I0J-5000D01*
G01Y-89820D01*
G03X-12440Y-94820I5000J0D01*
G01X229850Y57060D02*
Y-74940D01*
G54D49*
X119800Y-63860D03*
Y-58860D03*
Y-53860D03*
Y-48860D03*
Y-33860D03*
Y-43860D03*
Y-38860D03*
Y-28860D03*
Y-23860D03*
Y-18860D03*
Y-13860D03*
X183200Y-63860D03*
Y-48860D03*
Y-53860D03*
Y-58860D03*
Y-33860D03*
Y-38860D03*
Y-43860D03*
Y-13860D03*
Y-18860D03*
Y-23860D03*
Y-28860D03*
G54D59*
G01X60320Y63070D02*
Y62020D01*
X60700Y61640D01*
G01X78720Y-34380D02*
Y-34710D01*
X80050Y-36040D01*
X80710D01*
X81050Y-36380D01*
X81390D01*
X82720Y-37710D01*
Y-38130D01*
G01Y-34380D02*
Y-34110D01*
X81240Y-32630D01*
X81050D01*
X80650Y-32230D01*
X80150D01*
X80060Y-32140D01*
X79550D01*
X78720Y-31310D01*
Y-30630D01*
M02*
