G04 ================== begin FILE IDENTIFICATION RECORD ==================*
G04 Layout Name:  D:/ET_EvilBoard/Layout_V4/EvilSploit_0625A.brd*
G04 Film Name:    TOP_SILK*
G04 File Format:  Gerber RS274X*
G04 File Origin:  Cadence Allegro 16.6-P004*
G04 Origin Date:  Sun Jun 25 07:11:54 2017*
G04 *
G04 Layer:  BOARD GEOMETRY/OUTLINE*
G04 Layer:  PACKAGE GEOMETRY/SILKSCREEN_TOP*
G04 *
G04 Offset:    (0.0 0.0)*
G04 Mirror:    No*
G04 Mode:      Positive*
G04 Rotation:  0*
G04 FullContactRelief:  No*
G04 UndefLineWidth:     6.0*
G04 ================== end FILE IDENTIFICATION RECORD ====================*
%FSLAX25Y25*MOIN*%
%IR0*IPPOS*OFA0.00000B0.00000*MIA0B0*SFA1.00000B1.00000*%
%ADD10C,.005*%
%ADD11C,.006*%
%ADD12C,.008*%
%ADD13C,.0039*%
%ADD14C,.0059*%
%ADD15C,.0079*%
%ADD16C,.0098*%
%ADD17C,.01*%
G75*
%LPD*%
G75*
G36*
G01X114350Y-14610D02*
X113350D01*
Y-13110D01*
X114350D01*
Y-14610D01*
G37*
G36*
G01X140750Y-77010D02*
X142250D01*
Y-76010D01*
X140750D01*
Y-77010D01*
G37*
G36*
G01X170750Y-710D02*
X172250D01*
Y-1710D01*
X170750D01*
Y-710D01*
G37*
G36*
G01X188650Y-54610D02*
X189650D01*
Y-53110D01*
X188650D01*
Y-54610D01*
G37*
G54D10*
G01X-5900Y-32620D02*
Y-29620D01*
X-2900D01*
G01Y-34620D02*
Y-37620D01*
X-5900D01*
Y-34620D01*
G01X-3600Y-33920D02*
X-5200D01*
G01X-3600Y-33320D02*
X-5200D01*
G01X-2900Y-29620D02*
Y-32620D01*
G01X-9400Y19600D02*
Y16600D01*
X-12400D01*
Y19600D01*
G01X-10100Y20300D02*
X-11700D01*
G01X-12400Y21600D02*
Y24600D01*
X-9400D01*
G01X-10100Y20900D02*
X-11700D01*
G01X-9400Y24600D02*
Y21600D01*
G01X4790Y53660D02*
X3600D01*
G01X4190Y53030D02*
Y54330D01*
G01X22100Y-67640D02*
X22700D01*
G01X22100Y-67040D02*
Y-67640D01*
G01Y-50240D02*
Y-50840D01*
G01X22700Y-50240D02*
X22100D01*
G01X20700Y39510D02*
Y37150D01*
G01D02*
X18540D01*
G01D02*
Y34890D01*
G01X30740Y41770D02*
Y34890D01*
G01X18540Y41770D02*
Y39510D01*
G01D02*
X20700D01*
G01X33000Y-67640D02*
Y-67040D01*
G01X32400Y-67640D02*
X33000D01*
G01Y-50240D02*
X32400D01*
G01X33000Y-50840D02*
Y-50240D01*
G01X48520Y-36490D02*
X45520D01*
Y-33490D01*
G01D02*
X48520D01*
G01X48320Y44670D02*
X51320D01*
Y41670D01*
G01X46320D02*
X43320D01*
Y44670D01*
X46320D01*
G01X47020Y42370D02*
Y43970D01*
G01X47620Y42370D02*
Y43970D01*
G01X51320Y41670D02*
X48320D01*
G01X38320D02*
X35320D01*
Y44670D01*
G01X40320D02*
X43320D01*
Y41670D01*
X40320D01*
G01X39620Y43970D02*
Y42370D01*
G01X39020Y43970D02*
Y42370D01*
G01X35320Y44670D02*
X38320D01*
G01X50520Y-33490D02*
X53520D01*
Y-36490D01*
X50520D01*
G01X49820Y-34190D02*
Y-35790D01*
G01X49220Y-34190D02*
Y-35790D01*
G01X65070Y-15730D02*
X68070D01*
Y-18730D01*
G01X63070D02*
X60070D01*
Y-15730D01*
X63070D01*
G01X63770Y-18030D02*
Y-16430D01*
G01X64370Y-18030D02*
Y-16430D01*
G01X68070Y-18730D02*
X65070D01*
G01X79720Y-32130D02*
X76720D01*
Y-29130D01*
X79720D01*
G01X80420Y-31430D02*
Y-29830D01*
G01X81020Y-31430D02*
Y-29830D01*
G01X84720Y-32130D02*
X81720D01*
G01Y-29130D02*
X84720D01*
Y-32130D01*
G01X81720Y-23130D02*
X84720D01*
Y-26130D01*
G01X79720D02*
X76720D01*
Y-23130D01*
X79720D01*
G01X80420Y-25430D02*
Y-23830D01*
G01X81020Y-25430D02*
Y-23830D01*
G01X84720Y-26130D02*
X81720D01*
G01X77740Y-18730D02*
Y-21730D01*
X74740D01*
G01Y-16730D02*
Y-13730D01*
X77740D01*
Y-16730D01*
G01X75440Y-17430D02*
X77040D01*
G01X75440Y-18030D02*
X77040D01*
G01X74740Y-21730D02*
Y-18730D01*
G01X85130Y-37220D02*
Y-34220D01*
X88130D01*
G01Y-39220D02*
Y-42220D01*
X85130D01*
Y-39220D01*
G01X87430Y-38520D02*
X85830D01*
G01X87430Y-37920D02*
X85830D01*
G01X88130Y-34220D02*
Y-37220D01*
G01X102350Y-41720D02*
X98750D01*
G01X102350Y-19820D02*
X98750D01*
G01X99600Y67070D02*
G03I-2100J0D01*
G01X103300Y62170D02*
G03I-2100J0D01*
G01Y66970D02*
G03I-2100J0D01*
G01X100550Y-40920D02*
Y-42520D01*
G01Y-19020D02*
Y-20620D01*
G01X129920Y42190D02*
X126920D01*
Y45190D01*
G01X131920D02*
X134920D01*
Y42190D01*
X131920D01*
G01X131220Y44490D02*
Y42890D01*
G01X130620Y44490D02*
Y42890D01*
G01X126920Y45190D02*
X129920D01*
G01X123920Y48190D02*
X126920D01*
Y45190D01*
G01X121920D02*
X118920D01*
Y48190D01*
X121920D01*
G01X122620Y45890D02*
Y47490D01*
G01X123220Y45890D02*
Y47490D01*
G01X126920Y45190D02*
X123920D01*
G01X150100Y22900D02*
G03I-2100J0D01*
G01X144900Y65250D02*
Y68250D01*
X147900D01*
G01Y63250D02*
Y60250D01*
X144900D01*
Y63250D01*
G01X147200Y63950D02*
X145600D01*
G01X147200Y64550D02*
X145600D01*
G01X147900Y68250D02*
Y65250D01*
G01X153900Y63250D02*
Y60250D01*
X150900D01*
G01Y65250D02*
Y68250D01*
X153900D01*
Y65250D01*
G01X151600Y64550D02*
X153200D01*
G01X151600Y63950D02*
X153200D01*
G01X150900Y60250D02*
Y63250D01*
G01X185200Y37700D02*
G03I-2100J0D01*
G01X176000Y65640D02*
X173000D01*
Y68640D01*
G01X178000D02*
X181000D01*
Y65640D01*
X178000D01*
G01X177300Y67940D02*
Y66340D01*
G01X176700Y67940D02*
Y66340D01*
G01X173000Y68640D02*
X176000D01*
G01X184000Y65640D02*
X181000D01*
Y68640D01*
X184000D01*
G01X178000Y65640D02*
X181000D01*
Y62640D01*
G01X176000D02*
X173000D01*
Y65640D01*
X176000D01*
G01X176700Y63340D02*
Y64940D01*
G01X177300Y63340D02*
Y64940D01*
G01X181000Y62640D02*
X178000D01*
G01X194870Y40590D02*
X197870D01*
Y37590D01*
G01X192870D02*
X189870D01*
Y40590D01*
X192870D01*
G01X197870Y37590D02*
X194870D01*
G01X193300Y32500D02*
G03I-2100J0D01*
G01X193570Y38290D02*
Y39890D01*
G01X194170Y38290D02*
Y39890D01*
G01X186000Y68640D02*
X189000D01*
Y65640D01*
G01X184700Y66340D02*
Y67940D01*
G01X185300Y66340D02*
Y67940D01*
G01X189000Y65640D02*
X186000D01*
G54D11*
G01X-5130Y-67630D02*
X-3860Y-66360D01*
X-3870D01*
X-5070Y-65160D01*
G01X-5130Y52140D02*
X-3860Y53410D01*
X-3870D01*
X-5070Y54610D01*
G01X19300Y61200D02*
Y58200D01*
X19900Y58800D01*
G01Y61200D02*
X18700D01*
G01X22250Y62960D02*
Y64440D01*
G01X15500Y66700D02*
Y70200D01*
X19800D01*
G01Y57200D02*
X15500D01*
Y60700D01*
G01X47620Y58370D02*
G03X47600Y55970I0J-1200D01*
G01X47620Y55020D02*
Y59320D01*
G01X35420D02*
Y55020D01*
G01X58940Y480D02*
Y-4300D01*
G01X78460Y-66560D02*
Y-71340D01*
G01X69360Y-66560D02*
Y-71340D01*
G01X76460D02*
Y-66560D01*
G01X77140Y480D02*
Y-4300D01*
G01X75140D02*
Y480D01*
G01X68040D02*
Y-4300D01*
G01X66040D02*
Y480D01*
G01X96660Y-66560D02*
Y-71340D01*
G01X87560Y-66560D02*
Y-71340D01*
G01X94660D02*
Y-66560D01*
G01X85560Y-71340D02*
Y-66560D01*
G01X93340Y-4300D02*
Y480D01*
G01X86240D02*
Y-4300D01*
G01X84240D02*
Y480D01*
G01X103760Y-71340D02*
Y-66560D01*
G01X118700Y-66320D02*
Y-71660D01*
X124040D01*
G01X123500D02*
X118700Y-66860D01*
G01Y-10860D02*
X123500Y-6060D01*
G01X124040D02*
X118700D01*
Y-11400D01*
G01X124550Y50310D02*
G03X122150Y50330I-1200J0D01*
G01X118710Y50310D02*
X127990D01*
G01Y70010D02*
X118710D01*
G01X178960Y-71660D02*
X184300D01*
Y-66320D01*
G01Y-66860D02*
X179500Y-71660D01*
G01X184300Y-11400D02*
Y-6060D01*
X178960D01*
G01X184300Y-10860D02*
X179500Y-6060D01*
G01X188800Y51110D02*
X185800D01*
X186400Y50510D01*
G01X188800D02*
Y51710D01*
G01X190560Y48160D02*
X192040D01*
G01X194300Y54910D02*
X197800D01*
Y50610D01*
G01X184800D02*
Y54910D01*
X188300D01*
G01X-12440Y-94820D02*
X224850D01*
G03X229850Y-89820I0J5000D01*
G01Y76940D01*
G03X224850Y81940I-5000J0D01*
G01X-12440D01*
G03X-17440Y76940I0J-5000D01*
G01Y-89820D01*
G03X-12440Y-94820I5000J0D01*
G01X-8400Y-69280D02*
Y-72280D01*
X-400D01*
Y-69280D01*
X-8400D01*
G01X-4100Y-69980D02*
Y-71580D01*
G01X-4700Y-69980D02*
Y-71580D01*
G01X-10310Y-39670D02*
Y-61330D01*
X1510D01*
Y-39670D01*
X-10310D01*
G01X-2900Y-37620D02*
X100D01*
Y-29620D01*
X-2900D01*
Y-37620D01*
G01X-2200Y-33320D02*
X-600D01*
G01X-2200Y-33920D02*
X-600D01*
G01X-8900Y-37620D02*
X-5900D01*
Y-29620D01*
X-8900D01*
Y-37620D01*
G01X-8200Y-33320D02*
X-6600D01*
G01X-8200Y-33920D02*
X-6600D01*
G01X-17440Y9310D02*
Y-22190D01*
G01X-7510Y22670D02*
X-1610D01*
Y18530D01*
X-7510D01*
Y22670D01*
G01X-10310Y48450D02*
Y26790D01*
X1510D01*
Y48450D01*
X-10310D01*
G01X-13050Y52560D02*
X-13260Y52600D01*
X-13450Y52770D01*
X-13610Y53020D01*
X-13720Y53310D01*
X-13770Y53640D01*
Y53980D01*
X-13720Y54310D01*
X-13610Y54600D01*
X-13450Y54850D01*
X-13260Y55020D01*
X-13050Y55060D01*
X-12840Y55020D01*
X-12650Y54850D01*
X-12490Y54600D01*
X-12380Y54310D01*
X-12330Y53980D01*
Y53640D01*
X-12380Y53310D01*
X-12490Y53020D01*
X-12650Y52770D01*
X-12840Y52600D01*
X-13050Y52560D01*
G01X-11460D02*
Y55060D01*
X-10240Y52560D01*
Y55060D01*
G01X-8400Y59400D02*
Y56400D01*
X-400D01*
Y59400D01*
X-8400D01*
G01X-4100Y58700D02*
Y57100D01*
G01X-4700Y58700D02*
Y57100D01*
G01X1620Y-67440D02*
Y-64940D01*
X2280D01*
X2500Y-65070D01*
X2630Y-65230D01*
X2680Y-65570D01*
X2630Y-65900D01*
X2470Y-66110D01*
X2280Y-66230D01*
X1620D01*
G01X2280D02*
X2680Y-67440D01*
G01X3790D02*
X4910Y-64940D01*
G01X3790D02*
X4910Y-67440D01*
G01X9500Y68600D02*
X6500D01*
Y60600D01*
X9500D01*
Y68600D01*
G01X8800Y64300D02*
X7200D01*
G01X8800Y64900D02*
X7200D01*
G01X19510Y-82800D02*
X19670Y-83090D01*
X19890Y-83260D01*
X20130Y-83300D01*
X20340Y-83260D01*
X20550Y-83050D01*
X20690Y-82800D01*
X20710Y-82550D01*
X20660Y-82260D01*
X20470Y-82050D01*
X20290Y-81970D01*
X20050D01*
G01X20290D02*
X20450Y-81840D01*
X20580Y-81630D01*
X20630Y-81380D01*
X20580Y-81130D01*
X20450Y-80930D01*
X20210Y-80800D01*
X19970Y-80840D01*
X19730Y-81010D01*
G01X22300Y-83380D02*
X22250Y-83340D01*
Y-83260D01*
X22300Y-83220D01*
X22350Y-83260D01*
Y-83340D01*
X22300Y-83380D01*
G01X23910Y-82800D02*
X24070Y-83090D01*
X24290Y-83260D01*
X24530Y-83300D01*
X24740Y-83260D01*
X24950Y-83050D01*
X25090Y-82800D01*
X25110Y-82550D01*
X25060Y-82260D01*
X24870Y-82050D01*
X24690Y-81970D01*
X24450D01*
G01X24690D02*
X24850Y-81840D01*
X24980Y-81630D01*
X25030Y-81380D01*
X24980Y-81130D01*
X24850Y-80930D01*
X24610Y-80800D01*
X24370Y-80840D01*
X24130Y-81010D01*
G01X26030Y-80800D02*
X26700Y-83300D01*
X27370Y-80800D01*
G01X32460Y-82050D02*
X32990D01*
Y-82800D01*
X32830Y-83050D01*
X32650Y-83220D01*
X32380Y-83300D01*
X32110Y-83220D01*
X31930Y-83050D01*
X31770Y-82800D01*
X31660Y-82510D01*
X31610Y-82180D01*
Y-81880D01*
X31660Y-81630D01*
X31770Y-81340D01*
X31930Y-81090D01*
X32090Y-80930D01*
X32300Y-80800D01*
X32490D01*
X32700Y-80880D01*
X32860Y-81050D01*
G01X33890Y-83300D02*
Y-80800D01*
X35110Y-83300D01*
Y-80800D01*
G01X36110Y-83300D02*
Y-80800D01*
X36650D01*
X36860Y-80930D01*
X37020Y-81090D01*
X37150Y-81340D01*
X37260Y-81630D01*
X37290Y-82050D01*
X37260Y-82470D01*
X37150Y-82760D01*
X37020Y-83010D01*
X36860Y-83180D01*
X36650Y-83300D01*
X36110D01*
G01X31850Y-36260D02*
Y-33260D01*
X23850D01*
Y-36260D01*
X31850D01*
G01X27550Y-35560D02*
Y-33960D01*
G01X28150Y-35560D02*
Y-33960D01*
G01X22610Y71510D02*
X23140D01*
Y70760D01*
X22980Y70510D01*
X22800Y70340D01*
X22530Y70260D01*
X22260Y70340D01*
X22080Y70510D01*
X21920Y70760D01*
X21810Y71050D01*
X21760Y71380D01*
Y71680D01*
X21810Y71930D01*
X21920Y72220D01*
X22080Y72470D01*
X22240Y72630D01*
X22450Y72760D01*
X22640D01*
X22850Y72680D01*
X23010Y72510D01*
G01X24040Y70260D02*
Y72760D01*
X25260Y70260D01*
Y72760D01*
G01X26260Y70260D02*
Y72760D01*
X26800D01*
X27010Y72630D01*
X27170Y72470D01*
X27300Y72220D01*
X27410Y71930D01*
X27440Y71510D01*
X27410Y71090D01*
X27300Y70800D01*
X27170Y70550D01*
X27010Y70380D01*
X26800Y70260D01*
X26260D01*
G01X28700Y60600D02*
X31700D01*
Y68600D01*
X28700D01*
Y60600D01*
G01X29400Y64900D02*
X31000D01*
G01X29400Y64300D02*
X31000D01*
G01X42460Y-82870D02*
X42620Y-83070D01*
X42810Y-83200D01*
X43050Y-83240D01*
X43290Y-83160D01*
X43480Y-82990D01*
X43610Y-82700D01*
X43640Y-82370D01*
X43580Y-82030D01*
X43450Y-81820D01*
X43260Y-81660D01*
X43080Y-81620D01*
X42890Y-81660D01*
X42650Y-81820D01*
X42730Y-80740D01*
X43450D01*
G01X44580D02*
X45250Y-83240D01*
X45920Y-80740D01*
G01X51550Y21560D02*
Y24560D01*
X43550D01*
Y21560D01*
X51550D01*
G01X47250Y22260D02*
Y23860D01*
G01X47850Y22260D02*
Y23860D01*
G01X48120Y49070D02*
X51120D01*
Y57070D01*
X48120D01*
Y49070D01*
G01X42510Y71410D02*
X43040D01*
Y70660D01*
X42880Y70410D01*
X42700Y70240D01*
X42430Y70160D01*
X42160Y70240D01*
X41980Y70410D01*
X41820Y70660D01*
X41710Y70950D01*
X41660Y71280D01*
Y71580D01*
X41710Y71830D01*
X41820Y72120D01*
X41980Y72370D01*
X42140Y72530D01*
X42350Y72660D01*
X42540D01*
X42750Y72580D01*
X42910Y72410D01*
G01X43940Y70160D02*
Y72660D01*
X45160Y70160D01*
Y72660D01*
G01X46160Y70160D02*
Y72660D01*
X46700D01*
X46910Y72530D01*
X47070Y72370D01*
X47200Y72120D01*
X47310Y71830D01*
X47340Y71410D01*
X47310Y70990D01*
X47200Y70700D01*
X47070Y70450D01*
X46910Y70280D01*
X46700Y70160D01*
X46160D01*
G01X33010Y70470D02*
X33170Y70270D01*
X33360Y70140D01*
X33600Y70100D01*
X33840Y70180D01*
X34030Y70350D01*
X34160Y70640D01*
X34190Y70970D01*
X34130Y71310D01*
X34000Y71520D01*
X33810Y71680D01*
X33630Y71720D01*
X33440Y71680D01*
X33200Y71520D01*
X33280Y72600D01*
X34000D01*
G01X35130D02*
X35800Y70100D01*
X36470Y72600D01*
G01X43490Y68460D02*
X47160Y65680D01*
G01X47830Y67070D02*
X42830D01*
G01X43490Y65680D02*
X47160Y68460D01*
G01X45330Y68970D02*
Y65170D01*
G01X51120Y65070D02*
X48120D01*
Y57070D01*
X51120D01*
Y65070D01*
G01X59800Y-82510D02*
X60500D01*
G01X62350Y-83340D02*
Y-80840D01*
X62030Y-81340D01*
G01Y-83340D02*
X62670D01*
G01X64040Y-81260D02*
X64200Y-81010D01*
X64390Y-80880D01*
X64600Y-80840D01*
X64870Y-80920D01*
X65060Y-81130D01*
X65110Y-81380D01*
X65080Y-81630D01*
X64980Y-81840D01*
X64440Y-82260D01*
X64200Y-82550D01*
X64040Y-82970D01*
X63990Y-83340D01*
X65110D01*
G01X66080Y-80840D02*
X66750Y-83340D01*
X67420Y-80840D01*
G01X49760Y-82610D02*
X50400D01*
G01X50050Y-82060D02*
Y-83150D01*
G01X52250Y-83440D02*
Y-80940D01*
X51930Y-81440D01*
G01Y-83440D02*
X52570D01*
G01X53940Y-81360D02*
X54100Y-81110D01*
X54290Y-80980D01*
X54500Y-80940D01*
X54770Y-81020D01*
X54960Y-81230D01*
X55010Y-81480D01*
X54980Y-81730D01*
X54880Y-81940D01*
X54340Y-82360D01*
X54100Y-82650D01*
X53940Y-83070D01*
X53890Y-83440D01*
X55010D01*
G01X55980Y-80940D02*
X56650Y-83440D01*
X57320Y-80940D01*
G01X55820Y-46510D02*
Y-49510D01*
X63820D01*
Y-46510D01*
X55820D01*
G01X60120Y-47210D02*
Y-48810D01*
G01X59520Y-47210D02*
Y-48810D01*
G01X50520Y-44490D02*
X53520D01*
Y-36490D01*
X50520D01*
Y-44490D01*
G01X51220Y-40190D02*
X52820D01*
G01X51220Y-40790D02*
X52820D01*
G01X60070Y-18730D02*
Y-21730D01*
X68070D01*
Y-18730D01*
X60070D01*
G01X64370Y-19430D02*
Y-21030D01*
G01X63770Y-19430D02*
Y-21030D01*
G01X48820Y53370D02*
X50420D01*
G01X48820Y52770D02*
X50420D01*
G01X50510Y70600D02*
X50670Y70310D01*
X50890Y70140D01*
X51130Y70100D01*
X51340Y70140D01*
X51550Y70350D01*
X51690Y70600D01*
X51710Y70850D01*
X51660Y71140D01*
X51470Y71350D01*
X51290Y71430D01*
X51050D01*
G01X51290D02*
X51450Y71560D01*
X51580Y71770D01*
X51630Y72020D01*
X51580Y72270D01*
X51450Y72470D01*
X51210Y72600D01*
X50970Y72560D01*
X50730Y72390D01*
G01X53300Y70020D02*
X53250Y70060D01*
Y70140D01*
X53300Y70180D01*
X53350Y70140D01*
Y70060D01*
X53300Y70020D01*
G01X54910Y70600D02*
X55070Y70310D01*
X55290Y70140D01*
X55530Y70100D01*
X55740Y70140D01*
X55950Y70350D01*
X56090Y70600D01*
X56110Y70850D01*
X56060Y71140D01*
X55870Y71350D01*
X55690Y71430D01*
X55450D01*
G01X55690D02*
X55850Y71560D01*
X55980Y71770D01*
X56030Y72020D01*
X55980Y72270D01*
X55850Y72470D01*
X55610Y72600D01*
X55370Y72560D01*
X55130Y72390D01*
G01X57030Y72600D02*
X57700Y70100D01*
X58370Y72600D01*
G01X63700D02*
Y70100D01*
G01X63090Y72600D02*
X64310D01*
G01X65340Y70100D02*
X66460Y72600D01*
G01X65340D02*
X66460Y70100D01*
G01X50420Y60770D02*
X48820D01*
G01X50420Y61370D02*
X48820D01*
G01X80290Y-83210D02*
X80500Y-83420D01*
X80740Y-83540D01*
X80960D01*
X81170Y-83420D01*
X81330Y-83210D01*
X81410Y-82910D01*
X81360Y-82620D01*
X81220Y-82370D01*
X80980Y-82210D01*
X80660Y-82120D01*
X80480Y-81960D01*
X80400Y-81670D01*
X80450Y-81370D01*
X80580Y-81170D01*
X80770Y-81040D01*
X80960D01*
X81140Y-81120D01*
X81300Y-81330D01*
G01X83640Y-81250D02*
X83480Y-81120D01*
X83290Y-81040D01*
X83080D01*
X82840Y-81170D01*
X82650Y-81370D01*
X82520Y-81620D01*
X82410Y-82040D01*
X82380Y-82420D01*
X82440Y-82790D01*
X82520Y-83040D01*
X82680Y-83290D01*
X82860Y-83460D01*
X83050Y-83540D01*
X83240D01*
X83420Y-83460D01*
X83580Y-83330D01*
X83720Y-83170D01*
G01X84720Y-81040D02*
Y-83540D01*
X85780D01*
G01X86860D02*
Y-81040D01*
G01X87880D02*
X86860Y-82580D01*
G01X88040Y-83540D02*
X87320Y-81870D01*
G01X71490Y-83310D02*
X71700Y-83520D01*
X71940Y-83640D01*
X72160D01*
X72370Y-83520D01*
X72530Y-83310D01*
X72610Y-83010D01*
X72560Y-82720D01*
X72420Y-82470D01*
X72180Y-82310D01*
X71860Y-82220D01*
X71680Y-82060D01*
X71600Y-81770D01*
X71650Y-81470D01*
X71780Y-81270D01*
X71970Y-81140D01*
X72160D01*
X72340Y-81220D01*
X72500Y-81430D01*
G01X73930Y-81140D02*
X74570D01*
G01X74250D02*
Y-83640D01*
G01X73930D02*
X74570D01*
G01X75840D02*
Y-81140D01*
X77060Y-83640D01*
Y-81140D01*
G01X84720Y-35880D02*
Y-32880D01*
X76720D01*
Y-35880D01*
X84720D01*
G01X80420Y-35180D02*
Y-33580D01*
G01X81020Y-35180D02*
Y-33580D01*
G01X84720Y-42630D02*
Y-39630D01*
X76720D01*
Y-42630D01*
X84720D01*
G01X80420Y-41930D02*
Y-40330D01*
G01X81020Y-41930D02*
Y-40330D01*
G01X84720Y-39630D02*
Y-36630D01*
X76720D01*
Y-39630D01*
X84720D01*
G01X80420Y-38930D02*
Y-37330D01*
G01X81020Y-38930D02*
Y-37330D01*
G01X68140Y-21730D02*
X71140D01*
Y-13730D01*
X68140D01*
Y-21730D01*
G01X68840Y-17430D02*
X70440D01*
G01X68840Y-18030D02*
X70440D01*
G01X84720Y-29130D02*
Y-26130D01*
X76720D01*
Y-29130D01*
X84720D01*
G01X80420Y-28430D02*
Y-26830D01*
G01X81020Y-28430D02*
Y-26830D01*
G01X74140Y-13730D02*
X71140D01*
Y-21730D01*
X74140D01*
Y-13730D01*
G01X73440Y-18030D02*
X71840D01*
G01X73440Y-17430D02*
X71840D01*
G01X74090Y72790D02*
X73930Y72920D01*
X73740Y73000D01*
X73530D01*
X73290Y72870D01*
X73100Y72670D01*
X72970Y72420D01*
X72860Y72000D01*
X72830Y71620D01*
X72890Y71250D01*
X72970Y71000D01*
X73130Y70750D01*
X73310Y70580D01*
X73500Y70500D01*
X73690D01*
X73870Y70580D01*
X74030Y70710D01*
X74170Y70870D01*
G01X75140Y70830D02*
X75350Y70620D01*
X75590Y70500D01*
X75810D01*
X76020Y70620D01*
X76180Y70830D01*
X76260Y71130D01*
X76210Y71420D01*
X76070Y71670D01*
X75830Y71830D01*
X75510Y71920D01*
X75330Y72080D01*
X75250Y72370D01*
X75300Y72670D01*
X75430Y72870D01*
X75620Y73000D01*
X75810D01*
X75990Y72920D01*
X76150Y72710D01*
G01X91120Y-83440D02*
Y-80940D01*
X91760D01*
X91970Y-81070D01*
X92130Y-81360D01*
X92180Y-81690D01*
X92130Y-82020D01*
X92000Y-82270D01*
X91760Y-82400D01*
X91120D01*
G01X94440Y-81150D02*
X94280Y-81020D01*
X94090Y-80940D01*
X93880D01*
X93640Y-81070D01*
X93450Y-81270D01*
X93320Y-81520D01*
X93210Y-81940D01*
X93180Y-82320D01*
X93240Y-82690D01*
X93320Y-82940D01*
X93480Y-83190D01*
X93660Y-83360D01*
X93850Y-83440D01*
X94040D01*
X94220Y-83360D01*
X94380Y-83230D01*
X94520Y-83070D01*
G01X95520Y-80940D02*
Y-83440D01*
X96580D01*
G01X97660D02*
Y-80940D01*
G01X98680D02*
X97660Y-82480D01*
G01X98840Y-83440D02*
X98120Y-81770D01*
G01X92200Y9800D02*
Y12800D01*
X84200D01*
Y9800D01*
X92200D01*
G01X87900Y10500D02*
Y12100D01*
G01X88500Y10500D02*
Y12100D01*
G01X99670Y14020D02*
X96670D01*
Y6020D01*
X99670D01*
Y14020D01*
G01X98970Y9720D02*
X97370D01*
G01X98970Y10320D02*
X97370D01*
G01X82910Y70300D02*
Y72800D01*
X83450D01*
X83660Y72670D01*
X83820Y72510D01*
X83950Y72260D01*
X84060Y71970D01*
X84090Y71550D01*
X84060Y71130D01*
X83950Y70840D01*
X83820Y70590D01*
X83660Y70420D01*
X83450Y70300D01*
X82910D01*
G01X85380Y72800D02*
X86020D01*
G01X85700D02*
Y70300D01*
G01X85380D02*
X86020D01*
G01X93110D02*
Y72800D01*
X93650D01*
X93860Y72670D01*
X94020Y72510D01*
X94150Y72260D01*
X94260Y71970D01*
X94290Y71550D01*
X94260Y71130D01*
X94150Y70840D01*
X94020Y70590D01*
X93860Y70420D01*
X93650Y70300D01*
X93110D01*
G01X95900D02*
X95690Y70340D01*
X95500Y70510D01*
X95340Y70760D01*
X95230Y71050D01*
X95180Y71380D01*
Y71720D01*
X95230Y72050D01*
X95340Y72340D01*
X95500Y72590D01*
X95690Y72760D01*
X95900Y72800D01*
X96110Y72760D01*
X96300Y72590D01*
X96460Y72340D01*
X96570Y72050D01*
X96620Y71720D01*
Y71380D01*
X96570Y71050D01*
X96460Y70760D01*
X96300Y70510D01*
X96110Y70340D01*
X95900Y70300D01*
G01X112050Y-83540D02*
Y-82420D01*
X111520Y-81040D01*
G01X112580D02*
X112050Y-82420D01*
G01X114250Y-83540D02*
Y-81040D01*
X113930Y-81540D01*
G01Y-83540D02*
X114570D01*
G01X115860Y-83170D02*
X116020Y-83370D01*
X116210Y-83500D01*
X116450Y-83540D01*
X116690Y-83460D01*
X116880Y-83290D01*
X117010Y-83000D01*
X117040Y-82670D01*
X116980Y-82330D01*
X116850Y-82120D01*
X116660Y-81960D01*
X116480Y-81920D01*
X116290Y-81960D01*
X116050Y-82120D01*
X116130Y-81040D01*
X116850D01*
G01X100890Y-83110D02*
X101100Y-83320D01*
X101340Y-83440D01*
X101560D01*
X101770Y-83320D01*
X101930Y-83110D01*
X102010Y-82810D01*
X101960Y-82520D01*
X101820Y-82270D01*
X101580Y-82110D01*
X101260Y-82020D01*
X101080Y-81860D01*
X101000Y-81570D01*
X101050Y-81270D01*
X101180Y-81070D01*
X101370Y-80940D01*
X101560D01*
X101740Y-81020D01*
X101900Y-81230D01*
G01X103650Y-83440D02*
X103440Y-83400D01*
X103250Y-83230D01*
X103090Y-82980D01*
X102980Y-82690D01*
X102930Y-82360D01*
Y-82020D01*
X102980Y-81690D01*
X103090Y-81400D01*
X103250Y-81150D01*
X103440Y-80980D01*
X103650Y-80940D01*
X103860Y-80980D01*
X104050Y-81150D01*
X104210Y-81400D01*
X104320Y-81690D01*
X104370Y-82020D01*
Y-82360D01*
X104320Y-82690D01*
X104210Y-82980D01*
X104050Y-83230D01*
X103860Y-83400D01*
X103650Y-83440D01*
G01X105260Y-80940D02*
Y-82730D01*
X105370Y-83110D01*
X105580Y-83360D01*
X105850Y-83440D01*
X106120Y-83360D01*
X106330Y-83110D01*
X106440Y-82730D01*
Y-80940D01*
G01X108050D02*
Y-83440D01*
G01X107440Y-80940D02*
X108660D01*
G01X113920Y-40250D02*
X110250Y-37470D01*
G01X109580Y-38860D02*
X114580D01*
G01X113920Y-37470D02*
X110250Y-40250D01*
G01X112080Y-40760D02*
Y-36960D01*
G01X113050Y260D02*
Y1380D01*
X112520Y2760D01*
G01X113580D02*
X113050Y1380D01*
G01X115200Y260D02*
X115250Y800D01*
X115330Y1260D01*
X115440Y1680D01*
X115570Y2130D01*
X115780Y2760D01*
X114720D01*
G01X102670Y14020D02*
X99670D01*
Y6020D01*
X102670D01*
Y14020D01*
G01X101970Y9720D02*
X100370D01*
G01X101970Y10320D02*
X100370D01*
G01X117990Y24920D02*
X114990D01*
Y16920D01*
X117990D01*
Y24920D01*
G01X108990D02*
X105990D01*
Y16920D01*
X108990D01*
Y24920D01*
G01X114990D02*
X111990D01*
Y16920D01*
X114990D01*
Y24920D01*
G01X117290Y20620D02*
X115690D01*
G01X117290Y21220D02*
X115690D01*
G01X108290Y20620D02*
X106690D01*
G01X108290Y21220D02*
X106690D01*
G01X114290Y20620D02*
X112690D01*
G01X114290Y21220D02*
X112690D01*
G01X117900Y48600D02*
X114900D01*
Y40600D01*
X117900D01*
Y48600D01*
G01X117200Y44300D02*
X115600D01*
G01X117200Y44900D02*
X115600D01*
G01X104040Y41300D02*
Y38300D01*
X112040D01*
Y41300D01*
X104040D01*
G01X108340Y40600D02*
Y39000D01*
G01X107740Y40600D02*
Y39000D01*
G01X104040Y44300D02*
Y41300D01*
X112040D01*
Y44300D01*
X104040D01*
G01X108340Y43600D02*
Y42000D01*
G01X107740Y43600D02*
Y42000D01*
G01X103090Y72290D02*
X102930Y72420D01*
X102740Y72500D01*
X102530D01*
X102290Y72370D01*
X102100Y72170D01*
X101970Y71920D01*
X101860Y71500D01*
X101830Y71120D01*
X101890Y70750D01*
X101970Y70500D01*
X102130Y70250D01*
X102310Y70080D01*
X102500Y70000D01*
X102690D01*
X102870Y70080D01*
X103030Y70210D01*
X103170Y70370D01*
G01X104170Y72500D02*
Y70000D01*
X105230D01*
G01X106310D02*
Y72500D01*
G01X107330D02*
X106310Y70960D01*
G01X107490Y70000D02*
X106770Y71670D01*
G01X110880Y72960D02*
X111550Y70460D01*
X112220Y72960D01*
G01X113080Y70460D02*
X113750Y72960D01*
X114420Y70460D01*
G01X114180Y71330D02*
X113320D01*
G01X115360Y70460D02*
Y72960D01*
X115900D01*
X116110Y72830D01*
X116270Y72670D01*
X116400Y72420D01*
X116510Y72130D01*
X116540Y71710D01*
X116510Y71290D01*
X116400Y71000D01*
X116270Y70750D01*
X116110Y70580D01*
X115900Y70460D01*
X115360D01*
G01X117620Y70960D02*
X117750Y70710D01*
X117910Y70540D01*
X118100Y70460D01*
X118310Y70540D01*
X118470Y70710D01*
X118630Y70960D01*
X118680Y71290D01*
Y72960D01*
G01X131650Y-83340D02*
Y-82220D01*
X131120Y-80840D01*
G01X132180D02*
X131650Y-82220D01*
G01X133850Y-83340D02*
Y-80840D01*
X133530Y-81340D01*
G01Y-83340D02*
X134170D01*
G01X135460Y-82840D02*
X135620Y-83130D01*
X135840Y-83300D01*
X136080Y-83340D01*
X136290Y-83300D01*
X136500Y-83090D01*
X136640Y-82840D01*
X136660Y-82590D01*
X136610Y-82300D01*
X136420Y-82090D01*
X136240Y-82010D01*
X136000D01*
G01X136240D02*
X136400Y-81880D01*
X136530Y-81670D01*
X136580Y-81420D01*
X136530Y-81170D01*
X136400Y-80970D01*
X136160Y-80840D01*
X135920Y-80880D01*
X135680Y-81050D01*
G01X121850Y-83540D02*
Y-82420D01*
X121320Y-81040D01*
G01X122380D02*
X121850Y-82420D01*
G01X124050Y-83540D02*
Y-81040D01*
X123730Y-81540D01*
G01Y-83540D02*
X124370D01*
G01X126570D02*
Y-81040D01*
X125580Y-82830D01*
X126920D01*
G01X123050Y260D02*
Y1380D01*
X122520Y2760D01*
G01X123580D02*
X123050Y1380D01*
G01X124740Y1300D02*
X124930Y1590D01*
X125090Y1760D01*
X125300Y1840D01*
X125490Y1760D01*
X125620Y1590D01*
X125730Y1340D01*
X125760Y1050D01*
X125730Y800D01*
X125620Y550D01*
X125460Y340D01*
X125280Y260D01*
X125060Y340D01*
X124880Y590D01*
X124770Y970D01*
X124740Y1380D01*
X124800Y1930D01*
X124880Y2220D01*
X125010Y2510D01*
X125200Y2720D01*
X125380Y2760D01*
X125570Y2680D01*
X125700Y2470D01*
G01X133050Y260D02*
Y1380D01*
X132520Y2760D01*
G01X133580D02*
X133050Y1380D01*
G01X134660Y630D02*
X134820Y430D01*
X135010Y300D01*
X135250Y260D01*
X135490Y340D01*
X135680Y510D01*
X135810Y800D01*
X135840Y1130D01*
X135780Y1470D01*
X135650Y1680D01*
X135460Y1840D01*
X135280Y1880D01*
X135090Y1840D01*
X134850Y1680D01*
X134930Y2760D01*
X135650D01*
G01X132990Y24920D02*
X129990D01*
Y16920D01*
X132990D01*
Y24920D01*
G01X129990D02*
X126990D01*
Y16920D01*
X129990D01*
Y24920D01*
G01X126990D02*
X123990D01*
Y16920D01*
X126990D01*
Y24920D01*
G01X123990D02*
X120990D01*
Y16920D01*
X123990D01*
Y24920D01*
G01X120990D02*
X117990D01*
Y16920D01*
X120990D01*
Y24920D01*
G01X132290Y20620D02*
X130690D01*
G01X132290Y21220D02*
X130690D01*
G01X129290Y20620D02*
X127690D01*
G01X129290Y21220D02*
X127690D01*
G01X126290Y20620D02*
X124690D01*
G01X126290Y21220D02*
X124690D01*
G01X123290Y20620D02*
X121690D01*
G01X123290Y21220D02*
X121690D01*
G01X120290Y20620D02*
X118690D01*
G01X120290Y21220D02*
X118690D01*
G01X126920Y48190D02*
Y45190D01*
X134920D01*
Y48190D01*
X126920D01*
G01X131220Y47490D02*
Y45890D01*
G01X130620Y47490D02*
Y45890D01*
G01X134900Y38600D02*
Y41600D01*
X126900D01*
Y38600D01*
X134900D01*
G01X130600Y39300D02*
Y40900D01*
G01X131200Y39300D02*
Y40900D01*
G01X118920Y45190D02*
Y42190D01*
X126920D01*
Y45190D01*
X118920D01*
G01X123220Y44490D02*
Y42890D01*
G01X122620Y44490D02*
Y42890D01*
G01X118000Y41300D02*
Y38300D01*
X126000D01*
Y41300D01*
X118000D01*
G01X122300Y40600D02*
Y39000D01*
G01X121700Y40600D02*
Y39000D01*
G01X135040Y51130D02*
X132260Y47460D01*
G01X133650Y46790D02*
Y51790D01*
G01X132260Y51130D02*
X135040Y47460D01*
G01X135550Y49290D02*
X131750D01*
G01X123740Y72750D02*
X123580Y72880D01*
X123390Y72960D01*
X123180D01*
X122940Y72830D01*
X122750Y72630D01*
X122620Y72380D01*
X122510Y71960D01*
X122480Y71580D01*
X122540Y71210D01*
X122620Y70960D01*
X122780Y70710D01*
X122960Y70540D01*
X123150Y70460D01*
X123340D01*
X123520Y70540D01*
X123680Y70670D01*
X123820Y70830D01*
G01X124900Y70460D02*
Y72960D01*
G01X125750Y72130D02*
X124900Y71170D01*
G01X125240Y71540D02*
X125800Y70460D01*
G01X131920Y70560D02*
Y73060D01*
X132580D01*
X132800Y72930D01*
X132930Y72770D01*
X132980Y72430D01*
X132930Y72100D01*
X132770Y71890D01*
X132580Y71770D01*
X131920D01*
G01X132580D02*
X132980Y70560D01*
G01X134090D02*
X135210Y73060D01*
G01X134090D02*
X135210Y70560D01*
G01X136340Y72640D02*
X136500Y72890D01*
X136690Y73020D01*
X136900Y73060D01*
X137170Y72980D01*
X137360Y72770D01*
X137410Y72520D01*
X137380Y72270D01*
X137280Y72060D01*
X136740Y71640D01*
X136500Y71350D01*
X136340Y70930D01*
X136290Y70560D01*
X137410D01*
G01X142250Y-83340D02*
Y-82220D01*
X141720Y-80840D01*
G01X142780D02*
X142250Y-82220D01*
G01X144450Y-83340D02*
Y-80840D01*
X144130Y-81340D01*
G01Y-83340D02*
X144770D01*
G01X146140Y-81260D02*
X146300Y-81010D01*
X146490Y-80880D01*
X146700Y-80840D01*
X146970Y-80920D01*
X147160Y-81130D01*
X147210Y-81380D01*
X147180Y-81630D01*
X147080Y-81840D01*
X146540Y-82260D01*
X146300Y-82550D01*
X146140Y-82970D01*
X146090Y-83340D01*
X147210D01*
G01X143050Y260D02*
Y1380D01*
X142520Y2760D01*
G01X143580D02*
X143050Y1380D01*
G01X145570Y260D02*
Y2760D01*
X144580Y970D01*
X145920D01*
G01X147900Y15800D02*
Y12800D01*
X155900D01*
Y15800D01*
X147900D01*
G01X144900Y60250D02*
X141900D01*
Y52250D01*
X144900D01*
Y60250D01*
G01X134920Y48190D02*
Y45190D01*
X142920D01*
Y48190D01*
X134920D01*
G01X139220Y47490D02*
Y45890D01*
G01X138620Y47490D02*
Y45890D01*
G01X134920Y45190D02*
Y42190D01*
X142920D01*
Y45190D01*
X134920D01*
G01X139220Y44490D02*
Y42890D01*
G01X138620Y44490D02*
Y42890D01*
G01X142550Y72860D02*
Y70360D01*
G01X141940Y72860D02*
X143160D01*
G01X144190Y70360D02*
X145310Y72860D01*
G01X144190D02*
X145310Y70360D01*
G01X146440Y72440D02*
X146600Y72690D01*
X146790Y72820D01*
X147000Y72860D01*
X147270Y72780D01*
X147460Y72570D01*
X147510Y72320D01*
X147480Y72070D01*
X147380Y71860D01*
X146840Y71440D01*
X146600Y71150D01*
X146440Y70730D01*
X146390Y70360D01*
X147510D01*
G01X150800D02*
X150850Y70900D01*
X150930Y71360D01*
X151040Y71780D01*
X151170Y72230D01*
X151380Y72860D01*
X150320D01*
G01X152520Y70360D02*
Y72860D01*
X153180D01*
X153400Y72730D01*
X153530Y72570D01*
X153580Y72230D01*
X153530Y71900D01*
X153370Y71690D01*
X153180Y71570D01*
X152520D01*
G01X153180D02*
X153580Y70360D01*
G01X154690Y70690D02*
X154900Y70480D01*
X155140Y70360D01*
X155360D01*
X155570Y70480D01*
X155730Y70690D01*
X155810Y70990D01*
X155760Y71280D01*
X155620Y71530D01*
X155380Y71690D01*
X155060Y71780D01*
X154880Y71940D01*
X154800Y72230D01*
X154850Y72530D01*
X154980Y72730D01*
X155170Y72860D01*
X155360D01*
X155540Y72780D01*
X155700Y72570D01*
G01X157450Y72860D02*
Y70360D01*
G01X156840Y72860D02*
X158060D01*
G01X144200Y55950D02*
X142600D01*
G01X144200Y56550D02*
X142600D01*
G01X141900Y60250D02*
X144900D01*
Y68250D01*
X141900D01*
Y60250D01*
G01X142600Y64550D02*
X144200D01*
G01X142600Y63950D02*
X144200D01*
G01X147900Y60250D02*
X150900D01*
Y68250D01*
X147900D01*
Y60250D01*
G01X148600Y64550D02*
X150200D01*
G01X148600Y63950D02*
X150200D01*
G01X162250Y-83340D02*
Y-82220D01*
X161720Y-80840D01*
G01X162780D02*
X162250Y-82220D01*
G01X164450Y-83340D02*
Y-80840D01*
X164130Y-81340D01*
G01Y-83340D02*
X164770D01*
G01X166650Y-80840D02*
X166440Y-80920D01*
X166280Y-81130D01*
X166170Y-81380D01*
X166090Y-81720D01*
X166060Y-82090D01*
X166090Y-82470D01*
X166170Y-82800D01*
X166280Y-83050D01*
X166440Y-83260D01*
X166650Y-83340D01*
X166860Y-83260D01*
X167020Y-83050D01*
X167130Y-82800D01*
X167210Y-82470D01*
X167240Y-82090D01*
X167210Y-81720D01*
X167130Y-81380D01*
X167020Y-81130D01*
X166860Y-80920D01*
X166650Y-80840D01*
G01X152250Y-83340D02*
Y-82220D01*
X151720Y-80840D01*
G01X152780D02*
X152250Y-82220D01*
G01X154450Y-83340D02*
Y-80840D01*
X154130Y-81340D01*
G01Y-83340D02*
X154770D01*
G01X156650D02*
Y-80840D01*
X156330Y-81340D01*
G01Y-83340D02*
X156970D01*
G01X153050Y260D02*
Y1380D01*
X152520Y2760D01*
G01X153580D02*
X153050Y1380D01*
G01X154660Y760D02*
X154820Y470D01*
X155040Y300D01*
X155280Y260D01*
X155490Y300D01*
X155700Y510D01*
X155840Y760D01*
X155860Y1010D01*
X155810Y1300D01*
X155620Y1510D01*
X155440Y1590D01*
X155200D01*
G01X155440D02*
X155600Y1720D01*
X155730Y1930D01*
X155780Y2180D01*
X155730Y2430D01*
X155600Y2630D01*
X155360Y2760D01*
X155120Y2720D01*
X154880Y2550D01*
G01X163050Y260D02*
Y1380D01*
X162520Y2760D01*
G01X163580D02*
X163050Y1380D01*
G01X164740Y2340D02*
X164900Y2590D01*
X165090Y2720D01*
X165300Y2760D01*
X165570Y2680D01*
X165760Y2470D01*
X165810Y2220D01*
X165780Y1970D01*
X165680Y1760D01*
X165140Y1340D01*
X164900Y1050D01*
X164740Y630D01*
X164690Y260D01*
X165810D01*
G01X152200Y15100D02*
Y13500D01*
G01X151600Y15100D02*
Y13500D01*
G01X163900Y12800D02*
Y15800D01*
X155900D01*
Y12800D01*
X163900D01*
G01X159600Y13500D02*
Y15100D01*
G01X160200Y13500D02*
Y15100D01*
G01X163900Y15800D02*
Y12800D01*
X171900D01*
Y15800D01*
X163900D01*
G01X162500Y72800D02*
Y70300D01*
G01X161890Y72800D02*
X163110D01*
G01X164140Y70300D02*
X165260Y72800D01*
G01X164140D02*
X165260Y70300D01*
G01X166310Y70670D02*
X166470Y70470D01*
X166660Y70340D01*
X166900Y70300D01*
X167140Y70380D01*
X167330Y70550D01*
X167460Y70840D01*
X167490Y71170D01*
X167430Y71510D01*
X167300Y71720D01*
X167110Y71880D01*
X166930Y71920D01*
X166740Y71880D01*
X166500Y71720D01*
X166580Y72800D01*
X167300D01*
G01X182250Y-83340D02*
Y-82220D01*
X181720Y-80840D01*
G01X182780D02*
X182250Y-82220D01*
G01X184450Y-83340D02*
X184640Y-83300D01*
X184850Y-83170D01*
X184980Y-82970D01*
X185040Y-82670D01*
X184980Y-82380D01*
X184820Y-82130D01*
X184580Y-82010D01*
X184320D01*
X184160Y-81920D01*
X184020Y-81720D01*
X183970Y-81420D01*
X184050Y-81130D01*
X184240Y-80920D01*
X184450Y-80840D01*
X184660Y-80920D01*
X184850Y-81130D01*
X184930Y-81420D01*
X184880Y-81720D01*
X184740Y-81920D01*
X184580Y-82010D01*
X184320D01*
X184080Y-82130D01*
X183920Y-82380D01*
X183860Y-82670D01*
X183920Y-82970D01*
X184050Y-83170D01*
X184260Y-83300D01*
X184450Y-83340D01*
G01X172250D02*
Y-82220D01*
X171720Y-80840D01*
G01X172780D02*
X172250Y-82220D01*
G01X174000Y-83050D02*
X174180Y-83260D01*
X174400Y-83340D01*
X174610Y-83260D01*
X174800Y-83010D01*
X174930Y-82630D01*
X174980Y-82260D01*
Y-81800D01*
X174930Y-81420D01*
X174800Y-81090D01*
X174640Y-80920D01*
X174450Y-80840D01*
X174240Y-80920D01*
X174080Y-81090D01*
X173970Y-81340D01*
X173920Y-81670D01*
X173970Y-81960D01*
X174100Y-82260D01*
X174260Y-82420D01*
X174450Y-82470D01*
X174660Y-82380D01*
X174820Y-82170D01*
X174980Y-81800D01*
G01X173050Y260D02*
Y1380D01*
X172520Y2760D01*
G01X173580D02*
X173050Y1380D01*
G01X175250Y260D02*
Y2760D01*
X174930Y2260D01*
G01Y260D02*
X175570D01*
G01X183050D02*
Y1380D01*
X182520Y2760D01*
G01X183580D02*
X183050Y1380D01*
G01X185250Y2760D02*
X185040Y2680D01*
X184880Y2470D01*
X184770Y2220D01*
X184690Y1880D01*
X184660Y1510D01*
X184690Y1130D01*
X184770Y800D01*
X184880Y550D01*
X185040Y340D01*
X185250Y260D01*
X185460Y340D01*
X185620Y550D01*
X185730Y800D01*
X185810Y1130D01*
X185840Y1510D01*
X185810Y1880D01*
X185730Y2220D01*
X185620Y2470D01*
X185460Y2680D01*
X185250Y2760D01*
G01X171900Y15800D02*
Y12800D01*
X179900D01*
Y15800D01*
X171900D01*
G01X176200Y15100D02*
Y13500D01*
G01X175600Y15100D02*
Y13500D01*
G01X168200Y15100D02*
Y13500D01*
G01X167600Y15100D02*
Y13500D01*
G01X172270Y70200D02*
Y72700D01*
X172930D01*
X173150Y72570D01*
X173280Y72410D01*
X173330Y72070D01*
X173280Y71740D01*
X173120Y71530D01*
X172930Y71410D01*
X172270D01*
G01X172930D02*
X173330Y70200D01*
G01X174440D02*
X175560Y72700D01*
G01X174440D02*
X175560Y70200D01*
G01X176610Y70570D02*
X176770Y70370D01*
X176960Y70240D01*
X177200Y70200D01*
X177440Y70280D01*
X177630Y70450D01*
X177760Y70740D01*
X177790Y71070D01*
X177730Y71410D01*
X177600Y71620D01*
X177410Y71780D01*
X177230Y71820D01*
X177040Y71780D01*
X176800Y71620D01*
X176880Y72700D01*
X177600D01*
G01X183660Y70160D02*
Y72660D01*
X184200D01*
X184410Y72530D01*
X184570Y72370D01*
X184700Y72120D01*
X184810Y71830D01*
X184840Y71410D01*
X184810Y70990D01*
X184700Y70700D01*
X184570Y70450D01*
X184410Y70280D01*
X184200Y70160D01*
X183660D01*
G01X185920D02*
Y72660D01*
X186560D01*
X186770Y72530D01*
X186930Y72240D01*
X186980Y71910D01*
X186930Y71580D01*
X186800Y71330D01*
X186560Y71200D01*
X185920D01*
G01X192410Y-81890D02*
X192940D01*
Y-82640D01*
X192780Y-82890D01*
X192600Y-83060D01*
X192330Y-83140D01*
X192060Y-83060D01*
X191880Y-82890D01*
X191720Y-82640D01*
X191610Y-82350D01*
X191560Y-82020D01*
Y-81720D01*
X191610Y-81470D01*
X191720Y-81180D01*
X191880Y-80930D01*
X192040Y-80770D01*
X192250Y-80640D01*
X192440D01*
X192650Y-80720D01*
X192810Y-80890D01*
G01X193840Y-83140D02*
Y-80640D01*
X195060Y-83140D01*
Y-80640D01*
G01X196060Y-83140D02*
Y-80640D01*
X196600D01*
X196810Y-80770D01*
X196970Y-80930D01*
X197100Y-81180D01*
X197210Y-81470D01*
X197240Y-81890D01*
X197210Y-82310D01*
X197100Y-82600D01*
X196970Y-82850D01*
X196810Y-83020D01*
X196600Y-83140D01*
X196060D01*
G01X199590Y-53540D02*
X200710Y-51040D01*
G01X199590D02*
X200710Y-53540D01*
G01X202350D02*
Y-51040D01*
X202030Y-51540D01*
G01Y-53540D02*
X202670D01*
G01X192690Y-53740D02*
X193810Y-51240D01*
G01X192690D02*
X193810Y-53740D01*
G01X195450Y-51240D02*
X195240Y-51320D01*
X195080Y-51530D01*
X194970Y-51780D01*
X194890Y-52120D01*
X194860Y-52490D01*
X194890Y-52870D01*
X194970Y-53200D01*
X195080Y-53450D01*
X195240Y-53660D01*
X195450Y-53740D01*
X195660Y-53660D01*
X195820Y-53450D01*
X195930Y-53200D01*
X196010Y-52870D01*
X196040Y-52490D01*
X196010Y-52120D01*
X195930Y-51780D01*
X195820Y-51530D01*
X195660Y-51320D01*
X195450Y-51240D01*
G01X191290Y-45340D02*
X192410Y-42840D01*
G01X191290D02*
X192410Y-45340D01*
G01X193540Y-43260D02*
X193700Y-43010D01*
X193890Y-42880D01*
X194100Y-42840D01*
X194370Y-42920D01*
X194560Y-43130D01*
X194610Y-43380D01*
X194580Y-43630D01*
X194480Y-43840D01*
X193940Y-44260D01*
X193700Y-44550D01*
X193540Y-44970D01*
X193490Y-45340D01*
X194610D01*
G01X199290D02*
X200410Y-42840D01*
G01X199290D02*
X200410Y-45340D01*
G01X201460Y-44840D02*
X201620Y-45130D01*
X201840Y-45300D01*
X202080Y-45340D01*
X202290Y-45300D01*
X202500Y-45090D01*
X202640Y-44840D01*
X202660Y-44590D01*
X202610Y-44300D01*
X202420Y-44090D01*
X202240Y-44010D01*
X202000D01*
G01X202240D02*
X202400Y-43880D01*
X202530Y-43670D01*
X202580Y-43420D01*
X202530Y-43170D01*
X202400Y-42970D01*
X202160Y-42840D01*
X201920Y-42880D01*
X201680Y-43050D01*
G01X199290Y-35340D02*
X200410Y-32840D01*
G01X199290D02*
X200410Y-35340D01*
G01X201460Y-34970D02*
X201620Y-35170D01*
X201810Y-35300D01*
X202050Y-35340D01*
X202290Y-35260D01*
X202480Y-35090D01*
X202610Y-34800D01*
X202640Y-34470D01*
X202580Y-34130D01*
X202450Y-33920D01*
X202260Y-33760D01*
X202080Y-33720D01*
X201890Y-33760D01*
X201650Y-33920D01*
X201730Y-32840D01*
X202450D01*
G01X191290Y-35340D02*
X192410Y-32840D01*
G01X191290D02*
X192410Y-35340D01*
G01X194370D02*
Y-32840D01*
X193380Y-34630D01*
X194720D01*
G01X199490Y-23140D02*
X200610Y-20640D01*
G01X199490D02*
X200610Y-23140D01*
G01X202200D02*
X202250Y-22600D01*
X202330Y-22140D01*
X202440Y-21720D01*
X202570Y-21270D01*
X202780Y-20640D01*
X201720D01*
G01X191790Y-23240D02*
X192910Y-20740D01*
G01X191790D02*
X192910Y-23240D01*
G01X194040Y-22200D02*
X194230Y-21910D01*
X194390Y-21740D01*
X194600Y-21660D01*
X194790Y-21740D01*
X194920Y-21910D01*
X195030Y-22160D01*
X195060Y-22450D01*
X195030Y-22700D01*
X194920Y-22950D01*
X194760Y-23160D01*
X194580Y-23240D01*
X194360Y-23160D01*
X194180Y-22910D01*
X194070Y-22530D01*
X194040Y-22120D01*
X194100Y-21570D01*
X194180Y-21280D01*
X194310Y-20990D01*
X194500Y-20780D01*
X194680Y-20740D01*
X194870Y-20820D01*
X195000Y-21030D01*
G01X199790Y-12740D02*
X200910Y-10240D01*
G01X199790D02*
X200910Y-12740D01*
G01X202100Y-12450D02*
X202280Y-12660D01*
X202500Y-12740D01*
X202710Y-12660D01*
X202900Y-12410D01*
X203030Y-12030D01*
X203080Y-11660D01*
Y-11200D01*
X203030Y-10820D01*
X202900Y-10490D01*
X202740Y-10320D01*
X202550Y-10240D01*
X202340Y-10320D01*
X202180Y-10490D01*
X202070Y-10740D01*
X202020Y-11070D01*
X202070Y-11360D01*
X202200Y-11660D01*
X202360Y-11820D01*
X202550Y-11870D01*
X202760Y-11780D01*
X202920Y-11570D01*
X203080Y-11200D01*
G01X191390Y-12740D02*
X192510Y-10240D01*
G01X191390D02*
X192510Y-12740D01*
G01X194150D02*
X194340Y-12700D01*
X194550Y-12570D01*
X194680Y-12370D01*
X194740Y-12070D01*
X194680Y-11780D01*
X194520Y-11530D01*
X194280Y-11410D01*
X194020D01*
X193860Y-11320D01*
X193720Y-11120D01*
X193670Y-10820D01*
X193750Y-10530D01*
X193940Y-10320D01*
X194150Y-10240D01*
X194360Y-10320D01*
X194550Y-10530D01*
X194630Y-10820D01*
X194580Y-11120D01*
X194440Y-11320D01*
X194280Y-11410D01*
X194020D01*
X193780Y-11530D01*
X193620Y-11780D01*
X193560Y-12070D01*
X193620Y-12370D01*
X193750Y-12570D01*
X193960Y-12700D01*
X194150Y-12740D01*
G01X197490Y-2440D02*
X198610Y60D01*
G01X197490D02*
X198610Y-2440D01*
G01X200250D02*
Y60D01*
X199930Y-440D01*
G01Y-2440D02*
X200570D01*
G01X202450D02*
Y60D01*
X202130Y-440D01*
G01Y-2440D02*
X202770D01*
G01X189590Y-2740D02*
X190710Y-240D01*
G01X189590D02*
X190710Y-2740D01*
G01X192350D02*
Y-240D01*
X192030Y-740D01*
G01Y-2740D02*
X192670D01*
G01X194550Y-240D02*
X194340Y-320D01*
X194180Y-530D01*
X194070Y-780D01*
X193990Y-1120D01*
X193960Y-1490D01*
X193990Y-1870D01*
X194070Y-2200D01*
X194180Y-2450D01*
X194340Y-2660D01*
X194550Y-2740D01*
X194760Y-2660D01*
X194920Y-2450D01*
X195030Y-2200D01*
X195110Y-1870D01*
X195140Y-1490D01*
X195110Y-1120D01*
X195030Y-780D01*
X194920Y-530D01*
X194760Y-320D01*
X194550Y-240D01*
G01X196890Y7060D02*
X198010Y9560D01*
G01X196890D02*
X198010Y7060D01*
G01X199650D02*
Y9560D01*
X199330Y9060D01*
G01Y7060D02*
X199970D01*
G01X201260Y7560D02*
X201420Y7270D01*
X201640Y7100D01*
X201880Y7060D01*
X202090Y7100D01*
X202300Y7310D01*
X202440Y7560D01*
X202460Y7810D01*
X202410Y8100D01*
X202220Y8310D01*
X202040Y8390D01*
X201800D01*
G01X202040D02*
X202200Y8520D01*
X202330Y8730D01*
X202380Y8980D01*
X202330Y9230D01*
X202200Y9430D01*
X201960Y9560D01*
X201720Y9520D01*
X201480Y9350D01*
G01X188790Y6860D02*
X189910Y9360D01*
G01X188790D02*
X189910Y6860D01*
G01X191550D02*
Y9360D01*
X191230Y8860D01*
G01Y6860D02*
X191870D01*
G01X193240Y8940D02*
X193400Y9190D01*
X193590Y9320D01*
X193800Y9360D01*
X194070Y9280D01*
X194260Y9070D01*
X194310Y8820D01*
X194280Y8570D01*
X194180Y8360D01*
X193640Y7940D01*
X193400Y7650D01*
X193240Y7230D01*
X193190Y6860D01*
X194310D01*
G01X188290Y16860D02*
X189410Y19360D01*
G01X188290D02*
X189410Y16860D01*
G01X191050D02*
Y19360D01*
X190730Y18860D01*
G01Y16860D02*
X191370D01*
G01X193570D02*
Y19360D01*
X192580Y17570D01*
X193920D01*
G01X196090Y16960D02*
X197210Y19460D01*
G01X196090D02*
X197210Y16960D01*
G01X198850D02*
Y19460D01*
X198530Y18960D01*
G01Y16960D02*
X199170D01*
G01X200460Y17330D02*
X200620Y17130D01*
X200810Y17000D01*
X201050Y16960D01*
X201290Y17040D01*
X201480Y17210D01*
X201610Y17500D01*
X201640Y17830D01*
X201580Y18170D01*
X201450Y18380D01*
X201260Y18540D01*
X201080Y18580D01*
X200890Y18540D01*
X200650Y18380D01*
X200730Y19460D01*
X201450D01*
G01X184700Y13500D02*
X187700D01*
Y21500D01*
X184700D01*
Y13500D01*
G01X185400Y17800D02*
X187000D01*
G01X185400Y17200D02*
X187000D01*
G01X187010Y28100D02*
X187170Y27810D01*
X187390Y27640D01*
X187630Y27600D01*
X187840Y27640D01*
X188050Y27850D01*
X188190Y28100D01*
X188210Y28350D01*
X188160Y28640D01*
X187970Y28850D01*
X187790Y28930D01*
X187550D01*
G01X187790D02*
X187950Y29060D01*
X188080Y29270D01*
X188130Y29520D01*
X188080Y29770D01*
X187950Y29970D01*
X187710Y30100D01*
X187470Y30060D01*
X187230Y29890D01*
G01X189000Y26770D02*
X190600D01*
G01X191410Y28100D02*
X191570Y27810D01*
X191790Y27640D01*
X192030Y27600D01*
X192240Y27640D01*
X192450Y27850D01*
X192590Y28100D01*
X192610Y28350D01*
X192560Y28640D01*
X192370Y28850D01*
X192190Y28930D01*
X191950D01*
G01X192190D02*
X192350Y29060D01*
X192480Y29270D01*
X192530Y29520D01*
X192480Y29770D01*
X192350Y29970D01*
X192110Y30100D01*
X191870Y30060D01*
X191630Y29890D01*
G01X193530Y30100D02*
X194200Y27600D01*
X194870Y30100D01*
G01X187430Y25800D02*
X188100Y23300D01*
X188770Y25800D01*
G01X189500Y22470D02*
X191100D01*
G01X192500Y25800D02*
Y23300D01*
G01X191890Y25800D02*
X193110D01*
G01X197810Y29010D02*
X198340D01*
Y28260D01*
X198180Y28010D01*
X198000Y27840D01*
X197730Y27760D01*
X197460Y27840D01*
X197280Y28010D01*
X197120Y28260D01*
X197010Y28550D01*
X196960Y28880D01*
Y29180D01*
X197010Y29430D01*
X197120Y29720D01*
X197280Y29970D01*
X197440Y30130D01*
X197650Y30260D01*
X197840D01*
X198050Y30180D01*
X198210Y30010D01*
G01X199240Y27760D02*
Y30260D01*
X200460Y27760D01*
Y30260D01*
G01X201460Y27760D02*
Y30260D01*
X202000D01*
X202210Y30130D01*
X202370Y29970D01*
X202500Y29720D01*
X202610Y29430D01*
X202640Y29010D01*
X202610Y28590D01*
X202500Y28300D01*
X202370Y28050D01*
X202210Y27880D01*
X202000Y27760D01*
X201460D01*
G01X197510Y24010D02*
X198040D01*
Y23260D01*
X197880Y23010D01*
X197700Y22840D01*
X197430Y22760D01*
X197160Y22840D01*
X196980Y23010D01*
X196820Y23260D01*
X196710Y23550D01*
X196660Y23880D01*
Y24180D01*
X196710Y24430D01*
X196820Y24720D01*
X196980Y24970D01*
X197140Y25130D01*
X197350Y25260D01*
X197540D01*
X197750Y25180D01*
X197910Y25010D01*
G01X198940Y22760D02*
Y25260D01*
X200160Y22760D01*
Y25260D01*
G01X201160Y22760D02*
Y25260D01*
X201700D01*
X201910Y25130D01*
X202070Y24970D01*
X202200Y24720D01*
X202310Y24430D01*
X202340Y24010D01*
X202310Y23590D01*
X202200Y23300D01*
X202070Y23050D01*
X201910Y22880D01*
X201700Y22760D01*
X201160D01*
G01X197870Y34590D02*
Y37590D01*
X189870D01*
Y34590D01*
X197870D01*
G01X193570Y35290D02*
Y36890D01*
G01X194170Y35290D02*
Y36890D01*
G01X197870Y40990D02*
Y43990D01*
X189870D01*
Y40990D01*
X197870D01*
G01X193570Y41690D02*
Y43290D01*
G01X194170Y41690D02*
Y43290D01*
G01X227900Y63000D02*
X197900D01*
Y48000D01*
X227900D01*
Y63000D01*
G01X193560Y70260D02*
Y72760D01*
X194100D01*
X194310Y72630D01*
X194470Y72470D01*
X194600Y72220D01*
X194710Y71930D01*
X194740Y71510D01*
X194710Y71090D01*
X194600Y70800D01*
X194470Y70550D01*
X194310Y70380D01*
X194100Y70260D01*
X193560D01*
G01X195660D02*
Y72760D01*
X196350Y70680D01*
X197040Y72760D01*
Y70260D01*
G01X205400Y65640D02*
Y68640D01*
X197400D01*
Y65640D01*
X205400D01*
G01X197160Y68700D02*
X194160D01*
Y60700D01*
X197160D01*
Y68700D01*
G01X196460Y64400D02*
X194860D01*
G01X196460Y65000D02*
X194860D01*
G01X201100Y66340D02*
Y67940D01*
G01X201700Y66340D02*
Y67940D01*
G01X229850Y57060D02*
Y-74940D01*
G01X227900Y58000D02*
X222900Y63000D01*
G54D12*
G01X5990Y57330D02*
Y52130D01*
G01X2390Y57330D02*
Y52130D01*
G01X5170Y55830D02*
X3190D01*
G01X97550Y-42800D02*
Y-47650D01*
G01D02*
X103450D01*
G01X103550Y-31650D02*
X97550D01*
G01Y-31750D02*
Y-36280D01*
G01Y-9850D02*
Y-14380D01*
G01Y-20900D02*
Y-25750D01*
G01D02*
X103450D01*
G01X103550Y-9750D02*
X97550D01*
G01X103550Y-47650D02*
Y-42800D01*
G01Y-36280D02*
Y-31650D01*
G01Y-14380D02*
Y-9750D01*
G01Y-25750D02*
Y-20900D01*
G54D13*
G01X176400Y61730D02*
X177580D01*
G01Y55830D02*
X176600D01*
X176400Y56020D01*
G54D14*
G01X90Y-69010D02*
X-8890D01*
G01X90Y-63570D02*
X-8890D01*
G01X90Y50690D02*
X-8890D01*
G01X90Y56130D02*
X-8890D01*
G01X15390Y28950D02*
X6410D01*
G01X15390Y23510D02*
X6410D01*
G01X20150D02*
X29130D01*
G01X20150Y28950D02*
X29130D01*
G01X20530Y48110D02*
X29510D01*
G01X20530Y53550D02*
X29510D01*
G01X35550Y33870D02*
X42630D01*
Y27570D01*
G01X35550D02*
X51290D01*
Y40170D01*
X35550D01*
Y27570D01*
G01X80340Y13630D02*
Y22610D01*
G01X97880Y-50110D02*
Y-59090D01*
G01X85780Y13630D02*
Y22610D01*
G01X91760Y13630D02*
Y22610D01*
G01X86320Y13630D02*
Y22610D01*
G01X103320Y-50110D02*
Y-59090D01*
G01X171070Y62040D02*
X163990D01*
Y68340D01*
G01X171070D02*
X155330D01*
Y55740D01*
X171070D01*
Y68340D01*
G54D15*
G01X28360Y-37520D02*
Y-48940D01*
X26000D01*
Y-37520D01*
X28360D01*
G01X26010Y-15870D02*
X32310D01*
G01X26010Y3810D02*
X32310D01*
G01X40640Y-69200D02*
Y-62900D01*
G01X47540Y-13580D02*
X55800D01*
Y-24400D01*
X47540D01*
Y-13580D01*
G01X60320Y-69200D02*
Y-62900D01*
G01X57500Y-42340D02*
X56610D01*
Y-41450D01*
G01Y-27280D02*
Y-24820D01*
X59070D01*
G01X61690Y29160D02*
X61490D01*
X60700Y29950D01*
Y30150D01*
G01X61690Y64600D02*
X60700D01*
Y63610D01*
G01X73110Y-57160D02*
Y-48900D01*
X83930D01*
Y-57160D01*
X73110D01*
G01X73240Y-42340D02*
X74130D01*
Y-41450D01*
G01Y-25710D02*
Y-24820D01*
X73240D01*
G01X95150Y29160D02*
X96140D01*
Y30150D01*
G01X95150Y64600D02*
X96140D01*
Y63610D01*
G01X150490Y22950D02*
X149510D01*
Y23930D01*
G01X150490Y50510D02*
X149510D01*
Y49530D01*
G01X176090Y22950D02*
X177070D01*
Y23930D01*
G01X176090Y50510D02*
X176280D01*
X177070Y49720D01*
Y49530D01*
G54D16*
G01X33180Y-49140D02*
G03I-488J4D01*
G01X59650Y-9930D02*
G03I-500J-5D01*
G01X64150Y25230D02*
G03I-494J-4D01*
G01X69960Y-45550D02*
G03I-495J0D01*
G01X111480Y37610D02*
G03I-487J2D01*
G01X103110Y24430D02*
G03I-487J2D01*
G01X121320Y37610D02*
G03I-487J2D01*
G01X131170D02*
G03I-497J2D01*
G01X144930Y15970D02*
G03I-498J-3D01*
G01X141000Y37610D02*
G03I-487J2D01*
G01X174610Y54450D02*
G03I-493J-3D01*
G54D17*
G01X-7600Y14800D02*
X-5600D01*
X-6500Y15700D01*
X-6700D01*
X-7600Y14800D01*
G01X15100Y34700D02*
Y31600D01*
X16500Y33000D01*
Y33300D01*
X15100Y34700D01*
Y33900D01*
X15900Y33100D01*
G01X51800Y-26200D02*
Y-29400D01*
X52000D01*
X53600Y-27800D01*
X52000Y-26200D01*
X51800D01*
Y-27100D01*
X52600Y-27900D01*
G01X55200Y27100D02*
Y27000D01*
X57900Y24300D01*
Y27400D01*
X55500D01*
X55100Y27000D01*
X55600Y26500D01*
X57300D01*
Y26000D01*
G01X106830Y-39750D02*
X107670Y-38890D01*
G01X106830Y-40450D02*
Y-39750D01*
G01X107110Y-40450D02*
X106830D01*
G01X108590Y-38950D02*
X107110Y-40450D01*
G01X106800Y-37200D02*
X108590Y-38950D01*
G01X106830Y-40450D02*
X106800Y-37200D01*
G01X178800Y53900D02*
X181100Y51600D01*
X178600D01*
Y53700D01*
X178800Y53900D01*
X179300Y53400D01*
Y52200D01*
M02*
