G04 ================== begin FILE IDENTIFICATION RECORD ==================*
G04 Layout Name:  D:/ET_EvilBoard/Layout_V4/EvilSploit_0625A.brd*
G04 Film Name:    TOP_PASTE*
G04 File Format:  Gerber RS274X*
G04 File Origin:  Cadence Allegro 16.6-P004*
G04 Origin Date:  Sun Jun 25 07:11:54 2017*
G04 *
G04 Layer:  VIA CLASS/PASTEMASK_TOP*
G04 Layer:  PIN/PASTEMASK_TOP*
G04 Layer:  PACKAGE GEOMETRY/PASTEMASK_TOP*
G04 Layer:  BOARD GEOMETRY/OUTLINE*
G04 *
G04 Offset:    (0.0 0.0)*
G04 Mirror:    No*
G04 Mode:      Positive*
G04 Rotation:  0*
G04 FullContactRelief:  No*
G04 UndefLineWidth:     6.0*
G04 ================== end FILE IDENTIFICATION RECORD ====================*
%FSLAX25Y25*MOIN*%
%IR0*IPPOS*OFA0.00000B0.00000*MIA0B0*SFA1.00000B1.00000*%
%ADD33O,.0236X.0094*%
%ADD32O,.0094X.0236*%
%ADD24R,.0846X.248*%
%ADD26R,.248X.0846*%
%AMMACRO48*
4,1,45,0.0,-.0248,
.0055,-.0248,
.006696,-.024697,
.007857,-.024389,
.008946,-.023883,
.00993,-.023196,
.010781,-.022349,
.011471,-.021366,
.011981,-.020279,
.012293,-.01912,
.0124,-.017924,
.0124,-.0179,
.0124,.0179,
.012297,.019096,
.011989,.020257,
.011483,.021346,
.010796,.02233,
.009949,.023181,
.008966,.023871,
.007879,.024381,
.00672,.024693,
.005524,.0248,
.0055,.0248,
-.0055,.0248,
-.006696,.024697,
-.007857,.024389,
-.008946,.023883,
-.00993,.023196,
-.010781,.022349,
-.011471,.021366,
-.011981,.020279,
-.012293,.01912,
-.0124,.017924,
-.0124,.0179,
-.0124,-.0179,
-.012297,-.019096,
-.011989,-.020257,
-.011483,-.021346,
-.010796,-.02233,
-.009949,-.023181,
-.008966,-.023871,
-.007879,-.024381,
-.00672,-.024693,
-.005524,-.0248,
-.0055,-.0248,
0.0,-.0248,
0.0*
%
%ADD48MACRO48*%
%ADD28R,.1X.1051*%
%ADD38R,.1051X.1*%
%ADD18R,.012X.02*%
%ADD39R,.03X.05*%
%ADD25R,.02X.05*%
%ADD34R,.05X.03*%
%ADD13R,.02X.025*%
%ADD11R,.025X.02*%
%ADD31R,0.0X0.0*%
%ADD30R,.022X.052*%
%ADD12R,.04X.035*%
%ADD20R,.055X.04*%
%ADD49R,.04X.055*%
%ADD35R,.071X.044*%
%ADD21R,.092X.051*%
%ADD19R,.02X.02*%
%ADD45R,.086X.022*%
%ADD43R,.0118X.0315*%
%ADD16R,.063X.063*%
%ADD47R,.0315X.0118*%
%ADD42R,.04X.04*%
%ADD27R,.057X.044*%
%ADD37R,.0118X.0335*%
%ADD23R,.044X.057*%
%ADD44R,.089X.023*%
%ADD36R,.0335X.0118*%
%ADD46R,.023X.089*%
%ADD29R,.056X.048*%
%ADD17R,.0531X.0157*%
%ADD22R,.0413X.0276*%
%ADD14R,.0551X.0472*%
%ADD40R,.035X.0299*%
%AMMACRO41*
4,1,32,-.0453,-.0551,
-.0551,-.0453,
-.0551,.0453,
-.054947,.047005,
-.0545,.048658,
-.053774,.050208,
-.052789,.051608,
-.051575,.052816,
-.050171,.053795,
-.048618,.054515,
-.046963,.054954,
-.0453,.0551,
.0453,.0551,
.047005,.054947,
.048658,.0545,
.050208,.053774,
.051608,.052789,
.052816,.051575,
.053795,.050171,
.054515,.048618,
.054954,.046963,
.0551,.0453,
.0551,-.0453,
.054947,-.047005,
.0545,-.048658,
.053774,-.050208,
.052789,-.051608,
.051575,-.052816,
.050171,-.053795,
.048618,-.054515,
.046963,-.054954,
.0453,-.0551,
-.0453,-.0551,
0.0*
%
%ADD41MACRO41*%
%ADD10R,.0299X.035*%
%ADD15R,.0374X.0669*%
%ADD50C,.006*%
G75*
%LPD*%
G75*
G36*
G01X64980Y-28920D02*
X60710D01*
Y-33190D01*
X64980D01*
Y-28920D01*
G37*
G36*
G01Y-33970D02*
X60710D01*
Y-38240D01*
X64980D01*
Y-33970D01*
G37*
G36*
G01X65760Y-33190D02*
X70030D01*
Y-28920D01*
X65760D01*
Y-33190D01*
G37*
G36*
G01Y-38240D02*
X70030D01*
Y-33970D01*
X65760D01*
Y-38240D01*
G37*
G36*
G01X73000Y41460D02*
Y52290D01*
X83830D01*
Y41460D01*
X73000D01*
G37*
G36*
G01X164630Y35390D02*
X171640D01*
Y28380D01*
X164630D01*
Y35390D01*
G37*
G36*
G01X154940D02*
X161950D01*
Y28380D01*
X154940D01*
Y35390D01*
G37*
G36*
G01X164630Y45080D02*
X171640D01*
Y38070D01*
X164630D01*
Y45080D01*
G37*
G36*
G01X154940D02*
X161950D01*
Y38070D01*
X154940D01*
Y45080D01*
G37*
G54D10*
X-1640Y-66290D03*
X-7160D03*
X-1640Y53410D03*
X-7160D03*
X13660Y26230D03*
X8140D03*
X21880D03*
X27400D03*
X22260Y50830D03*
X27780D03*
G54D20*
X14570Y63700D03*
X23230Y59960D03*
Y67440D03*
G54D11*
X-2400Y-70780D03*
X-6400D03*
X-2400Y57900D03*
X-6400D03*
X25850Y-34760D03*
X29850D03*
X47520Y-34990D03*
X45550Y23060D03*
X49550D03*
X45320Y43170D03*
X49320D03*
X41320D03*
X37320D03*
X61820Y-48010D03*
X57820D03*
X51520Y-34990D03*
X62070Y-17230D03*
X66070D03*
Y-20230D03*
X62070D03*
X78720Y-30630D03*
X82720D03*
X78720Y-34380D03*
X82720D03*
X78720Y-41130D03*
X82720D03*
X78720Y-38130D03*
X82720D03*
X78720Y-24630D03*
X82720D03*
X78720Y-27630D03*
X82720D03*
X86200Y11300D03*
X90200D03*
X110040Y39800D03*
X106040D03*
X110040Y42800D03*
X106040D03*
X132920Y43690D03*
X128920D03*
X120920Y46690D03*
X124920D03*
X132920D03*
X128920D03*
X128900Y40100D03*
X132900D03*
X124920Y43690D03*
X120920D03*
X124000Y39800D03*
X120000D03*
X149900Y14300D03*
X140920Y46690D03*
X136920D03*
X140920Y43690D03*
X136920D03*
X153900Y14300D03*
X157900D03*
X161900D03*
X165900D03*
X177900D03*
X173900D03*
X169900D03*
X179000Y67140D03*
X175000D03*
X183000D03*
X175000Y64140D03*
X179000D03*
X191870Y36090D03*
X195870D03*
X191870Y39090D03*
X195870D03*
X191870Y42490D03*
X195870D03*
X187000Y67140D03*
X199400D03*
X203400D03*
G54D21*
X27550Y-64240D03*
Y-53640D03*
G54D12*
X-7550Y-58570D03*
X-1250D03*
X-7550Y-42430D03*
X-1250D03*
X-7550Y29550D03*
X-1250D03*
X-7550Y45690D03*
X-1250D03*
G54D30*
X45260Y52070D03*
X41520D03*
X37780D03*
Y62270D03*
X41520D03*
X45260D03*
G54D40*
X83060Y15360D03*
Y20880D03*
X100600Y-51840D03*
Y-57360D03*
X89040Y15360D03*
Y20880D03*
G54D22*
X31060Y-46970D03*
Y-39490D03*
X23300Y-43230D03*
G54D31*
X65370Y-33580D03*
G54D13*
X-4400Y-35620D03*
Y-31620D03*
X-1400D03*
Y-35620D03*
X-7400Y-31620D03*
Y-35620D03*
X-10900Y18600D03*
Y22600D03*
X8000Y62600D03*
Y66600D03*
X30200D03*
Y62600D03*
X49620Y55070D03*
Y51070D03*
Y59070D03*
Y63070D03*
X52020Y-38490D03*
Y-42490D03*
X76240Y-15730D03*
Y-19730D03*
X69640Y-15730D03*
Y-19730D03*
X72640D03*
Y-15730D03*
X86630Y-40220D03*
Y-36220D03*
X98170Y8020D03*
Y12020D03*
X101170Y8020D03*
Y12020D03*
X116490Y18920D03*
X107490D03*
X113490D03*
X116490Y22920D03*
X107490D03*
X113490D03*
X116400Y42600D03*
Y46600D03*
X131490Y18920D03*
X128490D03*
X125490D03*
X122490D03*
X119490D03*
X131490Y22920D03*
X128490D03*
X125490D03*
X122490D03*
X119490D03*
X143400Y54250D03*
X146400Y62250D03*
Y66250D03*
X143400Y58250D03*
Y66250D03*
Y62250D03*
X149400Y66250D03*
Y62250D03*
X152400Y66250D03*
Y62250D03*
X186200Y19500D03*
Y15500D03*
X195660Y62700D03*
Y66700D03*
G54D50*
G01X-12440Y-94820D02*
X224850D01*
G03X229850Y-89820I0J5000D01*
G01Y76940D01*
G03X224850Y81940I-5000J0D01*
G01X-12440D01*
G03X-17440Y76940I0J-5000D01*
G01Y-89820D01*
G03X-12440Y-94820I5000J0D01*
G01X229850Y57060D02*
Y-74940D01*
G54D41*
X78420Y46880D03*
G54D14*
X-710Y-19040D03*
Y6160D03*
G54D23*
X26240Y-29000D03*
X33340D03*
G54D32*
X64390Y-41060D03*
X62420D03*
X60450D03*
Y-26100D03*
X62420D03*
X64390D03*
X70290Y-41060D03*
X68320D03*
X66350D03*
Y-26100D03*
X68320D03*
X70290D03*
G54D15*
X-10550Y-19630D03*
Y6750D03*
G54D42*
X100550Y-44980D03*
Y-34320D03*
Y-12420D03*
Y-23080D03*
G54D24*
X20990Y-6030D03*
X37330D03*
G54D33*
X57890Y-38500D03*
Y-36530D03*
Y-34560D03*
Y-32600D03*
Y-30630D03*
Y-28660D03*
X72850Y-30630D03*
Y-32600D03*
Y-34560D03*
Y-36530D03*
Y-38500D03*
Y-28660D03*
G54D16*
X-10550Y-11160D03*
Y-1720D03*
G54D43*
X98690Y16950D03*
X96720D03*
Y20890D03*
X98690D03*
X102620Y16950D03*
X100650D03*
Y20890D03*
X102620D03*
X110990Y30130D03*
X109020D03*
X107060D03*
X105090D03*
Y34070D03*
X107060D03*
X109020D03*
X110990D03*
X116900Y30130D03*
X114930D03*
Y34070D03*
X116900D03*
X120830Y30130D03*
X118860D03*
Y34070D03*
X120830D03*
X130670Y30130D03*
X128700D03*
X126740D03*
X124770D03*
Y34070D03*
X126740D03*
X128700D03*
X130670D03*
X140510Y30130D03*
X138540D03*
X136580D03*
X134610D03*
Y34070D03*
X136580D03*
X138540D03*
X140510D03*
G54D34*
X51670Y-21490D03*
G54D25*
X20940Y32930D03*
X24640D03*
X28340D03*
Y43730D03*
X20940D03*
G54D17*
X0Y-1320D03*
Y-3880D03*
Y-6440D03*
Y-9000D03*
Y-11560D03*
G54D44*
X119800Y-63860D03*
Y-58860D03*
Y-53860D03*
Y-48860D03*
Y-33860D03*
Y-43860D03*
Y-38860D03*
Y-28860D03*
Y-23860D03*
Y-18860D03*
Y-13860D03*
X183200Y-63860D03*
Y-48860D03*
Y-53860D03*
Y-58860D03*
Y-33860D03*
Y-38860D03*
Y-43860D03*
Y-13860D03*
Y-18860D03*
Y-23860D03*
Y-28860D03*
G54D35*
X62490Y-7810D03*
Y3990D03*
X82010Y-63050D03*
Y-74850D03*
X72910Y-63050D03*
Y-74850D03*
X80690Y-7810D03*
Y3990D03*
X71590Y-7810D03*
Y3990D03*
X100210Y-63050D03*
Y-74850D03*
X91110Y-63050D03*
Y-74850D03*
X89790Y-7810D03*
Y3990D03*
G54D26*
X50480Y-74220D03*
Y-57880D03*
G54D36*
X60700Y32120D03*
Y34080D03*
Y36050D03*
Y38020D03*
Y39990D03*
Y41960D03*
Y43930D03*
Y45900D03*
Y47860D03*
Y49830D03*
Y51800D03*
Y53770D03*
Y55740D03*
Y57710D03*
Y59680D03*
Y61640D03*
X96140Y38020D03*
Y36050D03*
Y34080D03*
Y32120D03*
Y53770D03*
Y51800D03*
Y49830D03*
Y47860D03*
Y45900D03*
Y43930D03*
Y41960D03*
Y39990D03*
Y61640D03*
Y59680D03*
Y57710D03*
Y55740D03*
X149510Y25900D03*
Y27870D03*
Y29840D03*
Y31810D03*
Y33780D03*
Y35750D03*
Y37710D03*
Y39680D03*
Y41650D03*
Y43620D03*
Y45590D03*
Y47560D03*
X177070Y37710D03*
Y35750D03*
Y33780D03*
Y31810D03*
Y29840D03*
Y27870D03*
Y25900D03*
Y47560D03*
Y45590D03*
Y43620D03*
Y41650D03*
Y39680D03*
G54D27*
X41960Y-40850D03*
Y-33750D03*
G54D45*
X114050Y52660D03*
Y57660D03*
Y62660D03*
Y67660D03*
X132650Y52660D03*
Y67660D03*
Y62660D03*
Y57660D03*
G54D18*
X-6530Y18870D03*
X-4560D03*
X-2590D03*
Y22330D03*
X-4560D03*
X-6530D03*
G54D46*
X131500Y-70560D03*
X126500D03*
Y-7160D03*
X131500D03*
X146500Y-70560D03*
X141500D03*
X136500D03*
Y-7160D03*
X141500D03*
X146500D03*
X166500Y-70560D03*
X161500D03*
X156500D03*
X151500D03*
Y-7160D03*
X156500D03*
X161500D03*
X166500D03*
X176500Y-70560D03*
X171500D03*
Y-7160D03*
X176500D03*
G54D37*
X65620Y29160D03*
X63660D03*
Y64600D03*
X65620D03*
X81370Y29160D03*
X79400D03*
X77440D03*
X75470D03*
X73500D03*
X71530D03*
X69560D03*
X67590D03*
Y64600D03*
X69560D03*
X71530D03*
X73500D03*
X75470D03*
X77440D03*
X79400D03*
X81370D03*
X93180Y29160D03*
X91220D03*
X89250D03*
X87280D03*
X85310D03*
X83340D03*
Y64600D03*
X85310D03*
X87280D03*
X89250D03*
X91220D03*
X93180D03*
X166240Y22950D03*
X164270D03*
X162310D03*
X160340D03*
X158370D03*
X156400D03*
X154430D03*
X152460D03*
Y50510D03*
X154430D03*
X156400D03*
X158370D03*
X160340D03*
X162310D03*
X164270D03*
X166240D03*
X174120Y22950D03*
X172150D03*
X170180D03*
X168210D03*
Y50510D03*
X170180D03*
X172150D03*
X174120D03*
G54D19*
X4190Y51730D03*
Y57730D03*
G54D28*
X51670Y-12230D03*
G54D29*
X47750Y30720D03*
X39090D03*
X47750Y37020D03*
X39090D03*
X158870Y65190D03*
X167530D03*
X158870Y58890D03*
X167530D03*
G54D47*
X136950Y15970D03*
Y17940D03*
Y19900D03*
X140890D03*
Y17940D03*
Y15970D03*
X136950Y21870D03*
X140890D03*
G54D38*
X71760Y-53030D03*
G54D39*
X81020D03*
G54D48*
X174040Y58780D03*
X179950D03*
G54D49*
X191300Y55840D03*
X187560Y47180D03*
X195040D03*
M02*
